<?xml version="1.0" standalone="no"?>
<!DOCTYPE svg PUBLIC "-//W3C//DTD SVG 1.1//EN" "http://www.w3.org/Graphics/SVG/1.1/DTD/svg11.dtd" >
<svg xmlns="http://www.w3.org/2000/svg" xmlns:xlink="http://www.w3.org/1999/xlink" version="1.1">
<metadata>
Created by FontForge 20161116 at Sun Sep 19 11:57:18 2004
 By Jimmy Wärting
Copyright 1989-2004 Bitstream Inc. Localization: copyright 2000-2004 Kuba Tatarkiewicz. 
</metadata>
<defs>
<font id="VAGRoundedEU-Normal" horiz-adv-x="602" >
  <font-face 
    font-family="VAGRoundedEU"
    font-weight="400"
    font-stretch="normal"
    units-per-em="1000"
    panose-1="0 0 4 0 0 0 0 0 0 0"
    ascent="800"
    descent="-200"
    x-height="532"
    cap-height="720"
    bbox="-153 -335 1032 956"
    underline-thickness="102"
    underline-position="-110"
    unicode-range="U+0020-F6C2"
  />
<missing-glyph horiz-adv-x="324" 
 />
    <glyph glyph-name="fi" unicode="fi" 
d="M555 672q0 -38 -26.5 -64.5t-64.5 -26.5t-64.5 26.5t-26.5 64.5t27 64.5t64 26.5q38 0 64.5 -26.5t26.5 -64.5zM543 108q0 -115 -79 -115t-79 115v317q0 114 79 114t79 -114v-317zM359 455q0 -68 -100 -68h-16v-279q0 -115 -78 -115q-79 0 -79 115v279h-6
q-42 0 -65.5 18.5t-23.5 49.5q0 65 95 70v14q-1 9 -1 13q0 103 42.5 157t121.5 54q48 0 76 -21.5t28 -57.5q0 -54 -72 -65q-24 -4 -29.5 -14t-5.5 -45v-35h14q99 0 99 -70z" />
    <glyph glyph-name="fl" unicode="fl" 
d="M543 108q0 -115 -79 -115t-79 115v540q0 115 79 115t79 -115v-540zM359 455q0 -68 -100 -68h-16v-279q0 -115 -78 -115q-79 0 -79 115v279h-6q-42 0 -65.5 18.5t-23.5 49.5q0 65 95 70v14q-1 9 -1 13q0 103 42.5 157t121.5 54q48 0 76 -21.5t28 -57.5q0 -54 -72 -65
q-24 -4 -29.5 -14t-5.5 -45v-35h14q99 0 99 -70z" />
    <glyph glyph-name=".notdef" horiz-adv-x="324" 
 />
    <glyph glyph-name=".null" horiz-adv-x="324" 
 />
    <glyph glyph-name="nonmarkingreturn" horiz-adv-x="324" 
 />
    <glyph glyph-name="space" unicode=" " horiz-adv-x="324" 
 />
    <glyph glyph-name="exclam" unicode="!" horiz-adv-x="296" 
d="M226 323q0 -115 -78 -115t-78 115v294q0 114 78 114t78 -114v-294zM235 67q0 -36 -25.5 -62t-61.5 -26t-61.5 25.5t-25.5 62.5t25.5 62t61.5 25t61.5 -25.5t25.5 -61.5z" />
    <glyph glyph-name="quotedbl" unicode="&#x22;" horiz-adv-x="331" 
d="M292 429h-94v273h94v-273zM133 429h-94v273h94v-273z" />
    <glyph glyph-name="numbersign" unicode="#" horiz-adv-x="769" 
d="M747 512l-36 -98h-137l-41 -118h142l-35 -98h-142l-72 -203h-108l72 203h-119l-73 -203h-107l71 203h-140l37 98h138l42 118h-146l36 98h145l72 203h108l-71 -203h118l72 203h108l-72 -203h138zM468 414h-122l-43 -118h123z" />
    <glyph glyph-name="dollar" unicode="$" horiz-adv-x="551" 
d="M531 220q0 -92 -61 -158.5t-160 -77.5v-66q0 -55 -40 -55t-40 55v63q-97 9 -151 41t-54 73q0 33 21.5 53t58.5 20q18 0 75.5 -18t97.5 -18q34 0 57 21t23 52q0 39 -33 62q-24 16 -91 36q-107 32 -152 75q-49 46 -49 127q0 83 52.5 142.5t144.5 78.5v50q0 54 40 54t40 -54
v-46q83 -7 129 -35.5t46 -69.5q0 -69 -73 -69q-19 0 -62 12.5t-65 12.5q-37 0 -58 -17t-21 -44q0 -34 34 -51q8 -4 95 -33q196 -65 196 -216z" />
    <glyph glyph-name="percent" unicode="%" horiz-adv-x="699" 
d="M316 561q0 -66 -45 -112.5t-108 -46.5q-64 0 -108.5 46t-44.5 113t45 113t108 46t108 -46.5t45 -112.5zM585 669q0 -23 -17 -53l-329 -576q-33 -57 -70 -57q-24 0 -40.5 16.5t-16.5 41.5q0 24 16 52l330 576q32 56 70 56q24 0 40.5 -16t16.5 -40zM689 150
q0 -66 -45 -112.5t-108 -46.5q-64 0 -108.5 46t-44.5 113t45 113t108 46t108 -46.5t45 -112.5zM215 561q0 22 -15.5 37.5t-36.5 15.5t-36 -15.5t-15 -37.5t15 -37.5t36 -15.5t36.5 15.5t15.5 37.5zM587 150q0 22 -15 37.5t-36 15.5t-36 -15.5t-15 -37.5t15 -37.5t36 -15.5
t36 15.5t15 37.5z" />
    <glyph glyph-name="ampersand" unicode="&#x26;" horiz-adv-x="685" 
d="M681 289q0 -46 -90 -130q62 -72 62 -106q0 -29 -19.5 -48.5t-48.5 -19.5q-39 0 -102 74q-88 -80 -225 -80q-104 0 -171 63t-67 157q0 138 164 219q-68 73 -68 146q0 71 57 119t149 48t149 -50t57 -124q0 -109 -121 -182l97 -115q44 53 63 71q28 25 53 25t43 -19.5
t18 -47.5zM399 557q0 23 -21 42t-49 19q-27 0 -46 -17t-19 -41q0 -38 56 -89q79 33 79 86zM400 163l-131 150q-88 -41 -88 -111q0 -40 26.5 -66.5t69.5 -26.5q62 0 123 54z" />
    <glyph glyph-name="quotesingle" unicode="'" horiz-adv-x="172" 
d="M133 429h-94v273h94v-273z" />
    <glyph glyph-name="parenleft" unicode="(" horiz-adv-x="324" 
d="M278 -57q0 -62 -62 -62q-46 0 -76 71q-70 166 -70 373q0 189 63 353q35 91 83 91q62 0 62 -62q0 -16 -19 -75q-23 -74 -34 -126q-19 -89 -19 -181q0 -93 19 -182q11 -52 34 -126q19 -58 19 -74z" />
    <glyph glyph-name="parenright" unicode=")" horiz-adv-x="324" 
d="M254 325q0 -187 -63 -353q-35 -91 -83 -91q-62 0 -62 62q0 17 19 75q24 75 34 126q19 90 19 181q0 92 -19 182q-11 52 -34 126q-19 58 -19 74q0 62 62 62q46 0 76 -71q70 -165 70 -373z" />
    <glyph glyph-name="asterisk" unicode="*" horiz-adv-x="500" 
d="M422 471q0 -20 -13.5 -35t-32.5 -15t-41 15q-23 19 -46 37q1 -11 7 -38q4 -21 4 -32q0 -54 -50 -54q-49 0 -49 54q0 10 4 32q5 26 6 38q-22 -18 -44.5 -35t-42.5 -17q-19 0 -32.5 15t-13.5 35q0 26 25 41q14 8 70 28q-56 20 -70 28q-25 15 -25 41q0 20 13.5 35t32.5 15
q20 0 42 -15q23 -18 45 -36q-1 12 -6 38q-4 21 -4 31q0 54 49 54q50 0 50 -53q0 -12 -4 -33q-6 -26 -7 -37q42 34 46 36q21 15 41 15q19 0 32.5 -15t13.5 -35q0 -25 -25 -41q-16 -10 -70 -28q53 -18 70 -28q25 -16 25 -41z" />
    <glyph glyph-name="plus" unicode="+" horiz-adv-x="833" 
d="M709 250h-243v-250h-99v250h-243v97h243v249h99v-249h243v-97z" />
    <glyph glyph-name="comma" unicode="," horiz-adv-x="231" 
d="M196 100q0 -22 -16 -51l-79 -144q-30 -55 -70 -55q-27 0 -46.5 18t-19.5 45q0 21 16 50l79 144q30 55 70 55q27 0 46.5 -17.5t19.5 -44.5z" />
    <glyph glyph-name="hyphen" unicode="-" horiz-adv-x="428" 
d="M394 277q0 -68 -79 -68h-203q-78 0 -78 69q0 68 79 68h203q78 0 78 -69z" />
    <glyph glyph-name="period" unicode="." horiz-adv-x="231" 
d="M206 84q0 -38 -26 -64.5t-64 -26.5t-64.5 26.5t-26.5 64.5t27 64.5t64 26.5t63.5 -26.5t26.5 -64.5z" />
    <glyph glyph-name="slash" unicode="/" horiz-adv-x="370" 
d="M416 671q0 -21 -15 -49l-310 -587q-31 -58 -70 -58q-27 0 -46.5 18t-19.5 45q0 22 14 48l311 587q31 58 70 58q27 0 46.5 -17.5t19.5 -44.5z" />
    <glyph glyph-name="zero" unicode="0" horiz-adv-x="648" 
d="M621 355q0 -175 -81.5 -275.5t-215.5 -100.5t-215 100.5t-81 275.5t82 277q80 99 214 99t215 -99q82 -102 82 -277zM453 356q0 107 -35 168q-35 58 -93 58t-92 -58q-36 -61 -36 -168q0 -108 34.5 -167.5t93.5 -59.5t93.5 59.5t34.5 167.5z" />
    <glyph glyph-name="one" unicode="1" horiz-adv-x="359" 
d="M275 108q0 -115 -82 -115t-82 115v453h-15q-109 0 -109 75t115 75h81q50 0 71 -27t21 -88v-488z" />
    <glyph glyph-name="two" unicode="2" horiz-adv-x="523" 
d="M503 75q0 -75 -115 -75h-287q-97 0 -97 75q0 26 35 69q9 12 94 106q96 105 133 157q47 66 47 105q0 30 -17.5 49t-43.5 19q-50 0 -77 -73q-16 -45 -31 -62q-18 -20 -48 -20q-35 0 -57.5 23t-22.5 60q0 69 50 131q74 92 191 92q102 0 165 -60t63 -151q0 -79 -65 -170
q-49 -69 -181 -200h149q115 0 115 -75z" />
    <glyph glyph-name="three" unicode="3" horiz-adv-x="542" 
d="M503 209q0 -97 -72 -163.5t-182 -66.5q-89 0 -160 55q-87 67 -87 142q0 34 19.5 55.5t51.5 21.5q39 0 72 -44.5t44 -54.5q26 -24 62 -24t61 26t25 65q0 40 -26 59q-22 16 -77 25q-37 6 -52.5 22t-15.5 50q0 31 15.5 46.5t52.5 24.5q75 17 75 73q0 61 -59 61
q-32 0 -74 -39q-33 -31 -40 -35q-21 -15 -46 -15q-27 0 -47 19.5t-20 48.5q0 62 69.5 116t160.5 54q92 0 152.5 -56.5t60.5 -137.5q0 -87 -81 -146q118 -61 118 -182z" />
    <glyph glyph-name="four" unicode="4" horiz-adv-x="623" 
d="M612 228q0 -75 -97 -75h-15v-75q0 -87 -79 -87q-69 0 -69 92v70h-251q-98 0 -98 63q0 33 38 93l212 335q49 77 120 77q58 0 92.5 -42t34.5 -122v-261q18 2 24 2q41 0 64.5 -19.5t23.5 -50.5zM352 296v272l-167 -272h167z" />
    <glyph glyph-name="five" unicode="5" horiz-adv-x="514" 
d="M484 249q0 -116 -75 -193t-194 -77q-93 0 -160 43.5t-67 98.5q0 31 19 51.5t48 20.5q21 0 70.5 -30.5t87.5 -30.5q42 0 71.5 31.5t29.5 76.5q0 47 -24.5 73.5t-65.5 26.5q-21 0 -60.5 -12.5t-58.5 -12.5q-63 0 -63 70q0 15 5 55l23 185q7 53 31 71q21 15 75 15h197
q104 0 104 -75q0 -74 -98 -74h-167l-11 -86q38 9 69 9q91 0 152.5 -66.5t61.5 -169.5z" />
    <glyph glyph-name="six" unicode="6" horiz-adv-x="560" 
d="M538 230q0 -104 -76 -177.5t-190 -73.5q-109 0 -179.5 72t-70.5 185q0 155 166 361q110 136 160 136q31 0 54.5 -22.5t23.5 -52.5q0 -29 -46 -81q-75 -83 -102 -123q38 5 57 5q84 0 143.5 -65.5t59.5 -163.5zM371 228q0 41 -27 69t-65 28t-65 -28t-27 -69t27 -70t65 -29
t65 29t27 70z" />
    <glyph glyph-name="seven" unicode="7" horiz-adv-x="470" 
d="M467 622q0 -25 -16 -60l-235 -507q-35 -76 -85 -76q-36 0 -60 22.5t-24 56.5q0 26 22 71l210 433h-184q-57 0 -81 14q-28 16 -28 58q0 77 97 77h266q118 0 118 -89z" />
    <glyph glyph-name="eight" unicode="8" horiz-adv-x="546" 
d="M531 211q0 -98 -71 -164q-74 -68 -187 -68t-185.5 67t-72.5 165q0 118 95 178q-65 57 -65 142t65 142.5t163 57.5t163 -57.5t65 -142.5t-65 -142q95 -62 95 -178zM347 516q0 32 -21.5 54t-52.5 22q-30 0 -51.5 -22.5t-21.5 -53.5q0 -30 22 -52.5t51 -22.5q31 0 52.5 22
t21.5 53zM369 226q0 43 -28 73t-68 30q-39 0 -67.5 -30t-28.5 -73q0 -42 28.5 -72t67.5 -30t67.5 29.5t28.5 72.5z" />
    <glyph glyph-name="nine" unicode="9" horiz-adv-x="560" 
d="M537 476q0 -156 -166 -362q-110 -136 -159 -136q-31 0 -54.5 23t-23.5 53q0 29 46 81q75 83 102 123q-40 -5 -52 -5q-88 0 -148 65t-60 160q0 107 76 180.5t190 73.5q109 0 179 -71.5t70 -184.5zM373 484q0 41 -27 69.5t-65 28.5t-65 -28.5t-27 -69.5q0 -42 27 -70
t65 -28t65 28.5t27 69.5z" />
    <glyph glyph-name="colon" unicode=":" horiz-adv-x="231" 
d="M206 387q0 -38 -26 -64.5t-64 -26.5t-64.5 26.5t-26.5 64.5q0 37 26.5 63.5t64.5 26.5t64 -26t26 -64zM206 84q0 -38 -26 -64.5t-64 -26.5t-64.5 26.5t-26.5 64.5t27 64.5t64 26.5t63.5 -26.5t26.5 -64.5z" />
    <glyph glyph-name="semicolon" unicode=";" horiz-adv-x="231" 
d="M206 387q0 -38 -26 -64.5t-64 -26.5t-64.5 26.5t-26.5 64.5q0 37 26.5 63.5t64.5 26.5t64 -26t26 -64zM196 100q0 -22 -16 -51l-79 -144q-30 -55 -70 -55q-27 0 -46.5 18t-19.5 45q0 21 16 50l79 144q30 55 70 55q27 0 46.5 -17.5t19.5 -44.5z" />
    <glyph glyph-name="less" unicode="&#x3c;" horiz-adv-x="833" 
d="M704 13l-575 237v97l575 236v-107l-436 -178l436 -178v-107z" />
    <glyph glyph-name="equal" unicode="=" horiz-adv-x="833" 
d="M709 355h-585v97h585v-97zM709 145h-585v97h585v-97z" />
    <glyph glyph-name="greater" unicode="&#x3e;" horiz-adv-x="833" 
d="M704 250l-575 -237v107l437 178l-437 178v107l575 -236v-97z" />
    <glyph glyph-name="question" unicode="?" horiz-adv-x="509" 
d="M483 505q0 -81 -47 -138t-128 -72v-3q0 -47 -21 -72.5t-57 -25.5q-76 0 -76 91v63q0 49 34 64q22 5 69 20q56 23 56 80q0 27 -20.5 46.5t-49.5 19.5q-48 0 -92 -47q-30 -33 -38 -38q-20 -17 -43 -17q-28 0 -46.5 20.5t-18.5 52.5q0 66 67 120q71 59 171 59q105 0 174 -66
q66 -64 66 -157zM318 67q0 -36 -25.5 -62t-61.5 -26t-62 25.5t-26 62.5q0 36 26 61.5t62 25.5t61.5 -25.5t25.5 -61.5z" />
    <glyph glyph-name="at" unicode="@" horiz-adv-x="1000" 
d="M957 373q0 -166 -124 -265q-70 -56 -158 -56q-103 0 -105 81q-52 -80 -145 -80q-158 0 -158 166q0 118 68.5 196.5t167.5 78.5q78 0 115 -64l26 48h87l-72 -292q-3 -12 -3 -20q0 -34 46 -34q40 0 79 37q85 80 85 206q0 116 -88 191q-91 77 -236 77q-172 0 -288 -106
q-120 -110 -120 -282q0 -150 101 -239.5t270 -89.5q162 0 295 93l40 -57q-151 -113 -333 -113q-190 0 -312 94q-151 116 -151 311q0 167 101 290q146 179 400 179q171 0 281 -85q131 -101 131 -265zM594 342q-12 81 -85 81q-55 0 -96.5 -60.5t-41.5 -145.5q0 -92 77 -92
q40 0 74 30t46 81z" />
    <glyph glyph-name="A" unicode="A" horiz-adv-x="625" 
d="M627 65q0 -34 -23 -55t-57 -21q-61 0 -85 79l-20 66h-263l-24 -72q-24 -72 -78 -72q-34 0 -55.5 21.5t-21.5 55.5q0 25 8 47l185 502q39 105 124 105q86 0 119 -94l180 -511q11 -31 11 -51zM395 283l-82 264l-88 -264h170z" />
    <glyph glyph-name="B" unicode="B" horiz-adv-x="616" 
d="M586 214q0 -99 -65.5 -156.5t-187.5 -57.5h-160q-64 0 -87 22t-23 80v495q0 62 23.5 88t88.5 26h133q107 0 166 -48q56 -47 56 -129q0 -102 -88 -140q144 -36 144 -180zM373 503q0 32 -22 51t-60 19h-66v-139h68q36 0 58 19.5t22 49.5zM416 219q0 80 -113 80h-78v-160h81
q110 0 110 80z" />
    <glyph glyph-name="C" unicode="C" 
d="M600 102q0 -49 -62 -85q-65 -38 -162 -38q-156 0 -252 102.5t-96 273.5q0 168 102 274q98 102 248 102q91 0 154 -36q59 -33 59 -78q0 -29 -20.5 -51t-48.5 -22q-20 0 -67 14t-76 14q-79 0 -127 -59.5t-48 -161.5q0 -99 49 -157t131 -58q38 0 87 18.5t64 18.5
q25 0 45 -21.5t20 -49.5z" />
    <glyph glyph-name="D" unicode="D" horiz-adv-x="697" 
d="M668 363q0 -167 -92.5 -265t-254.5 -98h-148q-64 0 -87 22t-23 80v495q0 62 23.5 88t88.5 26h130q133 0 212 -50q70 -45 110.5 -124t40.5 -174zM492 364q0 196 -196 196h-71v-410h74q193 0 193 214z" />
    <glyph glyph-name="E" unicode="E" horiz-adv-x="505" 
d="M477 75q0 -75 -115 -75h-189q-64 0 -87 22t-23 80v495q0 62 23.5 88t88.5 26h182q115 0 115 -76q0 -75 -115 -75h-132v-127h114q115 0 115 -75t-115 -75h-114v-133h137q115 0 115 -75z" />
    <glyph glyph-name="F" unicode="F" horiz-adv-x="488" 
d="M472 635q0 -75 -115 -75h-132v-127h114q115 0 115 -75t-115 -75h-114v-177q0 -115 -81 -115t-81 115v491q0 62 23.5 88t88.5 26h182q115 0 115 -76z" />
    <glyph glyph-name="G" unicode="G" horiz-adv-x="722" 
d="M700 320q0 -150 -91 -245.5t-241 -95.5q-149 0 -244.5 104.5t-95.5 272.5q0 173 97.5 274.5t261.5 101.5q113 0 190 -48q72 -44 72 -100q0 -30 -20.5 -53t-48.5 -23q-18 0 -80.5 34.5t-117.5 34.5q-82 0 -130.5 -58t-48.5 -160q0 -104 49 -164.5t129 -60.5
q64 0 103.5 38.5t40.5 104.5h-57q-114 0 -114 75q0 76 114 76h119q60 0 86.5 -25t26.5 -83z" />
    <glyph glyph-name="H" unicode="H" horiz-adv-x="748" 
d="M685 106q0 -115 -81 -115t-81 115v181h-298v-181q0 -115 -81 -115t-81 115v499q0 115 81 115t81 -115v-168h298v168q0 115 81 115t81 -115v-499z" />
    <glyph glyph-name="I" unicode="I" horiz-adv-x="296" 
d="M229 106q0 -115 -81 -115t-81 115v499q0 115 81 115t81 -115v-499z" />
    <glyph glyph-name="J" unicode="J" horiz-adv-x="448" 
d="M386 217q0 -236 -208 -236q-81 0 -133 34.5t-52 82.5q0 33 21 54t54 21q21 0 54 -18t49 -18q37 0 48 51q5 24 5 81v336q0 115 81 115t81 -115v-388z" />
    <glyph glyph-name="K" unicode="K" horiz-adv-x="616" 
d="M630 66q0 -31 -23 -53t-52 -22q-35 0 -87 57l-243 268v-210q0 -115 -81 -115t-81 115v499q0 115 81 115t81 -115v-176l206 233q50 56 84 56q29 0 51 -22t22 -52q0 -37 -41 -80l-175 -182l217 -236q41 -45 41 -80z" />
    <glyph glyph-name="L" unicode="L" horiz-adv-x="461" 
d="M477 75q0 -75 -115 -75h-189q-64 0 -87 22t-23 80v503q0 115 81 115t81 -115v-455h137q115 0 115 -75z" />
    <glyph glyph-name="M" unicode="M" horiz-adv-x="863" 
d="M848 75q0 -39 -22.5 -62t-59.5 -23q-69 0 -80 95l-51 425q-48 -205 -58 -248q-52 -208 -74 -243q-18 -29 -68 -29q-40 0 -62 18.5t-33 63.5l-105 438l-56 -415q-14 -104 -85 -104q-35 0 -57 22.5t-22 61.5q0 16 6 49l87 485q10 58 35 84.5t75 26.5q89 0 113 -96l108 -425
l101 426q23 95 111 95q52 0 78 -28t36 -89l79 -489q4 -25 4 -39z" />
    <glyph glyph-name="N" unicode="N" horiz-adv-x="748" 
d="M685 88q0 -101 -74 -101q-48 0 -93 59l-293 387v-327q0 -115 -81 -115t-81 115v505q0 108 75 108q47 0 86 -52l299 -395v333q0 115 81 115t81 -115v-517z" />
    <glyph glyph-name="O" unicode="O" horiz-adv-x="755" 
d="M727 355q0 -169 -96.5 -272.5t-253.5 -103.5t-253 103.5t-96 272.5t96.5 272.5t252.5 103.5t253 -103.5t97 -272.5zM550 353q0 104 -47.5 164t-125.5 60t-125.5 -60t-47.5 -164q0 -100 48 -159.5t125 -59.5t125 59.5t48 159.5z" />
    <glyph glyph-name="P" unicode="P" horiz-adv-x="606" 
d="M581 469q0 -113 -65 -177t-182 -64h-109v-122q0 -115 -81 -115t-81 115v491q0 62 23.5 88t88.5 26h146q121 0 190.5 -65.5t69.5 -176.5zM406 469q0 93 -111 93h-70v-187h70q111 0 111 94z" />
    <glyph glyph-name="Q" unicode="Q" horiz-adv-x="755" 
d="M747 10q0 -28 -20.5 -49t-48.5 -21q-35 0 -71 33l-54 50q-71 -44 -176 -44q-157 0 -253 103.5t-96 272.5t96.5 272.5t252.5 103.5t253 -103.5t97 -272.5q0 -128 -65 -229l50 -46q35 -32 35 -70zM550 353q0 104 -47.5 164t-125.5 60t-125.5 -60t-47.5 -164q0 -101 48 -160
t127 -59q26 0 52 10q-45 39 -45 74q0 28 18 47t44 19q32 0 81 -47q21 57 21 116z" />
    <glyph glyph-name="R" unicode="R" horiz-adv-x="597" 
d="M578 62q0 -32 -22 -54t-55 -22q-41 0 -87 58l-189 237v-175q0 -115 -81 -115t-81 115v491q0 62 23.5 88t88.5 26h126q129 0 200 -60.5t71 -161.5q0 -76 -45 -127.5t-125 -64.5l128 -142q48 -53 48 -93zM403 477q0 85 -101 85h-77v-173h75q103 0 103 88z" />
    <glyph glyph-name="S" unicode="S" horiz-adv-x="551" 
d="M531 220q0 -105 -75 -172t-201 -67q-97 0 -163.5 34.5t-66.5 79.5q0 33 21.5 53t58.5 20q18 0 75.5 -18t97.5 -18q34 0 57 21t23 52q0 39 -33 62q-24 16 -91 36q-107 32 -152 75q-49 46 -49 127q0 98 71 161.5t187 63.5q86 0 140 -30.5t54 -74.5q0 -69 -73 -69
q-19 0 -62 12.5t-65 12.5q-37 0 -58 -17t-21 -44q0 -34 34 -51q8 -4 95 -33q196 -65 196 -216z" />
    <glyph glyph-name="T" unicode="T" horiz-adv-x="472" 
d="M492 635q0 -75 -115 -75h-60v-454q0 -115 -81 -115t-81 115v454h-60q-115 0 -115 75q0 76 115 76h282q115 0 115 -76z" />
    <glyph glyph-name="U" unicode="U" horiz-adv-x="736" 
d="M673 305q0 -157 -81.5 -241.5t-223.5 -84.5t-222 84q-83 85 -83 242v300q0 115 81 115t81 -115v-282q0 -189 143 -189t143 189v282q0 115 81 115t81 -115v-300z" />
    <glyph glyph-name="V" unicode="V" horiz-adv-x="576" 
d="M593 643q0 -28 -11 -56l-210 -534q-26 -67 -82 -67q-53 0 -77 61l-217 544q-9 23 -9 46q0 35 24 58t60 23q48 0 74 -70l150 -404l139 398q14 41 31.5 58.5t48.5 17.5q37 0 58 -20t21 -55z" />
    <glyph glyph-name="W" unicode="W" horiz-adv-x="914" 
d="M911 645q0 -24 -6 -48l-124 -499q-15 -60 -35 -81q-24 -26 -77 -26q-84 0 -108 91l-106 406l-100 -397q-25 -100 -117 -100q-47 0 -72.5 25t-38.5 82l-118 514q-2 9 -2 36q0 33 23 53t59 20q65 0 78 -71l85 -452l118 454q18 68 90 68q70 0 88 -70l116 -452l85 441
q16 81 82 81q36 0 58 -21.5t22 -53.5z" />
    <glyph glyph-name="X" unicode="X" horiz-adv-x="579" 
d="M593 61q0 -27 -22 -48.5t-52 -21.5q-45 0 -88 61l-144 202l-143 -201q-43 -61 -85 -61q-29 0 -51 21.5t-22 48.5q0 32 36 82l173 241l-130 182q-36 50 -36 80q0 31 22 52t57 21q39 0 83 -62l100 -140l102 142q44 61 86 61q27 0 49 -22t22 -48q0 -32 -36 -82l-131 -182
l173 -244q37 -52 37 -82z" />
    <glyph glyph-name="Y" unicode="Y" horiz-adv-x="516" 
d="M544 651q0 -29 -37 -82l-164 -234v-229q0 -115 -81 -115t-81 115v229l-164 232q-36 51 -36 82q0 28 22 49.5t56 21.5q40 0 83 -62l121 -173l123 175q43 61 87 61q27 0 49 -22t22 -48z" />
    <glyph glyph-name="Z" unicode="Z" horiz-adv-x="532" 
d="M548 75q0 -75 -115 -75h-325q-114 0 -114 81q0 38 45 98l290 385h-209q-115 0 -115 73q0 74 115 74h275q139 0 139 -79q0 -35 -47 -99l-283 -383h229q115 0 115 -75z" />
    <glyph glyph-name="bracketleft" unicode="[" horiz-adv-x="324" 
d="M319 -95q0 -53 -78 -53h-72q-64 0 -87.5 22t-23.5 80v684q0 62 23.5 88t88.5 26h72q77 0 77 -53q0 -54 -78 -54h-47v-686h48q77 0 77 -54z" />
    <glyph glyph-name="backslash" unicode="\" horiz-adv-x="370" 
d="M416 40q0 -27 -20 -45t-47 -18q-39 0 -70 58l-310 587q-14 27 -14 49q0 27 19.5 44.5t46.5 17.5q39 0 70 -58l310 -587q15 -28 15 -48z" />
    <glyph glyph-name="bracketright" unicode="]" horiz-adv-x="324" 
d="M266 -46q0 -58 -23 -80t-87 -22h-73q-78 0 -78 53q0 54 77 54h48v686h-47q-78 0 -78 54q0 53 77 53h72q65 0 90 -27q22 -25 22 -87v-684z" />
    <glyph glyph-name="asciicircum" unicode="^" horiz-adv-x="1000" 
d="M796 439h-115l-181 181l-182 -181h-115l235 274h123z" />
    <glyph glyph-name="underscore" unicode="_" horiz-adv-x="500" 
d="M500 -236h-500v100h500v-100z" />
    <glyph glyph-name="grave" unicode="`" horiz-adv-x="500" 
d="M328 632q0 -25 -15 -40t-39 -15q-26 0 -54 31l-76 84q-26 29 -26 54q0 27 18 44.5t45 17.5q34 0 57 -32l73 -100q17 -23 17 -44z" />
    <glyph glyph-name="a" unicode="a" 
d="M547 108q0 -115 -78 -115q-50 0 -75 55q-49 -60 -132 -60q-99 0 -169 78.5t-70 199.5q0 119 71.5 199t173.5 80q79 0 126 -56q28 50 75 50q78 0 78 -114v-317zM389 268q0 57 -28.5 91.5t-72.5 34.5t-73 -34.5t-29 -91.5q0 -59 29 -94t73 -35t72.5 35.5t28.5 93.5z" />
    <glyph glyph-name="b" unicode="b" 
d="M578 266q0 -115 -72 -195.5t-170 -80.5q-80 0 -128 54q-29 -51 -75 -51q-79 0 -79 115v540q0 115 79 115t79 -115v-144q52 45 124 45q101 0 171.5 -80t70.5 -203zM417 269q0 60 -29.5 97t-74.5 37t-74.5 -36.5t-29.5 -97.5q0 -60 29.5 -96t74.5 -36t74.5 36.5t29.5 95.5z
" />
    <glyph glyph-name="c" unicode="c" horiz-adv-x="475" 
d="M470 445q0 -29 -18.5 -48t-46.5 -19q-12 0 -49 12t-62 12q-48 0 -78.5 -36.5t-30.5 -96.5q0 -62 30.5 -97.5t84.5 -35.5q26 0 62 12t46 12q27 0 44 -20t17 -48q0 -43 -51 -73q-54 -32 -134 -32q-116 0 -188.5 77t-72.5 202q0 124 74.5 202t196.5 78q79 0 127.5 -28
t48.5 -73z" />
    <glyph glyph-name="d" unicode="d" 
d="M547 108q0 -115 -78 -115q-47 0 -75 51q-49 -54 -128 -54q-98 0 -169 80q-74 82 -74 201q0 118 71.5 198t171.5 80q72 0 124 -45v144q0 115 79 115q78 0 78 -115v-540zM392 269q0 61 -29 97.5t-74 36.5t-74.5 -37t-29.5 -97q0 -59 29.5 -95.5t74.5 -36.5t74 36t29 96z
" />
    <glyph glyph-name="e" unicode="e" horiz-adv-x="560" 
d="M545 286q0 -40 -21 -54q-16 -10 -57 -10h-282q11 -94 119 -94q45 0 99 25.5t67 25.5q28 0 45.5 -17t17.5 -44q0 -49 -67 -89q-71 -43 -170 -43q-117 0 -195 79.5t-78 199.5q0 121 76 201.5t189 80.5q111 0 184 -76.5t73 -184.5zM391 325q-3 41 -32.5 67.5t-69.5 26.5
t-69 -25.5t-37 -68.5h208z" />
    <glyph glyph-name="f" unicode="f" horiz-adv-x="351" 
d="M369 455q0 -68 -100 -68h-26v-279q0 -115 -78 -115q-79 0 -79 115v279h-6q-42 0 -65.5 18.5t-23.5 49.5q0 65 95 70v14q-1 9 -1 13q0 103 42.5 157t121.5 54q48 0 76 -21.5t28 -57.5q0 -54 -72 -65q-24 -4 -29.5 -14t-5.5 -45v-35h23q100 0 100 -70z" />
    <glyph glyph-name="g" unicode="g" horiz-adv-x="597" 
d="M543 108q0 -156 -37 -218q-71 -118 -240 -118q-105 0 -168 33.5t-63 81.5q0 30 19.5 49.5t48.5 19.5q14 0 68 -21t101 -21q58 0 90.5 34.5t32.5 98.5v9q-1 6 -1 10q-51 -74 -143 -74q-95 0 -160 77q-68 79 -68 197q0 119 71.5 199t173.5 80q79 0 126 -56q27 50 70 50
q79 0 79 -114v-317zM393 266q0 58 -29.5 93.5t-74.5 35.5q-44 0 -73.5 -35.5t-29.5 -93.5q0 -60 29 -96t74 -36t74.5 36.5t29.5 95.5z" />
    <glyph glyph-name="h" unicode="h" horiz-adv-x="589" 
d="M539 108q0 -115 -79 -115t-79 115v178q0 64 -19 93t-66 29q-84 0 -84 -120v-180q0 -115 -79 -115t-79 115v540q0 115 79 115t79 -115v-156q47 50 135 50q192 0 192 -208v-226z" />
    <glyph glyph-name="i" unicode="i" horiz-adv-x="275" 
d="M228 672q0 -38 -26 -64.5t-64 -26.5t-64.5 26.5t-26.5 64.5t27 64.5t64 26.5t63.5 -26.5t26.5 -64.5zM216 108q0 -115 -78 -115q-79 0 -79 115v317q0 114 79 114q78 0 78 -114v-317z" />
    <glyph glyph-name="j" unicode="j" horiz-adv-x="275" 
d="M228 672q0 -38 -26 -64.5t-64 -26.5t-64.5 26.5t-26.5 64.5t27 64.5t64 26.5t63.5 -26.5t26.5 -64.5zM216 -105q0 -115 -78 -115q-79 0 -79 115v530q0 114 79 114q78 0 78 -114v-530z" />
    <glyph glyph-name="k" unicode="k" horiz-adv-x="514" 
d="M525 56q0 -27 -21.5 -46t-52.5 -19q-45 0 -82 49l-157 210v-142q0 -115 -79 -115t-79 115v540q0 115 79 115t79 -115v-290l134 139q41 43 81 43q28 0 47 -18t19 -43q0 -39 -40 -76l-106 -98l147 -173q31 -36 31 -76z" />
    <glyph glyph-name="l" unicode="l" horiz-adv-x="275" 
d="M216 108q0 -115 -78 -115q-79 0 -79 115v540q0 115 79 115q78 0 78 -115v-540z" />
    <glyph glyph-name="m" unicode="m" horiz-adv-x="878" 
d="M828 108q0 -115 -79 -115q-78 0 -78 115v178q0 120 -72 120q-79 0 -79 -118v-180q0 -115 -79 -115t-79 115v178q0 120 -71 120q-79 0 -79 -118v-180q0 -115 -79 -115t-79 115v317q0 114 79 114q47 0 75 -50q48 52 126 52q101 0 157 -74q67 74 159 74q83 0 130 -52
q48 -55 48 -155v-226z" />
    <glyph glyph-name="n" unicode="n" horiz-adv-x="589" 
d="M539 108q0 -115 -79 -115t-79 115v178q0 64 -19 93t-66 29q-84 0 -84 -120v-180q0 -115 -79 -115t-79 115v317q0 114 79 114q47 0 75 -50q49 53 139 53q192 0 192 -208v-226z" />
    <glyph glyph-name="o" unicode="o" horiz-adv-x="580" 
d="M556 266q0 -123 -74.5 -202.5t-191.5 -79.5q-116 0 -191.5 79.5t-75.5 202.5t75.5 202.5t191.5 79.5q117 0 191.5 -79.5t74.5 -202.5zM394 268q0 59 -30 95.5t-74 36.5q-45 0 -74.5 -36t-29.5 -96q0 -61 29 -97.5t75 -36.5t75 36.5t29 97.5z" />
    <glyph glyph-name="p" unicode="p" 
d="M578 266q0 -118 -71 -200.5t-171 -82.5q-71 0 -124 46v-134q0 -115 -79 -115t-79 115v530q0 114 79 114q47 0 75 -50q49 54 130 54q100 0 170 -78.5t70 -198.5zM417 264q0 59 -30 95.5t-74 36.5q-45 0 -74.5 -36t-29.5 -96q0 -61 29 -97.5t75 -36.5t75 36.5t29 97.5z" />
    <glyph glyph-name="q" unicode="q" 
d="M547 -105q0 -115 -78 -115q-79 0 -79 115v134q-53 -46 -125 -46q-100 0 -171 82.5t-71 200.5q0 120 70 198.5t171 78.5q81 0 130 -54q29 50 75 50q78 0 78 -114v-530zM392 264q0 60 -29 96t-74 36t-74.5 -36.5t-29.5 -95.5q0 -61 29 -97.5t75 -36.5t74.5 36.5t28.5 97.5z
" />
    <glyph glyph-name="r" unicode="r" horiz-adv-x="380" 
d="M395 464q0 -40 -43 -61q-46 -19 -91 -37q-32 -15 -41 -35q-8 -16 -8 -59v-164q0 -115 -79 -115t-79 115v317q0 114 79 114q47 0 75 -50q50 53 107 53q33 0 56.5 -23t23.5 -55z" />
    <glyph glyph-name="s" unicode="s" horiz-adv-x="435" 
d="M418 165q0 -76 -60 -128t-153 -52q-86 0 -140.5 34t-54.5 83q0 30 17.5 50.5t42.5 20.5t73.5 -23t72.5 -23q44 0 44 32q0 17 -22 30q-11 6 -64 28q-79 32 -111 64q-39 38 -39 97q0 72 55.5 121t141.5 49q80 0 134 -34q51 -33 51 -76q0 -28 -19 -47t-46 -19
q-18 0 -61.5 19t-65.5 19q-36 0 -36 -27q0 -19 30 -33q39 -16 79 -32q68 -30 98 -64q33 -37 33 -89z" />
    <glyph glyph-name="t" unicode="t" horiz-adv-x="333" 
d="M356 455q0 -68 -100 -68h-13v-279q0 -115 -78 -115q-79 0 -79 115v279h-6q-42 0 -65.5 18.5t-23.5 49.5q0 65 95 70v69q0 115 79 115q78 0 78 -115v-69h14q99 0 99 -70z" />
    <glyph glyph-name="u" unicode="u" horiz-adv-x="579" 
d="M527 215q0 -113 -61.5 -172t-176.5 -59t-176.5 59t-61.5 172v210q0 114 79 114q78 0 78 -114v-178q0 -59 17 -85q18 -30 64 -30t65 30q16 26 16 85v178q0 114 79 114q78 0 78 -114v-210z" />
    <glyph glyph-name="v" unicode="v" horiz-adv-x="463" 
d="M472 460q0 -21 -12 -52l-133 -344q-16 -41 -33 -57q-21 -20 -57 -20q-38 0 -58 19t-37 63l-137 349q-9 23 -9 43q0 33 22 55.5t54 22.5q57 0 81 -77l86 -274l85 284q19 65 74 65q33 0 53.5 -21.5t20.5 -55.5z" />
    <glyph glyph-name="w" unicode="w" horiz-adv-x="757" 
d="M759 460q0 -18 -12 -52l-121 -344q-27 -77 -90 -77q-74 0 -95 82l-65 251l-61 -256q-18 -77 -90 -77q-37 0 -58 19t-37 63l-125 349q-9 25 -9 43q0 33 22 55.5t54 22.5q59 0 81 -77l83 -288l67 289q16 71 73 71q61 0 80 -73l72 -283l83 294q18 65 74 65q33 0 53.5 -21.5
t20.5 -55.5z" />
    <glyph glyph-name="x" unicode="x" horiz-adv-x="493" 
d="M508 66q0 -30 -21 -52t-51 -22q-37 0 -72 42l-113 134l-112 -134q-34 -41 -68 -41q-30 0 -53 23t-23 55q0 33 33 69l131 144l-110 112q-30 31 -30 64q0 31 22 55t52 24q36 0 65 -33l96 -111l88 108q30 37 64 37q33 0 57 -23t24 -55q0 -31 -35 -68l-104 -111l123 -139
q37 -42 37 -78z" />
    <glyph glyph-name="y" unicode="y" horiz-adv-x="481" 
d="M490 464q0 -24 -13 -55l-240 -570q-27 -64 -69 -64q-36 0 -57 20.5t-21 55.5q0 26 13 54l65 141l-159 371q-9 21 -9 44q0 33 22.5 55.5t54.5 22.5q31 0 50 -20q15 -16 30 -56l89 -238l97 251q24 63 69 63q36 0 57 -20t21 -55z" />
    <glyph glyph-name="z" unicode="z" horiz-adv-x="447" 
d="M464 72q0 -72 -100 -72h-287q-39 0 -55 6q-28 11 -28 43q0 29 24 60l216 280h-136q-99 0 -99 72q0 71 100 71h253q54 0 74 -8q25 -10 25 -40q0 -28 -32 -69l-210 -269h156q99 0 99 -74z" />
    <glyph glyph-name="braceleft" unicode="{" horiz-adv-x="500" 
d="M431 -202q-7 0 -19 -1h-18q-125 0 -163 45q-25 29 -25 121v123q0 66 -24.5 94.5t-84.5 28.5h-10q-6 -1 -10 -1v102h10q7 -1 10 -1q59 0 84 28.5t25 95.5v122q0 63 8 88q13 44 57 62q41 17 123 17h18q12 -1 19 -1v-102q-4 0 -12 1h-11q-52 0 -68 -20.5t-16 -77.5v-117
q0 -69 -19 -99q-22 -33 -82 -47q60 -14 82 -47q19 -29 19 -98v-118q0 -57 16 -77t68 -20h11q8 1 12 1v-102z" />
    <glyph glyph-name="bar" unicode="|" horiz-adv-x="500" 
d="M301 -236h-101v1000h101v-1000z" />
    <glyph glyph-name="braceright" unicode="}" horiz-adv-x="500" 
d="M424 208h-18q-61 0 -86 -27.5t-25 -94.5v-123q0 -61 -8 -88q-10 -36 -43 -54q-44 -24 -137 -24h-18q-12 1 -19 1v102q4 0 12 -1h11q52 0 68 20t16 77v117q0 69 20 100.5t81 45.5q-60 14 -82 47q-19 30 -19 99v118q0 57 -16 77t-68 20h-11q-8 -1 -12 -1v102h33
q99 0 141 -24q32 -18 43 -54q8 -28 8 -88v-123q0 -66 24.5 -94.5t84.5 -28.5q3 0 10 1h10v-102z" />
    <glyph glyph-name="asciitilde" unicode="~" horiz-adv-x="833" 
d="M747 284q-99 -67 -185 -67q-45 0 -90 15q-50 17 -99 33q-55 16 -98 16q-80 0 -188 -77v108q104 70 189 70q57 0 144 -29q35 -12 71 -24q40 -12 73 -12q80 0 183 75v-108z" />
    <glyph glyph-name="nonbreakingspace" unicode="&#xa0;" horiz-adv-x="324" 
 />
    <glyph glyph-name="Agrave" unicode="&#xc0;" horiz-adv-x="625" 
d="M366 813q0 -24 -15 -39.5t-39 -15.5q-22 0 -54 31l-41 40q-26 25 -26 56q0 25 18 42.5t45 17.5q35 0 57 -32l38 -56q17 -25 17 -44zM627 65q0 -34 -23 -55t-57 -21q-61 0 -85 79l-20 66h-263l-24 -72q-24 -72 -78 -72q-34 0 -55.5 21.5t-21.5 55.5q0 25 8 47l185 502
q39 105 124 105q86 0 119 -94l180 -511q11 -31 11 -51zM395 283l-82 264l-88 -264h170z" />
    <glyph glyph-name="Aacute" unicode="&#xc1;" horiz-adv-x="625" 
d="M455 885q0 -31 -26 -56l-41 -40q-32 -31 -54 -31q-24 0 -39 15.5t-15 39.5q0 19 17 44l38 56q22 32 57 32q27 0 45 -17.5t18 -42.5zM627 65q0 -34 -23 -55t-57 -21q-61 0 -85 79l-20 66h-263l-24 -72q-24 -72 -78 -72q-34 0 -55.5 21.5t-21.5 55.5q0 25 8 47l185 502
q39 105 124 105q86 0 119 -94l180 -511q11 -31 11 -51zM395 283l-82 264l-88 -264h170z" />
    <glyph glyph-name="Acircumflex" unicode="&#xc2;" horiz-adv-x="625" 
d="M500 790q0 -51 -47 -51q-21 0 -46 15l-87 53l-87 -53q-25 -15 -46 -15q-47 0 -47 51q0 31 30 54l109 85q20 16 41 16q20 0 41 -16l109 -85q30 -23 30 -54zM627 65q0 -34 -23 -55t-57 -21q-61 0 -85 79l-20 66h-263l-24 -72q-24 -72 -78 -72q-34 0 -55.5 21.5t-21.5 55.5
q0 25 8 47l185 502q39 105 124 105q86 0 119 -94l180 -511q11 -31 11 -51zM395 283l-82 264l-88 -264h170z" />
    <glyph glyph-name="Atilde" unicode="&#xc3;" horiz-adv-x="625" 
d="M455 868q0 -36 -24 -61.5t-60 -25.5q-17 0 -47.5 9.5t-45.5 9.5q-16 0 -35 -8.5t-28 -8.5q-44 0 -44 53q0 37 24.5 62t59.5 25q17 0 47 -9.5t45 -9.5q16 0 35.5 9t28.5 9q44 0 44 -54zM627 65q0 -34 -23 -55t-57 -21q-61 0 -85 79l-20 66h-263l-24 -72q-24 -72 -78 -72
q-34 0 -55.5 21.5t-21.5 55.5q0 25 8 47l185 502q39 105 124 105q86 0 119 -94l180 -511q11 -31 11 -51zM395 283l-82 264l-88 -264h170z" />
    <glyph glyph-name="Adieresis" unicode="&#xc4;" horiz-adv-x="625" 
d="M469 853q0 -80 -70 -80q-32 0 -51 21.5t-19 58.5t19 59t51 22t51 -22t19 -59zM297 853q0 -80 -70 -80q-32 0 -51 21.5t-19 58.5t19 59t51 22t51 -22t19 -59zM627 65q0 -34 -23 -55t-57 -21q-61 0 -85 79l-20 66h-263l-24 -72q-24 -72 -78 -72q-34 0 -55.5 21.5
t-21.5 55.5q0 25 8 47l185 502q39 105 124 105q86 0 119 -94l180 -511q11 -31 11 -51zM395 283l-82 264l-88 -264h170z" />
    <glyph glyph-name="Amacron" unicode="&#x100;" horiz-adv-x="625" 
d="M470 864q0 -28 -18.5 -45.5t-46.5 -17.5h-192q-65 0 -65 62q0 28 18.5 45.5t46.5 17.5h192q65 0 65 -62zM627 65q0 -34 -23 -55t-57 -21q-61 0 -85 79l-20 66h-263l-24 -72q-24 -72 -78 -72q-34 0 -55.5 21.5t-21.5 55.5q0 25 8 47l185 502q39 105 124 105q86 0 119 -94
l180 -511q11 -31 11 -51zM395 283l-82 264l-88 -264h170z" />
    <glyph glyph-name="Abreve" unicode="&#x102;" horiz-adv-x="625" 
d="M481 890q0 -57 -56 -92q-49 -30 -109 -30q-59 0 -108 30q-57 35 -57 92q0 54 52 54q28 0 48 -29q1 -3 4 -7q20 -29 61 -29q39 0 58 24q1 1 8 13q18 28 46 28q53 0 53 -54zM627 65q0 -34 -23 -55t-57 -21q-61 0 -85 79l-20 66h-263l-24 -72q-24 -72 -78 -72
q-34 0 -55.5 21.5t-21.5 55.5q0 25 8 47l185 502q39 105 124 105q86 0 119 -94l180 -511q11 -31 11 -51zM395 283l-82 264l-88 -264h170z" />
    <glyph glyph-name="Aring" unicode="&#xc5;" horiz-adv-x="625" 
d="M422 850q0 -43 -31 -74.5t-75 -31.5q-43 0 -74 31t-31 75q0 43 31 74.5t74 31.5q44 0 75 -31t31 -75zM627 65q0 -34 -23 -55t-57 -21q-61 0 -85 79l-20 66h-263l-24 -72q-24 -72 -78 -72q-34 0 -55.5 21.5t-21.5 55.5q0 25 8 47l185 502q39 105 124 105q86 0 119 -94
l180 -511q11 -31 11 -51zM356 850q0 16 -11.5 27.5t-28.5 11.5q-16 0 -27.5 -11t-11.5 -28t11.5 -28.5t27.5 -11.5q17 0 28.5 12t11.5 28zM395 283l-82 264l-88 -264h170z" />
    <glyph glyph-name="Aogonek" unicode="&#x104;" horiz-adv-x="625" 
d="M705 -114q0 -37 -42 -63q-37 -23 -76 -23q-142 0 -142 117q0 51 52 90q-22 19 -35 61l-20 66h-263l-24 -72q-24 -72 -78 -72q-34 0 -55.5 21.5t-21.5 55.5q0 25 8 47l185 502q39 105 124 105q86 0 119 -94l180 -511q11 -31 11 -51q0 -23 -13 -44q-2 -2 -36 -39
q-21 -23 -21 -47q0 -40 47 -40q17 0 32.5 16t25.5 16q18 0 30.5 -11.5t12.5 -29.5zM395 283l-82 264l-88 -264h170z" />
    <glyph glyph-name="AE" unicode="&#xc6;" horiz-adv-x="840" 
d="M812 75q0 -75 -115 -75h-179q-64 0 -87.5 22t-23.5 80v35h-229l-40 -80q-33 -66 -79 -66q-32 0 -53.5 22t-21.5 55q0 30 13 53l269 481q36 64 67.5 86.5t84.5 22.5h274q115 0 115 -76q0 -75 -115 -75h-132v-127h115q114 0 114 -75t-114 -75h-115v-133h137q115 0 115 -75z
M408 283v296l-153 -296h153z" />
    <glyph glyph-name="Cacute" unicode="&#x106;" 
d="M479 885q0 -31 -26 -56l-41 -40q-32 -31 -54 -31q-24 0 -39 15.5t-15 39.5q0 19 17 44l38 56q22 32 57 32q27 0 45 -17.5t18 -42.5zM600 102q0 -49 -62 -85q-65 -38 -162 -38q-156 0 -252 102.5t-96 273.5q0 168 102 274q98 102 248 102q91 0 154 -36q59 -33 59 -78
q0 -29 -20.5 -51t-48.5 -22q-20 0 -67 14t-76 14q-79 0 -127 -59.5t-48 -161.5q0 -99 49 -157t131 -58q38 0 87 18.5t64 18.5q25 0 45 -21.5t20 -49.5z" />
    <glyph glyph-name="Ccircumflex" unicode="&#x108;" 
d="M553 789q0 -51 -48 -51q-21 0 -45 15l-87 53l-87 -53q-25 -15 -46 -15q-48 0 -48 51q0 30 31 54l109 85q20 16 41 16q20 0 41 -16l109 -85q30 -24 30 -54zM600 102q0 -49 -62 -85q-65 -38 -162 -38q-156 0 -252 102.5t-96 273.5q0 168 102 274q98 102 248 102
q91 0 154 -36q59 -33 59 -78q0 -29 -20.5 -51t-48.5 -22q-20 0 -67 14t-76 14q-79 0 -127 -59.5t-48 -161.5q0 -99 49 -157t131 -58q38 0 87 18.5t64 18.5q25 0 45 -21.5t20 -49.5z" />
    <glyph glyph-name="Ccaron" unicode="&#x10c;" 
d="M547 888q0 -31 -30 -54l-109 -85q-19 -15 -41 -15t-41 15l-109 85q-30 23 -30 54q0 23 13 37.5t34 14.5q19 0 46 -16l87 -52l87 52q27 16 46 16q20 0 33.5 -14.5t13.5 -37.5zM600 102q0 -49 -62 -85q-65 -38 -162 -38q-156 0 -252 102.5t-96 273.5q0 168 102 274
q98 102 248 102q91 0 154 -36q59 -33 59 -78q0 -29 -20.5 -51t-48.5 -22q-20 0 -67 14t-76 14q-79 0 -127 -59.5t-48 -161.5q0 -99 49 -157t131 -58q38 0 87 18.5t64 18.5q25 0 45 -21.5t20 -49.5z" />
    <glyph glyph-name="Cdotaccent" unicode="&#x10a;" 
d="M452 851q0 -37 -25 -64.5t-62 -27.5t-62.5 27.5t-25.5 64.5q0 39 25 66.5t63 27.5q37 0 62 -28t25 -66zM600 102q0 -49 -62 -85q-65 -38 -162 -38q-156 0 -252 102.5t-96 273.5q0 168 102 274q98 102 248 102q91 0 154 -36q59 -33 59 -78q0 -29 -20.5 -51t-48.5 -22
q-20 0 -67 14t-76 14q-79 0 -127 -59.5t-48 -161.5q0 -99 49 -157t131 -58q38 0 87 18.5t64 18.5q25 0 45 -21.5t20 -49.5z" />
    <glyph glyph-name="Ccedilla" unicode="&#xc7;" 
d="M491 -79q0 -51 -48.5 -84t-130.5 -33q-63 0 -97.5 21t-34.5 55q0 47 58 47q11 0 32.5 -2.5t31.5 -2.5q46 0 46 31q0 12 -16 28q-126 13 -208 100q-96 103 -96 274q0 168 102 274q98 102 248 102q91 0 154 -36q59 -33 59 -78q0 -29 -20.5 -51t-48.5 -22q-20 0 -67 14
t-76 14q-79 0 -127 -59.5t-48 -161.5q0 -99 49 -157t131 -58q38 0 87 18.5t64 18.5q25 0 45 -21.5t20 -49.5q0 -49 -62 -85q-34 -19 -75 -29q28 -29 28 -67z" />
    <glyph glyph-name="Dcaron" unicode="&#x10e;" horiz-adv-x="697" 
d="M483 893q0 -30 -30 -54l-109 -85q-19 -15 -41 -15q-21 0 -41 15l-109 85q-30 24 -30 54q0 23 13.5 37.5t33.5 14.5t46 -16l87 -52l87 52q27 16 46 16q21 0 34 -14.5t13 -37.5zM668 363q0 -167 -92.5 -265t-254.5 -98h-148q-64 0 -87 22t-23 80v495q0 62 23.5 88t88.5 26
h130q133 0 212 -50q70 -45 110.5 -124t40.5 -174zM492 364q0 196 -196 196h-71v-410h74q193 0 193 214z" />
    <glyph glyph-name="Dcroat" unicode="&#x110;" horiz-adv-x="743" 
d="M715 363q0 -167 -93 -265t-255 -98h-147q-64 0 -87.5 22t-23.5 80v195h-18q-78 0 -78 59q0 57 79 57h17v184q0 62 24 88t89 26h130q132 0 211 -50q70 -45 111 -124t41 -174zM539 364q0 196 -196 196h-72v-147h59q78 0 78 -58q0 -57 -79 -57h-58v-148h74q194 0 194 214z
" />
    <glyph glyph-name="Eth" unicode="&#xd0;" horiz-adv-x="743" 
d="M715 363q0 -167 -93 -265t-255 -98h-147q-64 0 -87.5 22t-23.5 80v195h-18q-78 0 -78 59q0 57 79 57h17v184q0 62 24 88t89 26h130q132 0 211 -50q70 -45 111 -124t41 -174zM539 364q0 196 -196 196h-72v-147h59q78 0 78 -58q0 -57 -79 -57h-58v-148h74q194 0 194 214z
" />
    <glyph glyph-name="Egrave" unicode="&#xc8;" horiz-adv-x="505" 
d="M330 813q0 -24 -15 -39.5t-39 -15.5q-22 0 -54 31l-41 40q-26 25 -26 56q0 25 18 42.5t45 17.5q35 0 57 -32l38 -56q17 -25 17 -44zM477 75q0 -75 -115 -75h-189q-64 0 -87 22t-23 80v495q0 62 23.5 88t88.5 26h182q115 0 115 -76q0 -75 -115 -75h-132v-127h114
q115 0 115 -75t-115 -75h-114v-133h137q115 0 115 -75z" />
    <glyph glyph-name="Eacute" unicode="&#xc9;" horiz-adv-x="505" 
d="M373 885q0 -31 -26 -56l-41 -40q-32 -31 -54 -31q-24 0 -39 15.5t-15 39.5q0 19 17 44l38 56q22 32 57 32q27 0 45 -17.5t18 -42.5zM477 75q0 -75 -115 -75h-189q-64 0 -87 22t-23 80v495q0 62 23.5 88t88.5 26h182q115 0 115 -76q0 -75 -115 -75h-132v-127h114
q115 0 115 -75t-115 -75h-114v-133h137q115 0 115 -75z" />
    <glyph glyph-name="Ecircumflex" unicode="&#xca;" horiz-adv-x="505" 
d="M452 790q0 -51 -47 -51q-21 0 -46 15l-87 53l-87 -53q-25 -15 -46 -15q-47 0 -47 51q0 31 30 54l109 85q20 16 41 16q20 0 41 -16l109 -85q30 -23 30 -54zM477 75q0 -75 -115 -75h-189q-64 0 -87 22t-23 80v495q0 62 23.5 88t88.5 26h182q115 0 115 -76q0 -75 -115 -75
h-132v-127h114q115 0 115 -75t-115 -75h-114v-133h137q115 0 115 -75z" />
    <glyph glyph-name="Ecaron" unicode="&#x11a;" horiz-adv-x="505" 
d="M453 891q0 -30 -30 -54l-109 -85q-19 -15 -41 -15t-41 15l-109 85q-30 24 -30 54q0 23 13 37.5t34 14.5q19 0 46 -16l87 -52l87 52q27 16 46 16q20 0 33.5 -14.5t13.5 -37.5zM477 75q0 -75 -115 -75h-189q-64 0 -87 22t-23 80v495q0 62 23.5 88t88.5 26h182
q115 0 115 -76q0 -75 -115 -75h-132v-127h114q115 0 115 -75t-115 -75h-114v-133h137q115 0 115 -75z" />
    <glyph glyph-name="Edieresis" unicode="&#xcb;" horiz-adv-x="505" 
d="M409 853q0 -80 -70 -80q-32 0 -51 21.5t-19 58.5t19 59t51 22t51 -22t19 -59zM237 853q0 -80 -70 -80q-32 0 -51 21.5t-19 58.5t19 59t51 22t51 -22t19 -59zM477 75q0 -75 -115 -75h-189q-64 0 -87 22t-23 80v495q0 62 23.5 88t88.5 26h182q115 0 115 -76q0 -75 -115 -75
h-132v-127h114q115 0 115 -75t-115 -75h-114v-133h137q115 0 115 -75z" />
    <glyph glyph-name="Emacron" unicode="&#x112;" horiz-adv-x="505" 
d="M429 863q0 -28 -18.5 -45.5t-46.5 -17.5h-192q-65 0 -65 62q0 28 18.5 45.5t46.5 17.5h192q65 0 65 -62zM477 75q0 -75 -115 -75h-189q-64 0 -87 22t-23 80v495q0 62 23.5 88t88.5 26h182q115 0 115 -76q0 -75 -115 -75h-132v-127h114q115 0 115 -75t-115 -75h-114v-133
h137q115 0 115 -75z" />
    <glyph glyph-name="Ebreve" unicode="&#x114;" horiz-adv-x="505" 
d="M440 891q0 -57 -56 -92q-49 -30 -109 -30q-59 0 -108 30q-57 36 -57 92q0 55 53 55q27 0 47 -30q2 -2 4 -7q20 -28 61 -28q39 0 58 24q1 0 8 12q18 29 46 29q53 0 53 -55zM477 75q0 -75 -115 -75h-189q-64 0 -87 22t-23 80v495q0 62 23.5 88t88.5 26h182q115 0 115 -76
q0 -75 -115 -75h-132v-127h114q115 0 115 -75t-115 -75h-114v-133h137q115 0 115 -75z" />
    <glyph glyph-name="Edotaccent" unicode="&#x116;" horiz-adv-x="505" 
d="M359 853q0 -37 -25 -64.5t-62 -27.5t-62.5 27.5t-25.5 64.5q0 39 25 66.5t63 27.5q37 0 62 -28t25 -66zM477 75q0 -75 -115 -75h-189q-64 0 -87 22t-23 80v495q0 62 23.5 88t88.5 26h182q115 0 115 -76q0 -75 -115 -75h-132v-127h114q115 0 115 -75t-115 -75h-114v-133
h137q115 0 115 -75z" />
    <glyph glyph-name="Eogonek" unicode="&#x118;" horiz-adv-x="505" 
d="M477 75q0 -71 -107 -75q-22 -1 -39 -18t-17 -47q0 -40 47 -40q17 0 32.5 16t25.5 16q18 0 30.5 -11.5t12.5 -29.5q0 -37 -42 -63q-37 -23 -76 -23q-142 0 -142 117q0 46 43 83h-72q-64 0 -87 22t-23 80v495q0 62 23.5 88t88.5 26h182q115 0 115 -76q0 -75 -115 -75h-132
v-127h114q115 0 115 -75t-115 -75h-114v-133h137q115 0 115 -75z" />
    <glyph glyph-name="Gcircumflex" unicode="&#x11c;" horiz-adv-x="722" 
d="M567 790q0 -52 -48 -52q-20 0 -45 16l-87 52l-87 -52q-25 -16 -46 -16q-47 0 -47 52q0 30 30 53l109 85q20 16 41 16q20 0 41 -16l109 -85q30 -23 30 -53zM700 320q0 -150 -91 -245.5t-241 -95.5q-149 0 -244.5 104.5t-95.5 272.5q0 173 97.5 274.5t261.5 101.5
q113 0 190 -48q72 -44 72 -100q0 -30 -20.5 -53t-48.5 -23q-18 0 -80.5 34.5t-117.5 34.5q-82 0 -130.5 -58t-48.5 -160q0 -104 49 -164.5t129 -60.5q64 0 103.5 38.5t40.5 104.5h-57q-114 0 -114 75q0 76 114 76h119q60 0 86.5 -25t26.5 -83z" />
    <glyph glyph-name="Gbreve" unicode="&#x11e;" horiz-adv-x="722" 
d="M537 892q0 -57 -56 -92q-49 -30 -109 -30q-59 0 -108 30q-57 36 -57 92q0 55 52 55q28 0 48 -30q1 -2 4 -7q20 -28 61 -28q39 0 58 24q1 0 8 12q18 29 46 29q53 0 53 -55zM700 320q0 -150 -91 -245.5t-241 -95.5q-149 0 -244.5 104.5t-95.5 272.5q0 173 97.5 274.5
t261.5 101.5q113 0 190 -48q72 -44 72 -100q0 -30 -20.5 -53t-48.5 -23q-18 0 -80.5 34.5t-117.5 34.5q-82 0 -130.5 -58t-48.5 -160q0 -104 49 -164.5t129 -60.5q64 0 103.5 38.5t40.5 104.5h-57q-114 0 -114 75q0 76 114 76h119q60 0 86.5 -25t26.5 -83z" />
    <glyph glyph-name="Gdotaccent" unicode="&#x120;" horiz-adv-x="722" 
d="M470 854q0 -38 -25 -65.5t-62 -27.5t-62.5 27.5t-25.5 65.5t25 65.5t63 27.5q37 0 62 -28t25 -65zM700 320q0 -150 -91 -245.5t-241 -95.5q-149 0 -244.5 104.5t-95.5 272.5q0 173 97.5 274.5t261.5 101.5q113 0 190 -48q72 -44 72 -100q0 -30 -20.5 -53t-48.5 -23
q-18 0 -80.5 34.5t-117.5 34.5q-82 0 -130.5 -58t-48.5 -160q0 -104 49 -164.5t129 -60.5q64 0 103.5 38.5t40.5 104.5h-57q-114 0 -114 75q0 76 114 76h119q60 0 86.5 -25t26.5 -83z" />
    <glyph glyph-name="Gcommaaccent" unicode="&#x122;" horiz-adv-x="722" 
d="M700 320q0 -150 -91 -245.5t-241 -95.5q-149 0 -244.5 104.5t-95.5 272.5q0 173 97.5 274.5t261.5 101.5q113 0 190 -48q72 -44 72 -100q0 -30 -20.5 -53t-48.5 -23q-18 0 -80.5 34.5t-117.5 34.5q-82 0 -130.5 -58t-48.5 -160q0 -104 49 -164.5t129 -60.5
q64 0 103.5 38.5t40.5 104.5h-57q-114 0 -114 75q0 76 114 76h119q60 0 86.5 -25t26.5 -83zM480 -158q0 -71 -47.5 -124t-99.5 -53q-12 0 -21 8t-9 19q0 15 15 25q19 10 37 20q51 28 52 79q-21 -8 -37 -8q-32 0 -51.5 20.5t-19.5 53.5q0 36 23.5 59t59.5 23q42 0 70 -34
t28 -88z" />
    <glyph glyph-name="Hcircumflex" unicode="&#x124;" horiz-adv-x="748" 
d="M552 792q0 -51 -47 -51q-21 0 -46 15l-87 53l-87 -53q-25 -15 -46 -15q-47 0 -47 51q0 30 30 54l109 85q21 16 41 16q21 0 41 -16l109 -85q30 -24 30 -54zM685 106q0 -115 -81 -115t-81 115v181h-298v-181q0 -115 -81 -115t-81 115v499q0 115 81 115t81 -115v-168h298
v168q0 115 81 115t81 -115v-499z" />
    <glyph glyph-name="Hbar" unicode="&#x126;" horiz-adv-x="748" 
d="M752 572q0 -19 -15.5 -29.5t-51.5 -10.5v-426q0 -115 -81 -115t-81 115v181h-298v-181q0 -115 -81 -115t-81 115v426q-32 0 -47 10t-15 30q0 18 16 29.5t46 11.5q3 107 81 107t81 -107h298q3 107 81 107t81 -107q37 0 52 -10.5t15 -30.5zM523 437v95h-298v-95h298z" />
    <glyph glyph-name="Igrave" unicode="&#xcc;" horiz-adv-x="296" 
d="M203 813q0 -24 -15 -39.5t-39 -15.5q-22 0 -54 31l-41 40q-26 25 -26 56q0 25 18 42.5t45 17.5q35 0 57 -32l38 -56q17 -25 17 -44zM229 106q0 -115 -81 -115t-81 115v499q0 115 81 115t81 -115v-499z" />
    <glyph glyph-name="Iacute" unicode="&#xcd;" horiz-adv-x="296" 
d="M282 885q0 -31 -26 -56l-41 -40q-32 -31 -54 -31q-24 0 -39 15.5t-15 39.5q0 19 17 44l38 56q22 32 57 32q27 0 45 -17.5t18 -42.5zM229 106q0 -115 -81 -115t-81 115v499q0 115 81 115t81 -115v-499z" />
    <glyph glyph-name="Ibreve" unicode="&#x12c;" horiz-adv-x="296" 
d="M314 893q0 -57 -56 -92q-49 -30 -109 -30q-59 0 -108 30q-57 36 -57 92q0 54 52 54q28 0 48 -29q1 -2 4 -7q20 -28 61 -28q39 0 58 23q1 1 8 13q18 28 46 28q53 0 53 -54zM229 106q0 -115 -81 -115t-81 115v499q0 115 81 115t81 -115v-499z" />
    <glyph glyph-name="Icircumflex" unicode="&#xce;" horiz-adv-x="296" 
d="M336 790q0 -51 -47 -51q-21 0 -46 15l-87 53l-87 -53q-25 -15 -46 -15q-47 0 -47 51q0 31 30 54l109 85q20 16 41 16q20 0 41 -16l109 -85q30 -23 30 -54zM229 106q0 -115 -81 -115t-81 115v499q0 115 81 115t81 -115v-499z" />
    <glyph glyph-name="Itilde" unicode="&#x128;" horiz-adv-x="296" 
d="M286 868q0 -36 -24 -61.5t-60 -25.5q-16 0 -46.5 9.5t-46.5 9.5q-13 0 -34 -8.5t-29 -8.5q-44 0 -44 53q0 36 23.5 61.5t60.5 25.5q16 0 46.5 -9.5t45.5 -9.5q13 0 34 9t30 9q44 0 44 -54zM229 106q0 -115 -81 -115t-81 115v499q0 115 81 115t81 -115v-499z" />
    <glyph glyph-name="Idieresis" unicode="&#xcf;" horiz-adv-x="296" 
d="M304 853q0 -80 -70 -80q-32 0 -51 21.5t-19 58.5t19 59t51 22t51 -22t19 -59zM132 853q0 -80 -70 -80q-32 0 -51 21.5t-19 58.5t19 59t51 22t51 -22t19 -59zM229 106q0 -115 -81 -115t-81 115v499q0 115 81 115t81 -115v-499z" />
    <glyph glyph-name="Imacron" unicode="&#x12a;" horiz-adv-x="296" 
d="M308 864q0 -28 -18.5 -45.5t-46.5 -17.5h-192q-65 0 -65 62q0 28 18 45.5t47 17.5h192q65 0 65 -62zM229 106q0 -115 -81 -115t-81 115v499q0 115 81 115t81 -115v-499z" />
    <glyph glyph-name="Idotaccent" unicode="&#x130;" horiz-adv-x="296" 
d="M234 852q0 -37 -24.5 -64.5t-62.5 -27.5q-37 0 -62.5 27.5t-25.5 64.5q0 39 25.5 66.5t62.5 27.5t62 -28t25 -66zM229 106q0 -115 -81 -115t-81 115v499q0 115 81 115t81 -115v-499z" />
    <glyph glyph-name="Iogonek" unicode="&#x12e;" horiz-adv-x="296" 
d="M296 -114q0 -37 -42 -63q-37 -23 -76 -23q-142 0 -142 117q0 55 58 94q-27 28 -27 95v499q0 115 81 115t81 -115v-499q0 -48 -15 -78q-4 -9 -39 -41q-27 -25 -27 -52q0 -40 47 -40q17 0 32.5 16t25.5 16q18 0 30.5 -11.5t12.5 -29.5z" />
    <glyph glyph-name="Jcircumflex" unicode="&#x134;" horiz-adv-x="448" 
d="M491 792q0 -51 -48 -51q-20 0 -45 15l-87 53l-87 -53q-25 -15 -46 -15q-48 0 -48 51q0 30 31 54l109 85q20 16 41 16q20 0 41 -16l109 -85q30 -24 30 -54zM386 217q0 -236 -208 -236q-81 0 -133 34.5t-52 82.5q0 33 21 54t54 21q21 0 54 -18t49 -18q37 0 48 51q5 24 5 81
v336q0 115 81 115t81 -115v-388z" />
    <glyph glyph-name="Kcommaaccent" unicode="&#x136;" horiz-adv-x="616" 
d="M630 66q0 -31 -23 -53t-52 -22q-35 0 -87 57l-243 268v-210q0 -115 -81 -115t-81 115v499q0 115 81 115t81 -115v-176l206 233q50 56 84 56q29 0 51 -22t22 -52q0 -37 -41 -80l-175 -182l217 -236q41 -45 41 -80zM430 -158q0 -71 -47.5 -124t-99.5 -53q-12 0 -21 8t-9 19
q0 15 15 25q19 10 37 20q51 28 52 79q-21 -8 -37 -8q-32 0 -51.5 20.5t-19.5 53.5q0 36 23.5 59t59.5 23q42 0 70 -34t28 -88z" />
    <glyph glyph-name="Lacute" unicode="&#x139;" horiz-adv-x="461" 
d="M277 883q0 -30 -26 -56l-41 -40q-32 -31 -54 -31q-24 0 -39 15.5t-15 39.5q0 19 17 44l38 56q22 32 57 32q27 0 45 -17.5t18 -42.5zM477 75q0 -75 -115 -75h-189q-64 0 -87 22t-23 80v503q0 115 81 115t81 -115v-455h137q115 0 115 -75z" />
    <glyph glyph-name="Lcaron" unicode="&#x13d;" horiz-adv-x="461" 
d="M477 75q0 -75 -115 -75h-189q-64 0 -87 22t-23 80v503q0 115 81 115t81 -115v-455h137q115 0 115 -75zM378 681q0 -53 -36 -93t-75 -40q-9 0 -15.5 6t-6.5 14q0 11 12.5 19t27.5 15q37 21 38 58q-14 -5 -27 -5q-24 0 -39 15t-15 40q0 26 17.5 43.5t45.5 17.5q31 0 52 -25
t21 -65z" />
    <glyph glyph-name="Lcommaaccent" unicode="&#x13b;" horiz-adv-x="461" 
d="M477 75q0 -75 -115 -75h-189q-64 0 -87 22t-23 80v503q0 115 81 115t81 -115v-455h137q115 0 115 -75zM370 -158q0 -71 -47.5 -124t-99.5 -53q-12 0 -21 8t-9 19q0 15 15 25q19 10 37 20q51 28 52 79q-21 -8 -37 -8q-32 0 -51.5 20.5t-19.5 53.5q0 36 23.5 59t59.5 23
q42 0 70 -34t28 -88z" />
    <glyph glyph-name="Lslash" unicode="&#x141;" horiz-adv-x="507" 
d="M522 75q0 -75 -115 -75h-189q-64 0 -87 22t-23 80v161q-14 -9 -17 -9q2 0 -21 0q-18 0 -32 15t-14 37q0 34 34 57l50 34v208q0 115 81 115t81 -115v-128l70 44q24 15 46 15q19 0 32.5 -15.5t13.5 -37.5q0 -35 -34 -57l-128 -83v-193h137q115 0 115 -75z" />
    <glyph glyph-name="Ldot" unicode="&#x13f;" horiz-adv-x="461" 
d="M431 355q0 -38 -26.5 -64t-64.5 -26t-64.5 26t-26.5 64t27 64.5t64 26.5q38 0 64.5 -26.5t26.5 -64.5zM477 75q0 -75 -115 -75h-189q-64 0 -87 22t-23 80v503q0 115 81 115t81 -115v-455h137q115 0 115 -75z" />
    <glyph glyph-name="Nacute" unicode="&#x143;" horiz-adv-x="748" 
d="M490 885q0 -31 -26 -56l-41 -40q-32 -31 -54 -31q-24 0 -39 15.5t-15 39.5q0 19 17 44l38 56q22 32 57 32q27 0 45 -17.5t18 -42.5zM685 88q0 -101 -74 -101q-48 0 -93 59l-293 387v-327q0 -115 -81 -115t-81 115v505q0 108 75 108q47 0 86 -52l299 -395v333
q0 115 81 115t81 -115v-517z" />
    <glyph glyph-name="Ncaron" unicode="&#x147;" horiz-adv-x="748" 
d="M551 895q0 -31 -30 -54l-109 -85q-19 -15 -41 -15q-21 0 -41 15l-109 85q-30 23 -30 54q0 23 13.5 37.5t33.5 14.5t46 -16l87 -52l87 52q27 16 46 16q21 0 34 -15t13 -37zM685 88q0 -101 -74 -101q-48 0 -93 59l-293 387v-327q0 -115 -81 -115t-81 115v505q0 108 75 108
q47 0 86 -52l299 -395v333q0 115 81 115t81 -115v-517z" />
    <glyph glyph-name="Ntilde" unicode="&#xd1;" horiz-adv-x="748" 
d="M523 868q0 -36 -24 -61.5t-60 -25.5q-17 0 -47.5 9.5t-45.5 9.5q-16 0 -35 -8.5t-28 -8.5q-44 0 -44 53q0 37 24.5 62t59.5 25q17 0 47 -9.5t45 -9.5q16 0 35.5 9t28.5 9q44 0 44 -54zM685 88q0 -101 -74 -101q-48 0 -93 59l-293 387v-327q0 -115 -81 -115t-81 115v505
q0 108 75 108q47 0 86 -52l299 -395v333q0 115 81 115t81 -115v-517z" />
    <glyph glyph-name="Ncommaaccent" unicode="&#x145;" horiz-adv-x="748" 
d="M685 88q0 -101 -74 -101q-48 0 -93 59l-293 387v-327q0 -115 -81 -115t-81 115v505q0 108 75 108q47 0 86 -52l299 -395v333q0 115 81 115t81 -115v-517zM479 -158q0 -71 -47.5 -124t-99.5 -53q-12 0 -21 8t-9 19q0 15 15 25q19 10 37 20q51 28 52 79q-21 -8 -37 -8
q-32 0 -51.5 20.5t-19.5 53.5q0 36 23.5 59t59.5 23q42 0 70 -34t28 -88z" />
    <glyph glyph-name="Ograve" unicode="&#xd2;" horiz-adv-x="755" 
d="M452 813q0 -24 -15 -39.5t-39 -15.5q-22 0 -54 31l-41 40q-26 25 -26 56q0 25 18 42.5t45 17.5q35 0 57 -32l38 -56q17 -25 17 -44zM727 355q0 -169 -96.5 -272.5t-253.5 -103.5t-253 103.5t-96 272.5t96.5 272.5t252.5 103.5t253 -103.5t97 -272.5zM550 353
q0 104 -47.5 164t-125.5 60t-125.5 -60t-47.5 -164q0 -100 48 -159.5t125 -59.5t125 59.5t48 159.5z" />
    <glyph glyph-name="Oacute" unicode="&#xd3;" horiz-adv-x="755" 
d="M486 885q0 -31 -26 -56l-41 -40q-32 -31 -54 -31q-24 0 -39 15.5t-15 39.5q0 19 17 44l38 56q22 32 57 32q27 0 45 -17.5t18 -42.5zM727 355q0 -169 -96.5 -272.5t-253.5 -103.5t-253 103.5t-96 272.5t96.5 272.5t252.5 103.5t253 -103.5t97 -272.5zM550 353
q0 104 -47.5 164t-125.5 60t-125.5 -60t-47.5 -164q0 -100 48 -159.5t125 -59.5t125 59.5t48 159.5z" />
    <glyph glyph-name="Ocircumflex" unicode="&#xd4;" horiz-adv-x="755" 
d="M561 790q0 -51 -47 -51q-21 0 -46 15l-87 53l-87 -53q-25 -15 -46 -15q-47 0 -47 51q0 31 30 54l109 85q20 16 41 16q20 0 41 -16l109 -85q30 -23 30 -54zM727 355q0 -169 -96.5 -272.5t-253.5 -103.5t-253 103.5t-96 272.5t96.5 272.5t252.5 103.5t253 -103.5t97 -272.5
zM550 353q0 104 -47.5 164t-125.5 60t-125.5 -60t-47.5 -164q0 -100 48 -159.5t125 -59.5t125 59.5t48 159.5z" />
    <glyph glyph-name="Otilde" unicode="&#xd5;" horiz-adv-x="755" 
d="M520 868q0 -36 -24 -61.5t-60 -25.5q-17 0 -47.5 9.5t-45.5 9.5q-16 0 -35 -8.5t-28 -8.5q-44 0 -44 53q0 37 24.5 62t59.5 25q17 0 47 -9.5t45 -9.5q16 0 35.5 9t28.5 9q44 0 44 -54zM727 355q0 -169 -96.5 -272.5t-253.5 -103.5t-253 103.5t-96 272.5t96.5 272.5
t252.5 103.5t253 -103.5t97 -272.5zM550 353q0 104 -47.5 164t-125.5 60t-125.5 -60t-47.5 -164q0 -100 48 -159.5t125 -59.5t125 59.5t48 159.5z" />
    <glyph glyph-name="Odieresis" unicode="&#xd6;" horiz-adv-x="755" 
d="M534 853q0 -80 -70 -80q-32 0 -51 21.5t-19 58.5t19 59t51 22t51 -22t19 -59zM362 853q0 -80 -70 -80q-32 0 -51 21.5t-19 58.5t19 59t51 22t51 -22t19 -59zM727 355q0 -169 -96.5 -272.5t-253.5 -103.5t-253 103.5t-96 272.5t96.5 272.5t252.5 103.5t253 -103.5
t97 -272.5zM550 353q0 104 -47.5 164t-125.5 60t-125.5 -60t-47.5 -164q0 -100 48 -159.5t125 -59.5t125 59.5t48 159.5z" />
    <glyph glyph-name="Omacron" unicode="&#x14c;" horiz-adv-x="755" 
d="M532 862q0 -28 -18.5 -45.5t-46.5 -17.5h-193q-64 0 -64 62q0 28 18 45.5t46 17.5h193q65 0 65 -62zM727 355q0 -169 -96.5 -272.5t-253.5 -103.5t-253 103.5t-96 272.5t96.5 272.5t252.5 103.5t253 -103.5t97 -272.5zM550 353q0 104 -47.5 164t-125.5 60t-125.5 -60
t-47.5 -164q0 -100 48 -159.5t125 -59.5t125 59.5t48 159.5z" />
    <glyph glyph-name="Obreve" unicode="&#x14e;" horiz-adv-x="755" 
d="M538 889q0 -56 -56 -91q-49 -31 -109 -31q-59 0 -108 31q-57 35 -57 91q0 55 53 55q27 0 47 -29q2 -3 4 -7q20 -29 61 -29q40 0 59 24q0 1 7 12q19 29 46 29q53 0 53 -55zM727 355q0 -169 -96.5 -272.5t-253.5 -103.5t-253 103.5t-96 272.5t96.5 272.5t252.5 103.5
t253 -103.5t97 -272.5zM550 353q0 104 -47.5 164t-125.5 60t-125.5 -60t-47.5 -164q0 -100 48 -159.5t125 -59.5t125 59.5t48 159.5z" />
    <glyph glyph-name="Ohungarumlaut" unicode="&#x150;" horiz-adv-x="755" 
d="M577 884q0 -28 -22 -55l-47 -57q-25 -30 -47 -30q-21 0 -33 16.5t-12 37.5q0 19 15 44l44 73q19 33 48 33q25 0 39.5 -18.5t14.5 -43.5zM403 884q0 -28 -22 -55l-45 -54q-25 -31 -47 -31q-20 0 -32 17t-12 38q0 19 14 44l42 70q19 33 48 33q24 0 39 -18.5t15 -43.5z
M727 355q0 -169 -96.5 -272.5t-253.5 -103.5t-253 103.5t-96 272.5t96.5 272.5t252.5 103.5t253 -103.5t97 -272.5zM550 353q0 104 -47.5 164t-125.5 60t-125.5 -60t-47.5 -164q0 -100 48 -159.5t125 -59.5t125 59.5t48 159.5z" />
    <glyph glyph-name="Oslash" unicode="&#xd8;" horiz-adv-x="755" 
d="M742 707q0 -21 -25 -50l-57 -65q67 -104 67 -237q0 -168 -96.5 -272t-253.5 -104q-132 0 -214 68l-55 -61q-32 -35 -53 -35q-19 0 -32 13t-13 32q0 24 24 50l64 69q-70 98 -70 240q0 169 96.5 272.5t252.5 103.5q128 0 217 -71l50 56q30 34 52 34q20 0 33 -12.5t13 -30.5
zM482 539q-36 38 -105 38q-78 0 -125.5 -60t-47.5 -164q0 -52 17 -103zM550 353q0 54 -15 103l-261 -286q45 -36 103 -36q77 0 125 59.5t48 159.5z" />
    <glyph glyph-name="OE" unicode="&#x152;" horiz-adv-x="992" 
d="M964 75q0 -75 -115 -75h-188q-46 0 -64 7q-28 13 -35 52q-70 -73 -196 -73q-149 0 -242 101q-96 102 -96 268q0 169 96 269.5t253 100.5q119 0 187 -71q6 57 98 57h182q115 0 115 -76q0 -75 -115 -75h-132v-127h115q114 0 114 -75t-114 -75h-115v-133h137q115 0 115 -75z
M550 353q0 104 -47.5 164t-125.5 60t-125.5 -60t-47.5 -164q0 -100 48 -159.5t125 -59.5t125 59.5t48 159.5z" />
    <glyph glyph-name="Racute" unicode="&#x154;" horiz-adv-x="597" 
d="M393 883q0 -30 -26 -56l-41 -40q-32 -31 -54 -31q-24 0 -39 15.5t-15 39.5q0 19 17 44l38 56q22 32 57 32q27 0 45 -17.5t18 -42.5zM578 62q0 -32 -22 -54t-55 -22q-41 0 -87 58l-189 237v-175q0 -115 -81 -115t-81 115v491q0 62 23.5 88t88.5 26h126q129 0 200 -60.5
t71 -161.5q0 -76 -45 -127.5t-125 -64.5l128 -142q48 -53 48 -93zM403 477q0 85 -101 85h-77v-173h75q103 0 103 88z" />
    <glyph glyph-name="Rcaron" unicode="&#x158;" horiz-adv-x="597" 
d="M462 890q0 -30 -30 -54l-109 -85q-19 -15 -41 -15q-21 0 -41 15l-109 85q-30 24 -30 54q0 23 13.5 37.5t33.5 14.5t46 -16l87 -52l87 52q27 16 46 16q21 0 34 -14.5t13 -37.5zM578 62q0 -32 -22 -54t-55 -22q-41 0 -87 58l-189 237v-175q0 -115 -81 -115t-81 115v491
q0 62 23.5 88t88.5 26h126q129 0 200 -60.5t71 -161.5q0 -76 -45 -127.5t-125 -64.5l128 -142q48 -53 48 -93zM403 477q0 85 -101 85h-77v-173h75q103 0 103 88z" />
    <glyph glyph-name="Rcommaaccent" unicode="&#x156;" horiz-adv-x="597" 
d="M578 62q0 -32 -22 -54t-55 -22q-41 0 -87 58l-189 237v-175q0 -115 -81 -115t-81 115v491q0 62 23.5 88t88.5 26h126q129 0 200 -60.5t71 -161.5q0 -76 -45 -127.5t-125 -64.5l128 -142q48 -53 48 -93zM403 477q0 85 -101 85h-77v-173h75q103 0 103 88zM406 -158
q0 -71 -47.5 -124t-99.5 -53q-12 0 -21 8t-9 19q0 15 15 25q19 10 37 20q51 28 52 79q-21 -8 -37 -8q-32 0 -51.5 20.5t-19.5 53.5q0 36 23.5 59t59.5 23q42 0 70 -34t28 -88z" />
    <glyph glyph-name="Sacute" unicode="&#x15a;" horiz-adv-x="551" 
d="M389 885q0 -31 -26 -56l-41 -40q-32 -31 -54 -31q-24 0 -39 15.5t-15 39.5q0 19 17 44l38 56q22 32 57 32q27 0 45 -17.5t18 -42.5zM531 220q0 -105 -75 -172t-201 -67q-97 0 -163.5 34.5t-66.5 79.5q0 33 21.5 53t58.5 20q18 0 75.5 -18t97.5 -18q34 0 57 21t23 52
q0 39 -33 62q-24 16 -91 36q-107 32 -152 75q-49 46 -49 127q0 98 71 161.5t187 63.5q86 0 140 -30.5t54 -74.5q0 -69 -73 -69q-19 0 -62 12.5t-65 12.5q-37 0 -58 -17t-21 -44q0 -34 34 -51q8 -4 95 -33q196 -65 196 -216z" />
    <glyph glyph-name="Scircumflex" unicode="&#x15c;" horiz-adv-x="551" 
d="M464 794q0 -51 -47 -51q-21 0 -46 15l-87 52l-87 -52q-25 -15 -46 -15q-47 0 -47 51q0 30 30 54l109 85q20 16 41 16q20 0 41 -16l109 -85q30 -24 30 -54zM531 220q0 -105 -75 -172t-201 -67q-97 0 -163.5 34.5t-66.5 79.5q0 33 21.5 53t58.5 20q18 0 75.5 -18t97.5 -18
q34 0 57 21t23 52q0 39 -33 62q-24 16 -91 36q-107 32 -152 75q-49 46 -49 127q0 98 71 161.5t187 63.5q86 0 140 -30.5t54 -74.5q0 -69 -73 -69q-19 0 -62 12.5t-65 12.5q-37 0 -58 -17t-21 -44q0 -34 34 -51q8 -4 95 -33q196 -65 196 -216z" />
    <glyph glyph-name="Scaron" unicode="&#x160;" horiz-adv-x="551" 
d="M467 893q0 -31 -30 -54l-109 -85q-19 -15 -41 -15q-21 0 -41 15l-109 85q-30 23 -30 54q0 23 13.5 37.5t33.5 14.5t46 -16l87 -52l87 52q27 16 46 16q21 0 34 -15t13 -37zM531 220q0 -105 -75 -172t-201 -67q-97 0 -163.5 34.5t-66.5 79.5q0 33 21.5 53t58.5 20
q18 0 75.5 -18t97.5 -18q34 0 57 21t23 52q0 39 -33 62q-24 16 -91 36q-107 32 -152 75q-49 46 -49 127q0 98 71 161.5t187 63.5q86 0 140 -30.5t54 -74.5q0 -69 -73 -69q-19 0 -62 12.5t-65 12.5q-37 0 -58 -17t-21 -44q0 -34 34 -51q8 -4 95 -33q196 -65 196 -216z" />
    <glyph glyph-name="Scedilla" unicode="&#x15e;" horiz-adv-x="551" 
d="M531 220q0 -81 -46 -141t-127 -84q36 -30 36 -74q0 -51 -48.5 -84t-130.5 -33q-63 0 -97.5 21t-34.5 55q0 47 58 47q11 0 32.5 -2.5t31.5 -2.5q46 0 46 31q0 28 -16 28q-90 5 -150 38.5t-60 75.5q0 33 21.5 53t58.5 20q18 0 75.5 -18t97.5 -18q34 0 57 21t23 52
q0 39 -33 62q-24 16 -91 36q-107 32 -152 75q-49 46 -49 127q0 98 71 161.5t187 63.5q86 0 140 -30.5t54 -74.5q0 -69 -73 -69q-19 0 -62 12.5t-65 12.5q-37 0 -58 -17t-21 -44q0 -34 34 -51q8 -4 95 -33q196 -65 196 -216z" />
    <glyph glyph-name="Scommaaccent" unicode="&#x218;" horiz-adv-x="551" 
d="M531 220q0 -105 -75 -172t-201 -67q-97 0 -163.5 34.5t-66.5 79.5q0 33 21.5 53t58.5 20q18 0 75.5 -18t97.5 -18q34 0 57 21t23 52q0 39 -33 62q-24 16 -91 36q-107 32 -152 75q-49 46 -49 127q0 98 71 161.5t187 63.5q86 0 140 -30.5t54 -74.5q0 -69 -73 -69
q-19 0 -62 12.5t-65 12.5q-37 0 -58 -17t-21 -44q0 -34 34 -51q8 -4 95 -33q196 -65 196 -216zM384 -158q0 -71 -47.5 -124t-99.5 -53q-12 0 -21 8t-9 19q0 15 15 25q19 10 37 20q51 28 52 79q-21 -8 -37 -8q-32 0 -51.5 20.5t-19.5 53.5q0 36 23.5 59t59.5 23q42 0 70 -34
t28 -88z" />
    <glyph glyph-name="Tcaron" unicode="&#x164;" horiz-adv-x="472" 
d="M415 896q0 -31 -30 -54l-109 -85q-19 -15 -41 -15t-41 15l-109 85q-30 23 -30 54q0 23 13 37.5t34 14.5q19 0 46 -16l87 -52l87 52q27 16 46 16q20 0 33.5 -15t13.5 -37zM492 635q0 -75 -115 -75h-60v-454q0 -115 -81 -115t-81 115v454h-60q-115 0 -115 75q0 76 115 76
h282q115 0 115 -76z" />
    <glyph glyph-name="Tcommaaccent" unicode="&#x162;" horiz-adv-x="472" 
d="M492 635q0 -75 -115 -75h-60v-454q0 -115 -81 -115t-81 115v454h-60q-115 0 -115 75q0 76 115 76h282q115 0 115 -76zM334 -158q0 -71 -47.5 -124t-99.5 -53q-12 0 -21 8t-9 19q0 15 15 25q19 10 37 20q51 28 52 79q-21 -8 -37 -8q-32 0 -51.5 20.5t-19.5 53.5
q0 36 23.5 59t59.5 23q42 0 70 -34t28 -88z" />
    <glyph glyph-name="Tcommaaccent" unicode="&#x21a;" horiz-adv-x="472" 
d="M492 635q0 -75 -115 -75h-60v-454q0 -115 -81 -115t-81 115v454h-60q-115 0 -115 75q0 76 115 76h282q115 0 115 -76zM334 -158q0 -71 -47.5 -124t-99.5 -53q-12 0 -21 8t-9 19q0 15 15 25q19 10 37 20q51 28 52 79q-21 -8 -37 -8q-32 0 -51.5 20.5t-19.5 53.5
q0 36 23.5 59t59.5 23q42 0 70 -34t28 -88z" />
    <glyph glyph-name="Tcedilla" unicode="&#xf6c1;" horiz-adv-x="472" 
d="M492 635q0 -75 -115 -75h-60v-454q0 -64 -24 -92q68 -27 68 -93q0 -51 -48.5 -84t-130.5 -33q-63 0 -97.5 21t-34.5 55q0 47 58 47q11 0 32.5 -2.5t31.5 -2.5q46 0 46 31q0 22 -34 56q-29 29 -29 97v454h-60q-115 0 -115 75q0 76 115 76h282q115 0 115 -76z" />
    <glyph glyph-name="Tbar" unicode="&#x166;" horiz-adv-x="472" 
d="M492 635q0 -75 -115 -75h-60v-184h24q78 0 78 -69q0 -68 -79 -68h-23v-133q0 -115 -81 -115t-81 115v133h-18q-78 0 -78 69q0 68 79 68h17v184h-60q-115 0 -115 75q0 76 115 76h282q115 0 115 -76z" />
    <glyph glyph-name="Thorn" unicode="&#xde;" horiz-adv-x="606" 
d="M581 363q0 -113 -65 -177t-182 -64h-109v-16q0 -115 -81 -115t-81 115v499q0 115 81 115t81 -108v-7h96q121 0 190.5 -65.5t69.5 -176.5zM406 363q0 94 -111 94h-70v-188h70q111 0 111 94z" />
    <glyph glyph-name="Ugrave" unicode="&#xd9;" horiz-adv-x="736" 
d="M438 813q0 -24 -15 -39.5t-39 -15.5q-22 0 -54 31l-41 40q-26 25 -26 56q0 25 18 42.5t45 17.5q35 0 57 -32l38 -56q17 -25 17 -44zM673 305q0 -157 -81.5 -241.5t-223.5 -84.5t-222 84q-83 85 -83 242v300q0 115 81 115t81 -115v-282q0 -189 143 -189t143 189v282
q0 115 81 115t81 -115v-300z" />
    <glyph glyph-name="Uacute" unicode="&#xda;" horiz-adv-x="736" 
d="M490 885q0 -31 -26 -56l-41 -40q-32 -31 -54 -31q-24 0 -39 15.5t-15 39.5q0 19 17 44l38 56q22 32 57 32q27 0 45 -17.5t18 -42.5zM673 305q0 -157 -81.5 -241.5t-223.5 -84.5t-222 84q-83 85 -83 242v300q0 115 81 115t81 -115v-282q0 -189 143 -189t143 189v282
q0 115 81 115t81 -115v-300z" />
    <glyph glyph-name="Ucircumflex" unicode="&#xdb;" horiz-adv-x="736" 
d="M550 790q0 -51 -47 -51q-21 0 -46 15l-87 53l-87 -53q-25 -15 -46 -15q-47 0 -47 51q0 31 30 54l109 85q20 16 41 16q20 0 41 -16l109 -85q30 -23 30 -54zM673 305q0 -157 -81.5 -241.5t-223.5 -84.5t-222 84q-83 85 -83 242v300q0 115 81 115t81 -115v-282
q0 -189 143 -189t143 189v282q0 115 81 115t81 -115v-300z" />
    <glyph glyph-name="Utilde" unicode="&#x168;" horiz-adv-x="736" 
d="M506 868q0 -36 -24 -61.5t-60 -25.5q-16 0 -46.5 9.5t-46.5 9.5q-13 0 -34 -8.5t-29 -8.5q-44 0 -44 53q0 36 23.5 61.5t60.5 25.5q16 0 46.5 -9.5t45.5 -9.5q13 0 34 9t30 9q44 0 44 -54zM673 305q0 -157 -81.5 -241.5t-223.5 -84.5t-222 84q-83 85 -83 242v300
q0 115 81 115t81 -115v-282q0 -189 143 -189t143 189v282q0 115 81 115t81 -115v-300z" />
    <glyph glyph-name="Udieresis" unicode="&#xdc;" horiz-adv-x="736" 
d="M524 853q0 -80 -70 -80q-32 0 -51 21.5t-19 58.5t19 59t51 22t51 -22t19 -59zM352 853q0 -80 -70 -80q-32 0 -51 21.5t-19 58.5t19 59t51 22t51 -22t19 -59zM673 305q0 -157 -81.5 -241.5t-223.5 -84.5t-222 84q-83 85 -83 242v300q0 115 81 115t81 -115v-282
q0 -189 143 -189t143 189v282q0 115 81 115t81 -115v-300z" />
    <glyph glyph-name="Umacron" unicode="&#x16a;" horiz-adv-x="736" 
d="M531 861q0 -28 -18.5 -45.5t-46.5 -17.5h-193q-65 0 -65 62q0 28 18.5 45.5t46.5 17.5h193q65 0 65 -62zM673 305q0 -157 -81.5 -241.5t-223.5 -84.5t-222 84q-83 85 -83 242v300q0 115 81 115t81 -115v-282q0 -189 143 -189t143 189v282q0 115 81 115t81 -115v-300z" />
    <glyph glyph-name="Ubreve" unicode="&#x16c;" horiz-adv-x="736" 
d="M536 886q0 -56 -56 -92q-49 -30 -109 -30t-109 31q-56 35 -56 91q0 55 52 55q28 0 47 -29q2 -3 5 -7q20 -29 61 -29q39 0 58 24q0 1 8 12q18 29 46 29q53 0 53 -55zM673 305q0 -157 -81.5 -241.5t-223.5 -84.5t-222 84q-83 85 -83 242v300q0 115 81 115t81 -115v-282
q0 -189 143 -189t143 189v282q0 115 81 115t81 -115v-300z" />
    <glyph glyph-name="Uring" unicode="&#x16e;" horiz-adv-x="736" 
d="M485 840q0 -44 -31 -75t-75 -31t-75 31t-31 75t31.5 75t74.5 31q44 0 75 -31t31 -75zM673 305q0 -157 -81.5 -241.5t-223.5 -84.5t-222 84q-83 85 -83 242v300q0 115 81 115t81 -115v-282q0 -189 143 -189t143 189v282q0 115 81 115t81 -115v-300zM418 840q0 17 -11 28
t-28 11t-28.5 -11t-11.5 -28q0 -16 12 -27.5t28 -11.5q17 0 28 11t11 28z" />
    <glyph glyph-name="Uhungarumlaut" unicode="&#x170;" horiz-adv-x="736" 
d="M562 886q0 -28 -22 -54l-47 -57q-25 -31 -47 -31q-21 0 -33 16.5t-12 38.5q0 18 15 44l44 73q19 32 47 32q25 0 40 -18.5t15 -43.5zM387 886q0 -27 -22 -54l-44 -54q-25 -31 -47 -31q-21 0 -33 16.5t-12 38.5q0 19 15 43l41 71q19 32 49 32q24 0 38.5 -18.5t14.5 -43.5z
M673 305q0 -157 -81.5 -241.5t-223.5 -84.5t-222 84q-83 85 -83 242v300q0 115 81 115t81 -115v-282q0 -189 143 -189t143 189v282q0 115 81 115t81 -115v-300z" />
    <glyph glyph-name="Uogonek" unicode="&#x172;" horiz-adv-x="736" 
d="M673 305q0 -184 -114 -270q-37 -28 -51 -45q-21 -25 -21 -55q0 -40 47 -40q17 0 32.5 16t25.5 16q18 0 30.5 -11.5t12.5 -29.5q0 -37 -42 -63q-37 -23 -76 -23q-142 0 -142 117q0 33 24 63q-15 -1 -31 -1q-142 0 -222 84q-83 85 -83 242v300q0 115 81 115t81 -115v-282
q0 -189 143 -189t143 189v282q0 115 81 115t81 -115v-300z" />
    <glyph glyph-name="Wcircumflex" unicode="&#x174;" horiz-adv-x="914" 
d="M639 795q0 -51 -47 -51q-21 0 -46 15l-87 53l-87 -53q-25 -15 -46 -15q-47 0 -47 51q0 30 30 54l109 85q20 16 41 16q20 0 41 -16l109 -85q30 -24 30 -54zM911 645q0 -24 -6 -48l-124 -499q-15 -60 -35 -81q-24 -26 -77 -26q-84 0 -108 91l-106 406l-100 -397
q-25 -100 -117 -100q-47 0 -72.5 25t-38.5 82l-118 514q-2 9 -2 36q0 33 23 53t59 20q65 0 78 -71l85 -452l118 454q18 68 90 68q70 0 88 -70l116 -452l85 441q16 81 82 81q36 0 58 -21.5t22 -53.5z" />
    <glyph glyph-name="Yacute" unicode="&#xdd;" horiz-adv-x="516" 
d="M370 885q0 -31 -26 -56l-41 -40q-32 -31 -54 -31q-24 0 -39 15.5t-15 39.5q0 19 17 44l38 56q22 32 57 32q27 0 45 -17.5t18 -42.5zM544 651q0 -29 -37 -82l-164 -234v-229q0 -115 -81 -115t-81 115v229l-164 232q-36 51 -36 82q0 28 22 49.5t56 21.5q40 0 83 -62
l121 -173l123 175q43 61 87 61q27 0 49 -22t22 -48z" />
    <glyph glyph-name="Ycircumflex" unicode="&#x176;" horiz-adv-x="516" 
d="M445 795q0 -51 -47 -51q-21 0 -46 15l-87 53l-87 -53q-25 -15 -46 -15q-47 0 -47 51q0 30 30 54l109 85q20 16 41 16q20 0 41 -16l109 -85q30 -24 30 -54zM544 651q0 -29 -37 -82l-164 -234v-229q0 -115 -81 -115t-81 115v229l-164 232q-36 51 -36 82q0 28 22 49.5
t56 21.5q40 0 83 -62l121 -173l123 175q43 61 87 61q27 0 49 -22t22 -48z" />
    <glyph glyph-name="Ydieresis" unicode="&#x178;" horiz-adv-x="516" 
d="M414 853q0 -80 -70 -80q-32 0 -51 21.5t-19 58.5t19 59t51 22t51 -22t19 -59zM242 853q0 -80 -70 -80q-32 0 -51 21.5t-19 58.5t19 59t51 22t51 -22t19 -59zM544 651q0 -29 -37 -82l-164 -234v-229q0 -115 -81 -115t-81 115v229l-164 232q-36 51 -36 82q0 28 22 49.5
t56 21.5q40 0 83 -62l121 -173l123 175q43 61 87 61q27 0 49 -22t22 -48z" />
    <glyph glyph-name="Zacute" unicode="&#x179;" horiz-adv-x="532" 
d="M382 885q0 -31 -26 -56l-41 -40q-32 -31 -54 -31q-24 0 -39 15.5t-15 39.5q0 19 17 44l38 56q22 32 57 32q27 0 45 -17.5t18 -42.5zM548 75q0 -75 -115 -75h-325q-114 0 -114 81q0 38 45 98l290 385h-209q-115 0 -115 73q0 74 115 74h275q139 0 139 -79q0 -35 -47 -99
l-283 -383h229q115 0 115 -75z" />
    <glyph glyph-name="Zcaron" unicode="&#x17d;" horiz-adv-x="532" 
d="M462 893q0 -31 -30 -54l-109 -85q-19 -15 -41 -15q-21 0 -41 15l-109 85q-30 23 -30 54q0 23 13.5 37.5t33.5 14.5t46 -16l87 -52l87 52q27 16 46 16q21 0 34 -15t13 -37zM548 75q0 -75 -115 -75h-325q-114 0 -114 81q0 38 45 98l290 385h-209q-115 0 -115 73
q0 74 115 74h275q139 0 139 -79q0 -35 -47 -99l-283 -383h229q115 0 115 -75z" />
    <glyph glyph-name="Zdotaccent" unicode="&#x17b;" horiz-adv-x="532" 
d="M358 854q0 -38 -26 -64.5t-64 -26.5t-64.5 26.5t-26.5 64.5t27 64.5t64 26.5t63.5 -26.5t26.5 -64.5zM548 75q0 -75 -115 -75h-325q-114 0 -114 81q0 38 45 98l290 385h-209q-115 0 -115 73q0 74 115 74h275q139 0 139 -79q0 -35 -47 -99l-283 -383h229q115 0 115 -75z
" />
    <glyph glyph-name="agrave" unicode="&#xe0;" 
d="M372 632q0 -24 -15 -39.5t-39 -15.5q-22 0 -54 31l-41 40q-26 25 -26 56q0 25 18 42.5t45 17.5q35 0 57 -32l38 -56q17 -25 17 -44zM547 108q0 -115 -78 -115q-50 0 -75 55q-49 -60 -132 -60q-99 0 -169 78.5t-70 199.5q0 119 71.5 199t173.5 80q79 0 126 -56
q28 50 75 50q78 0 78 -114v-317zM389 268q0 57 -28.5 91.5t-72.5 34.5t-73 -34.5t-29 -91.5q0 -59 29 -94t73 -35t72.5 35.5t28.5 93.5z" />
    <glyph glyph-name="aacute" unicode="&#xe1;" 
d="M416 704q0 -31 -26 -56l-41 -40q-32 -31 -54 -31q-24 0 -39 15.5t-15 39.5q0 19 17 44l38 56q22 32 57 32q27 0 45 -17.5t18 -42.5zM547 108q0 -115 -78 -115q-50 0 -75 55q-49 -60 -132 -60q-99 0 -169 78.5t-70 199.5q0 119 71.5 199t173.5 80q79 0 126 -56
q28 50 75 50q78 0 78 -114v-317zM389 268q0 57 -28.5 91.5t-72.5 34.5t-73 -34.5t-29 -91.5q0 -59 29 -94t73 -35t72.5 35.5t28.5 93.5z" />
    <glyph glyph-name="acircumflex" unicode="&#xe2;" 
d="M496 609q0 -51 -47 -51q-21 0 -46 15l-87 53l-87 -53q-24 -15 -46 -15q-47 0 -47 51q0 30 30 54l109 85q21 16 41 16q21 0 41 -16l109 -85q30 -24 30 -54zM547 108q0 -115 -78 -115q-50 0 -75 55q-49 -60 -132 -60q-99 0 -169 78.5t-70 199.5q0 119 71.5 199t173.5 80
q79 0 126 -56q28 50 75 50q78 0 78 -114v-317zM389 268q0 57 -28.5 91.5t-72.5 34.5t-73 -34.5t-29 -91.5q0 -59 29 -94t73 -35t72.5 35.5t28.5 93.5z" />
    <glyph glyph-name="atilde" unicode="&#xe3;" 
d="M443 687q0 -36 -24 -61.5t-60 -25.5q-17 0 -47.5 9.5t-45.5 9.5q-16 0 -35 -8.5t-28 -8.5q-44 0 -44 53q0 37 24.5 62t59.5 25q17 0 47 -9.5t45 -9.5q16 0 35.5 9t28.5 9q44 0 44 -54zM547 108q0 -115 -78 -115q-50 0 -75 55q-49 -60 -132 -60q-99 0 -169 78.5t-70 199.5
q0 119 71.5 199t173.5 80q79 0 126 -56q28 50 75 50q78 0 78 -114v-317zM389 268q0 57 -28.5 91.5t-72.5 34.5t-73 -34.5t-29 -91.5q0 -59 29 -94t73 -35t72.5 35.5t28.5 93.5z" />
    <glyph glyph-name="adieresis" unicode="&#xe4;" 
d="M457 672q0 -80 -70 -80q-32 0 -51 21.5t-19 58.5t19 59t51 22t51 -22t19 -59zM285 672q0 -80 -70 -80q-32 0 -51 21.5t-19 58.5t19 59t51 22t51 -22t19 -59zM547 108q0 -115 -78 -115q-50 0 -75 55q-49 -60 -132 -60q-99 0 -169 78.5t-70 199.5q0 119 71.5 199t173.5 80
q79 0 126 -56q28 50 75 50q78 0 78 -114v-317zM389 268q0 57 -28.5 91.5t-72.5 34.5t-73 -34.5t-29 -91.5q0 -59 29 -94t73 -35t72.5 35.5t28.5 93.5z" />
    <glyph glyph-name="amacron" unicode="&#x101;" 
d="M474 673q0 -28 -18.5 -45.5t-46.5 -17.5h-192q-65 0 -65 62q0 28 18.5 45.5t46.5 17.5h192q65 0 65 -62zM547 108q0 -115 -78 -115q-50 0 -75 55q-49 -60 -132 -60q-99 0 -169 78.5t-70 199.5q0 119 71.5 199t173.5 80q79 0 126 -56q28 50 75 50q78 0 78 -114v-317z
M389 268q0 57 -28.5 91.5t-72.5 34.5t-73 -34.5t-29 -91.5q0 -59 29 -94t73 -35t72.5 35.5t28.5 93.5z" />
    <glyph glyph-name="abreve" unicode="&#x103;" 
d="M465 708q0 -56 -57 -92q-48 -30 -108 -30t-109 31q-56 35 -56 91q0 55 52 55q28 0 47 -29q2 -3 5 -7q19 -29 61 -29q39 0 58 24q0 1 7 12q19 29 46 29q54 0 54 -55zM547 108q0 -115 -78 -115q-50 0 -75 55q-49 -60 -132 -60q-99 0 -169 78.5t-70 199.5q0 119 71.5 199
t173.5 80q79 0 126 -56q28 50 75 50q78 0 78 -114v-317zM389 268q0 57 -28.5 91.5t-72.5 34.5t-73 -34.5t-29 -91.5q0 -59 29 -94t73 -35t72.5 35.5t28.5 93.5z" />
    <glyph glyph-name="aring" unicode="&#xe5;" 
d="M412 674q0 -43 -31 -74.5t-75 -31.5q-43 0 -74 31t-31 75q0 43 31 74.5t74 31.5q44 0 75 -31t31 -75zM547 108q0 -115 -78 -115q-50 0 -75 55q-49 -60 -132 -60q-99 0 -169 78.5t-70 199.5q0 119 71.5 199t173.5 80q79 0 126 -56q28 50 75 50q78 0 78 -114v-317zM346 674
q0 16 -11.5 27.5t-28.5 11.5q-16 0 -27.5 -11t-11.5 -28t11.5 -28.5t27.5 -11.5q17 0 28.5 12t11.5 28zM389 268q0 57 -28.5 91.5t-72.5 34.5t-73 -34.5t-29 -91.5q0 -59 29 -94t73 -35t72.5 35.5t28.5 93.5z" />
    <glyph glyph-name="aogonek" unicode="&#x105;" 
d="M603 -114q0 -37 -42 -63q-37 -23 -76 -23q-142 0 -142 117q0 61 69 101q-10 12 -18 30q-49 -60 -132 -60q-99 0 -169 78.5t-70 199.5q0 119 71.5 199t173.5 80q79 0 126 -56q28 50 75 50q78 0 78 -114v-317q0 -75 -33 -102l-38 -28q-21 -20 -21 -43q0 -40 47 -40
q17 0 32.5 16t25.5 16q18 0 30.5 -11.5t12.5 -29.5zM389 268q0 57 -28.5 91.5t-72.5 34.5t-73 -34.5t-29 -91.5q0 -59 29 -94t73 -35t72.5 35.5t28.5 93.5z" />
    <glyph glyph-name="ae" unicode="&#xe6;" horiz-adv-x="916" 
d="M900 286q0 -40 -21 -54q-16 -10 -57 -10h-281q11 -94 119 -94q45 0 98.5 25.5t66.5 25.5q28 0 46 -17t18 -44q0 -48 -64 -88q-68 -42 -155 -42q-96 0 -146 56q-17 -50 -63 -50q-43 0 -67 54q-49 -60 -132 -60q-99 0 -169 78.5t-70 199.5q0 119 71.5 199t173.5 80
q79 0 126 -56q27 48 68 48q40 0 58 -42q57 52 136 52q99 0 171.5 -77.5t72.5 -183.5zM746 325q-3 41 -32 67.5t-69 26.5t-69.5 -25.5t-37.5 -68.5h208zM400 268q0 60 -31.5 97t-78.5 37t-78.5 -36.5t-31.5 -97.5q0 -62 31.5 -99.5t78.5 -37.5t78.5 38t31.5 99z" />
    <glyph glyph-name="cacute" unicode="&#x107;" horiz-adv-x="475" 
d="M384 704q0 -31 -26 -56l-41 -40q-32 -31 -54 -31q-24 0 -39 15.5t-15 39.5q0 19 17 44l38 56q22 32 57 32q27 0 45 -17.5t18 -42.5zM470 445q0 -29 -18.5 -48t-46.5 -19q-12 0 -49 12t-62 12q-48 0 -78.5 -36.5t-30.5 -96.5q0 -62 30.5 -97.5t84.5 -35.5q26 0 62 12
t46 12q27 0 44 -20t17 -48q0 -43 -51 -73q-54 -32 -134 -32q-116 0 -188.5 77t-72.5 202q0 124 74.5 202t196.5 78q79 0 127.5 -28t48.5 -73z" />
    <glyph glyph-name="ccircumflex" unicode="&#x109;" horiz-adv-x="475" 
d="M462 608q0 -51 -47 -51q-21 0 -46 15l-87 53l-87 -53q-25 -15 -46 -15q-47 0 -47 51q0 30 30 54l109 85q21 16 41 16t41 -16l109 -85q30 -24 30 -54zM470 445q0 -29 -18.5 -48t-46.5 -19q-12 0 -49 12t-62 12q-48 0 -78.5 -36.5t-30.5 -96.5q0 -62 30.5 -97.5t84.5 -35.5
q26 0 62 12t46 12q27 0 44 -20t17 -48q0 -43 -51 -73q-54 -32 -134 -32q-116 0 -188.5 77t-72.5 202q0 124 74.5 202t196.5 78q79 0 127.5 -28t48.5 -73z" />
    <glyph glyph-name="ccaron" unicode="&#x10d;" horiz-adv-x="475" 
d="M461 711q0 -31 -30 -54l-109 -85q-19 -15 -41 -15t-41 15l-109 85q-30 23 -30 54q0 23 13.5 37.5t33.5 14.5q19 0 46 -16l87 -52l87 52q27 16 46 16q20 0 33.5 -15t13.5 -37zM470 445q0 -29 -18.5 -48t-46.5 -19q-12 0 -49 12t-62 12q-48 0 -78.5 -36.5t-30.5 -96.5
q0 -62 30.5 -97.5t84.5 -35.5q26 0 62 12t46 12q27 0 44 -20t17 -48q0 -43 -51 -73q-54 -32 -134 -32q-116 0 -188.5 77t-72.5 202q0 124 74.5 202t196.5 78q79 0 127.5 -28t48.5 -73z" />
    <glyph glyph-name="cdotaccent" unicode="&#x10b;" horiz-adv-x="475" 
d="M360 672q0 -38 -25 -65.5t-62 -27.5t-62.5 27.5t-25.5 65.5t25 65.5t63 27.5q37 0 62 -28t25 -65zM470 445q0 -29 -18.5 -48t-46.5 -19q-12 0 -49 12t-62 12q-48 0 -78.5 -36.5t-30.5 -96.5q0 -62 30.5 -97.5t84.5 -35.5q26 0 62 12t46 12q27 0 44 -20t17 -48
q0 -43 -51 -73q-54 -32 -134 -32q-116 0 -188.5 77t-72.5 202q0 124 74.5 202t196.5 78q79 0 127.5 -28t48.5 -73z" />
    <glyph glyph-name="ccedilla" unicode="&#xe7;" horiz-adv-x="475" 
d="M400 -79q0 -51 -48.5 -84t-130.5 -33q-63 0 -97.5 21t-34.5 55q0 47 58 47q11 0 32.5 -2.5t31.5 -2.5q46 0 46 31q0 13 -19 31l-8 8q-80 13 -135 72q-72 77 -72 202q0 124 74.5 202t196.5 78q79 0 127.5 -28t48.5 -73q0 -29 -18.5 -48t-46.5 -19q-12 0 -49 12t-62 12
q-48 0 -78.5 -36.5t-30.5 -96.5q0 -62 30.5 -97.5t84.5 -35.5q26 0 62 12t46 12q27 0 44 -20t17 -48q0 -43 -51 -73q-25 -15 -55 -22l6 -6q31 -30 31 -70z" />
    <glyph glyph-name="dcaron" unicode="&#x10f;" horiz-adv-x="603" 
d="M547 108q0 -115 -78 -115q-47 0 -75 51q-49 -54 -128 -54q-98 0 -169 80q-74 82 -74 201q0 118 71.5 198t171.5 80q72 0 124 -45v144q0 115 79 115q78 0 78 -115v-540zM392 269q0 61 -29 97.5t-74 36.5t-74.5 -37t-29.5 -97q0 -59 29.5 -95.5t74.5 -36.5t74 36t29 96z
M700 681q0 -53 -36 -93t-75 -40q-9 0 -15.5 6t-6.5 14q0 11 12.5 19t27.5 15q37 21 38 58q-14 -5 -27 -5q-24 0 -39 15t-15 40q0 26 17.5 43.5t45.5 17.5q31 0 52 -25t21 -65z" />
    <glyph glyph-name="dcroat" unicode="&#x111;" horiz-adv-x="613" 
d="M629 632q0 -40 -59 -40h-23v-484q0 -115 -78 -115q-47 0 -75 51q-50 -54 -128 -54q-107 0 -177 89q-66 82 -66 192q0 111 65 191q70 87 178 87q72 0 124 -45v88h-82q-58 0 -58 40q0 41 59 41h81q7 90 79 90q69 0 78 -90h23q59 -1 59 -41zM392 269q0 54 -24 91
q-28 43 -79 43t-79 -43q-25 -37 -25 -91q0 -53 25 -90q29 -42 79 -42t79 42q24 37 24 90z" />
    <glyph glyph-name="eth" unicode="&#xf0;" horiz-adv-x="552" 
d="M530 266q0 -127 -70.5 -204.5t-183.5 -77.5q-110 0 -181.5 75.5t-71.5 192.5q0 110 65.5 185t152.5 75q13 0 36 -4l-46 63l-77 -45q-10 -6 -22 -6q-21 0 -21 24q0 18 18 28l70 40q-45 61 -45 92q0 25 16.5 42.5t40.5 17.5q40 0 109 -80l67 41q10 6 20 6q22 0 22 -24
q0 -18 -17 -28l-59 -35q92 -114 130 -189q47 -94 47 -189zM375 253q0 56 -28 91t-71 35q-42 0 -70 -34.5t-28 -91.5q0 -58 27.5 -92.5t70.5 -34.5t71 35t28 92z" />
    <glyph glyph-name="egrave" unicode="&#xe8;" horiz-adv-x="560" 
d="M356 632q0 -24 -15 -39.5t-39 -15.5q-22 0 -54 31l-41 40q-26 25 -26 56q0 25 18 42.5t45 17.5q35 0 57 -32l38 -56q17 -25 17 -44zM545 286q0 -40 -21 -54q-16 -10 -57 -10h-282q11 -94 119 -94q45 0 99 25.5t67 25.5q28 0 45.5 -17t17.5 -44q0 -49 -67 -89
q-71 -43 -170 -43q-117 0 -195 79.5t-78 199.5q0 121 76 201.5t189 80.5q111 0 184 -76.5t73 -184.5zM391 325q-3 41 -32.5 67.5t-69.5 26.5t-69 -25.5t-37 -68.5h208z" />
    <glyph glyph-name="eacute" unicode="&#xe9;" horiz-adv-x="560" 
d="M384 704q0 -31 -26 -56l-41 -40q-32 -31 -54 -31q-24 0 -39 15.5t-15 39.5q0 19 17 44l38 56q22 32 57 32q27 0 45 -17.5t18 -42.5zM545 286q0 -40 -21 -54q-16 -10 -57 -10h-282q11 -94 119 -94q45 0 99 25.5t67 25.5q28 0 45.5 -17t17.5 -44q0 -49 -67 -89
q-71 -43 -170 -43q-117 0 -195 79.5t-78 199.5q0 121 76 201.5t189 80.5q111 0 184 -76.5t73 -184.5zM391 325q-3 41 -32.5 67.5t-69.5 26.5t-69 -25.5t-37 -68.5h208z" />
    <glyph glyph-name="ecircumflex" unicode="&#xea;" horiz-adv-x="560" 
d="M470 609q0 -51 -47 -51q-21 0 -46 15l-87 53l-87 -53q-24 -15 -46 -15q-47 0 -47 51q0 30 30 54l109 85q21 16 41 16q21 0 41 -16l109 -85q30 -24 30 -54zM545 286q0 -40 -21 -54q-16 -10 -57 -10h-282q11 -94 119 -94q45 0 99 25.5t67 25.5q28 0 45.5 -17t17.5 -44
q0 -49 -67 -89q-71 -43 -170 -43q-117 0 -195 79.5t-78 199.5q0 121 76 201.5t189 80.5q111 0 184 -76.5t73 -184.5zM391 325q-3 41 -32.5 67.5t-69.5 26.5t-69 -25.5t-37 -68.5h208z" />
    <glyph glyph-name="ecaron" unicode="&#x11b;" horiz-adv-x="560" 
d="M463 711q0 -31 -30 -54l-109 -85q-19 -15 -41 -15t-41 15l-109 85q-30 23 -30 54q0 23 13.5 37.5t33.5 14.5q19 0 46 -16l87 -52l87 52q27 16 46 16q20 0 33.5 -15t13.5 -37zM545 286q0 -40 -21 -54q-16 -10 -57 -10h-282q11 -94 119 -94q45 0 99 25.5t67 25.5
q28 0 45.5 -17t17.5 -44q0 -49 -67 -89q-71 -43 -170 -43q-117 0 -195 79.5t-78 199.5q0 121 76 201.5t189 80.5q111 0 184 -76.5t73 -184.5zM391 325q-3 41 -32.5 67.5t-69.5 26.5t-69 -25.5t-37 -68.5h208z" />
    <glyph glyph-name="edieresis" unicode="&#xeb;" horiz-adv-x="560" 
d="M452 672q0 -80 -70 -80q-32 0 -51 21.5t-19 58.5t19 59t51 22t51 -22t19 -59zM280 672q0 -80 -70 -80q-32 0 -51 21.5t-19 58.5t19 59t51 22t51 -22t19 -59zM545 286q0 -40 -21 -54q-16 -10 -57 -10h-282q11 -94 119 -94q45 0 99 25.5t67 25.5q28 0 45.5 -17t17.5 -44
q0 -49 -67 -89q-71 -43 -170 -43q-117 0 -195 79.5t-78 199.5q0 121 76 201.5t189 80.5q111 0 184 -76.5t73 -184.5zM391 325q-3 41 -32.5 67.5t-69.5 26.5t-69 -25.5t-37 -68.5h208z" />
    <glyph glyph-name="emacron" unicode="&#x113;" horiz-adv-x="560" 
d="M451 673q0 -28 -18.5 -45.5t-46.5 -17.5h-192q-65 0 -65 62q0 28 18.5 45.5t46.5 17.5h192q65 0 65 -62zM545 286q0 -40 -21 -54q-16 -10 -57 -10h-282q11 -94 119 -94q45 0 99 25.5t67 25.5q28 0 45.5 -17t17.5 -44q0 -49 -67 -89q-71 -43 -170 -43q-117 0 -195 79.5
t-78 199.5q0 121 76 201.5t189 80.5q111 0 184 -76.5t73 -184.5zM391 325q-3 41 -32.5 67.5t-69.5 26.5t-69 -25.5t-37 -68.5h208z" />
    <glyph glyph-name="ebreve" unicode="&#x115;" horiz-adv-x="560" 
d="M454 708q0 -56 -57 -92q-48 -30 -108 -30t-109 31q-56 35 -56 91q0 55 52 55q28 0 47 -29q2 -3 5 -7q19 -29 61 -29q39 0 58 24q0 1 7 12q19 29 46 29q54 0 54 -55zM545 286q0 -40 -21 -54q-16 -10 -57 -10h-282q11 -94 119 -94q45 0 99 25.5t67 25.5q28 0 45.5 -17
t17.5 -44q0 -49 -67 -89q-71 -43 -170 -43q-117 0 -195 79.5t-78 199.5q0 121 76 201.5t189 80.5q111 0 184 -76.5t73 -184.5zM391 325q-3 41 -32.5 67.5t-69.5 26.5t-69 -25.5t-37 -68.5h208z" />
    <glyph glyph-name="edotaccent" unicode="&#x117;" horiz-adv-x="560" 
d="M375 672q0 -38 -25 -65.5t-62 -27.5t-62.5 27.5t-25.5 65.5t25 65.5t63 27.5q37 0 62 -28t25 -65zM545 286q0 -40 -21 -54q-16 -10 -57 -10h-282q11 -94 119 -94q45 0 99 25.5t67 25.5q28 0 45.5 -17t17.5 -44q0 -49 -67 -89q-71 -43 -170 -43q-117 0 -195 79.5
t-78 199.5q0 121 76 201.5t189 80.5q111 0 184 -76.5t73 -184.5zM391 325q-3 41 -32.5 67.5t-69.5 26.5t-69 -25.5t-37 -68.5h208z" />
    <glyph glyph-name="eogonek" unicode="&#x119;" horiz-adv-x="560" 
d="M545 286q0 -40 -21 -54q-16 -10 -57 -10h-282q11 -94 119 -94q45 0 99 25.5t67 25.5q28 0 45.5 -17t17.5 -44q0 -55 -88 -100q-60 -31 -60 -83q0 -40 47 -40q17 0 32.5 16t25.5 16q18 0 30.5 -11.5t12.5 -29.5q0 -37 -42 -63q-37 -23 -76 -23q-142 0 -142 117q0 37 29 69
h-6q-116 -1 -194.5 79t-78.5 200q0 121 76 201.5t189 80.5q111 0 184 -76.5t73 -184.5zM391 325q-3 41 -32.5 67.5t-69.5 26.5t-69 -25.5t-37 -68.5h208z" />
    <glyph glyph-name="gcircumflex" unicode="&#x11d;" horiz-adv-x="597" 
d="M474 608q0 -51 -47 -51q-21 0 -46 15l-87 53l-87 -53q-25 -15 -46 -15q-47 0 -47 51q0 30 30 54l109 85q21 16 41 16t41 -16l109 -85q30 -24 30 -54zM543 108q0 -156 -37 -218q-71 -118 -240 -118q-105 0 -168 33.5t-63 81.5q0 30 19.5 49.5t48.5 19.5q14 0 68 -21
t101 -21q58 0 90.5 34.5t32.5 98.5v9q-1 6 -1 10q-51 -74 -143 -74q-95 0 -160 77q-68 79 -68 197q0 119 71.5 199t173.5 80q79 0 126 -56q27 50 70 50q79 0 79 -114v-317zM393 266q0 58 -29.5 93.5t-74.5 35.5q-44 0 -73.5 -35.5t-29.5 -93.5q0 -60 29 -96t74 -36
t74.5 36.5t29.5 95.5z" />
    <glyph glyph-name="gbreve" unicode="&#x11f;" horiz-adv-x="597" 
d="M445 708q0 -56 -57 -92q-48 -30 -108 -30t-109 31q-56 35 -56 91q0 55 52 55q28 0 47 -29q2 -3 5 -7q19 -29 61 -29q39 0 58 24q0 1 7 12q19 29 46 29q54 0 54 -55zM543 108q0 -156 -37 -218q-71 -118 -240 -118q-105 0 -168 33.5t-63 81.5q0 30 19.5 49.5t48.5 19.5
q14 0 68 -21t101 -21q58 0 90.5 34.5t32.5 98.5v9q-1 6 -1 10q-51 -74 -143 -74q-95 0 -160 77q-68 79 -68 197q0 119 71.5 199t173.5 80q79 0 126 -56q27 50 70 50q79 0 79 -114v-317zM393 266q0 58 -29.5 93.5t-74.5 35.5q-44 0 -73.5 -35.5t-29.5 -93.5q0 -60 29 -96
t74 -36t74.5 36.5t29.5 95.5z" />
    <glyph glyph-name="gdotaccent" unicode="&#x121;" horiz-adv-x="597" 
d="M374 672q0 -38 -25 -65.5t-62 -27.5t-62.5 27.5t-25.5 65.5t25 65.5t63 27.5q37 0 62 -28t25 -65zM543 108q0 -156 -37 -218q-71 -118 -240 -118q-105 0 -168 33.5t-63 81.5q0 30 19.5 49.5t48.5 19.5q14 0 68 -21t101 -21q58 0 90.5 34.5t32.5 98.5v9q-1 6 -1 10
q-51 -74 -143 -74q-95 0 -160 77q-68 79 -68 197q0 119 71.5 199t173.5 80q79 0 126 -56q27 50 70 50q79 0 79 -114v-317zM393 266q0 58 -29.5 93.5t-74.5 35.5q-44 0 -73.5 -35.5t-29.5 -93.5q0 -60 29 -96t74 -36t74.5 36.5t29.5 95.5z" />
    <glyph glyph-name="gcommaaccent" unicode="&#x123;" horiz-adv-x="597" 
d="M543 108q0 -156 -37 -218q-71 -118 -240 -118q-105 0 -168 33.5t-63 81.5q0 30 19.5 49.5t48.5 19.5q14 0 68 -21t101 -21q58 0 90.5 34.5t32.5 98.5v9q-1 6 -1 10q-51 -74 -143 -74q-95 0 -160 77q-68 79 -68 197q0 119 71.5 199t173.5 80q79 0 126 -56q27 50 70 50
q79 0 79 -114v-317zM393 266q0 58 -29.5 93.5t-74.5 35.5q-44 0 -73.5 -35.5t-29.5 -93.5q0 -60 29 -96t74 -36t74.5 36.5t29.5 95.5zM198 692q0 71 47.5 124t99.5 53q12 0 21 -8t9 -19q0 -15 -15 -25q-19 -10 -37 -20q-51 -28 -52 -79q21 8 37 8q32 0 51.5 -20.5
t19.5 -53.5q0 -36 -23.5 -59t-59.5 -23q-42 0 -70 34t-28 88z" />
    <glyph glyph-name="hcircumflex" unicode="&#x125;" horiz-adv-x="589" 
d="M447 792q0 -51 -47 -51q-21 0 -46 15l-87 53l-87 -53q-25 -15 -46 -15q-47 0 -47 51q0 30 30 54l109 85q21 16 41 16q21 0 41 -16l109 -85q30 -24 30 -54zM539 108q0 -115 -79 -115t-79 115v178q0 64 -19 93t-66 29q-84 0 -84 -120v-180q0 -115 -79 -115t-79 115v510
q0 115 79 115t79 -115v-126q47 50 135 50q192 0 192 -208v-226z" />
    <glyph glyph-name="hbar" unicode="&#x127;" horiz-adv-x="589" 
d="M539 108q0 -115 -79 -115t-79 115v178q0 64 -19 93t-66 29q-84 0 -84 -120v-180q0 -115 -79 -115t-79 115v484q-34 0 -49 10t-15 30q0 18 15.5 29t49.5 12q8 90 78 90t78 -90h99q59 0 59 -41q0 -40 -58 -40h-99v-100q47 50 135 50q192 0 192 -208v-226z" />
    <glyph glyph-name="dotlessi" unicode="&#x131;" horiz-adv-x="275" 
d="M216 108q0 -115 -78 -115q-79 0 -79 115v317q0 114 79 114q78 0 78 -114v-317z" />
    <glyph glyph-name="igrave" unicode="&#xec;" horiz-adv-x="275" 
d="M194 632q0 -24 -15 -39.5t-39 -15.5q-22 0 -54 31l-41 40q-26 25 -26 56q0 25 18 42.5t45 17.5q35 0 57 -32l38 -56q17 -25 17 -44zM216 108q0 -115 -78 -115q-79 0 -79 115v317q0 114 79 114q78 0 78 -114v-317z" />
    <glyph glyph-name="iacute" unicode="&#xed;" horiz-adv-x="275" 
d="M263 704q0 -31 -26 -56l-41 -40q-32 -31 -54 -31q-24 0 -39 15.5t-15 39.5q0 19 17 44l38 56q22 32 57 32q27 0 45 -17.5t18 -42.5zM216 108q0 -115 -78 -115q-79 0 -79 115v317q0 114 79 114q78 0 78 -114v-317z" />
    <glyph glyph-name="ibreve" unicode="&#x12d;" horiz-adv-x="275" 
d="M307 708q0 -56 -57 -92q-48 -30 -108 -30t-109 31q-56 35 -56 91q0 55 52 55q28 0 47 -29q2 -3 5 -7q19 -29 61 -29q39 0 58 24q0 1 7 12q19 29 46 29q54 0 54 -55zM216 108q0 -115 -78 -115q-79 0 -79 115v317q0 114 79 114q78 0 78 -114v-317z" />
    <glyph glyph-name="icircumflex" unicode="&#xee;" horiz-adv-x="275" 
d="M324 609q0 -51 -47 -51q-21 0 -46 15l-87 53l-87 -53q-24 -15 -46 -15q-47 0 -47 51q0 30 30 54l109 85q21 16 41 16q21 0 41 -16l109 -85q30 -24 30 -54zM216 108q0 -115 -78 -115q-79 0 -79 115v317q0 114 79 114q78 0 78 -114v-317z" />
    <glyph glyph-name="itilde" unicode="&#x129;" horiz-adv-x="275" 
d="M276 687q0 -36 -24 -61.5t-60 -25.5q-16 0 -46.5 9.5t-46.5 9.5q-13 0 -34 -8.5t-29 -8.5q-44 0 -44 53q0 36 23.5 61.5t60.5 25.5q16 0 46.5 -9.5t45.5 -9.5q13 0 34 9t30 9q44 0 44 -54zM216 108q0 -115 -78 -115q-79 0 -79 115v317q0 114 79 114q78 0 78 -114v-317z
" />
    <glyph glyph-name="idieresis" unicode="&#xef;" horiz-adv-x="275" 
d="M294 672q0 -80 -70 -80q-32 0 -51 21.5t-19 58.5t19 59t51 22t51 -22t19 -59zM122 672q0 -80 -70 -80q-32 0 -51 21.5t-19 58.5t19 59t51 22t51 -22t19 -59zM216 108q0 -115 -78 -115q-79 0 -79 115v317q0 114 79 114q78 0 78 -114v-317z" />
    <glyph glyph-name="imacron" unicode="&#x12b;" horiz-adv-x="275" 
d="M304 673q0 -28 -18.5 -45.5t-46.5 -17.5h-192q-65 0 -65 62q0 28 18.5 45.5t46.5 17.5h192q65 0 65 -62zM216 108q0 -115 -78 -115q-79 0 -79 115v317q0 114 79 114q78 0 78 -114v-317z" />
    <glyph glyph-name="iogonek" unicode="&#x12f;" horiz-adv-x="275" 
d="M228 672q0 -38 -26 -64.5t-64 -26.5t-64.5 26.5t-26.5 64.5t27 64.5t64 26.5t63.5 -26.5t26.5 -64.5zM286 -114q0 -37 -42 -63q-37 -23 -76 -23q-142 0 -142 117q0 56 60 95q-27 28 -27 96v317q0 114 79 114q78 0 78 -114v-317q0 -70 -28 -98q-17 -15 -33 -31
q-17 -20 -17 -44q0 -40 47 -40q17 0 32.5 16t25.5 16q18 0 30.5 -11.5t12.5 -29.5z" />
    <glyph glyph-name="jcircumflex" unicode="&#x135;" horiz-adv-x="275" 
d="M321 608q0 -51 -47 -51q-21 0 -46 15l-87 53l-87 -53q-25 -15 -46 -15q-47 0 -47 51q0 30 30 54l109 85q21 16 41 16t41 -16l109 -85q30 -24 30 -54zM216 -105q0 -115 -78 -115q-79 0 -79 115v530q0 114 79 114q78 0 78 -114v-530z" />
    <glyph glyph-name="kcommaaccent" unicode="&#x137;" horiz-adv-x="514" 
d="M525 56q0 -27 -21.5 -46t-52.5 -19q-45 0 -82 49l-157 210v-142q0 -115 -79 -115t-79 115v540q0 115 79 115t79 -115v-290l134 139q41 43 81 43q28 0 47 -18t19 -43q0 -39 -40 -76l-106 -98l147 -173q31 -36 31 -76zM378 -158q0 -71 -47.5 -124t-99.5 -53q-12 0 -21 8
t-9 19q0 15 15 25q19 10 37 20q51 28 52 79q-21 -8 -37 -8q-32 0 -51.5 20.5t-19.5 53.5q0 36 23.5 59t59.5 23q42 0 70 -34t28 -88z" />
    <glyph glyph-name="lacute" unicode="&#x13a;" horiz-adv-x="275" 
d="M264 883q0 -30 -26 -56l-41 -40q-32 -31 -54 -31q-24 0 -39 15.5t-15 39.5q0 19 17 44l38 56q22 32 57 32q27 0 45 -17.5t18 -42.5zM216 108q0 -115 -78 -115q-79 0 -79 115v520q0 115 79 115q78 0 78 -115v-520z" />
    <glyph glyph-name="lcaron" unicode="&#x13e;" horiz-adv-x="275" 
d="M216 108q0 -115 -78 -115q-79 0 -79 115v510q0 115 79 115q78 0 78 -115v-510zM370 681q0 -53 -36 -93t-75 -40q-9 0 -15.5 6t-6.5 14q0 11 12.5 19t27.5 15q37 21 38 58q-14 -5 -27 -5q-24 0 -39 15t-15 40q0 26 17.5 43.5t45.5 17.5q31 0 52 -25t21 -65z" />
    <glyph glyph-name="lcommaaccent" unicode="&#x13c;" horiz-adv-x="275" 
d="M216 108q0 -115 -78 -115q-79 0 -79 115v540q0 115 79 115q78 0 78 -115v-540zM236 -158q0 -71 -47.5 -124t-99.5 -53q-12 0 -21 8t-9 19q0 15 15 25q19 10 37 20q51 28 52 79q-21 -8 -37 -8q-32 0 -51.5 20.5t-19.5 53.5q0 36 23.5 59t59.5 23q42 0 70 -34t28 -88z" />
    <glyph glyph-name="lslash" unicode="&#x142;" horiz-adv-x="363" 
d="M350 550q0 -47 -24 -64l-63 -44v-334q0 -115 -79 -115t-79 115v247l-19 -14q-15 -11 -34 -11q-33 0 -33 56q0 40 24 56l62 42v164q0 115 79 115t79 -115v-76l20 14q20 14 34 11q33 -6 33 -47z" />
    <glyph glyph-name="ldot" unicode="&#x140;" horiz-adv-x="426" 
d="M413 355q0 -38 -26.5 -64t-64.5 -26t-64.5 26t-26.5 64t27 64.5t64 26.5q38 0 64.5 -26.5t26.5 -64.5zM216 108q0 -115 -78 -115q-79 0 -79 115v540q0 115 79 115q78 0 78 -115v-540z" />
    <glyph glyph-name="nacute" unicode="&#x144;" horiz-adv-x="589" 
d="M393 704q0 -31 -26 -56l-41 -40q-32 -31 -54 -31q-24 0 -39 15.5t-15 39.5q0 19 17 44l38 56q22 32 57 32q27 0 45 -17.5t18 -42.5zM539 108q0 -115 -79 -115t-79 115v178q0 64 -19 93t-66 29q-84 0 -84 -120v-180q0 -115 -79 -115t-79 115v317q0 114 79 114q47 0 75 -50
q49 53 139 53q192 0 192 -208v-226z" />
    <glyph glyph-name="ncaron" unicode="&#x148;" horiz-adv-x="589" 
d="M470 711q0 -31 -30 -54l-109 -85q-19 -15 -41 -15t-41 15l-109 85q-30 23 -30 54q0 23 13.5 37.5t33.5 14.5q19 0 46 -16l87 -52l87 52q27 16 46 16q20 0 33.5 -15t13.5 -37zM539 108q0 -115 -79 -115t-79 115v178q0 64 -19 93t-66 29q-84 0 -84 -120v-180
q0 -115 -79 -115t-79 115v317q0 114 79 114q47 0 75 -50q49 53 139 53q192 0 192 -208v-226z" />
    <glyph glyph-name="ntilde" unicode="&#xf1;" horiz-adv-x="589" 
d="M447 687q0 -36 -24 -61.5t-60 -25.5q-17 0 -47.5 9.5t-45.5 9.5q-16 0 -35 -8.5t-28 -8.5q-44 0 -44 53q0 37 24.5 62t59.5 25q17 0 47 -9.5t45 -9.5q16 0 35.5 9t28.5 9q44 0 44 -54zM539 108q0 -115 -79 -115t-79 115v178q0 64 -19 93t-66 29q-84 0 -84 -120v-180
q0 -115 -79 -115t-79 115v317q0 114 79 114q47 0 75 -50q49 53 139 53q192 0 192 -208v-226z" />
    <glyph glyph-name="ncommaaccent" unicode="&#x146;" horiz-adv-x="589" 
d="M539 108q0 -115 -79 -115t-79 115v178q0 64 -19 93t-66 29q-84 0 -84 -120v-180q0 -115 -79 -115t-79 115v317q0 114 79 114q47 0 75 -50q49 53 139 53q192 0 192 -208v-226zM398 -158q0 -71 -47.5 -124t-99.5 -53q-12 0 -21 8t-9 19q0 15 15 25q19 10 37 20q51 28 52 79
q-21 -8 -37 -8q-32 0 -51.5 20.5t-19.5 53.5q0 36 23.5 59t59.5 23q42 0 70 -34t28 -88z" />
    <glyph glyph-name="ograve" unicode="&#xf2;" horiz-adv-x="580" 
d="M364 632q0 -24 -15 -39.5t-39 -15.5q-22 0 -54 31l-41 40q-26 25 -26 56q0 25 18 42.5t45 17.5q35 0 57 -32l38 -56q17 -25 17 -44zM556 266q0 -123 -74.5 -202.5t-191.5 -79.5q-116 0 -191.5 79.5t-75.5 202.5t75.5 202.5t191.5 79.5q117 0 191.5 -79.5t74.5 -202.5z
M394 268q0 59 -30 95.5t-74 36.5q-45 0 -74.5 -36t-29.5 -96q0 -61 29 -97.5t75 -36.5t75 36.5t29 97.5z" />
    <glyph glyph-name="oacute" unicode="&#xf3;" horiz-adv-x="580" 
d="M404 704q0 -31 -26 -56l-41 -40q-32 -31 -54 -31q-24 0 -39 15.5t-15 39.5q0 19 17 44l38 56q22 32 57 32q27 0 45 -17.5t18 -42.5zM556 266q0 -123 -74.5 -202.5t-191.5 -79.5q-116 0 -191.5 79.5t-75.5 202.5t75.5 202.5t191.5 79.5q117 0 191.5 -79.5t74.5 -202.5z
M394 268q0 59 -30 95.5t-74 36.5q-45 0 -74.5 -36t-29.5 -96q0 -61 29 -97.5t75 -36.5t75 36.5t29 97.5z" />
    <glyph glyph-name="ocircumflex" unicode="&#xf4;" horiz-adv-x="580" 
d="M476 609q0 -51 -47 -51q-21 0 -46 15l-87 53l-87 -53q-24 -15 -46 -15q-47 0 -47 51q0 30 30 54l109 85q21 16 41 16q21 0 41 -16l109 -85q30 -24 30 -54zM556 266q0 -123 -74.5 -202.5t-191.5 -79.5q-116 0 -191.5 79.5t-75.5 202.5t75.5 202.5t191.5 79.5
q117 0 191.5 -79.5t74.5 -202.5zM394 268q0 59 -30 95.5t-74 36.5q-45 0 -74.5 -36t-29.5 -96q0 -61 29 -97.5t75 -36.5t75 36.5t29 97.5z" />
    <glyph glyph-name="otilde" unicode="&#xf5;" horiz-adv-x="580" 
d="M432 687q0 -36 -24 -61.5t-60 -25.5q-17 0 -47.5 9.5t-45.5 9.5q-16 0 -35 -8.5t-28 -8.5q-44 0 -44 53q0 37 24.5 62t59.5 25q17 0 47 -9.5t45 -9.5q16 0 35.5 9t28.5 9q44 0 44 -54zM556 266q0 -123 -74.5 -202.5t-191.5 -79.5q-116 0 -191.5 79.5t-75.5 202.5
t75.5 202.5t191.5 79.5q117 0 191.5 -79.5t74.5 -202.5zM394 268q0 59 -30 95.5t-74 36.5q-45 0 -74.5 -36t-29.5 -96q0 -61 29 -97.5t75 -36.5t75 36.5t29 97.5z" />
    <glyph glyph-name="odieresis" unicode="&#xf6;" horiz-adv-x="580" 
d="M446 672q0 -80 -70 -80q-32 0 -51 21.5t-19 58.5t19 59t51 22t51 -22t19 -59zM274 672q0 -80 -70 -80q-32 0 -51 21.5t-19 58.5t19 59t51 22t51 -22t19 -59zM556 266q0 -123 -74.5 -202.5t-191.5 -79.5q-116 0 -191.5 79.5t-75.5 202.5t75.5 202.5t191.5 79.5
q117 0 191.5 -79.5t74.5 -202.5zM394 268q0 59 -30 95.5t-74 36.5q-45 0 -74.5 -36t-29.5 -96q0 -61 29 -97.5t75 -36.5t75 36.5t29 97.5z" />
    <glyph glyph-name="omacron" unicode="&#x14d;" horiz-adv-x="580" 
d="M451 673q0 -28 -18.5 -45.5t-46.5 -17.5h-192q-65 0 -65 62q0 28 18.5 45.5t46.5 17.5h192q65 0 65 -62zM556 266q0 -123 -74.5 -202.5t-191.5 -79.5q-116 0 -191.5 79.5t-75.5 202.5t75.5 202.5t191.5 79.5q117 0 191.5 -79.5t74.5 -202.5zM394 268q0 59 -30 95.5
t-74 36.5q-45 0 -74.5 -36t-29.5 -96q0 -61 29 -97.5t75 -36.5t75 36.5t29 97.5z" />
    <glyph glyph-name="obreve" unicode="&#x14f;" horiz-adv-x="580" 
d="M456 708q0 -56 -57 -92q-48 -30 -108 -30t-109 31q-56 35 -56 91q0 55 52 55q28 0 47 -29q2 -3 5 -7q19 -29 61 -29q39 0 58 24q0 1 7 12q19 29 46 29q54 0 54 -55zM556 266q0 -123 -74.5 -202.5t-191.5 -79.5q-116 0 -191.5 79.5t-75.5 202.5t75.5 202.5t191.5 79.5
q117 0 191.5 -79.5t74.5 -202.5zM394 268q0 59 -30 95.5t-74 36.5q-45 0 -74.5 -36t-29.5 -96q0 -61 29 -97.5t75 -36.5t75 36.5t29 97.5z" />
    <glyph glyph-name="ohungarumlaut" unicode="&#x151;" horiz-adv-x="580" 
d="M502 701q0 -27 -22 -54l-47 -57q-25 -31 -47 -31q-21 0 -33 16.5t-12 38.5q0 18 15 44l44 73q19 32 47 32q25 0 40 -18.5t15 -43.5zM327 701q0 -27 -22 -54l-44 -54q-25 -31 -47 -31q-21 0 -33 16.5t-12 38.5q0 19 15 44l41 70q19 32 49 32q24 0 38.5 -18.5t14.5 -43.5z
M556 266q0 -123 -74.5 -202.5t-191.5 -79.5q-116 0 -191.5 79.5t-75.5 202.5t75.5 202.5t191.5 79.5q117 0 191.5 -79.5t74.5 -202.5zM394 268q0 59 -30 95.5t-74 36.5q-45 0 -74.5 -36t-29.5 -96q0 -61 29 -97.5t75 -36.5t75 36.5t29 97.5z" />
    <glyph glyph-name="oslash" unicode="&#xf8;" horiz-adv-x="580" 
d="M570 528q0 -18 -20 -39l-46 -49q52 -67 52 -174q0 -123 -74.5 -202.5t-191.5 -79.5q-94 0 -164 55l-44 -48q-19 -21 -38 -21q-35 0 -35 35q0 18 20 39l46 49q-52 78 -52 173q0 122 75.5 202t191.5 80q98 0 162 -52l45 46q21 21 38 21q14 0 24.5 -10t10.5 -25zM353 390
q-27 20 -60 20q-49 0 -81.5 -39t-32.5 -103q0 -26 6 -58zM402 270q0 24 -7 55l-171 -181q30 -21 64 -21q49 0 81.5 41t32.5 106z" />
    <glyph glyph-name="oe" unicode="&#x153;" horiz-adv-x="924" 
d="M908 286q0 -40 -21 -54q-15 -10 -56 -10h-282q11 -94 119 -94q45 0 98.5 25.5t66.5 25.5q28 0 46 -17t18 -44q0 -50 -68 -90q-71 -42 -170 -42q-127 0 -186 86q-63 -88 -183 -88q-116 0 -191.5 79.5t-75.5 202.5t75.5 202.5t191.5 79.5q119 0 184 -82q67 81 180 81
q108 0 181 -77t73 -184zM754 325q-3 41 -32 67.5t-69 26.5t-69 -25.5t-37 -68.5h207zM405 268q0 61 -32 99.5t-80 38.5t-80 -38t-32 -100q0 -64 31.5 -102.5t80.5 -38.5t80.5 39t31.5 102z" />
    <glyph glyph-name="racute" unicode="&#x155;" horiz-adv-x="380" 
d="M302 704q0 -31 -26 -56l-41 -40q-32 -31 -54 -31q-24 0 -39 15.5t-15 39.5q0 19 17 44l38 56q22 32 57 32q27 0 45 -17.5t18 -42.5zM395 464q0 -40 -43 -61q-46 -19 -91 -37q-32 -15 -41 -35q-8 -16 -8 -59v-164q0 -115 -79 -115t-79 115v317q0 114 79 114q47 0 75 -50
q50 53 107 53q33 0 56.5 -23t23.5 -55z" />
    <glyph glyph-name="rcommaaccent" unicode="&#x157;" horiz-adv-x="380" 
d="M395 464q0 -40 -43 -61q-46 -19 -91 -37q-32 -15 -41 -35q-8 -16 -8 -59v-164q0 -115 -79 -115t-79 115v317q0 114 79 114q47 0 75 -50q50 53 107 53q33 0 56.5 -23t23.5 -55zM230 -158q0 -71 -47.5 -124t-99.5 -53q-12 0 -21 8t-9 19q0 15 15 25q19 10 37 20
q51 28 52 79q-21 -8 -37 -8q-32 0 -51.5 20.5t-19.5 53.5q0 36 23.5 59t59.5 23q42 0 70 -34t28 -88z" />
    <glyph glyph-name="rcaron" unicode="&#x159;" horiz-adv-x="380" 
d="M382 711q0 -31 -30 -54l-109 -85q-19 -15 -41 -15t-41 15l-109 85q-30 23 -30 54q0 23 13.5 37.5t33.5 14.5q19 0 46 -16l87 -52l87 52q27 16 46 16q20 0 33.5 -15t13.5 -37zM395 464q0 -40 -43 -61q-46 -19 -91 -37q-32 -15 -41 -35q-8 -16 -8 -59v-164q0 -115 -79 -115
t-79 115v317q0 114 79 114q47 0 75 -50q50 53 107 53q33 0 56.5 -23t23.5 -55z" />
    <glyph glyph-name="sacute" unicode="&#x15b;" horiz-adv-x="435" 
d="M324 704q0 -31 -26 -56l-41 -40q-32 -31 -54 -31q-24 0 -39 15.5t-15 39.5q0 19 17 44l38 56q22 32 57 32q27 0 45 -17.5t18 -42.5zM418 165q0 -76 -60 -128t-153 -52q-86 0 -140.5 34t-54.5 83q0 30 17.5 50.5t42.5 20.5t73.5 -23t72.5 -23q44 0 44 32q0 17 -22 30
q-11 6 -64 28q-79 32 -111 64q-39 38 -39 97q0 72 55.5 121t141.5 49q80 0 134 -34q51 -33 51 -76q0 -28 -19 -47t-46 -19q-18 0 -61.5 19t-65.5 19q-36 0 -36 -27q0 -19 30 -33q39 -16 79 -32q68 -30 98 -64q33 -37 33 -89z" />
    <glyph glyph-name="scircumflex" unicode="&#x15d;" horiz-adv-x="435" 
d="M404 608q0 -51 -47 -51q-21 0 -46 15l-87 53l-87 -53q-25 -15 -46 -15q-47 0 -47 51q0 30 30 54l109 85q21 16 41 16t41 -16l109 -85q30 -24 30 -54zM418 165q0 -76 -60 -128t-153 -52q-86 0 -140.5 34t-54.5 83q0 30 17.5 50.5t42.5 20.5t73.5 -23t72.5 -23q44 0 44 32
q0 17 -22 30q-11 6 -64 28q-79 32 -111 64q-39 38 -39 97q0 72 55.5 121t141.5 49q80 0 134 -34q51 -33 51 -76q0 -28 -19 -47t-46 -19q-18 0 -61.5 19t-65.5 19q-36 0 -36 -27q0 -19 30 -33q39 -16 79 -32q68 -30 98 -64q33 -37 33 -89z" />
    <glyph glyph-name="scaron" unicode="&#x161;" horiz-adv-x="435" 
d="M402 712q0 -31 -30 -54l-109 -85q-19 -15 -41 -15q-21 0 -41 15l-109 85q-30 23 -30 54q0 23 13.5 37.5t33.5 14.5t46 -16l87 -52l87 52q27 16 46 16q21 0 34 -15t13 -37zM418 165q0 -76 -60 -128t-153 -52q-86 0 -140.5 34t-54.5 83q0 30 17.5 50.5t42.5 20.5t73.5 -23
t72.5 -23q44 0 44 32q0 17 -22 30q-11 6 -64 28q-79 32 -111 64q-39 38 -39 97q0 72 55.5 121t141.5 49q80 0 134 -34q51 -33 51 -76q0 -28 -19 -47t-46 -19q-18 0 -61.5 19t-65.5 19q-36 0 -36 -27q0 -19 30 -33q39 -16 79 -32q68 -30 98 -64q33 -37 33 -89z" />
    <glyph glyph-name="scedilla" unicode="&#x15f;" horiz-adv-x="435" 
d="M418 165q0 -53 -31 -96.5t-84 -65.5q47 -30 47 -82q0 -51 -48.5 -84t-130.5 -33q-63 0 -97.5 21t-34.5 55q0 47 58 47q11 0 32.5 -2.5t31.5 -2.5q46 0 46 31q0 32 -20 32q-77 2 -127 36.5t-50 80.5q0 30 17.5 50.5t42.5 20.5t73.5 -23t72.5 -23q44 0 44 32q0 17 -22 30
q-11 6 -64 28q-79 32 -111 64q-39 38 -39 97q0 72 55.5 121t141.5 49q80 0 134 -34q51 -33 51 -76q0 -28 -19 -47t-46 -19q-18 0 -61.5 19t-65.5 19q-36 0 -36 -27q0 -19 30 -33q39 -16 79 -32q68 -30 98 -64q33 -37 33 -89z" />
    <glyph glyph-name="scommaaccent" unicode="&#x219;" horiz-adv-x="435" 
d="M418 165q0 -76 -60 -128t-153 -52q-86 0 -140.5 34t-54.5 83q0 30 17.5 50.5t42.5 20.5t73.5 -23t72.5 -23q44 0 44 32q0 17 -22 30q-11 6 -64 28q-79 32 -111 64q-39 38 -39 97q0 72 55.5 121t141.5 49q80 0 134 -34q51 -33 51 -76q0 -28 -19 -47t-46 -19
q-18 0 -61.5 19t-65.5 19q-36 0 -36 -27q0 -19 30 -33q39 -16 79 -32q68 -30 98 -64q33 -37 33 -89zM325 -158q0 -71 -47.5 -124t-99.5 -53q-12 0 -21 8t-9 19q0 15 15 25q19 10 37 20q51 28 52 79q-21 -8 -37 -8q-32 0 -51.5 20.5t-19.5 53.5q0 36 23.5 59t59.5 23
q42 0 70 -34t28 -88z" />
    <glyph glyph-name="germandbls" unicode="&#xdf;" horiz-adv-x="583" 
d="M561 243q0 -113 -69.5 -184.5t-165.5 -71.5q-76 0 -76 74q0 46 52.5 66.5t73.5 40.5q26 25 26 68q0 67 -84 94q-76 24 -76 82q0 45 55 69q59 26 59 70q0 29 -18.5 47t-48.5 18q-36 0 -56.5 -26t-20.5 -71v-411q0 -115 -79 -115t-79 115v402q0 117 67 185q65 65 172 65
q95 0 156 -57.5t61 -144.5q0 -81 -64 -135q115 -50 115 -180z" />
    <glyph glyph-name="tcaron" unicode="&#x165;" horiz-adv-x="335" 
d="M356 455q0 -68 -100 -68h-13v-279q0 -115 -78 -115q-79 0 -79 115v279h-6q-42 0 -65.5 18.5t-23.5 49.5q0 65 95 70v69q0 115 79 115q78 0 78 -115v-69h14q99 0 99 -70zM398 681q0 -53 -36 -93t-75 -40q-9 0 -15.5 6t-6.5 14q0 11 12.5 19t27.5 15q37 21 38 58
q-14 -5 -27 -5q-24 0 -39 15t-15 40q0 26 17.5 43.5t45.5 17.5q31 0 52 -25t21 -65z" />
    <glyph glyph-name="tcommaaccent" unicode="&#x163;" horiz-adv-x="333" 
d="M356 455q0 -68 -100 -68h-13v-279q0 -115 -78 -115q-79 0 -79 115v279h-6q-42 0 -65.5 18.5t-23.5 49.5q0 65 95 70v69q0 115 79 115q78 0 78 -115v-69h14q99 0 99 -70zM264 -158q0 -71 -47.5 -124t-99.5 -53q-12 0 -21 8t-9 19q0 15 15 25q19 10 37 20q51 28 52 79
q-21 -8 -37 -8q-32 0 -51.5 20.5t-19.5 53.5q0 36 23.5 59t59.5 23q42 0 70 -34t28 -88z" />
    <glyph glyph-name="tcommaaccent" unicode="&#x21b;" horiz-adv-x="333" 
d="M356 455q0 -68 -100 -68h-13v-279q0 -115 -78 -115q-79 0 -79 115v279h-6q-42 0 -65.5 18.5t-23.5 49.5q0 65 95 70v69q0 115 79 115q78 0 78 -115v-69h14q99 0 99 -70zM264 -158q0 -71 -47.5 -124t-99.5 -53q-12 0 -21 8t-9 19q0 15 15 25q19 10 37 20q51 28 52 79
q-21 -8 -37 -8q-32 0 -51.5 20.5t-19.5 53.5q0 36 23.5 59t59.5 23q42 0 70 -34t28 -88z" />
    <glyph glyph-name="tcedilla" unicode="&#xf6c2;" horiz-adv-x="333" 
d="M356 455q0 -68 -100 -68h-13v-279q0 -65 -24 -93q71 -26 71 -94q0 -51 -48.5 -84t-130.5 -33q-63 0 -97.5 21t-34.5 55q0 47 58 47q11 0 32.5 -2.5t31.5 -2.5q46 0 46 31q0 22 -35 60q-26 29 -26 95v279h-6q-42 0 -65.5 18.5t-23.5 49.5q0 65 95 70v69q0 115 79 115
q78 0 78 -115v-69h14q99 0 99 -70z" />
    <glyph glyph-name="tbar" unicode="&#x167;" horiz-adv-x="333" 
d="M356 455q0 -68 -100 -68h-13v-61h8q78 0 78 -69q0 -68 -79 -68h-7v-81q0 -115 -78 -115q-79 0 -79 115v81h-5q-78 0 -78 69q0 68 79 68h4v61h-6q-42 0 -65.5 18.5t-23.5 49.5q0 65 95 70v69q0 115 79 115q78 0 78 -115v-69h14q99 0 99 -70z" />
    <glyph glyph-name="thorn" unicode="&#xfe;" 
d="M578 266q0 -118 -71 -200.5t-171 -82.5q-71 0 -124 46v-134q0 -115 -79 -115t-79 115v754q0 115 79 115t79 -115v-157q46 51 126 51q100 0 170 -78.5t70 -198.5zM417 264q0 59 -30 95.5t-74 36.5q-45 0 -74.5 -36t-29.5 -96q0 -61 29 -97.5t75 -36.5t75 36.5t29 97.5z
" />
    <glyph glyph-name="ugrave" unicode="&#xf9;" horiz-adv-x="579" 
d="M348 632q0 -24 -15 -39.5t-39 -15.5q-22 0 -54 31l-41 40q-26 25 -26 56q0 25 18 42.5t45 17.5q35 0 57 -32l38 -56q17 -25 17 -44zM527 215q0 -113 -61.5 -172t-176.5 -59t-176.5 59t-61.5 172v210q0 114 79 114q78 0 78 -114v-178q0 -59 17 -85q18 -30 64 -30t65 30
q16 26 16 85v178q0 114 79 114q78 0 78 -114v-210z" />
    <glyph glyph-name="uacute" unicode="&#xfa;" horiz-adv-x="579" 
d="M407 704q0 -31 -26 -56l-41 -40q-32 -31 -54 -31q-24 0 -39 15.5t-15 39.5q0 19 17 44l38 56q22 32 57 32q27 0 45 -17.5t18 -42.5zM527 215q0 -113 -61.5 -172t-176.5 -59t-176.5 59t-61.5 172v210q0 114 79 114q78 0 78 -114v-178q0 -59 17 -85q18 -30 64 -30t65 30
q16 26 16 85v178q0 114 79 114q78 0 78 -114v-210z" />
    <glyph glyph-name="ucircumflex" unicode="&#xfb;" horiz-adv-x="579" 
d="M466 609q0 -51 -47 -51q-21 0 -46 15l-87 53l-87 -53q-24 -15 -46 -15q-47 0 -47 51q0 30 30 54l109 85q21 16 41 16q21 0 41 -16l109 -85q30 -24 30 -54zM527 215q0 -113 -61.5 -172t-176.5 -59t-176.5 59t-61.5 172v210q0 114 79 114q78 0 78 -114v-178q0 -59 17 -85
q18 -30 64 -30t65 30q16 26 16 85v178q0 114 79 114q78 0 78 -114v-210z" />
    <glyph glyph-name="utilde" unicode="&#x169;" horiz-adv-x="579" 
d="M424 687q0 -36 -24 -61.5t-60 -25.5q-16 0 -46.5 9.5t-46.5 9.5q-13 0 -34 -8.5t-29 -8.5q-44 0 -44 53q0 36 23.5 61.5t60.5 25.5q16 0 46.5 -9.5t45.5 -9.5q13 0 34 9t30 9q44 0 44 -54zM527 215q0 -113 -61.5 -172t-176.5 -59t-176.5 59t-61.5 172v210q0 114 79 114
q78 0 78 -114v-178q0 -59 17 -85q18 -30 64 -30t65 30q16 26 16 85v178q0 114 79 114q78 0 78 -114v-210z" />
    <glyph glyph-name="udieresis" unicode="&#xfc;" horiz-adv-x="579" 
d="M446 672q0 -80 -70 -80q-32 0 -51 21.5t-19 58.5t19 59t51 22t51 -22t19 -59zM274 672q0 -80 -70 -80q-32 0 -51 21.5t-19 58.5t19 59t51 22t51 -22t19 -59zM527 215q0 -113 -61.5 -172t-176.5 -59t-176.5 59t-61.5 172v210q0 114 79 114q78 0 78 -114v-178q0 -59 17 -85
q18 -30 64 -30t65 30q16 26 16 85v178q0 114 79 114q78 0 78 -114v-210z" />
    <glyph glyph-name="umacron" unicode="&#x16b;" horiz-adv-x="579" 
d="M452 673q0 -28 -18.5 -45.5t-46.5 -17.5h-192q-65 0 -65 62q0 28 18.5 45.5t46.5 17.5h192q65 0 65 -62zM527 215q0 -113 -61.5 -172t-176.5 -59t-176.5 59t-61.5 172v210q0 114 79 114q78 0 78 -114v-178q0 -59 17 -85q18 -30 64 -30t65 30q16 26 16 85v178
q0 114 79 114q78 0 78 -114v-210z" />
    <glyph glyph-name="ubreve" unicode="&#x16d;" horiz-adv-x="579" 
d="M460 708q0 -56 -57 -92q-48 -30 -108 -30t-109 31q-56 35 -56 91q0 55 52 55q28 0 47 -29q2 -3 5 -7q19 -29 61 -29q39 0 58 24q0 1 7 12q19 29 46 29q54 0 54 -55zM527 215q0 -113 -61.5 -172t-176.5 -59t-176.5 59t-61.5 172v210q0 114 79 114q78 0 78 -114v-178
q0 -59 17 -85q18 -30 64 -30t65 30q16 26 16 85v178q0 114 79 114q78 0 78 -114v-210z" />
    <glyph glyph-name="uring" unicode="&#x16f;" horiz-adv-x="579" 
d="M405 691q0 -44 -31 -75t-75 -31t-75 31t-31 75q0 43 31 74.5t75 31.5t75 -31t31 -75zM527 215q0 -113 -61.5 -172t-176.5 -59t-176.5 59t-61.5 172v210q0 114 79 114q78 0 78 -114v-178q0 -59 17 -85q18 -30 64 -30t65 30q16 26 16 85v178q0 114 79 114q78 0 78 -114
v-210zM338 691q0 17 -11 28t-28 11t-28.5 -11t-11.5 -28t12 -28t28 -11q17 0 28 11t11 28z" />
    <glyph glyph-name="uhungarumlaut" unicode="&#x171;" horiz-adv-x="579" 
d="M480 701q0 -27 -22 -54l-47 -57q-25 -31 -47 -31q-21 0 -33 16.5t-12 38.5q0 18 15 44l44 73q19 32 47 32q25 0 40 -18.5t15 -43.5zM305 701q0 -27 -22 -54l-44 -54q-25 -31 -47 -31q-21 0 -33 16.5t-12 38.5q0 19 15 44l41 70q19 32 49 32q24 0 38.5 -18.5t14.5 -43.5z
M527 215q0 -113 -61.5 -172t-176.5 -59t-176.5 59t-61.5 172v210q0 114 79 114q78 0 78 -114v-178q0 -59 17 -85q18 -30 64 -30t65 30q16 26 16 85v178q0 114 79 114q78 0 78 -114v-210z" />
    <glyph glyph-name="uogonek" unicode="&#x173;" horiz-adv-x="579" 
d="M527 215q0 -138 -94 -197q-60 -38 -60 -83q0 -40 47 -40q17 0 32.5 16t25.5 16q18 0 30.5 -11.5t12.5 -29.5q0 -37 -42 -63q-37 -23 -76 -23q-142 0 -142 117q0 36 27 67q-114 0 -175.5 59t-61.5 172v210q0 114 79 114q78 0 78 -114v-178q0 -59 17 -85q18 -30 64 -30
t65 30q16 26 16 85v178q0 114 79 114q78 0 78 -114v-210z" />
    <glyph glyph-name="wcircumflex" unicode="&#x175;" horiz-adv-x="757" 
d="M561 608q0 -51 -47 -51q-21 0 -46 15l-87 53l-87 -53q-25 -15 -46 -15q-47 0 -47 51q0 30 30 54l109 85q21 16 41 16t41 -16l109 -85q30 -24 30 -54zM759 460q0 -18 -12 -52l-121 -344q-27 -77 -90 -77q-74 0 -95 82l-65 251l-61 -256q-18 -77 -90 -77q-37 0 -58 19
t-37 63l-125 349q-9 25 -9 43q0 33 22 55.5t54 22.5q59 0 81 -77l83 -288l67 289q16 71 73 71q61 0 80 -73l72 -283l83 294q18 65 74 65q33 0 53.5 -21.5t20.5 -55.5z" />
    <glyph glyph-name="yacute" unicode="&#xfd;" horiz-adv-x="481" 
d="M347 704q0 -31 -26 -56l-41 -40q-32 -31 -54 -31q-24 0 -39 15.5t-15 39.5q0 19 17 44l38 56q22 32 57 32q27 0 45 -17.5t18 -42.5zM490 464q0 -24 -13 -55l-240 -570q-27 -64 -69 -64q-36 0 -57 20.5t-21 55.5q0 26 13 54l65 141l-159 371q-9 21 -9 44q0 33 22.5 55.5
t54.5 22.5q31 0 50 -20q15 -16 30 -56l89 -238l97 251q24 63 69 63q36 0 57 -20t21 -55z" />
    <glyph glyph-name="ycircumflex" unicode="&#x177;" horiz-adv-x="481" 
d="M423 608q0 -51 -47 -51q-21 0 -46 15l-87 53l-87 -53q-25 -15 -46 -15q-47 0 -47 51q0 30 30 54l109 85q21 16 41 16t41 -16l109 -85q30 -24 30 -54zM490 464q0 -24 -13 -55l-240 -570q-27 -64 -69 -64q-36 0 -57 20.5t-21 55.5q0 26 13 54l65 141l-159 371q-9 21 -9 44
q0 33 22.5 55.5t54.5 22.5q31 0 50 -20q15 -16 30 -56l89 -238l97 251q24 63 69 63q36 0 57 -20t21 -55z" />
    <glyph glyph-name="ydieresis" unicode="&#xff;" horiz-adv-x="481" 
d="M397 672q0 -80 -70 -80q-32 0 -51 21.5t-19 58.5t19 59t51 22t51 -22t19 -59zM225 672q0 -80 -70 -80q-32 0 -51 21.5t-19 58.5t19 59t51 22t51 -22t19 -59zM490 464q0 -24 -13 -55l-240 -570q-27 -64 -69 -64q-36 0 -57 20.5t-21 55.5q0 26 13 54l65 141l-159 371
q-9 21 -9 44q0 33 22.5 55.5t54.5 22.5q31 0 50 -20q15 -16 30 -56l89 -238l97 251q24 63 69 63q36 0 57 -20t21 -55z" />
    <glyph glyph-name="zacute" unicode="&#x17a;" horiz-adv-x="447" 
d="M340 704q0 -31 -26 -56l-41 -40q-32 -31 -54 -31q-24 0 -39 15.5t-15 39.5q0 19 17 44l38 56q22 32 57 32q27 0 45 -17.5t18 -42.5zM464 72q0 -72 -100 -72h-287q-39 0 -55 6q-28 11 -28 43q0 29 24 60l216 280h-136q-99 0 -99 72q0 71 100 71h253q54 0 74 -8
q25 -10 25 -40q0 -28 -32 -69l-210 -269h156q99 0 99 -74z" />
    <glyph glyph-name="zcaron" unicode="&#x17e;" horiz-adv-x="447" 
d="M407 712q0 -31 -30 -54l-109 -85q-19 -15 -41 -15q-21 0 -41 15l-109 85q-30 23 -30 54q0 23 13.5 37.5t33.5 14.5t46 -16l87 -52l87 52q27 16 46 16q21 0 34 -15t13 -37zM464 72q0 -72 -100 -72h-287q-39 0 -55 6q-28 11 -28 43q0 29 24 60l216 280h-136q-99 0 -99 72
q0 71 100 71h253q54 0 74 -8q25 -10 25 -40q0 -28 -32 -69l-210 -269h156q99 0 99 -74z" />
    <glyph glyph-name="zdotaccent" unicode="&#x17c;" horiz-adv-x="447" 
d="M316 672q0 -38 -26 -64.5t-64 -26.5t-64.5 26.5t-26.5 64.5t27 64.5t64 26.5t63.5 -26.5t26.5 -64.5zM464 72q0 -72 -100 -72h-287q-39 0 -55 6q-28 11 -28 43q0 29 24 60l216 280h-136q-99 0 -99 72q0 71 100 71h253q54 0 74 -8q25 -10 25 -40q0 -28 -32 -69l-210 -269
h156q99 0 99 -74z" />
    <glyph glyph-name="IJ" unicode="&#x132;" horiz-adv-x="757" 
d="M686 217q0 -236 -208 -236q-81 0 -133 34.5t-52 82.5q0 33 21 54t54 21q21 0 54 -18t49 -18q37 0 48 51q5 24 5 81v336q0 115 81 115t81 -115v-388zM229 106q0 -115 -81 -115t-81 115v499q0 115 81 115t81 -115v-499z" />
    <glyph glyph-name="ij" unicode="&#x133;" horiz-adv-x="594" 
d="M520 672q0 -38 -26 -64.5t-64 -26.5t-64.5 26.5t-26.5 64.5t27 64.5t64 26.5t63.5 -26.5t26.5 -64.5zM228 672q0 -38 -26 -64.5t-64 -26.5t-64.5 26.5t-26.5 64.5t27 64.5t64 26.5t63.5 -26.5t26.5 -64.5zM508 -105q0 -115 -78 -115q-79 0 -79 115v530q0 114 79 114
q78 0 78 -114v-530zM216 108q0 -115 -78 -115q-79 0 -79 115v317q0 114 79 114q78 0 78 -114v-317z" />
    <glyph glyph-name="acute" unicode="&#xb4;" horiz-adv-x="580" 
d="M384 704q0 -31 -26 -56l-41 -40q-32 -31 -54 -31q-24 0 -39 15.5t-15 39.5q0 19 17 44l38 56q22 32 57 32q27 0 45 -17.5t18 -42.5z" />
    <glyph glyph-name="circumflex" unicode="&#x2c6;" horiz-adv-x="500" 
d="M431 608q0 -51 -47 -51q-21 0 -46 15l-87 53l-87 -53q-25 -15 -46 -15q-47 0 -47 51q0 30 30 54l109 85q21 16 41 16t41 -16l109 -85q30 -24 30 -54z" />
    <glyph glyph-name="caron" unicode="&#x2c7;" horiz-adv-x="500" 
d="M431 711q0 -31 -30 -54l-109 -85q-19 -15 -41 -15t-41 15l-109 85q-30 23 -30 54q0 23 13.5 37.5t33.5 14.5q19 0 46 -16l87 -52l87 52q27 16 46 16q20 0 33.5 -15t13.5 -37z" />
    <glyph glyph-name="tilde" unicode="&#x2dc;" horiz-adv-x="500" 
d="M392 687q0 -36 -24 -61.5t-60 -25.5q-16 0 -46.5 9.5t-46.5 9.5q-13 0 -34 -8.5t-29 -8.5q-44 0 -44 53q0 36 23.5 61.5t60.5 25.5q16 0 46.5 -9.5t45.5 -9.5q13 0 34 9t30 9q44 0 44 -54z" />
    <glyph glyph-name="dieresis" unicode="&#xa8;" horiz-adv-x="500" 
d="M406 672q0 -80 -70 -80q-32 0 -51 21.5t-19 58.5t19 59t51 22t51 -22t19 -59zM234 672q0 -80 -70 -80q-32 0 -51 21.5t-19 58.5t19 59t51 22t51 -22t19 -59z" />
    <glyph glyph-name="macron" unicode="&#xaf;" horiz-adv-x="500" 
d="M411 673q0 -28 -18.5 -45.5t-46.5 -17.5h-192q-65 0 -65 62q0 28 18.5 45.5t46.5 17.5h192q65 0 65 -62z" />
    <glyph glyph-name="macron" unicode="&#x2c9;" horiz-adv-x="500" 
d="M411 673q0 -28 -18.5 -45.5t-46.5 -17.5h-192q-65 0 -65 62q0 28 18.5 45.5t46.5 17.5h192q65 0 65 -62z" />
    <glyph glyph-name="breve" unicode="&#x2d8;" horiz-adv-x="500" 
d="M415 708q0 -56 -57 -92q-48 -30 -108 -30t-109 31q-56 35 -56 91q0 55 52 55q28 0 47 -29q2 -3 5 -7q19 -29 61 -29q39 0 58 24q0 1 7 12q19 29 46 29q54 0 54 -55z" />
    <glyph glyph-name="ring" unicode="&#x2da;" horiz-adv-x="500" 
d="M356 691q0 -44 -31 -75t-75 -31t-75 31t-31 75q0 43 31 74.5t75 31.5t75 -31t31 -75zM289 691q0 17 -11 28t-28 11t-28.5 -11t-11.5 -28t12 -28t28 -11q17 0 28 11t11 28z" />
    <glyph glyph-name="hungarumlaut" unicode="&#x2dd;" horiz-adv-x="500" 
d="M470 701q0 -27 -22 -54l-47 -57q-25 -31 -47 -31q-21 0 -33 16.5t-12 38.5q0 18 15 44l44 73q19 32 47 32q25 0 40 -18.5t15 -43.5zM295 701q0 -27 -22 -54l-44 -54q-25 -31 -47 -31q-21 0 -33 16.5t-12 38.5q0 19 15 44l41 70q19 32 49 32q24 0 38.5 -18.5t14.5 -43.5z
" />
    <glyph glyph-name="dotaccent" unicode="&#x2d9;" horiz-adv-x="500" 
d="M337 672q0 -38 -25 -65.5t-62 -27.5t-62.5 27.5t-25.5 65.5t25 65.5t63 27.5q37 0 62 -28t25 -65z" />
    <glyph glyph-name="cedilla" unicode="&#xb8;" horiz-adv-x="475" 
d="M400 -79q0 -51 -48.5 -84t-130.5 -33q-63 0 -97.5 21t-34.5 55q0 47 58 47q11 0 32.5 -2.5t31.5 -2.5q46 0 46 31q0 13 -18.5 30.5t-18.5 25.5q0 15 57 15t92 -33q31 -30 31 -70z" />
    <glyph glyph-name="ogonek" unicode="&#x2db;" horiz-adv-x="500" 
d="M395 -114q0 -37 -42 -63q-37 -23 -76 -23q-142 0 -142 117q0 50 51 89q47 36 99 36q28 0 28 -29q0 -15 -33 -34t-33 -44q0 -40 47 -40q17 0 32.5 16t25.5 16q18 0 30.5 -11.5t12.5 -29.5z" />
    <glyph glyph-name="ellipsis" unicode="&#x2026;" horiz-adv-x="1000" 
d="M924 84q0 -38 -26 -64.5t-64 -26.5t-64.5 26.5t-26.5 64.5t27 64.5t64 26.5t63.5 -26.5t26.5 -64.5zM590 84q0 -38 -26 -64.5t-64 -26.5t-64.5 26.5t-26.5 64.5t27 64.5t64 26.5t63.5 -26.5t26.5 -64.5zM257 84q0 -38 -26 -64.5t-64 -26.5t-64.5 26.5t-26.5 64.5t27 64.5
t64 26.5t63.5 -26.5t26.5 -64.5z" />
    <glyph glyph-name="sfthyphen" unicode="&#xad;" horiz-adv-x="428" 
d="M394 277q0 -68 -79 -68h-203q-78 0 -78 69q0 68 79 68h203q78 0 78 -69z" />
    <glyph glyph-name="exclamdown" unicode="&#xa1;" horiz-adv-x="296" 
d="M235 644q0 -36 -25.5 -62t-61.5 -26t-62 26t-26 62t26 61.5t62 25.5t61.5 -25t25.5 -62zM225 94q0 -115 -77 -115q-78 0 -78 115v294q0 115 78 115q77 0 77 -115v-294z" />
    <glyph glyph-name="questiondown" unicode="&#xbf;" horiz-adv-x="509" 
d="M366 641q0 -36 -25.5 -62t-61.5 -26t-61.5 26t-25.5 62t25.5 61.5t61.5 25.5t61.5 -25t25.5 -62zM504 158q0 -66 -66 -120q-71 -59 -171 -59q-105 0 -172.5 65t-67.5 158q0 81 47 138.5t128 72.5v6q0 45 21.5 70t56.5 25q76 0 76 -92v-62q0 -51 -34 -65q-23 -5 -69 -20
q-57 -23 -57 -76q0 -31 21 -50.5t53 -19.5q44 0 89 48q29 31 38 38q20 16 43 16q28 0 46 -20.5t18 -52.5z" />
    <glyph glyph-name="quoteleft" unicode="&#x2018;" horiz-adv-x="231" 
d="M211 514q0 -34 -24 -57t-60 -23q-42 0 -69.5 33t-27.5 83q0 75 49 131q46 52 98 52q12 0 21 -8t9 -19q0 -15 -17 -25t-36 -20q-50 -28 -51 -79q21 8 36 8q32 0 52 -21t20 -55z" />
    <glyph glyph-name="quoteright" unicode="&#x2019;" horiz-adv-x="231" 
d="M212 610q0 -71 -48 -124.5t-100 -53.5q-12 0 -21 8t-9 19q0 15 17 25.5t36 20.5q50 28 51 78q-18 -7 -36 -7q-32 0 -52 20t-20 53q0 35 23.5 58.5t60.5 23.5q42 0 70 -33.5t28 -87.5z" />
    <glyph glyph-name="quotedblleft" unicode="&#x201c;" horiz-adv-x="451" 
d="M433 514q0 -34 -24 -57t-60 -23q-42 0 -69.5 33t-27.5 83q0 75 49 131q46 52 98 52q12 0 21 -8t9 -19q0 -15 -15 -25q-19 -10 -37 -20q-51 -28 -52 -79q21 8 36 8q32 0 52 -21t20 -55zM211 514q0 -34 -23.5 -57t-59.5 -23q-42 0 -70 33t-28 83q0 75 50 131q46 52 98 52
q12 0 21 -8t9 -19q0 -15 -17 -25t-36 -20q-51 -28 -52 -79q21 8 37 8q32 0 51.5 -21t19.5 -55z" />
    <glyph glyph-name="quotedblright" unicode="&#x201d;" horiz-adv-x="451" 
d="M433 610q0 -71 -47.5 -124.5t-99.5 -53.5q-12 0 -21 8t-9 19q0 15 15 26q19 10 37 20q51 28 52 78q-18 -7 -36 -7q-32 0 -52 20t-20 53q0 35 23.5 58.5t60.5 23.5q42 0 69.5 -33.5t27.5 -87.5zM212 610q0 -71 -48 -124.5t-100 -53.5q-12 0 -21 8t-9 19q0 15 17 25.5
t36 20.5q50 28 51 78q-18 -7 -36 -7q-32 0 -52 20t-20 53q0 35 23.5 58.5t60.5 23.5q42 0 70 -33.5t28 -87.5z" />
    <glyph glyph-name="quotesinglbase" unicode="&#x201a;" horiz-adv-x="231" 
d="M208 40q0 -71 -47.5 -124t-99.5 -53q-12 0 -21 8t-9 19q0 15 15 25q19 10 37 20q51 28 52 79q-21 -8 -37 -8q-32 0 -51.5 20.5t-19.5 53.5q0 36 23.5 59t59.5 23q42 0 70 -34t28 -88z" />
    <glyph glyph-name="quotedblbase" unicode="&#x201e;" horiz-adv-x="451" 
d="M428 40q0 -70 -48 -123.5t-100 -53.5q-12 0 -21 8t-9 19q0 15 17 25t36 20q51 28 52 79q-21 -8 -37 -8q-32 0 -51.5 20.5t-19.5 53.5q0 36 23.5 59t59.5 23q42 0 70 -34t28 -88zM208 40q0 -71 -47.5 -124t-99.5 -53q-12 0 -21 8t-9 19q0 15 15 25q19 10 37 20
q51 28 52 79q-21 -8 -37 -8q-32 0 -51.5 20.5t-19.5 53.5q0 36 23.5 59t59.5 23q42 0 70 -34t28 -88z" />
    <glyph glyph-name="guilsinglleft" unicode="&#x2039;" horiz-adv-x="273" 
d="M247 143q0 -58 -41 -58q-26 0 -94 50q-50 37 -65 56q-24 29 -24 72t23 72q16 20 66 57q68 50 95 50q40 0 40 -58q0 -32 -33 -57l-86 -64l86 -63q33 -24 33 -57z" />
    <glyph glyph-name="guilsinglright" unicode="&#x203a;" horiz-adv-x="273" 
d="M250 264q0 -42 -24 -73q-16 -20 -66 -57q-66 -49 -95 -49q-39 0 -39 58q0 32 33 57l85 64l-85 63q-33 24 -33 57q0 58 41 58q25 0 93 -50q50 -37 66 -56q24 -30 24 -72z" />
    <glyph glyph-name="guillemotleft" unicode="&#xab;" horiz-adv-x="505" 
d="M478 143q0 -58 -41 -58q-25 0 -93 50q-50 37 -65 56q-24 29 -24 72t23 72q16 20 66 57q68 50 95 50q39 0 39 -58q0 -33 -32 -57l-86 -64l86 -63q32 -23 32 -57zM247 143q0 -58 -41 -58q-26 0 -94 50q-50 37 -65 56q-24 29 -24 72t23 72q16 20 66 57q68 50 95 50
q40 0 40 -58q0 -32 -33 -57l-86 -64l86 -63q33 -24 33 -57z" />
    <glyph glyph-name="guillemotright" unicode="&#xbb;" horiz-adv-x="505" 
d="M481 264q0 -42 -24 -73q-16 -20 -66 -57q-66 -49 -95 -49q-39 0 -39 58q0 32 33 57l85 64l-85 63q-33 24 -33 57q0 58 41 58q25 0 93 -50q50 -37 66 -56q24 -30 24 -72zM249 264q0 -43 -23 -73q-17 -20 -66 -57q-66 -49 -95 -49q-40 0 -40 58q0 32 33 57l86 64l-86 63
q-33 24 -33 57q0 58 41 58q26 0 94 -50q50 -37 65 -56q24 -30 24 -72z" />
    <glyph glyph-name="endash" unicode="&#x2013;" horiz-adv-x="500" 
d="M500 278q0 -51 -59 -51h-382q-59 0 -59 51t59 51h382q59 0 59 -51z" />
    <glyph glyph-name="emdash" unicode="&#x2014;" horiz-adv-x="1000" 
d="M1000 278q0 -51 -71 -51h-858q-71 0 -71 51t71 51h859q70 0 70 -51z" />
    <glyph glyph-name="bullet" unicode="&#x2022;" horiz-adv-x="590" 
d="M439 372q0 -59 -42.5 -102t-102.5 -43t-102 42.5t-42 102.5t42.5 102t102.5 42q59 0 101.5 -42t42.5 -102z" />
    <glyph glyph-name="periodcentered" unicode="&#xb7;" horiz-adv-x="324" 
d="M253 355q0 -38 -26.5 -64t-64.5 -26t-64.5 26t-26.5 64t27 64.5t64 26.5q38 0 64.5 -26.5t26.5 -64.5z" />
    <glyph glyph-name="periodcentered" unicode="&#x2219;" horiz-adv-x="324" 
d="M253 355q0 -38 -26.5 -64t-64.5 -26t-64.5 26t-26.5 64t27 64.5t64 26.5q38 0 64.5 -26.5t26.5 -64.5z" />
    <glyph glyph-name="dagger" unicode="&#x2020;" horiz-adv-x="500" 
d="M481 456q0 -57 -79 -57h-84v-473q0 -100 -68 -100t-68 100v473h-85q-78 0 -78 58q0 57 79 57h84v118q0 99 68 99t68 -99v-117h85q78 0 78 -59z" />
    <glyph glyph-name="daggerdbl" unicode="&#x2021;" horiz-adv-x="500" 
d="M481 87q0 -53 -79 -53h-84v-108q0 -100 -68 -100t-68 100v108h-85q-78 0 -78 53t79 53h84v280h-85q-78 0 -78 53t79 53h84v106q0 99 68 99t68 -99v-106h85q78 0 78 -53t-79 -53h-84v-280h85q78 0 78 -53z" />
    <glyph glyph-name="section" unicode="&#xa7;" horiz-adv-x="523" 
d="M521 261q0 -99 -90 -152q49 -49 49 -115q0 -77 -58 -126t-154 -49t-157 45t-61 106q0 30 18.5 49t45.5 19q34 0 63.5 -51t90.5 -51q70 0 70 50q0 26 -35 48q-10 6 -102 51q-101 49 -140 87q-51 49 -51 118q0 46 24.5 87t66.5 64q-49 48 -49 112q0 78 55.5 128t148.5 50
q98 0 160 -47q57 -43 57 -104q0 -30 -18.5 -49t-45.5 -19q-34 0 -63 51.5t-86 51.5q-30 0 -48.5 -14.5t-18.5 -35.5q0 -26 35 -48q12 -8 103 -52q101 -49 140 -86q50 -49 50 -118zM385 243q0 31 -49 61q-30 19 -146 72q-43 -27 -43 -68q0 -31 49 -61q30 -18 145 -72
q44 23 44 68z" />
    <glyph glyph-name="paragraph" unicode="&#xb6;" horiz-adv-x="500" 
d="M480 668h-55v-668h-74v668h-78v-668h-74v383q-82 3 -130.5 49.5t-48.5 119.5q0 76 52 123t139 47h269v-54z" />
    <glyph glyph-name="brokenbar" unicode="&#xa6;" horiz-adv-x="500" 
d="M301 329h-101v370h101v-370zM301 -171h-101v370h101v-370z" />
    <glyph glyph-name="copyright" unicode="&#xa9;" horiz-adv-x="833" 
d="M780 358q0 -151 -105 -254q-111 -109 -259 -109q-147 0 -254.5 107.5t-107.5 255.5q0 149 107 258q104 106 255 106q152 0 258 -106t106 -258zM720 359q0 126 -88.5 214.5t-214.5 88.5q-128 0 -214 -88q-89 -91 -89 -215q0 -125 89 -214t214 -89q124 0 216 90
q87 86 87 213zM597 291q-4 -68 -53 -109t-127 -41q-90 0 -143 57.5t-53 157.5q0 101 54 160.5t143 59.5q75 0 122.5 -38t51.5 -100h-92q-8 72 -84 72q-44 0 -69.5 -39.5t-25.5 -111.5q0 -147 99 -147q74 0 83 79h94z" />
    <glyph glyph-name="registered" unicode="&#xae;" horiz-adv-x="833" 
d="M780 358q0 -153 -108 -258t-256 -105q-150 0 -258 110q-104 106 -104 253q0 99 53 189q49 83 130 129t179 46q154 0 261 -109q103 -105 103 -255zM720 353q0 130 -87 219.5t-216 89.5q-125 0 -211 -86q-92 -92 -92 -217q0 -124 87 -212q91 -92 215 -92q122 0 215 89
q89 85 89 209zM598 164h-109l-77 165h-48v-165h-98v403h158q172 0 172 -116q0 -85 -88 -107zM495 445q0 60 -88 60h-43v-117h48q83 0 83 57z" />
    <glyph glyph-name="trademark" unicode="&#x2122;" horiz-adv-x="833" 
d="M706 447h-66v200l-75 -200h-30l-77 200v-200h-66v267h96l62 -162l60 162h96v-267zM338 659h-82v-212h-73v212h-82v55h237v-55z" />
    <glyph glyph-name="currency" unicode="&#xa4;" horiz-adv-x="556" 
d="M104 414l-68 67l56 58l68 -68q52 35 116 35t116 -35l67 68l57 -58l-68 -67q35 -53 35 -115q0 -61 -35 -115l68 -66l-57 -58l-67 68q-52 -36 -116 -36t-116 36l-68 -68l-56 58l68 66q-35 54 -35 115q0 62 35 115zM149 299q0 -52 37 -89t89 -37q53 0 90 37t37 89
q0 53 -37 90t-90 37q-52 0 -89 -37t-37 -90z" />
    <glyph glyph-name="Euro" unicode="&#x20ac;" horiz-adv-x="648" 
d="M633 102q0 -49 -62 -85q-65 -38 -162 -38q-251 0 -302 256h-51q-55 0 -55 38t55 38h43q-2 30 -2 44q0 23 1 37h-38q-55 0 -55 37q0 39 55 39h47q23 125 100.5 194t198.5 69q92 0 155 -35t63 -79q0 -29 -20.5 -51t-48.5 -22q-16 0 -68 15t-84 15q-100 0 -125 -106h243
q54 0 54 -39q0 -37 -54 -37h-253q-1 -15 -1 -41t1 -40h220q54 0 54 -38t-54 -38h-210q28 -105 133 -105q38 0 90 20t67 20q25 0 45 -20t20 -48z" />
    <glyph glyph-name="cent" unicode="&#xa2;" horiz-adv-x="475" 
d="M470 458q0 -29 -18.5 -48t-46.5 -19q-14 0 -52 12t-59 12q-53 0 -83 -41q-26 -37 -26 -92q0 -58 28 -94q30 -39 87 -39q22 0 59 12t49 12q28 0 44.5 -20t16.5 -48q0 -44 -52 -74q-38 -22 -91 -31v-102q0 -55 -39 -55q-40 0 -40 54v106q-106 12 -167 91q-57 75 -57 184
q0 107 58 184q62 81 166 95v43q0 55 40 55q39 0 39 -55v-42q144 -17 144 -100z" />
    <glyph glyph-name="sterling" unicode="&#xa3;" horiz-adv-x="618" 
d="M631 75q0 -75 -115 -75h-281q-72 0 -98 8q-53 17 -53 72q0 29 18.5 57t37.5 55q23 35 23 84v6h-29q-115 0 -115 75t104 75h9q-17 51 -17 92q0 89 70 148.5t178 59.5q115 0 194 -60q72 -54 72 -123q0 -32 -20.5 -54.5t-49.5 -22.5q-34 0 -63 37q-33 42 -54 57
q-30 21 -73 21q-38 0 -64 -22t-26 -53q0 -29 18 -80h57q115 0 115 -75t-115 -75h-36v-24q0 -53 -43 -108h241q115 0 115 -75z" />
    <glyph glyph-name="florin" unicode="&#x192;" horiz-adv-x="472" 
d="M477 650q0 -42 -71 -52q-37 -5 -50 -24q-9 -12 -17 -55l-21 -111h43q64 0 64 -47q0 -50 -69 -50h-56l-70 -358q-30 -153 -182 -153q-95 0 -95 70q0 27 23 39q14 7 49 12t49 24q9 13 17 55l60 311h-49q-64 0 -64 47q0 50 69 50h63l30 159q29 153 181 153q96 0 96 -70z" />
    <glyph glyph-name="yen" unicode="&#xa5;" horiz-adv-x="516" 
d="M537 651q0 -29 -37 -82l-128 -183h76q59 0 59 -36q0 -38 -59 -38h-112v-209q0 -112 -74 -112t-74 112v209h-112q-59 0 -59 37t59 37h75l-127 181q-36 51 -36 82q0 27 21 48.5t49 21.5q45 0 83 -61l126 -201l123 203q35 58 79 58q28 0 48 -20.5t20 -46.5z" />
    <glyph glyph-name="ordfeminine" unicode="&#xaa;" horiz-adv-x="452" 
d="M410 418q0 -81 -58 -81q-39 0 -56 39q-36 -42 -99 -42q-74 0 -127 55t-53 139q0 83 54 139t130 56q60 0 95 -39q20 35 56 35q58 0 58 -80v-221zM292 530q0 39 -21.5 63.5t-54.5 24.5t-54.5 -24t-21.5 -64q0 -41 21.5 -66t54.5 -25t54.5 25t21.5 66z" />
    <glyph glyph-name="ordmasculine" unicode="&#xba;" horiz-adv-x="435" 
d="M417 528q0 -86 -55.5 -141.5t-143.5 -55.5t-144.5 55.5t-56.5 141.5t56.5 142t144.5 56t143.5 -55.5t55.5 -142.5zM296 530q0 41 -22.5 66.5t-55.5 25.5q-34 0 -56 -25t-22 -67q0 -43 22 -68.5t56 -25.5t56 25.5t22 68.5z" />
    <glyph glyph-name="onesuperior" unicode="&#xb9;" horiz-adv-x="237" 
d="M182 349q0 -69 -55 -69q-54 0 -54 69v272h-10q-72 0 -72 45t76 45h54q61 0 61 -69v-293z" />
    <glyph glyph-name="twosuperior" unicode="&#xb2;" horiz-adv-x="345" 
d="M332 329q0 -45 -76 -45h-189q-64 0 -64 45q0 16 23 42q5 6 62 63q119 120 119 157q0 41 -41 41q-33 0 -50 -44q-19 -49 -53 -49q-52 0 -52 50q0 41 33 78q49 56 126 56q67 0 108.5 -36.5t41.5 -90.5q0 -47 -43 -102q-33 -42 -119 -120h98q76 0 76 -45z" />
    <glyph glyph-name="threesuperior" unicode="&#xb3;" horiz-adv-x="358" 
d="M332 409q0 -58 -47.5 -98t-120.5 -40q-58 0 -105 33q-58 40 -58 86t47 46q26 0 48.5 -27.5t28.5 -32.5q17 -14 41 -14t40 15.5t16 39.5t-15.5 34t-52.5 16q-44 7 -44 43q0 34 44 43q50 11 50 44q0 36 -39 36q-21 0 -49 -23q-36 -30 -57 -30q-18 0 -31 11.5t-13 29.5
q0 37 46 69.5t106 32.5q61 0 101 -34t40 -83q0 -51 -54 -87q78 -37 78 -110z" />
    <glyph glyph-name="fraction" unicode="&#x2044;" horiz-adv-x="167" 
d="M320 669q0 -23 -17 -53l-329 -576q-33 -57 -70 -57q-24 0 -40.5 16.5t-16.5 41.5q0 24 16 52l330 576q32 56 70 56q24 0 40.5 -16t16.5 -40z" />
    <glyph glyph-name="fraction" unicode="&#x2215;" horiz-adv-x="167" 
d="M320 669q0 -23 -17 -53l-329 -576q-33 -57 -70 -57q-24 0 -40.5 16.5t-16.5 41.5q0 24 16 52l330 576q32 56 70 56q24 0 40.5 -16t16.5 -40z" />
    <glyph glyph-name="onequarter" unicode="&#xbc;" horiz-adv-x="786" 
d="M779 128q0 -42 -62 -42h-9v-42q0 -49 -50 -49q-43 0 -43 51v40h-158q-62 0 -62 35q0 18 24 52l133 188q30 43 76 43q80 0 80 -92v-146q3 0 8 1h7q56 0 56 -39zM546 669q0 -23 -17 -53l-329 -576q-33 -57 -70 -57q-24 0 -40.5 16.5t-16.5 41.5q0 24 16 52l330 576
q32 56 70 56q24 0 40.5 -16t16.5 -40zM173 373q0 -64 -51 -64q-52 0 -52 64v254h-10q-68 0 -68 42t72 42h51q58 0 58 -64v-274zM615 166v152l-105 -152h105z" />
    <glyph glyph-name="onehalf" unicode="&#xbd;" horiz-adv-x="723" 
d="M710 42q0 -42 -73 -42h-180q-61 0 -61 42q0 15 22 39q8 9 59 59q113 110 113 147q0 38 -38 38q-32 0 -49 -41q-19 -46 -50 -46q-50 0 -50 46q0 39 32 74q46 51 120 51q64 0 104 -33.5t40 -84.5q0 -44 -41 -95q-31 -38 -114 -112h93q73 0 73 -42zM546 669q0 -23 -17 -53
l-329 -576q-33 -57 -70 -57q-24 0 -40.5 16.5t-16.5 41.5q0 24 16 52l330 576q32 56 70 56q24 0 40.5 -16t16.5 -40zM173 373q0 -64 -51 -64q-52 0 -52 64v254h-10q-68 0 -68 42t72 42h51q58 0 58 -64v-274z" />
    <glyph glyph-name="threequarters" unicode="&#xbe;" horiz-adv-x="901" 
d="M894 128q0 -42 -62 -42h-9v-42q0 -49 -50 -49q-43 0 -43 51v40h-158q-62 0 -62 35q0 18 24 52l133 188q30 43 76 43q80 0 80 -92v-146q3 0 8 1h7q56 0 56 -39zM661 669q0 -23 -17 -53l-329 -576q-33 -57 -70 -57q-24 0 -40.5 16.5t-16.5 41.5q0 24 16 52l330 576
q32 56 70 56q24 0 40.5 -16t16.5 -40zM317 430q0 -55 -45 -92t-115 -37q-56 0 -101 31q-55 37 -55 80q0 19 12.5 31t32.5 12q23 0 44 -25t29 -31q17 -13 39 -13q23 0 38.5 14.5t15.5 36.5q0 23 -15 32.5t-50 14.5q-42 6 -42 40q0 31 42 40q48 10 48 41q0 34 -38 34
q-20 0 -46 -22q-33 -28 -54 -28q-17 0 -30 11t-13 27q0 34 44 64.5t101 30.5q59 0 97 -31t38 -77q0 -49 -51 -82q74 -35 74 -102zM730 166v152l-105 -152h105z" />
    <glyph glyph-name="perthousand" unicode="&#x2030;" horiz-adv-x="1042" 
d="M1032 150q0 -66 -45 -112.5t-108 -46.5q-64 0 -108.5 46t-44.5 113t45 113t108 46t108 -46.5t45 -112.5zM316 561q0 -66 -45 -112.5t-108 -46.5q-64 0 -108.5 46t-44.5 113t45 113t108 46t108 -46.5t45 -112.5zM585 669q0 -23 -17 -53l-329 -576q-33 -57 -70 -57
q-24 0 -40.5 16.5t-16.5 41.5q0 24 16 52l330 576q32 56 70 56q24 0 40.5 -16t16.5 -40zM689 150q0 -66 -45 -112.5t-108 -46.5q-64 0 -108.5 46t-44.5 113t45 113t108 46t108 -46.5t45 -112.5zM930 150q0 22 -15 37.5t-36 15.5t-36 -15.5t-15 -37.5t15 -37.5t36 -15.5
t36 15.5t15 37.5zM214 561q0 22 -15 37.5t-36 15.5t-36 -15.5t-15 -37.5t15 -37.5t36 -15.5t36 15.5t15 37.5zM587 150q0 22 -15 37.5t-36 15.5t-36 -15.5t-15 -37.5t15 -37.5t36 -15.5t36 15.5t15 37.5z" />
    <glyph glyph-name="minus" unicode="&#x2212;" horiz-adv-x="833" 
d="M709 249h-585v99h585v-99z" />
    <glyph glyph-name="plusminus" unicode="&#xb1;" horiz-adv-x="833" 
d="M709 341h-243v-159h-99v159h-243v97h243v159h99v-159h243v-97zM709 -1h-585v97h585v-97z" />
    <glyph glyph-name="multiply" unicode="&#xd7;" horiz-adv-x="833" 
d="M712 78l-69 -68l-220 220l-220 -220l-68 68l220 220l-220 221l68 68l220 -220l220 220l69 -68l-220 -221z" />
    <glyph glyph-name="divide" unicode="&#xf7;" horiz-adv-x="833" 
d="M491 490q0 -30 -21.5 -52t-52.5 -22t-52.5 21.5t-21.5 52.5t22 52.5t52 21.5t52 -21.5t22 -52.5zM709 250h-585v97h585v-97zM491 106q0 -29 -21.5 -51t-52.5 -22t-52.5 21t-21.5 52t22 52.5t52 21.5t52 -21.5t22 -52.5z" />
    <glyph glyph-name="logicalnot" unicode="&#xac;" horiz-adv-x="833" 
d="M709 177h-97v149h-488v96h585v-245z" />
    <glyph glyph-name="mu" unicode="&#xb5;" horiz-adv-x="610" 
d="M578 533l-94 -533h-131l9 57q-39 -73 -105 -73q-64 0 -104 59l-44 -257h-140l131 747h141l-37 -212q-15 -86 -15 -131q0 -90 83 -90q51 0 79 44q25 41 42 138l44 251h141z" />
    <glyph glyph-name="mu" unicode="&#x3bc;" horiz-adv-x="610" 
d="M578 533l-94 -533h-131l9 57q-39 -73 -105 -73q-64 0 -104 59l-44 -257h-140l131 747h141l-37 -212q-15 -86 -15 -131q0 -90 83 -90q51 0 79 44q25 41 42 138l44 251h141z" />
    <glyph glyph-name="degree" unicode="&#xb0;" horiz-adv-x="329" 
d="M313 566q0 -61 -43.5 -104.5t-105.5 -43.5t-104.5 43t-42.5 105t43 105.5t105 43.5q61 0 104.5 -43.5t43.5 -105.5zM250 567q0 35 -25 60t-60 25t-60.5 -25t-25.5 -60q0 -36 25 -61t61 -25t60.5 25.5t24.5 60.5z" />
    </font>
</defs>
</svg>
