<?xml version="1.0" standalone="no"?>
<!DOCTYPE svg PUBLIC "-//W3C//DTD SVG 1.1//EN" "http://www.w3.org/Graphics/SVG/1.1/DTD/svg11.dtd" >
<svg xmlns="http://www.w3.org/2000/svg">
<metadata></metadata>
<defs>
<font id="merriweather_sansitalic" horiz-adv-x="854" >
<font-face units-per-em="2048" ascent="1638" descent="-410" />
<missing-glyph horiz-adv-x="485" />
<glyph unicode="&#xfb01;" horiz-adv-x="1279" d="M142 984l28 156h132l14 94q28 208 135.5 327.5t286.5 119.5q43 0 79 -5.5t69 -20.5l-50 -159q-21 16 -49 24.5t-75 7.5q-79 -1 -130 -69t-64 -168l-21 -151h211l-12 -156h-220l-133 -984h-195l133 984h-139zM819 0l155 1140h195l-155 -1140h-195zM1002 1507 q0 38 20.5 72.5t54 55t70.5 20.5q54 0 88 -32t34 -78q0 -39 -21 -74.5t-56 -57t-75 -21.5q-47 0 -81 34t-34 81z" />
<glyph unicode="&#xfb02;" horiz-adv-x="1279" d="M142 984l28 156h132l14 94q28 208 135.5 327.5t286.5 119.5q43 0 79 -5.5t69 -20.5l-50 -159q-21 16 -49 24.5t-75 7.5q-79 -1 -130 -69t-64 -168l-21 -151h211l-12 -156h-220l-133 -984h-195l133 984h-139zM820 4l223 1634h195l-223 -1634h-195z" />
<glyph horiz-adv-x="0" />
<glyph unicode="&#xd;" horiz-adv-x="0" />
<glyph horiz-adv-x="0" />
<glyph horiz-adv-x="0" />
<glyph unicode=" "  horiz-adv-x="485" />
<glyph unicode="&#x09;" horiz-adv-x="485" />
<glyph unicode="&#xa0;" horiz-adv-x="485" />
<glyph unicode="!" horiz-adv-x="686" d="M130 86q0 44 25.5 82t66.5 60t86 22q60 0 90 -29t30 -75q0 -14 -1 -21q-9 -66 -59.5 -106.5t-117.5 -40.5q-51 0 -85.5 29.5t-34.5 78.5zM246 488l156 1290h225l-223 -1290h-158z" />
<glyph unicode="&#x22;" horiz-adv-x="1003" d="M224 966l77 721h227l-164 -721h-140zM703 966l77 721h227l-164 -721h-140z" />
<glyph unicode="#" horiz-adv-x="1405" d="M111 365l8 128h226l64 405h-220l8 127h232l53 332h165l-51 -332h311l56 332h165l-54 -332h232l-8 -127h-244l-65 -405h227l-8 -128h-239l-57 -365h-160l51 365h-312l-62 -365h-162l58 365h-214zM511 493h312l64 405h-311z" />
<glyph unicode="$" horiz-adv-x="1204" d="M129 68l55 160q19 -21 70 -43.5t117 -37.5t126 -15q85 0 157 25t116.5 79t44.5 137q0 87 -48.5 160.5t-168.5 152.5q-94 62 -161 123.5t-110.5 145.5t-43.5 191q0 112 49 196.5t137.5 135t203.5 63.5l30 188h181l-31 -190q149 -16 238 -79l-63 -151q-43 44 -120 64.5 t-147 20.5q-112 0 -193.5 -45.5t-86.5 -160.5q-3 -79 19.5 -133.5t71.5 -100.5t143 -110q93 -63 157 -120t106.5 -135t42.5 -177q0 -123 -53.5 -214t-148.5 -145t-221 -70l-35 -213h-180l34 211q-95 9 -176.5 35t-111.5 52z" />
<glyph unicode="%" horiz-adv-x="1911" d="M201 1055q0 106 54 204.5t149 159.5t210 61q142 0 209.5 -79t67.5 -216q0 -111 -51.5 -212.5t-145.5 -164.5t-215 -63q-89 0 -151.5 40t-94.5 110.5t-32 159.5zM362 1057q0 -86 38.5 -137.5t107.5 -51.5t117.5 50.5t72 123t23.5 135.5q0 84 -35.5 132.5t-99.5 48.5 q-71 0 -121.5 -48t-76.5 -118.5t-26 -134.5zM396 0l947 1530h159l-947 -1530h-159zM1037 374q0 106 54 204.5t149 159.5t210 61q142 0 209.5 -79t67.5 -216q0 -111 -51.5 -212.5t-145.5 -164.5t-215 -63q-89 0 -151.5 40t-94.5 110.5t-32 159.5zM1198 376q0 -86 38.5 -137.5 t107.5 -51.5t117.5 50.5t72 123t23.5 135.5q0 84 -35.5 132.5t-99.5 48.5q-71 0 -121.5 -48t-76.5 -118.5t-26 -134.5z" />
<glyph unicode="&#x26;" horiz-adv-x="1534" d="M94 368q0 92 43.5 166t114.5 130.5t172 113.5q-39 85 -64 178.5t-25 171.5q0 119 53 214.5t147.5 149.5t213.5 54q110 0 191 -47t123 -119t42 -143q0 -116 -60.5 -203t-147 -146.5t-228.5 -136.5l-25 -14q86 -147 175 -266t190 -212q100 111 100 283q0 72 -22 140 q-66 -5 -100 -21l10 134q15 15 54 25t101 10l287 -1l-9 -145h-152q12 -45 12 -98q0 -133 -39 -240.5t-114 -184.5q51 -27 109.5 -38t133.5 -9h26l-21 -120q-65 -14 -149 -14q-60 0 -129 19t-122 54q-145 -70 -344 -70q-147 0 -270.5 39t-200 125.5t-76.5 220.5zM298 372 q0 -90 51.5 -145.5t132.5 -79.5t175 -24q116 0 205 37q-86 83 -149 161t-107 146.5t-112 182.5q-94 -62 -145 -128t-51 -150zM515 1134q0 -144 61 -274q110 59 181.5 107t116.5 110t45 139q0 89 -46.5 143t-130.5 54q-69 0 -120.5 -38.5t-79 -102.5t-27.5 -138z" />
<glyph unicode="'" horiz-adv-x="524" d="M224 966l77 721h227l-164 -721h-140z" />
<glyph unicode="(" d="M203 505q0 104 15 219q35 261 155.5 480t252 359t201.5 178l87 -59q-56 -36 -154.5 -158t-192.5 -317t-136 -434q-20 -151 -20 -261q0 -201 45.5 -363t105.5 -263.5t106 -140.5l-108 -64h-17q-56 38 -134.5 139.5t-142 277t-63.5 407.5z" />
<glyph unicode=")" d="M-39 -254q56 36 154.5 158t192.5 317t136 434q20 151 20 261q0 201 -45.5 363t-105.5 263.5t-106 140.5l108 64h17q56 -38 134.5 -139.5t142 -277t63.5 -407.5q0 -103 -15 -219q-35 -261 -155.5 -480t-252 -359t-201.5 -178z" />
<glyph unicode="*" horiz-adv-x="1366" d="M231 982l279 120l142 48l-132 47l-255 121l115 166l218 -170l100 -95l-13 142l2 292h192l-59 -292l-43 -142l120 95l257 171l77 -167l-279 -121l-142 -48l132 -47l255 -120l-115 -166l-219 170l-101 98l16 -145l1 -292l-197 1l59 291l42 145l-118 -98l-257 -171z" />
<glyph unicode="+" horiz-adv-x="1366" d="M241 693l18 158h226l138 -11l13 165l27 230h178l-26 -230l-29 -164l115 10h255l-18 -158h-255l-112 7q-1 -48 -6 -98l-4 -66l-28 -241h-179l27 241l26 164l-141 -7h-225z" />
<glyph unicode="," horiz-adv-x="526" d="M-12 -412l3 21q77 38 125.5 114.5t48.5 168.5q0 68 -26.5 123t-69.5 68l7 54l106 128q104 -39 147.5 -125.5t43.5 -180.5q0 -109 -39.5 -201.5t-110 -159t-162.5 -99.5z" />
<glyph unicode="-" horiz-adv-x="1266" d="M218 693l18 158h837l-18 -158h-837z" />
<glyph unicode="." horiz-adv-x="526" d="M89 90q0 42 19.5 78.5t55.5 59t82 22.5q60 0 89.5 -32t29.5 -80q0 -74 -42.5 -117t-114.5 -43q-50 0 -84.5 31.5t-34.5 80.5z" />
<glyph unicode="/" d="M-93 -362l861 1959h174l-863 -1959h-172z" />
<glyph unicode="0" horiz-adv-x="1278" d="M103 450q0 197 86 358.5t231 254.5t314 93q148 0 244.5 -59.5t141.5 -164t45 -241.5q0 -187 -82 -349.5t-225.5 -260t-318.5 -97.5q-146 0 -244 64t-145 169.5t-47 232.5zM310 466q0 -95 29 -172.5t88 -123.5t144 -46q128 0 215 80t129.5 205.5t42.5 261.5q0 166 -59 256 t-190 90q-143 0 -232.5 -87.5t-128 -214t-38.5 -249.5z" />
<glyph unicode="1" horiz-adv-x="930" d="M176 960q96 21 208.5 79t207.5 123l84 -20l-160 -1142h-201l122 892q-117 -38 -239 -59z" />
<glyph unicode="2" horiz-adv-x="1249" d="M62 130q204 100 377 217.5t278 237t105 220.5q0 100 -51 148t-156 48q-155 0 -337 -151l-73 114q45 48 115 93t161 75t190 30q124 0 208 -46t124 -122.5t40 -167.5q0 -195 -191.5 -364.5t-505.5 -327.5l719 39l-27 -173h-943z" />
<glyph unicode="3" horiz-adv-x="1104" d="M43 -315l16 151q82 -10 130 -10q132 0 248 39t187.5 114.5t71.5 179.5q0 223 -278 226l-142 -34l17 171q425 87 425 320q0 62 -48 98t-126 36q-91 0 -165.5 -33t-156.5 -93l-62 148q38 37 105.5 74.5t158 63.5t190.5 26q89 0 163 -30.5t119 -93.5t45 -157 q0 -87 -52 -166.5t-136.5 -139.5t-179.5 -93q111 0 191.5 -42t121.5 -111.5t41 -152.5q0 -147 -105.5 -262t-273 -178t-345.5 -63q-68 0 -160 12z" />
<glyph unicode="4" horiz-adv-x="1264" d="M20 94q179 271 343.5 543.5t358.5 618.5h47l142 -89l-596 -937l-79 -99l455 17l58 466l193 35l-63 -490l251 15l-21 -174h-250l-47 -375h-189l49 375h-616z" />
<glyph unicode="5" horiz-adv-x="1116" d="M45 -329l23 140q43 -7 79 -7q155 0 286.5 41t211.5 123.5t80 201.5q0 127 -61 191.5t-177 64.5q-56 0 -130.5 -14.5t-131.5 -38.5l-73 75l161 698h547l22 16h168l-38 -185h-546l-116 -426q48 13 113 21t115 8q195 0 286.5 -99.5t91.5 -272.5q0 -159 -103 -285.5 t-281.5 -197.5t-396.5 -71q-81 0 -130 17z" />
<glyph unicode="6" horiz-adv-x="1263" d="M145 493q0 252 110.5 473.5t305.5 379t441 225.5l44 -115q-148 -54 -273 -143.5t-215.5 -203.5t-137.5 -240q134 120 341 120q121 0 199.5 -53.5t114 -140t35.5 -190.5q0 -152 -65.5 -295t-190.5 -234.5t-296 -91.5q-132 0 -225.5 68.5t-140.5 184.5t-47 256zM342 474 q0 -152 63.5 -252t198.5 -100q104 0 173 72t101.5 177t32.5 205q0 132 -55 196t-143 64q-129 0 -210 -45.5t-134 -103.5q-15 -66 -21 -113t-6 -100z" />
<glyph unicode="7" horiz-adv-x="1096" d="M102 984l34 162h892l32 -43l-603 -1423l-178 66l555 1242z" />
<glyph unicode="8" horiz-adv-x="1270" d="M123 352q0 103 50 194.5t133.5 161.5t183.5 113q-93 75 -143 154.5t-50 185.5q0 128 60 220t166 140t241 48q108 0 195.5 -40.5t138 -115t50.5 -173.5q0 -98 -47.5 -188t-125.5 -155.5t-164 -93.5q126 -88 199.5 -184t73.5 -212q0 -129 -70 -225t-190 -147t-267 -51 q-108 0 -207.5 42t-163 125.5t-63.5 200.5zM335 377q0 -75 32 -133.5t90 -91t135 -32.5q78 0 141 32t99 89t36 128q0 107 -69 197.5t-206 181.5q-110 -54 -182.5 -153.5t-75.5 -217.5zM498 1197q0 -96 54 -170t157 -148q107 48 174.5 140t67.5 206q0 68 -28.5 116.5 t-76 73.5t-104.5 25q-69 0 -125 -32.5t-87.5 -88.5t-31.5 -122z" />
<glyph unicode="9" horiz-adv-x="1263" d="M139 542q0 152 65.5 295t190.5 234.5t296 91.5q132 0 225.5 -68.5t140.5 -184.5t47 -256q0 -252 -110.5 -474.5t-305.5 -381t-441 -226.5l-44 115q148 54 273 144.5t215.5 205.5t137.5 241q-122 -130 -311 -130q-131 0 -216 54.5t-124 144t-39 195.5zM338 571 q0 -137 63 -203.5t165 -66.5q118 0 191 48t123 111q15 66 21 113t6 100q0 152 -63.5 252t-198.5 100q-104 0 -173 -72t-101.5 -177t-32.5 -205z" />
<glyph unicode=":" horiz-adv-x="526" d="M68 90q0 42 19.5 78.5t55.5 59t82 22.5q60 0 89.5 -32t29.5 -80q0 -74 -42.5 -117t-114.5 -43q-50 0 -84.5 31.5t-34.5 80.5zM161 899q0 42 19.5 78.5t55.5 59t82 22.5q60 0 89.5 -32t29.5 -80q0 -74 -42.5 -117t-114.5 -43q-50 0 -84.5 31.5t-34.5 80.5z" />
<glyph unicode=";" horiz-adv-x="526" d="M-12 -412l3 21q77 38 125.5 114.5t48.5 168.5q0 68 -26.5 123t-69.5 68l7 54l106 128q104 -39 147.5 -125.5t43.5 -180.5q0 -109 -39.5 -201.5t-110 -159t-162.5 -99.5zM164 899q0 42 19.5 78.5t55.5 59t82 22.5q60 0 89.5 -32t29.5 -80q0 -74 -42.5 -117t-114.5 -43 q-50 0 -84.5 31.5t-34.5 80.5z" />
<glyph unicode="&#x3c;" horiz-adv-x="1368" d="M195 686l16 128l1009 510l-24 -194l-776 -389l685 -388l-20 -177z" />
<glyph unicode="=" horiz-adv-x="1063" d="M96 339l18 157h815l-18 -157h-815zM166 848l18 157h815l-18 -157h-815z" />
<glyph unicode="&#x3e;" horiz-adv-x="1368" d="M250 179l24 194l776 389l-685 388l20 177l890 -510l-16 -128z" />
<glyph unicode="?" horiz-adv-x="1020" d="M269 692q0 86 69.5 156.5t219.5 151.5q105 54 173 107t81 114q9 37 9 96q0 96 -48.5 164t-125 103t-160.5 35q-64 0 -111 -7t-106 -26l28 140q21 22 82 37.5t121 15.5q174 0 286.5 -61t163.5 -158.5t51 -211.5q0 -126 -48 -212t-115 -136t-172 -108q-72 -39 -113 -67 t-68 -65.5t-27 -86.5q0 -27 8.5 -56.5t22.5 -64.5q11 -30 13 -39l-127 -50l-17 1q-37 32 -63.5 96.5t-26.5 131.5zM334 90q0 42 19.5 78.5t55.5 59t82 22.5q60 0 89.5 -32t29.5 -80q0 -74 -42.5 -117t-114.5 -43q-50 0 -84.5 31.5t-34.5 80.5z" />
<glyph unicode="@" horiz-adv-x="1968" d="M121 374q0 353 141 618.5t384 409t539 143.5q210 0 364.5 -80.5t237 -228.5t82.5 -347q0 -264 -94 -464t-236.5 -307t-281.5 -107q-42 0 -61.5 27t-24 68.5t-4.5 118.5q0 31 3.5 65t4.5 42l4 39q-71 -167 -166 -265.5t-202 -98.5q-70 0 -133.5 45t-104 137.5t-40.5 227.5 q0 158 59.5 314t181.5 258.5t299 102.5q51 0 116.5 -14t103.5 -40l165 30q-29 -114 -62 -315.5t-47 -352.5q-6 -61 -6 -117l1 -70q0 -28 14 -28q82 0 166 101t138 258.5t54 314.5q0 305 -155 430t-414 125q-260 0 -459 -145.5t-307 -379.5t-108 -491q0 -243 87 -399.5 t231.5 -228t321.5 -71.5q86 0 205.5 24t172.5 50l33 -97q-70 -53 -184.5 -84.5t-241.5 -31.5q-226 0 -402 96.5t-275.5 280.5t-99.5 437zM712 447q0 -287 130 -287q65 0 154 129.5t161.5 306t87.5 296.5q-23 35 -77.5 55t-102.5 20q-108 0 -188 -79t-122.5 -200t-42.5 -241z " />
<glyph unicode="A" horiz-adv-x="1265" d="M-76 0l746 1530h219l286 -1530h-198l-66 396h-594l-182 -396h-211zM387 547h498l-115 689l-13 116z" />
<glyph unicode="B" horiz-adv-x="1240" d="M110 0l193 1530h87q48 0 144 8q102 8 158 8q246 0 348 -95.5t102 -242.5q0 -153 -81.5 -255.5t-222.5 -150.5q82 -11 149 -52.5t106.5 -108.5t40.5 -151v-11q0 -252 -178 -371q-182 -122 -499 -122q-30 0 -73.5 3t-59.5 4q-77 7 -122 7h-92zM326 146q27 -9 81 -14t93 -5 q423 0 423 331q0 134 -82 199.5t-238 65.5q-109 0 -205 -7zM417 864q44 -2 72 -2l98 1q100 0 181 37.5t128.5 110.5t47.5 176q0 112 -69.5 166.5t-228.5 54.5q-32 0 -81 -2.5t-81 -7.5z" />
<glyph unicode="C" horiz-adv-x="1141" d="M107 652q0 262 93.5 465.5t255.5 316t361 112.5q87 0 144 -12.5t127 -36.5l54 -18l-70 -164q-4 2 -35.5 20t-92 31.5t-134.5 13.5q-177 0 -289.5 -112t-162 -276.5t-49.5 -326.5q0 -149 36.5 -267.5t112 -187t188.5 -68.5q82 0 156 19t126.5 44t76.5 45l30 -166 q-47 -36 -149.5 -68t-275.5 -32q-181 0 -293.5 96.5t-161 247t-48.5 324.5z" />
<glyph unicode="D" horiz-adv-x="1377" d="M110 0l193 1530h94q44 0 156 8q118 8 168 8q299 0 438 -172t139 -476q0 -258 -98 -469t-275 -331q-169 -114 -382 -114h-21q-64 2 -113 7q-42 4 -100 6.5t-98 2.5h-101zM329 163q45 -15 109 -23q52 -6 101 -6h25q174 6 293.5 116t177.5 280t58 357q0 193 -43.5 304.5 t-136.5 160t-251 48.5q-40 0 -95 -6t-85 -13z" />
<glyph unicode="E" horiz-adv-x="1138" d="M110 0l193 1530h767l-7 -157l-581 8l-67 -527l438 7l-12 -166l-443 15l-72 -561l700 16l-14 -165h-902z" />
<glyph unicode="F" horiz-adv-x="1057" d="M110 0l193 1530h790l-14 -157l-597 8l-66 -527l470 8l-12 -168l-476 16l-90 -710h-198z" />
<glyph unicode="G" horiz-adv-x="1340" d="M109 627v26q0 252 91 451q97 210 267 326t378 116q121 0 205 -16t156 -40l38 -11l-62 -179q-43 33 -132 59.5t-208 26.5q-181 0 -301 -111.5t-175.5 -277.5t-55.5 -333q0 -138 32 -256t106.5 -193.5t195.5 -75.5q70 0 157.5 19t167.5 55l45 357h-232l20 159h427l-82 -635 q-26 -3 -56 -10.5t-81 -22.5l-27 -8q-103 -32 -190.5 -50.5t-184.5 -18.5q-168 0 -279 92t-164 238.5t-56 312.5z" />
<glyph unicode="H" horiz-adv-x="1410" d="M110 0l193 1530h198l-87 -686h653l87 686h198l-193 -1530h-198l88 694h-653l-88 -694h-198z" />
<glyph unicode="I" horiz-adv-x="580" d="M127 0l193 1530h198l-193 -1530h-198z" />
<glyph unicode="J" horiz-adv-x="582" d="M-170 -227q77 25 140 73.5t104.5 111t56.5 128.5q43 195 76 450.5t74 642.5q29 274 38 351h198q-55 -509 -113 -947t-81 -508q-41 -130 -108.5 -210t-153 -120.5t-196.5 -59.5z" />
<glyph unicode="K" horiz-adv-x="1245" d="M110 0l193 1530h198l-97 -772l671 772h232l-615 -683q52 -84 111 -186.5t112 -198.5q13 -24 30 -54.5t38 -67.5q124 -220 204 -340h-238q-21 29 -156 287q-5 8 -28 52q-138 260 -199 368l-196 -218l-62 -489h-198z" />
<glyph unicode="L" horiz-adv-x="978" d="M110 0l193 1530h198l-172 -1365l570 5l-22 -170h-767z" />
<glyph unicode="M" horiz-adv-x="1791" d="M48 0l380 1530h254l161 -1060l15 -169l50 169l427 1060h287l-36 -1530h-201l50 1020l24 383l-136 -335l-437 -1071l-140 -15l-161 1061l-36 359l-63 -369l-238 -1033h-200z" />
<glyph unicode="N" horiz-adv-x="1400" d="M110 0l193 1530h206l440 -1062l63 -207l19 249l123 1020h188l-193 -1530h-193l-455 1075l-53 232l-27 -298l-126 -1009h-185z" />
<glyph unicode="O" horiz-adv-x="1378" d="M108 635q0 256 92 464t253.5 327.5t360.5 119.5q160 0 270.5 -86.5t165.5 -233t55 -328.5q0 -254 -89.5 -463t-250.5 -330t-366 -121q-160 0 -270.5 86.5t-165.5 234t-55 330.5zM314 648q5 -265 82 -388.5t235 -123.5q138 0 246 102q109 102 167 274q56 163 55 352v19 q-4 263 -81 384.5t-236 121.5q-137 0 -245.5 -104.5t-167.5 -274.5q-55 -160 -55 -338v-24z" />
<glyph unicode="P" horiz-adv-x="1180" d="M110 0l193 1530h116q46 0 140 8q98 8 155 8q224 0 340.5 -100t116.5 -305q0 -188 -78 -329t-217.5 -216.5t-318.5 -75.5q-124 0 -182 10l-67 -530h-198zM395 690q26 -5 72.5 -9.5t84.5 -4.5q213 0 313.5 117t104.5 346v9q0 250 -288 250q-40 0 -99 -6t-102 -15z" />
<glyph unicode="Q" horiz-adv-x="1378" d="M108 635q0 256 92 464t253.5 327.5t360.5 119.5q160 0 270.5 -86.5t165.5 -233t55 -328.5q0 -228 -73 -421.5t-206.5 -320t-306.5 -160.5q4 -76 47.5 -113.5t105.5 -48t152 -10.5q39 0 96.5 7t96.5 21v-154q-36 -25 -128.5 -41.5t-180.5 -16.5q-91 0 -166.5 33t-121 99 t-45.5 161q0 24 3 51q-154 6 -260 94.5t-158 233.5t-52 323zM314 648q5 -265 82 -388.5t235 -123.5q138 0 246 102.5t167 273.5q55 164 55 352v19q-4 263 -81 384.5t-236 121.5q-137 0 -245.5 -104.5t-167.5 -274.5q-55 -160 -55 -338v-24z" />
<glyph unicode="R" horiz-adv-x="1270" d="M108 0l193 1530h102q56 0 152 8t157 8q231 0 350.5 -95.5t119.5 -272.5q0 -119 -41.5 -219.5t-121.5 -173.5t-192 -107q36 -37 77 -115.5t62 -144.5q84 -203 125 -292.5t69 -126.5l-227 2q-47 74 -129 305q-48 156 -98.5 248t-113.5 97q-22 0 -81.5 1t-122.5 1l-82 -653 h-198zM408 812q51 -3 223 -3q115 0 191 49q76 48 112 133q33 78 33 177v17q-3 101 -73.5 155t-203.5 54q-42 0 -110 -5.5t-99 -10.5z" />
<glyph unicode="S" horiz-adv-x="1044" d="M29 75l55 160q19 -21 70 -43.5t117 -37.5t126 -15q135 0 226.5 56t91.5 178q0 87 -48.5 160.5t-168.5 152.5q-93 61 -160.5 123t-111 146.5t-43.5 191.5q0 124 59.5 214t165 137.5t240.5 47.5q125 0 210 -25t133 -60l-63 -151q-43 44 -120 64.5t-147 20.5 q-112 0 -193.5 -45.5t-86.5 -160.5v-18q-1 -67 19 -116q22 -55 71.5 -101t143.5 -110q93 -63 157 -120t106.5 -135t42.5 -177q0 -140 -68 -236t-187 -144t-272 -48q-78 0 -153.5 14.5t-132 35.5t-79.5 41z" />
<glyph unicode="T" horiz-adv-x="1122" d="M129 1373l22 157h1044l-21 -157l-420 11l-175 -1384h-198l175 1384z" />
<glyph unicode="U" horiz-adv-x="1363" d="M146 437q0 37 10 125l3 31l118 937h198l-114 -902q-12 -115 -12 -177q0 -152 72.5 -229t208.5 -77q164 0 259 118t128 381l112 886h193l-114 -903q-30 -233 -107 -374.5t-200.5 -205t-298.5 -63.5q-223 0 -339.5 119.5t-116.5 333.5z" />
<glyph unicode="V" horiz-adv-x="1169" d="M128 1530h198l163 -1101l25 -222l86 222l476 1101h210l-697 -1530h-209z" />
<glyph unicode="W" horiz-adv-x="1773" d="M126 1530h198l140 -1094l32 -216l61 215l343 878l-24 217h190l116 -1094l15 -216l74 215l417 1095h200l-629 -1540h-202l-96 860l-13 173l-56 -173l-330 -860h-204z" />
<glyph unicode="X" horiz-adv-x="1157" d="M-59 0l558 793l-318 737h218l229 -598l389 598h224l-537 -777l347 -753h-228l-248 620l-394 -620h-240z" />
<glyph unicode="Y" horiz-adv-x="1083" d="M83 1530h212l248 -692l32 -76l38 76l412 692h212l-593 -940l-76 -590h-188l76 590z" />
<glyph unicode="Z" horiz-adv-x="1157" d="M15 89l779 1128l134 159l-690 -14l22 168h898l25 -86l-780 -1141l-124 -145l752 12l-28 -170h-961z" />
<glyph unicode="[" d="M180 -47q0 57 4 110q9 156 37.5 361t79.5 524q58 370 80 535q13 99 36.5 152.5t68.5 76.5t125 23q39 0 97 -10.5t104 -21.5t59 -15l-13 -87h-275l-223 -1656l138 -1q47 -1 137 -1q-4 -26 -10 -86q-87 -25 -143.5 -36t-129.5 -11q-65 0 -102 13t-53.5 44t-16.5 86z" />
<glyph unicode="\" d="M26 1597l576 -1959h174l-577 1959h-173z" />
<glyph unicode="]" d="M45 -132l13 87h275l223 1656l-138 1q-47 1 -137 1q4 26 10 86q87 25 143.5 36t129.5 11q65 0 102 -13t53.5 -44t16.5 -86q0 -57 -4 -110q-9 -156 -37.5 -361t-79.5 -524q-58 -370 -80 -535q-13 -99 -36.5 -152.5t-68.5 -76.5t-125 -23q-39 0 -97 10.5t-104 21.5t-59 15z " />
<glyph unicode="^" horiz-adv-x="1364" d="M176 510l511 1020h197l257 -1020h-171l-202 828l-417 -828h-175z" />
<glyph unicode="_" horiz-adv-x="1335" d="M-111 -338l20 151h1378l-20 -151h-1378z" />
<glyph unicode="`" horiz-adv-x="541" d="M69 1596l153 137l288 -402l-85 -70q-41 17 -114.5 77t-142 132.5t-99.5 125.5z" />
<glyph unicode="a" horiz-adv-x="1145" d="M81 416q0 170 69 341t213.5 285t355.5 114q50 0 112 -9.5t114 -24.5l113 34l-156 -1156h-172l16 190q-63 -87 -155 -146.5t-200 -59.5q-154 0 -232 115t-78 317zM283 440q0 -156 37 -230t106 -74q95 0 182.5 74.5t148.5 173.5l86 604q-75 25 -155 25q-134 0 -225.5 -89.5 t-135.5 -222t-44 -261.5z" />
<glyph unicode="b" horiz-adv-x="1163" d="M83 -16l219 1654h185l-55 -491l-36 -193q66 85 160.5 143.5t203.5 58.5q154 0 232 -115t78 -317q0 -169 -71.5 -340.5t-218 -285.5t-358.5 -114q-51 0 -112.5 10t-112.5 24zM300 151q70 -24 153 -24q134 0 228 89.5t140.5 222.5t46.5 261q0 156 -37 230t-106 74 q-97 0 -189.5 -74.5t-155.5 -169.5z" />
<glyph unicode="c" horiz-adv-x="905" d="M85 434q0 166 67.5 333.5t199.5 278t313 110.5q62 0 121.5 -9t98.5 -29l-51 -167q-37 31 -83 44.5t-103 13.5q-86 0 -170.5 -72.5t-139 -200t-54.5 -282.5q0 -173 51.5 -247t156.5 -74q65 0 126 32.5t137 106.5l65 -106q-30 -40 -81.5 -82t-123 -71t-153.5 -29 q-183 0 -280 118t-97 332z" />
<glyph unicode="d" horiz-adv-x="1161" d="M79 416q0 169 71.5 340.5t218 285.5t358.5 114q63 0 143 -15l68 497h195l-221 -1638h-174l16 194q-66 -89 -161 -149.5t-204 -60.5q-154 0 -232 115t-78 317zM281 440q0 -156 37 -230t106 -74q97 0 189 77.5t155 175.5l82 599q-69 25 -154 25q-134 0 -228 -89.5 t-140.5 -222.5t-46.5 -261z" />
<glyph unicode="e" horiz-adv-x="1035" d="M86 434q5 200 81.5 365t211 261t305.5 96q93 0 156 -32.5t94 -89t31 -128.5q0 -154 -112.5 -259t-268.5 -159t-292 -63l-1 -27q0 -108 47.5 -184t163.5 -76q77 0 162.5 40t169.5 119l55 -111q-32 -44 -93 -91t-144 -79t-173 -32q-135 0 -224.5 63t-130.5 165 q-38 95 -38 206v16zM297 564q88 4 200 46t192 115t80 164q0 64 -34 91.5t-94 27.5q-95 0 -169.5 -70.5t-119 -174t-55.5 -199.5z" />
<glyph unicode="f" horiz-adv-x="695" d="M142 984l28 156h132l14 94q28 208 135.5 327.5t286.5 119.5q43 0 79 -5.5t69 -20.5l-50 -159q-21 16 -49 24q-25 8 -65 8h-10q-79 -1 -130 -69t-64 -168l-21 -151h211l-12 -156h-220l-133 -984h-195l133 984h-139z" />
<glyph unicode="g" horiz-adv-x="1157" d="M79 416q0 169 71.5 340.5t218 285.5t358.5 114q51 0 113 -10t114 -24l116 34l-170 -1249q-23 -148 -104 -240t-188.5 -131.5t-217.5 -39.5q-66 0 -152.5 11t-116.5 24l50 165q47 -22 116 -37t141 -15q122 0 186 65.5t89 194.5l49 287q-66 -87 -160.5 -147t-202.5 -60 q-154 0 -232 115t-78 317zM281 440q0 -156 37 -230t106 -74q95 0 185.5 74.5t154.5 171.5l85 607q-70 24 -153 24q-134 0 -228 -89.5t-140.5 -222.5t-46.5 -261z" />
<glyph unicode="h" horiz-adv-x="1198" d="M88 0l208 1638h195l-52 -479l-40 -250q91 109 210.5 178t237.5 69q113 0 167.5 -68.5t54.5 -221.5q0 -74 -40 -351q-24 -170 -47 -317l-30 -198h-196q28 208 55 378l20 136q19 131 29 212.5t10 127.5q0 51 -12 77.5t-34.5 35t-58.5 8.5q-54 0 -123.5 -35.5t-138.5 -94 t-122 -126.5l-98 -719h-195z" />
<glyph unicode="i" horiz-adv-x="584" d="M124 0l155 1140h195l-155 -1140h-195zM307 1507q0 38 20.5 72.5t54 55t70.5 20.5q54 0 88 -32t34 -78q0 -39 -21 -74.5t-56 -57t-75 -21.5q-47 0 -81 34t-34 81z" />
<glyph unicode="j" horiz-adv-x="579" d="M-230 -475l52 111q7 -6 25 -10t29 -4q84 0 134.5 58.5t76 152.5t44.5 236l146 1071h195l-154 -1136q-21 -158 -78.5 -275t-143.5 -180t-192 -63q-78 0 -134 39zM282 1507q0 38 20.5 72.5t54 55t70.5 20.5q54 0 88 -32t34 -78q0 -39 -21 -74.5t-56 -57t-75 -21.5 q-47 0 -81 34t-34 81z" />
<glyph unicode="k" horiz-adv-x="1041" d="M88 0l208 1638h195l-208 -1638h-195zM402 634l1 1h-1q161 90 279 219q63 69 106.5 135t74.5 151h186q-7 -78 -39 -145t-89 -140q-66 -84 -148 -151t-152 -103l364 -597h-227z" />
<glyph unicode="l" horiz-adv-x="584" d="M125 4l223 1634h195l-223 -1634h-195z" />
<glyph unicode="m" horiz-adv-x="1769" d="M83 4l155 1136h185l-20 -214q85 103 192 166.5t214 63.5q97 0 151.5 -50t67.5 -160q84 94 187 152t205 58q113 0 167.5 -68.5t54.5 -221.5q0 -74 -40 -351q-15 -112 -48 -324l-28 -187h-196q12 95 57 393l17 117q19 131 29 212.5t10 127.5q0 51 -12 77.5t-34.5 35 t-58.5 8.5q-65 0 -151.5 -56.5t-160.5 -142.5q-10 -99 -34 -261q-15 -112 -48 -324l-28 -187h-196q12 95 57 393l17 117q19 131 29 212.5t10 127.5q0 51 -12.5 77t-35 35t-58.5 9q-50 0 -113.5 -34.5t-126 -92.5t-111.5 -125l-98 -719h-195z" />
<glyph unicode="n" horiz-adv-x="1194" d="M83 4l155 1136h185l-21 -224q92 106 209 173t233 67q113 0 167.5 -68.5t54.5 -221.5q0 -74 -40 -351q-15 -112 -48 -324l-28 -187h-196q12 95 57 393l17 117q19 131 29 212.5t10 127.5q0 51 -12 77.5t-34.5 35t-58.5 8.5q-55 0 -125 -36t-139.5 -96t-122.5 -129l-97 -710 h-195z" />
<glyph unicode="o" horiz-adv-x="1135" d="M89 458q0 179 74.5 340t205.5 259.5t292 98.5q190 0 285 -123t95 -351q0 -180 -72 -341t-200.5 -259t-289.5 -98q-191 0 -290.5 124t-99.5 350zM292 463q0 -160 53.5 -246t163.5 -86q105 0 179 82t111 208t37 257q0 164 -48.5 247.5t-157.5 83.5q-106 0 -182.5 -82 t-116 -208.5t-39.5 -255.5z" />
<glyph unicode="p" horiz-adv-x="1169" d="M15 -513l220 1653h175l-17 -187q65 85 160 144t205 59q154 0 232 -115t78 -317q0 -169 -71.5 -340.5t-218 -285.5t-358.5 -114q-62 0 -142 15l-68 -512h-195zM298 151q70 -24 153 -24q134 0 228 89.5t140.5 222.5t46.5 261q0 156 -37 230t-106 74q-97 0 -189.5 -74.5 t-155.5 -169.5z" />
<glyph unicode="q" horiz-adv-x="1159" d="M79 416q0 169 71.5 340.5t218 285.5t358.5 114q47 0 104.5 -8.5t109.5 -21.5l123 36l-220 -1668h-195l68 510l35 187q-66 -87 -160.5 -147t-202.5 -60q-154 0 -232 115t-78 317zM281 440q0 -156 37 -230t106 -74q95 0 185 74t154 172l83 608q-72 23 -150 23 q-134 0 -228 -89.5t-140.5 -222.5t-46.5 -261z" />
<glyph unicode="r" horiz-adv-x="786" d="M82 0l156 1140h185l-19 -203q30 49 80 98.5t119.5 85t150.5 35.5q48 0 61 -13l-44 -208q-28 14 -98 14q-44 0 -100.5 -33t-111 -96t-92.5 -147l-92 -673h-195z" />
<glyph unicode="s" horiz-adv-x="872" d="M44 43l37 171q126 -83 267 -83q83 0 136.5 32.5t53.5 109.5q0 43 -16.5 76t-44.5 61t-83 74l-18 16q-70 60 -111.5 104.5t-68 103.5t-26.5 135q0 99 51.5 169.5t138 107t190.5 36.5q86 0 155.5 -12.5t100.5 -26.5l-38 -183q-8 11 -36 28.5t-74.5 32t-106.5 14.5 q-84 0 -138.5 -35t-54.5 -106q0 -49 19 -86.5t47.5 -65t86.5 -75.5q72 -58 115 -101.5t74.5 -105t31.5 -139.5q0 -100 -50 -170t-139 -105.5t-205 -35.5q-95 0 -181 18t-113 41z" />
<glyph unicode="t" horiz-adv-x="741" d="M133 984l42 156h105l62 280h165l-36 -280h262l-23 -156h-261l-76 -590l-8 -56q-1 -9 -5 -38t-4 -52q0 -50 11.5 -79.5t44.5 -29.5q35 0 105 34.5t108 63.5l25 -108q-24 -30 -78.5 -64.5t-118.5 -57.5t-117 -23q-83 0 -133 41.5t-50 137.5q0 41 12 133l84 688h-116z" />
<glyph unicode="u" horiz-adv-x="1173" d="M102 270q0 63 21 228q36 284 90 642h196q-19 -138 -41 -291q-33 -238 -48 -352q-19 -146 -19 -215q0 -76 32 -103.5t103 -27.5q83 0 182.5 76t173.5 186l96 727h195l-151 -1140h-182l22 218q-82 -107 -187.5 -172.5t-220.5 -65.5q-134 0 -198 68t-64 222z" />
<glyph unicode="v" horiz-adv-x="1007" d="M102 1140h218l67 -781l10 -205l144 188q67 108 103.5 173.5t68 146.5t58.5 192q12 48 25 138t13 134l-1 14h186q2 -40 2 -62q0 -37 -3 -73q-19 -214 -127.5 -427t-259.5 -394l-161 -188l-175 -12l-58 375z" />
<glyph unicode="w" horiz-adv-x="1662" d="M108 1140h218l71 -781l10 -205l134 188q90 145 151.5 280.5t93.5 294.5l-32 223h214l73 -781l12 -205l131 182q65 104 101.5 172.5t65 151.5t48.5 194q37 205 37 271q0 11 -1 15h191q1 -15 1 -40q0 -35 -4 -76q-12 -149 -67 -304t-135.5 -293.5t-171.5 -248.5l-151 -182 l-175 -12l-58 375l-33 232q-115 -275 -226 -407l-151 -188l-175 -12l-58 375z" />
<glyph unicode="x" horiz-adv-x="953" d="M-54 4l426 587l-254 549h234l143 -411l274 411h212l-422 -572l275 -564h-229l-168 430l-282 -430h-209z" />
<glyph unicode="y" horiz-adv-x="1050" d="M-195 -474l56 162l20 -10t41.5 -14t57.5 -6q68 0 132 28t137.5 99.5t161.5 198.5h-122l-65 375l-109 781h216l84 -781l40 -302l103 182q200 321 244 767q5 60 7 134h192q2 -38 2 -59q0 -36 -3 -74q-26 -356 -250 -778q-113 -214 -249 -383q-12 -15 -13 -16 q-78 -98 -145.5 -165t-167.5 -116.5t-228 -49.5q-27 0 -69.5 8.5t-72.5 18.5z" />
<glyph unicode="z" horiz-adv-x="965" d="M-28 59l579 756l160 169h-539l22 156h723l48 -52l-597 -782l-143 -150h597l-15 -156h-777z" />
<glyph unicode="{" horiz-adv-x="1024" d="M160 714l18 124q127 31 192 65q60 31 65 63l77 517q16 102 40.5 155t69.5 75t125 22q40 0 97.5 -10.5t103.5 -21.5t59 -15q-2 -11 -7 -43t-6 -44h-276l-96 -631q-6 -38 -30.5 -67.5t-67.5 -56.5q-18 -11 -72 -36.5t-73 -33.5q108 -57 142 -92q42 -44 42 -93q0 -10 -1 -16 l-95 -630h275q-3 -20 -7 -48t-5 -40q-86 -25 -143.5 -36t-131.5 -11q-64 0 -100.5 13t-52.5 44t-15 86q1 18 38.5 275t51.5 351q0 16 -13.5 33.5t-38.5 33.5q-32 21 -76 39t-89 29z" />
<glyph unicode="|" d="M354 -186v1966h173v-1966h-173z" />
<glyph unicode="}" horiz-adv-x="1024" d="M66 -142q2 11 7 43t6 44h276l96 631q6 38 30.5 67.5t67.5 56.5q18 11 72 36.5t73 33.5q-108 57 -142 92q-42 44 -42 93q0 10 1 16l95 630h-275q3 20 7 48t5 40q86 25 143.5 36t131.5 11q64 0 100.5 -13t52.5 -44t15 -86q-1 -18 -38.5 -275t-51.5 -351q0 -16 13.5 -33.5 t38.5 -33.5q32 -21 76 -39t89 -29l-18 -124q-127 -31 -192 -65q-60 -31 -65 -63l-77 -517q-16 -102 -40.5 -155t-69.5 -75t-125 -22q-40 0 -97.5 10.5t-103.5 21.5t-59 15z" />
<glyph unicode="~" horiz-adv-x="1137" d="M132 848q17 50 63 98.5t111.5 80t137.5 31.5q54 0 97 -24.5t101 -71.5q46 -38 77.5 -57t66.5 -19q123 0 202 117l71 -73q-15 -54 -60.5 -102.5t-112 -78t-139.5 -29.5q-55 0 -97.5 24t-98.5 71q-47 39 -78.5 58t-67.5 19q-123 0 -202 -117z" />
<glyph unicode="&#xa1;" horiz-adv-x="686" d="M93 -434l223 1290h158l-156 -1290h-225zM292 1198q0 14 1 21q9 66 59.5 106.5t117.5 40.5q51 0 85.5 -29.5t34.5 -78.5q0 -44 -25.5 -82t-66.5 -60t-86 -22q-60 0 -90 29t-30 75z" />
<glyph unicode="&#xa2;" horiz-adv-x="1057" d="M137 434q0 146 53.5 297.5t159 264.5t251.5 147l54 215h150l-51 -203q52 -2 100.5 -11t82.5 -26l-51 -167q-37 31 -83 44.5t-103 13.5q-86 0 -170.5 -72.5t-139 -200t-54.5 -282.5q0 -173 51.5 -247t156.5 -74q65 0 126 32.5t137 106.5l65 -106q-46 -61 -131.5 -116.5 t-192.5 -64.5l-37 -200h-150l39 213q-128 34 -195.5 146t-67.5 290z" />
<glyph unicode="&#xa3;" horiz-adv-x="1368" d="M-10 51q0 7 2 23q5 34 43.5 72t92 62.5t99.5 24.5q46 36 73.5 110t37.5 150l42 251h-177l18 131h182l15 91q21 156 87 287t183 211.5t282 80.5q95 0 155 -16.5t106 -65.5l-93 -140q-6 14 -32 33t-68.5 33.5t-96.5 14.5q-65 0 -128 -41.5t-115 -139t-78 -255.5l-16 -93 h310l-17 -131h-317l-8 -48q-24 -145 -41.5 -220t-42.5 -131t-72 -128q45 -15 86 -30q92 -33 157 -49.5t137 -16.5q151 0 214.5 51t63.5 149q0 41 -26.5 90t-64.5 70l157 119q62 -50 101 -121.5t39 -149.5q0 -349 -458 -349q-123 0 -227 26t-238 75l-60 21 q-40 -53 -104 -87.5t-125 -34.5q-78 0 -78 71z" />
<glyph unicode="&#xa4;" horiz-adv-x="1540" d="M229 1135l113 114l194 -195q112 74 246 74q70 0 135.5 -21t120.5 -60l190 189l113 -114l-191 -191q35 -53 53.5 -114.5t18.5 -126.5q0 -68 -20 -131.5t-57 -116.5l194 -194l-114 -113l-194 194q-112 -77 -249 -77q-66 0 -128 18.5t-114 53.5l-194 -194l-114 113l192 192 q-40 55 -61 120t-21 135q0 69 21 133.5t59 118.5zM490 690q0 -82 39 -152t106 -111.5t147 -41.5t147 41.5t106 111.5t39 152t-39 152t-106 111.5t-147 41.5t-147 -41.5t-106 -111.5t-39 -152z" />
<glyph unicode="&#xa5;" horiz-adv-x="1483" d="M230 376l17 130h410l27 225h-407l17 131h348l-318 668h193l254 -555l41 -111l66 119l368 547h194l-498 -668h357l-17 -131h-422l-26 -225h418l-17 -130h-417l-44 -376h-177l45 376h-412z" />
<glyph unicode="&#xa6;" d="M354 -186v894h173v-894h-173zM354 886v894h173v-894h-173z" />
<glyph unicode="&#xa7;" horiz-adv-x="1194" d="M131 -65l55 150q18 -27 69 -54t117 -44.5t127 -17.5q348 0 348 191q0 55 -60.5 108.5t-196.5 109.5q-385 160 -385 443q0 80 45 137.5t133 101.5q-138 126 -138 290q0 94 60.5 167.5t174.5 114.5t270 41q125 0 210 -31t133 -74l-63 -151q-29 37 -83 61t-111.5 34 t-102.5 10q-77 0 -139.5 -21t-99.5 -57t-41 -78q-5 -75 26 -123.5t86.5 -83t181.5 -97.5q153 -75 249.5 -171.5t96.5 -229.5q0 -89 -33.5 -155.5t-98.5 -116.5q92 -85 92 -190q0 -123 -72 -210t-198 -131t-287 -44q-77 0 -153 19t-132.5 47.5t-79.5 54.5zM413 845 q-5 -75 26 -125t89 -86.5t179 -97.5q56 -22 118 -55q62 56 62 150q0 49 -19.5 91.5t-76 87.5t-161.5 94q-72 34 -130 68q-39 -23 -61.5 -55.5t-25.5 -71.5z" />
<glyph unicode="&#xa8;" horiz-adv-x="809" d="M60 1503q0 38 20.5 72.5t54 55t70.5 20.5q54 0 88 -32t34 -78q0 -39 -21 -74.5t-56 -57t-75 -21.5q-47 0 -81 34t-34 81zM480 1503q0 38 20.5 72.5t54 55t70.5 20.5q54 0 88 -32t34 -78q0 -39 -21 -74.5t-56 -57t-75 -21.5q-47 0 -81 34t-34 81z" />
<glyph unicode="&#xa9;" horiz-adv-x="2129" d="M194 963q0 239 116 440.5t315.5 319t438.5 117.5t439 -117.5t316 -319t116 -440.5q0 -240 -116.5 -442t-316 -320.5t-438.5 -118.5t-438.5 118.5t-315.5 320.5t-116 442zM336 963q0 -205 95 -377.5t261.5 -273.5t371.5 -101t371.5 101t261.5 273.5t95 377.5t-95 377 t-261.5 273t-371.5 101t-371.5 -101t-261.5 -273t-95 -377zM621 956q0 142 57.5 254t169.5 176t269 64q140 0 238 -56l-32 -164q-96 63 -225 63q-89 0 -153 -42t-97 -115.5t-33 -164.5q0 -106 34.5 -181.5t96 -114.5t142.5 -39q72 0 137.5 18t109.5 43l45 -124 q-50 -42 -136 -68t-183 -26q-134 0 -234 66t-153 175.5t-53 235.5z" />
<glyph unicode="&#xaa;" d="M94 1040q0 128 66.5 252.5t182 204.5t255.5 80q43 0 91.5 -8.5t83.5 -20.5l100 26l-146 -831h-167l24 127q-48 -56 -108 -91.5t-143 -35.5q-117 0 -178 78.5t-61 218.5zM268 1055q0 -96 30.5 -145t104.5 -49q73 0 189 114l77 462q-19 18 -45.5 28t-50.5 10 q-91 0 -160.5 -64.5t-107 -162t-37.5 -193.5z" />
<glyph unicode="&#xab;" horiz-adv-x="1878" d="M245 530l22 160l692 396l38 -115l-510 -356l414 -351l-70 -112zM921 530l22 160l692 396l38 -115l-510 -356l414 -351l-70 -112z" />
<glyph unicode="&#xac;" horiz-adv-x="1370" d="M211 701l17 152h960l-62 -531h-177l45 379h-783z" />
<glyph unicode="&#xad;" horiz-adv-x="1266" d="M218 693l18 158h837l-18 -158h-837z" />
<glyph unicode="&#xae;" horiz-adv-x="2129" d="M194 963q0 239 116 440.5t315.5 319t438.5 117.5t439 -117.5t316 -319t116 -440.5q0 -240 -116.5 -442t-316 -320.5t-438.5 -118.5t-438.5 118.5t-315.5 320.5t-116 442zM336 963q0 -205 95 -377.5t261.5 -273.5t371.5 -101t371.5 101t261.5 273.5t95 377.5t-95 377 t-261.5 273t-371.5 101t-371.5 -101t-261.5 -273t-95 -377zM738 479v962h77q33 0 61.5 1t51.5 2q92 4 145 4q122 0 202.5 -36.5t118.5 -98t38 -139.5q0 -116 -45.5 -192.5t-147.5 -107.5q37 -27 63.5 -68.5t62.5 -112.5l27 -54q17 -30 63 -99l40 -61l-204 1q-22 29 -39 59.5 t-40 78.5l-14 31q-26 59 -45.5 95t-48 65.5t-65.5 39.5q-26 -1 -124 -1v-369h-177zM915 980q40 -4 130 -4q104 0 153.5 40.5t49.5 134.5q0 81 -44.5 123t-161.5 42q-44 0 -71 -2t-56 -9v-325z" />
<glyph unicode="&#xaf;" horiz-adv-x="614" d="M81 1395l4 149h510l-5 -149h-509z" />
<glyph unicode="&#xb0;" horiz-adv-x="899" d="M144 1272q0 92 44 167t121 118t173 43q90 0 163.5 -42.5t116 -115t42.5 -158.5q0 -93 -44.5 -168t-122.5 -118t-174 -43q-90 0 -163 42.5t-114.5 115.5t-41.5 159zM284 1274q0 -54 24.5 -99.5t67 -72t94.5 -26.5q55 0 99.5 27t69.5 74t25 105q0 54 -25 99t-67.5 71.5 t-94.5 26.5q-55 0 -99 -27t-69 -73.5t-25 -104.5z" />
<glyph unicode="&#xb1;" horiz-adv-x="1366" d="M172 30l17 150h869l-17 -150h-869zM241 693l18 158h225l139 -11l7 85q3 25 7 80l26 230h178l-26 -230l-29 -164l115 10h255l-18 -158h-255l-112 7q-1 -29 -5 -82l-6 -82l-27 -241h-179l27 241l26 164l-141 -7h-225z" />
<glyph unicode="&#xb4;" horiz-adv-x="559" d="M69 1332l307 401l152 -137q-19 -35 -88.5 -108t-151 -139.5t-136.5 -87.5z" />
<glyph unicode="&#xb5;" horiz-adv-x="1364" d="M121 -372l181 1223q4 24 4 53q0 63 -26 63q-25 0 -47.5 -14.5t-46.5 -38.5l-64 115q12 18 45.5 47t88.5 53.5t123 24.5q57 0 95 -40.5t38 -118.5q0 -20 -3 -43q-18 -139 -44.5 -332.5t-37.5 -273.5q-2 -24 -2 -35q0 -83 44 -119t113 -36q70 0 144.5 54.5t125.5 120.5 l108 809h194l-116 -902q-1 -7 -1 -21q0 -28 10 -45t24 -17q27 0 54 17t65 55l62 -107q-14 -20 -48.5 -52t-88 -59t-116.5 -27t-105.5 35t-48.5 105q-54 -51 -88 -77.5t-91 -45.5t-139 -19q-39 1 -89.5 22.5t-67.5 53.5l-64 -428h-185z" />
<glyph unicode="&#xb6;" horiz-adv-x="1364" d="M161 1129q0 208 134.5 325t420.5 117q58 0 113.5 -3.5t103.5 -7.5q106 -8 157 -8h259l-11 -103l-167 -33q-19 -159 -48.5 -389.5t-41.5 -324.5q-63 -481 -89 -702h-190l175 1414h-194l-177 -1414h-192l102 774q-166 4 -260.5 96t-94.5 259z" />
<glyph unicode="&#xb7;" horiz-adv-x="686" d="M208 736q0 42 19.5 78.5t55.5 59t82 22.5q60 0 89.5 -32t29.5 -80q0 -74 -42.5 -117t-114.5 -43q-50 0 -84.5 31.5t-34.5 80.5z" />
<glyph unicode="&#xb8;" horiz-adv-x="479" d="M4 -436l25 151q26 -14 71 -14q72 0 115.5 39t43.5 141l1 73q0 55 -5 76l77 4l53 -4q21 -30 33 -80t12 -115q0 -158 -77.5 -228.5t-200.5 -70.5q-41 0 -86.5 8t-61.5 20z" />
<glyph unicode="&#xba;" d="M98 1105q0 147 64.5 257t164.5 168.5t205 58.5q97 0 172 -48t117 -133t42 -194q0 -148 -61.5 -257t-161 -166.5t-210.5 -57.5q-89 0 -165 46t-121.5 130.5t-45.5 195.5zM282 1123q0 -79 19.5 -139t54 -93t79.5 -33q135 0 188.5 100.5t53.5 237.5q0 125 -38 200t-114 75 q-87 0 -141.5 -55.5t-78 -135t-23.5 -157.5z" />
<glyph unicode="&#xbb;" horiz-adv-x="1878" d="M218 267l510 356l-414 351l70 112l586 -378l-22 -160l-692 -396zM894 267l510 356l-414 351l70 112l586 -378l-22 -160l-692 -396z" />
<glyph unicode="&#xbc;" horiz-adv-x="2560" d="M308 1466q66 17 154 51.5t162 70.5t100 57l69 -21l-135 -988h-185l102 759l-261 -52zM706 0l681 1530h159l-681 -1530h-159zM1275 261l606 851h48l133 -103l-491 -609l-79 -92l334 14l35 253l202 23l-36 -268l262 11l-20 -175h-264l-46 -343h-203l48 343h-492z" />
<glyph unicode="&#xbd;" horiz-adv-x="2560" d="M308 1466q66 17 154 51.5t162 70.5t100 57l69 -21l-135 -988h-185l102 759l-261 -52zM705 0l681 1530h159l-681 -1530h-159zM1404 18q119 63 268.5 161.5t267.5 217.5t118 221q0 87 -53.5 124t-140.5 37q-85 0 -165 -35t-146 -103l-70 94q33 45 93.5 90.5t142.5 76 t172 30.5q112 0 193.5 -38.5t123.5 -98.5t42 -122q0 -134 -70.5 -237.5t-177.5 -183t-310 -204.5l542 33l-7 -159h-778z" />
<glyph unicode="&#xbe;" horiz-adv-x="2560" d="M111 606l17 108q49 -24 115.5 -37.5t119.5 -13.5q76 0 149.5 20.5t124.5 68.5t53 124q4 71 -44.5 114.5t-130.5 45.5l-161 -35l21 145q132 26 222.5 83.5t90.5 160.5q0 57 -35 84.5t-110 27.5q-138 0 -281 -94l-46 112q179 124 389 124q93 0 162 -28t106 -76t37 -106 q0 -106 -73.5 -186t-189.5 -124q93 0 149 -36t78.5 -88.5t22.5 -107.5q0 -117 -74 -198t-190.5 -120.5t-241.5 -39.5q-61 0 -144 19t-136 53zM705 0l681 1530h159l-681 -1530h-159zM1275 261l606 851h48l133 -103l-491 -609l-79 -92l334 14l35 253l202 23l-36 -268l262 11 l-20 -175h-264l-46 -343h-203l48 343h-492z" />
<glyph unicode="&#xbf;" horiz-adv-x="1028" d="M87 66q0 126 48 212t115 136t172 108q72 39 113 67t68 65.5t27 86.5q0 27 -8.5 56.5t-22.5 64.5q-11 30 -13 39l127 50l17 -1q37 -32 63.5 -96.5t26.5 -131.5q0 -86 -69.5 -156.5t-219.5 -151.5q-105 -54 -173 -107t-81 -114q-9 -37 -9 -96q0 -96 48.5 -164t125 -103 t160.5 -35q64 0 111 7t106 26l-28 -140q-21 -22 -82 -37.5t-121 -15.5q-174 0 -286.5 61t-163.5 158.5t-51 211.5zM479 1276q0 74 42.5 117t114.5 43q50 0 84.5 -31.5t34.5 -80.5q0 -42 -19.5 -78.5t-55.5 -59t-82 -22.5q-60 0 -89.5 32t-29.5 80z" />
<glyph unicode="&#xc0;" horiz-adv-x="1265" d="M-76 0l746 1530h219l286 -1530h-198l-66 396h-594l-182 -396h-211zM387 547h498l-115 689l-13 116zM491 1872l124 128l276 -342l-73 -65q-48 18 -114 64t-124.5 104t-88.5 111z" />
<glyph unicode="&#xc1;" horiz-adv-x="1265" d="M-76 0l746 1530h219l286 -1530h-198l-66 396h-594l-182 -396h-211zM387 547h498l-115 689l-13 116zM749 1658l276 342l124 -128q-30 -53 -88.5 -111t-124.5 -104t-114 -64z" />
<glyph unicode="&#xc2;" horiz-adv-x="1265" d="M-76 0l746 1530h219l286 -1530h-198l-66 396h-594l-182 -396h-211zM387 547h498l-115 689l-13 116zM461 1662l327 344h178l190 -344l-94 -68l-211 234l-313 -243z" />
<glyph unicode="&#xc3;" horiz-adv-x="1265" d="M-76 0l746 1530h219l286 -1530h-198l-66 396h-594l-182 -396h-211zM387 547h498l-115 689l-13 116zM430 1801q21 42 67 81.5t102.5 63.5t107.5 24q57 0 95 -21.5t81 -61.5q31 -29 52.5 -43t48.5 -14q41 0 68 22t58 65l18 23l85 -89q-17 -50 -58.5 -92t-97.5 -66.5 t-112 -24.5q-42 0 -73.5 11t-53 27t-49.5 42q-33 30 -58 45t-59 15q-36 0 -60 -17.5t-57 -53.5l-18 -20z" />
<glyph unicode="&#xc4;" horiz-adv-x="1265" d="M-76 0l746 1530h219l286 -1530h-198l-66 396h-594l-182 -396h-211zM387 547h498l-115 689l-13 116zM478 1810q0 38 21.5 72.5t55 55.5t66.5 21q55 0 88.5 -32.5t33.5 -79.5q0 -39 -21.5 -74t-56.5 -56t-74 -21q-46 0 -79.5 34t-33.5 80zM895 1815q0 37 22.5 70t57 53.5 t66.5 20.5q54 0 87.5 -32t33.5 -78q0 -39 -21 -74.5t-56 -57t-75 -21.5q-47 0 -81 35t-34 84z" />
<glyph unicode="&#xc5;" horiz-adv-x="1265" d="M-76 0l725 1488q-75 27 -115 87.5t-40 149.5q0 88 51 150t131 93.5t165 31.5q127 0 201.5 -70.5t74.5 -194.5q0 -101 -60 -165.5t-159 -88.5l277 -1481h-198l-66 396h-594l-182 -396h-211zM387 547h498l-115 689l-13 116zM633 1719q0 -40 20 -73.5t55 -53t78 -19.5 q88 0 138.5 38.5t50.5 140.5q0 61 -41.5 100.5t-108.5 39.5q-80 0 -136 -40t-56 -133z" />
<glyph unicode="&#xc6;" horiz-adv-x="1763" d="M-128 0l769 1408l-291 22l14 100h1331l-7 -157l-581 8l-67 -527l438 7l-12 -166l-443 15l-72 -561l700 16l-14 -165h-902l52 416h-483l-219 -416h-213zM384 567h423l103 820l-90 6z" />
<glyph unicode="&#xc7;" horiz-adv-x="1141" d="M107 652q0 262 93.5 465.5t255.5 316t361 112.5q87 0 144 -12.5t127 -36.5l54 -18l-70 -164q-4 2 -35.5 20t-92 31.5t-134.5 13.5q-177 0 -289.5 -112t-162 -276.5t-49.5 -326.5q0 -149 36.5 -267.5t112 -187t188.5 -68.5q82 0 156 19t126.5 44t76.5 45l30 -166 q-39 -30 -117.5 -58.5t-207.5 -37.5q22 -61 22 -151q0 -158 -77.5 -228.5t-200.5 -70.5q-41 0 -86.5 8t-61.5 20l25 151q26 -14 71 -14q72 0 115.5 39t43.5 141v68v35q-163 14 -264.5 112t-145.5 243.5t-44 310.5z" />
<glyph unicode="&#xc8;" horiz-adv-x="1138" d="M110 0l193 1530h767l-7 -157l-581 8l-67 -527l438 7l-12 -166l-443 15l-72 -561l700 16l-14 -165h-902zM399 1872l124 128l276 -342l-73 -65q-48 18 -114 64t-124.5 104t-88.5 111z" />
<glyph unicode="&#xc9;" horiz-adv-x="1138" d="M110 0l193 1530h767l-7 -157l-581 8l-67 -527l438 7l-12 -166l-443 15l-72 -561l700 16l-14 -165h-902zM657 1658l276 342l124 -128q-30 -53 -88.5 -111t-124.5 -104t-114 -64z" />
<glyph unicode="&#xca;" horiz-adv-x="1138" d="M110 0l193 1530h767l-7 -157l-581 8l-67 -527l438 7l-12 -166l-443 15l-72 -561l700 16l-14 -165h-902zM369 1662l327 344h178l190 -344l-94 -68l-211 234l-313 -243z" />
<glyph unicode="&#xcb;" horiz-adv-x="1138" d="M110 0l193 1530h767l-7 -157l-581 8l-67 -527l438 7l-12 -166l-443 15l-72 -561l700 16l-14 -165h-902zM386 1810q0 38 21.5 72.5t55 55.5t66.5 21q55 0 88.5 -32.5t33.5 -79.5q0 -39 -21.5 -74t-56.5 -56t-74 -21q-46 0 -79.5 34t-33.5 80zM803 1815q0 37 22.5 70 t57 53.5t66.5 20.5q54 0 87.5 -32t33.5 -78q0 -39 -21 -74.5t-56 -57t-75 -21.5q-47 0 -81 35t-34 84z" />
<glyph unicode="&#xcc;" horiz-adv-x="580" d="M127 0l193 1530h198l-193 -1530h-198zM130 1872l124 128l276 -342l-73 -65q-48 18 -114 64t-124.5 104t-88.5 111z" />
<glyph unicode="&#xcd;" horiz-adv-x="580" d="M127 0l193 1530h198l-193 -1530h-198zM388 1658l276 342l124 -128q-30 -53 -88.5 -111t-124.5 -104t-114 -64z" />
<glyph unicode="&#xce;" horiz-adv-x="580" d="M100 1662l327 344h178l190 -344l-94 -68l-211 234l-313 -243zM127 0l193 1530h198l-193 -1530h-198z" />
<glyph unicode="&#xcf;" horiz-adv-x="580" d="M117 1810q0 38 21.5 72.5t55 55.5t66.5 21q55 0 88.5 -32.5t33.5 -79.5q0 -39 -21.5 -74t-56.5 -56t-74 -21q-46 0 -79.5 34t-33.5 80zM127 0l193 1530h198l-193 -1530h-198zM534 1815q0 37 22.5 70t57 53.5t66.5 20.5q54 0 87.5 -32t33.5 -78q0 -39 -21 -74.5t-56 -57 t-75 -21.5q-47 0 -81 35t-34 84z" />
<glyph unicode="&#xd0;" horiz-adv-x="1377" d="M42 722l16 130h159l86 678h94q44 0 156 8q118 8 168 8q299 0 438 -172t139 -476q0 -258 -98 -469t-275 -331t-403 -114q-64 2 -113 7q-42 4 -100 6.5t-98 2.5h-101l91 722h-159zM329 163q45 -15 109.5 -23t125.5 -6q174 6 293.5 116t177.5 280t58 357q0 193 -43.5 304.5 t-136.5 160t-251 48.5q-40 0 -95 -6t-85 -13l-67 -529h382l-16 -130h-382z" />
<glyph unicode="&#xd1;" horiz-adv-x="1400" d="M110 0l193 1530h206l440 -1062l63 -207l19 249l123 1020h188l-193 -1530h-193l-455 1075l-53 232l-27 -298l-126 -1009h-185zM491 1801q21 42 67 81.5t102.5 63.5t107.5 24q57 0 95 -21.5t81 -61.5q31 -29 52.5 -43t48.5 -14q41 0 68 22t58 65l18 23l85 -89 q-17 -50 -58.5 -92t-97.5 -66.5t-112 -24.5q-42 0 -73.5 11t-53 27t-49.5 42q-33 30 -58 45t-59 15q-36 0 -60 -17.5t-57 -53.5l-18 -20z" />
<glyph unicode="&#xd2;" horiz-adv-x="1378" d="M108 635q0 256 92 464t253.5 327.5t360.5 119.5q160 0 270.5 -86.5t165.5 -233t55 -328.5q0 -254 -89.5 -463t-250.5 -330t-366 -121q-160 0 -270.5 86.5t-165.5 234t-55 330.5zM314 648q5 -265 82 -388.5t235 -123.5q138 0 246 102.5t166.5 274t55.5 370.5 q-4 263 -81 384.5t-236 121.5q-137 0 -245.5 -104.5t-167.5 -275t-55 -361.5zM524 1872l124 128l276 -342l-73 -65q-48 18 -114 64t-124.5 104t-88.5 111z" />
<glyph unicode="&#xd3;" horiz-adv-x="1378" d="M108 635q0 256 92 464t253.5 327.5t360.5 119.5q160 0 270.5 -86.5t165.5 -233t55 -328.5q0 -254 -89.5 -463t-250.5 -330t-366 -121q-160 0 -270.5 86.5t-165.5 234t-55 330.5zM314 648q5 -265 82 -388.5t235 -123.5q138 0 246 102.5t166.5 274t55.5 370.5 q-4 263 -81 384.5t-236 121.5q-137 0 -245.5 -104.5t-167.5 -275t-55 -361.5zM782 1658l276 342l124 -128q-30 -53 -88.5 -111t-124.5 -104t-114 -64z" />
<glyph unicode="&#xd4;" horiz-adv-x="1378" d="M108 635q0 256 92 464t253.5 327.5t360.5 119.5q160 0 270.5 -86.5t165.5 -233t55 -328.5q0 -254 -89.5 -463t-250.5 -330t-366 -121q-160 0 -270.5 86.5t-165.5 234t-55 330.5zM314 648q5 -265 82 -388.5t235 -123.5q138 0 246 102.5t166.5 274t55.5 370.5 q-4 263 -81 384.5t-236 121.5q-137 0 -245.5 -104.5t-167.5 -275t-55 -361.5zM494 1662l327 344h178l190 -344l-94 -68l-211 234l-313 -243z" />
<glyph unicode="&#xd5;" horiz-adv-x="1378" d="M108 635q0 256 92 464t253.5 327.5t360.5 119.5q160 0 270.5 -86.5t165.5 -233t55 -328.5q0 -254 -89.5 -463t-250.5 -330t-366 -121q-160 0 -270.5 86.5t-165.5 234t-55 330.5zM314 648q5 -265 82 -388.5t235 -123.5q138 0 246 102.5t166.5 274t55.5 370.5 q-4 263 -81 384.5t-236 121.5q-137 0 -245.5 -104.5t-167.5 -275t-55 -361.5zM463 1801q21 42 67 81.5t102.5 63.5t107.5 24q57 0 95 -21.5t81 -61.5q31 -29 52.5 -43t48.5 -14q41 0 68 22t58 65l18 23l85 -89q-17 -50 -58.5 -92t-97.5 -66.5t-112 -24.5q-42 0 -73.5 11 t-53 27t-49.5 42q-33 30 -58 45t-59 15q-36 0 -60 -17.5t-57 -53.5l-18 -20z" />
<glyph unicode="&#xd6;" horiz-adv-x="1378" d="M108 635q0 256 92 464t253.5 327.5t360.5 119.5q160 0 270.5 -86.5t165.5 -233t55 -328.5q0 -254 -89.5 -463t-250.5 -330t-366 -121q-160 0 -270.5 86.5t-165.5 234t-55 330.5zM314 648q5 -265 82 -388.5t235 -123.5q138 0 246 102.5t166.5 274t55.5 370.5 q-4 263 -81 384.5t-236 121.5q-137 0 -245.5 -104.5t-167.5 -275t-55 -361.5zM511 1810q0 38 21.5 72.5t55 55.5t66.5 21q55 0 88.5 -32.5t33.5 -79.5q0 -39 -21.5 -74t-56.5 -56t-74 -21q-46 0 -79.5 34t-33.5 80zM928 1815q0 37 22.5 70t57 53.5t66.5 20.5q54 0 87.5 -32 t33.5 -78q0 -39 -21 -74.5t-56 -57t-75 -21.5q-47 0 -81 35t-34 84z" />
<glyph unicode="&#xd7;" horiz-adv-x="1370" d="M231 438l383 327l-301 327l132 123l281 -350l369 350l102 -123l-383 -327l301 -327l-132 -123l-281 350l-369 -350z" />
<glyph unicode="&#xd8;" horiz-adv-x="1378" d="M57 -83l172 258q-60 87 -90.5 205.5t-30.5 254.5q0 256 92 464t253.5 327.5t360.5 119.5q158 0 271 -86l139 210l89 -49l-154 -232q73 -88 109.5 -215t36.5 -276q0 -254 -89.5 -463t-250.5 -330t-366 -121q-179 0 -302 112l-151 -228zM314 668q0 -194 42 -322l623 971 q-73 72 -197 72q-135 0 -241.5 -101t-166.5 -267t-60 -353zM409 241q75 -105 222 -105q136 0 242.5 99t166 265.5t59.5 361.5q0 234 -59 364z" />
<glyph unicode="&#xd9;" horiz-adv-x="1363" d="M146 437q0 37 10 125l3 31l118 937h198l-114 -902q-12 -115 -12 -177q0 -152 72.5 -229t208.5 -77q164 0 259 118t128 381l112 886h193l-114 -903q-30 -233 -107 -374.5t-200.5 -205t-298.5 -63.5q-223 0 -339.5 119.5t-116.5 333.5zM511 1872l124 128l276 -342l-73 -65 q-48 18 -114 64t-124.5 104t-88.5 111z" />
<glyph unicode="&#xda;" horiz-adv-x="1363" d="M146 437q0 37 10 125l3 31l118 937h198l-114 -902q-12 -115 -12 -177q0 -152 72.5 -229t208.5 -77q164 0 259 118t128 381l112 886h193l-114 -903q-30 -233 -107 -374.5t-200.5 -205t-298.5 -63.5q-223 0 -339.5 119.5t-116.5 333.5zM769 1658l276 342l124 -128 q-30 -53 -88.5 -111t-124.5 -104t-114 -64z" />
<glyph unicode="&#xdb;" horiz-adv-x="1363" d="M146 437q0 37 10 125l3 31l118 937h198l-114 -902q-12 -115 -12 -177q0 -152 72.5 -229t208.5 -77q164 0 259 118t128 381l112 886h193l-114 -903q-30 -233 -107 -374.5t-200.5 -205t-298.5 -63.5q-223 0 -339.5 119.5t-116.5 333.5zM481 1662l327 344h178l190 -344 l-94 -68l-211 234l-313 -243z" />
<glyph unicode="&#xdc;" horiz-adv-x="1363" d="M146 437q0 37 10 125l3 31l118 937h198l-114 -902q-12 -115 -12 -177q0 -152 72.5 -229t208.5 -77q164 0 259 118t128 381l112 886h193l-114 -903q-30 -233 -107 -374.5t-200.5 -205t-298.5 -63.5q-223 0 -339.5 119.5t-116.5 333.5zM498 1810q0 38 21.5 72.5t55 55.5 t66.5 21q55 0 88.5 -32.5t33.5 -79.5q0 -39 -21.5 -74t-56.5 -56t-74 -21q-46 0 -79.5 34t-33.5 80zM915 1815q0 37 22.5 70t57 53.5t66.5 20.5q54 0 87.5 -32t33.5 -78q0 -39 -21 -74.5t-56 -57t-75 -21.5q-47 0 -81 35t-34 84z" />
<glyph unicode="&#xdd;" horiz-adv-x="1083" d="M83 1530h212l248 -692l32 -76l38 76l412 692h212l-593 -940l-76 -590h-188l76 590zM639 1658l276 342l124 -128q-30 -53 -88.5 -111t-124.5 -104t-114 -64z" />
<glyph unicode="&#xde;" horiz-adv-x="1210" d="M110 0l193 1530h198l-31 -247q17 1 58 5q9 1 57 5t97 4q224 0 340.5 -100.5t116.5 -305.5q0 -188 -78 -329t-217.5 -216.5t-318.5 -75.5q-124 0 -182 10l-35 -280h-198zM363 440q27 -5 73 -9.5t84 -4.5q213 0 313.5 117t104.5 346q5 259 -288 259q-40 0 -98.5 -6 t-101.5 -15z" />
<glyph unicode="&#xdf;" horiz-adv-x="1180" d="M77 4l117 927q35 278 128.5 423.5t207 190t249.5 44.5q92 0 163.5 -33t112 -99t40.5 -160q0 -74 -22 -131.5t-53 -97t-80 -89.5q-50 -52 -73 -85.5t-23 -74.5q0 -25 19 -55.5t58 -81.5q20 -24 40 -52q55 -78 89.5 -154.5t34.5 -163.5q0 -95 -47.5 -169.5t-139 -116.5 t-219.5 -42q-63 0 -140 15t-111 32l26 187q32 -30 89 -56t116 -26q82 0 129.5 15.5t69 51.5t21.5 99q0 50 -26.5 111.5t-62.5 113.5q-54 64 -94 137.5t-40 132.5q0 65 25.5 112t78.5 104q66 70 99.5 134.5t33.5 143.5q0 68 -44 112.5t-127 44.5q-86 0 -150 -48t-113 -174.5 t-79 -354.5l-109 -867h-194z" />
<glyph unicode="&#xe0;" horiz-adv-x="1145" d="M81 416q0 170 69 341t213.5 285t355.5 114q50 0 112 -9.5t114 -24.5l113 34l-156 -1156h-172l16 190q-63 -87 -155 -146.5t-200 -59.5q-154 0 -232 115t-78 317zM283 440q0 -156 37 -230t106 -74q95 0 182.5 74.5t148.5 173.5l86 604q-75 25 -155 25q-134 0 -225.5 -89.5 t-135.5 -222t-44 -261.5zM339 1600l153 137l288 -402l-85 -70q-41 17 -114.5 77t-142 132.5t-99.5 125.5z" />
<glyph unicode="&#xe1;" horiz-adv-x="1145" d="M81 416q0 170 69 341t213.5 285t355.5 114q50 0 112 -9.5t114 -24.5l113 34l-156 -1156h-172l16 190q-63 -87 -155 -146.5t-200 -59.5q-154 0 -232 115t-78 317zM283 440q0 -156 37 -230t106 -74q95 0 182.5 74.5t148.5 173.5l86 604q-75 25 -155 25q-134 0 -225.5 -89.5 t-135.5 -222t-44 -261.5zM617 1336l307 401l152 -137q-19 -35 -88.5 -108t-151 -139.5t-136.5 -87.5z" />
<glyph unicode="&#xe2;" horiz-adv-x="1145" d="M81 416q0 170 69 341t213.5 285t355.5 114q50 0 112 -9.5t114 -24.5l113 34l-156 -1156h-172l16 190q-63 -87 -155 -146.5t-200 -59.5q-154 0 -232 115t-78 317zM283 440q0 -156 37 -230t106 -74q95 0 182.5 74.5t148.5 173.5l86 604q-75 25 -155 25q-134 0 -225.5 -89.5 t-135.5 -222t-44 -261.5zM382 1320l327 374h178l190 -374l-94 -68l-211 264l-313 -273z" />
<glyph unicode="&#xe3;" horiz-adv-x="1145" d="M81 416q0 170 69 341t213.5 285t355.5 114q50 0 112 -9.5t114 -24.5l113 34l-156 -1156h-172l16 190q-63 -87 -155 -146.5t-200 -59.5q-154 0 -232 115t-78 317zM283 440q0 -156 37 -230t106 -74q95 0 182.5 74.5t148.5 173.5l86 604q-75 25 -155 25q-134 0 -225.5 -89.5 t-135.5 -222t-44 -261.5zM323 1485q21 42 67 81.5t102.5 63.5t107.5 24q57 0 95 -21.5t81 -61.5q31 -29 52.5 -43t48.5 -14q41 0 68 22t58 65l18 23l85 -89q-17 -50 -58.5 -92t-97.5 -66.5t-112 -24.5q-42 0 -73.5 11t-53 27t-49.5 42q-33 30 -58 45t-59 15q-36 0 -60 -17.5 t-57 -53.5l-18 -20z" />
<glyph unicode="&#xe4;" horiz-adv-x="1145" d="M81 416q0 170 69 341t213.5 285t355.5 114q50 0 112 -9.5t114 -24.5l113 34l-156 -1156h-172l16 190q-63 -87 -155 -146.5t-200 -59.5q-154 0 -232 115t-78 317zM283 440q0 -156 37 -230t106 -74q95 0 182.5 74.5t148.5 173.5l86 604q-75 25 -155 25q-134 0 -225.5 -89.5 t-135.5 -222t-44 -261.5zM387 1507q0 38 20.5 72.5t54 55t70.5 20.5q54 0 88 -32t34 -78q0 -39 -21 -74.5t-56 -57t-75 -21.5q-47 0 -81 34t-34 81zM807 1507q0 38 20.5 72.5t54 55t70.5 20.5q54 0 88 -32t34 -78q0 -39 -21 -74.5t-56 -57t-75 -21.5q-47 0 -81 34t-34 81z " />
<glyph unicode="&#xe5;" horiz-adv-x="1145" d="M81 416q0 170 69 341t213.5 285t355.5 114q50 0 112 -9.5t114 -24.5l113 34l-156 -1156h-172l16 190q-63 -87 -155 -146.5t-200 -59.5q-154 0 -232 115t-78 317zM283 440q0 -156 37 -230t106 -74q95 0 182.5 74.5t148.5 173.5l86 604q-75 25 -155 25q-134 0 -225.5 -89.5 t-135.5 -222t-44 -261.5zM442 1515q0 88 51 150t131 93.5t165 31.5q127 0 201.5 -70.5t74.5 -194.5q0 -87 -45.5 -147.5t-122 -90.5t-168.5 -30q-137 0 -212 67.5t-75 190.5zM581 1509q0 -40 20 -73.5t55 -53t78 -19.5q88 0 138.5 38.5t50.5 140.5q0 61 -41.5 100.5 t-108.5 39.5q-80 0 -136 -40t-56 -133z" />
<glyph unicode="&#xe6;" horiz-adv-x="1633" d="M81 416q0 170 69 341t213.5 285t355.5 114q53 0 91 -4t87 -20.5t109 -52.5q126 77 276 77q93 0 156 -32.5t94 -89t31 -128.5q0 -154 -112.5 -259t-268.5 -159t-292 -63l-1 -27q0 -108 47.5 -184t163.5 -76q77 0 162.5 40t169.5 119l55 -111q-32 -44 -93 -91t-144 -79 t-173 -32q-148 0 -241 74.5t-130 197.5q-59 -118 -142.5 -195t-192.5 -77q-290 0 -290 432zM283 440q0 -159 33 -231.5t100 -72.5q130 0 268 276v22q4 156 52.5 293t133.5 236q-92 50 -182 50q-134 0 -225.5 -89.5t-135.5 -222t-44 -261.5zM895 564q88 4 200 46t192 115 t80 164q0 64 -34 91.5t-94 27.5q-95 0 -169.5 -70.5t-119 -174t-55.5 -199.5z" />
<glyph unicode="&#xe7;" horiz-adv-x="905" d="M85 434q0 166 67.5 333.5t199.5 278t313 110.5q62 0 121.5 -9t98.5 -29l-51 -167q-37 31 -83 44.5t-103 13.5q-86 0 -170.5 -72.5t-139 -200t-54.5 -282.5q0 -173 51.5 -247t156.5 -74q65 0 126 32.5t137 106.5l65 -106q-41 -55 -116 -106.5t-169 -68.5q23 -60 23 -152 q0 -158 -77.5 -228.5t-200.5 -70.5q-41 0 -86.5 8t-61.5 20l25 151q26 -14 71 -14q72 0 115.5 39t43.5 141v69v36q-147 23 -224.5 138t-77.5 306z" />
<glyph unicode="&#xe8;" horiz-adv-x="1035" d="M86 434q5 200 81.5 365t211 261t305.5 96q93 0 156 -32.5t94 -89t31 -128.5q0 -154 -112.5 -259t-268.5 -159t-292 -63l-1 -27q0 -108 47.5 -184t163.5 -76q77 0 162.5 40t169.5 119l55 -111q-32 -44 -93 -91t-144 -79t-173 -32q-135 0 -224.5 63t-130.5 165t-38 222z M277 1600l153 137l288 -402l-85 -70q-41 17 -114.5 77t-142 132.5t-99.5 125.5zM297 564q88 4 200 46t192 115t80 164q0 64 -34 91.5t-94 27.5q-95 0 -169.5 -70.5t-119 -174t-55.5 -199.5z" />
<glyph unicode="&#xe9;" horiz-adv-x="1035" d="M86 434q5 200 81.5 365t211 261t305.5 96q93 0 156 -32.5t94 -89t31 -128.5q0 -154 -112.5 -259t-268.5 -159t-292 -63l-1 -27q0 -108 47.5 -184t163.5 -76q77 0 162.5 40t169.5 119l55 -111q-32 -44 -93 -91t-144 -79t-173 -32q-135 0 -224.5 63t-130.5 165t-38 222z M297 564q88 4 200 46t192 115t80 164q0 64 -34 91.5t-94 27.5q-95 0 -169.5 -70.5t-119 -174t-55.5 -199.5zM555 1332l307 401l152 -137q-19 -35 -88.5 -108t-151 -139.5t-136.5 -87.5z" />
<glyph unicode="&#xea;" horiz-adv-x="1035" d="M86 434q5 200 81.5 365t211 261t305.5 96q93 0 156 -32.5t94 -89t31 -128.5q0 -154 -112.5 -259t-268.5 -159t-292 -63l-1 -27q0 -108 47.5 -184t163.5 -76q77 0 162.5 40t169.5 119l55 -111q-32 -44 -93 -91t-144 -79t-173 -32q-135 0 -224.5 63t-130.5 165t-38 222z M297 564q88 4 200 46t192 115t80 164q0 64 -34 91.5t-94 27.5q-95 0 -169.5 -70.5t-119 -174t-55.5 -199.5zM320 1316l327 374h178l190 -374l-94 -68l-211 264l-313 -273z" />
<glyph unicode="&#xeb;" horiz-adv-x="1035" d="M86 434q5 200 81.5 365t211 261t305.5 96q93 0 156 -32.5t94 -89t31 -128.5q0 -154 -112.5 -259t-268.5 -159t-292 -63l-1 -27q0 -108 47.5 -184t163.5 -76q77 0 162.5 40t169.5 119l55 -111q-32 -44 -93 -91t-144 -79t-173 -32q-135 0 -224.5 63t-130.5 165t-38 222z M297 564q88 4 200 46t192 115t80 164q0 64 -34 91.5t-94 27.5q-95 0 -169.5 -70.5t-119 -174t-55.5 -199.5zM325 1503q0 38 20.5 72.5t54 55t70.5 20.5q54 0 88 -32t34 -78q0 -39 -21 -74.5t-56 -57t-75 -21.5q-47 0 -81 34t-34 81zM745 1503q0 38 20.5 72.5t54 55 t70.5 20.5q54 0 88 -32t34 -78q0 -39 -21 -74.5t-56 -57t-75 -21.5q-47 0 -81 34t-34 81z" />
<glyph unicode="&#xec;" horiz-adv-x="584" d="M44 1600l153 137l288 -402l-85 -70q-41 17 -114.5 77t-142 132.5t-99.5 125.5zM124 0l155 1140h195l-155 -1140h-195z" />
<glyph unicode="&#xed;" horiz-adv-x="584" d="M124 0l155 1140h195l-155 -1140h-195zM322 1332l307 401l152 -137q-19 -35 -88.5 -108t-151 -139.5t-136.5 -87.5z" />
<glyph unicode="&#xee;" horiz-adv-x="584" d="M87 1316l327 374h178l190 -374l-94 -68l-211 264l-313 -273zM124 0l155 1140h195l-155 -1140h-195z" />
<glyph unicode="&#xef;" horiz-adv-x="584" d="M92 1503q0 38 20.5 72.5t54 55t70.5 20.5q54 0 88 -32t34 -78q0 -39 -21 -74.5t-56 -57t-75 -21.5q-47 0 -81 34t-34 81zM124 0l155 1140h195l-155 -1140h-195zM512 1503q0 38 20.5 72.5t54 55t70.5 20.5q54 0 88 -32t34 -78q0 -39 -21 -74.5t-56 -57t-75 -21.5 q-47 0 -81 34t-34 81z" />
<glyph unicode="&#xf0;" horiz-adv-x="1182" d="M89 446q0 217 79 378t207.5 246.5t272.5 85.5q77 0 149 -28t107 -86q-22 135 -70 226t-144 179l-150 -169l-106 88l157 163q-143 109 -241 133l43 119q56 -15 138.5 -55.5t154.5 -87.5q39 43 88.5 101.5t64.5 76.5l98 -89l-148 -169q154 -147 226.5 -315t72.5 -374 q0 -245 -69 -446.5t-203 -320t-321 -118.5q-131 0 -222.5 68t-137.5 174.5t-46 219.5zM300 434q0 -82 26 -153.5t77 -115t121 -43.5q81 0 152.5 64t121 173t69.5 239l7 44q18 108 18 137q0 38 -28 94t-84.5 98.5t-137.5 42.5q-114 0 -191 -85t-114 -218t-37 -277z" />
<glyph unicode="&#xf1;" horiz-adv-x="1194" d="M83 4l155 1136h185l-21 -224q92 106 209 173t233 67q113 0 167.5 -68.5t54.5 -221.5q0 -74 -40 -351q-15 -112 -48 -324l-28 -187h-196q12 95 57 393l17 117q19 131 29 212.5t10 127.5q0 51 -12 77.5t-34.5 35t-58.5 8.5q-55 0 -125 -36t-139.5 -96t-122.5 -129l-97 -710 h-195zM275 1485q21 42 67 81.5t102.5 63.5t107.5 24q57 0 95 -21.5t81 -61.5q31 -29 52.5 -43t48.5 -14q41 0 68 22t58 65l18 23l85 -89q-17 -50 -58.5 -92t-97.5 -66.5t-112 -24.5q-42 0 -73.5 11t-53 27t-49.5 42q-33 30 -58 45t-59 15q-36 0 -60 -17.5t-57 -53.5l-18 -20 z" />
<glyph unicode="&#xf2;" horiz-adv-x="1135" d="M89 458q0 179 74.5 340t205.5 259.5t292 98.5q190 0 285 -123t95 -351q0 -180 -72 -341t-200.5 -259t-289.5 -98q-191 0 -290.5 124t-99.5 350zM281 1600l153 137l288 -402l-85 -70q-41 17 -114.5 77t-142 132.5t-99.5 125.5zM292 463q0 -160 53.5 -246t163.5 -86 q105 0 179 82t111 208t37 257q0 164 -48.5 247.5t-157.5 83.5q-106 0 -182.5 -82t-116 -208.5t-39.5 -255.5z" />
<glyph unicode="&#xf3;" horiz-adv-x="1135" d="M89 458q0 179 74.5 340t205.5 259.5t292 98.5q190 0 285 -123t95 -351q0 -180 -72 -341t-200.5 -259t-289.5 -98q-191 0 -290.5 124t-99.5 350zM292 463q0 -160 53.5 -246t163.5 -86q105 0 179 82t111 208t37 257q0 164 -48.5 247.5t-157.5 83.5q-106 0 -182.5 -82 t-116 -208.5t-39.5 -255.5zM559 1332l307 401l152 -137q-19 -35 -88.5 -108t-151 -139.5t-136.5 -87.5z" />
<glyph unicode="&#xf4;" horiz-adv-x="1135" d="M89 458q0 179 74.5 340t205.5 259.5t292 98.5q190 0 285 -123t95 -351q0 -180 -72 -341t-200.5 -259t-289.5 -98q-191 0 -290.5 124t-99.5 350zM292 463q0 -160 53.5 -246t163.5 -86q105 0 179 82t111 208t37 257q0 164 -48.5 247.5t-157.5 83.5q-106 0 -182.5 -82 t-116 -208.5t-39.5 -255.5zM324 1316l327 374h178l190 -374l-94 -68l-211 264l-313 -273z" />
<glyph unicode="&#xf5;" horiz-adv-x="1135" d="M89 458q0 179 74.5 340t205.5 259.5t292 98.5q190 0 285 -123t95 -351q0 -180 -72 -341t-200.5 -259t-289.5 -98q-191 0 -290.5 124t-99.5 350zM265 1485q21 42 67 81.5t102.5 63.5t107.5 24q57 0 95 -21.5t81 -61.5q31 -29 52.5 -43t48.5 -14q41 0 68 22t58 65l18 23 l85 -89q-17 -50 -58.5 -92t-97.5 -66.5t-112 -24.5q-42 0 -73.5 11t-53 27t-49.5 42q-33 30 -58 45t-59 15q-36 0 -60 -17.5t-57 -53.5l-18 -20zM292 463q0 -160 53.5 -246t163.5 -86q105 0 179 82t111 208t37 257q0 164 -48.5 247.5t-157.5 83.5q-106 0 -182.5 -82 t-116 -208.5t-39.5 -255.5z" />
<glyph unicode="&#xf6;" horiz-adv-x="1135" d="M89 458q0 179 74.5 340t205.5 259.5t292 98.5q190 0 285 -123t95 -351q0 -180 -72 -341t-200.5 -259t-289.5 -98q-191 0 -290.5 124t-99.5 350zM292 463q0 -160 53.5 -246t163.5 -86q105 0 179 82t111 208t37 257q0 164 -48.5 247.5t-157.5 83.5q-106 0 -182.5 -82 t-116 -208.5t-39.5 -255.5zM329 1503q0 38 20.5 72.5t54 55t70.5 20.5q54 0 88 -32t34 -78q0 -39 -21 -74.5t-56 -57t-75 -21.5q-47 0 -81 34t-34 81zM749 1503q0 38 20.5 72.5t54 55t70.5 20.5q54 0 88 -32t34 -78q0 -39 -21 -74.5t-56 -57t-75 -21.5q-47 0 -81 34t-34 81z " />
<glyph unicode="&#xf7;" horiz-adv-x="1338" d="M241 696l18 157h869l-18 -157h-869zM493 362q0 43 26.5 80.5t67.5 59.5t82 22q60 0 90.5 -30t30.5 -77t-25.5 -84.5t-66 -59t-82.5 -21.5q-52 0 -87.5 30t-35.5 80zM589 1136q0 44 27 81.5t68 59t81 21.5q61 0 91.5 -29.5t30.5 -77.5q0 -46 -26 -84t-67 -59.5t-82 -21.5 q-51 0 -87 30t-36 80z" />
<glyph unicode="&#xf8;" horiz-adv-x="1135" d="M34 -83l144 208q-88 123 -88 335q0 179 74.5 340t205.5 259.5t292 98.5q107 0 185 -40l130 185l89 -49l-138 -197q114 -121 114 -373q0 -180 -72 -341t-200.5 -259t-289.5 -98q-137 0 -229 66l-128 -184zM293 465q0 -93 18 -161l430 676q-45 31 -110 31 q-106 0 -182.5 -82t-116 -208.5t-39.5 -255.5zM362 197q53 -64 148 -64q105 0 179 82t111 208t37 257q0 137 -32 214z" />
<glyph unicode="&#xf9;" horiz-adv-x="1173" d="M102 270q0 63 21 228q36 284 90 642h196q-19 -138 -41 -291q-33 -238 -48 -352q-19 -146 -19 -215q0 -76 32 -103.5t103 -27.5q83 0 182.5 76t173.5 186l96 727h195l-151 -1140h-182l22 218q-82 -107 -187.5 -172.5t-220.5 -65.5q-134 0 -198 68t-64 222zM310 1600 l153 137l288 -402l-85 -70q-41 17 -114.5 77t-142 132.5t-99.5 125.5z" />
<glyph unicode="&#xfa;" horiz-adv-x="1173" d="M102 270q0 63 21 228q36 284 90 642h196q-19 -138 -41 -291q-33 -238 -48 -352q-19 -146 -19 -215q0 -76 32 -103.5t103 -27.5q83 0 182.5 76t173.5 186l96 727h195l-151 -1140h-182l22 218q-82 -107 -187.5 -172.5t-220.5 -65.5q-134 0 -198 68t-64 222zM588 1332 l307 401l152 -137q-19 -35 -88.5 -108t-151 -139.5t-136.5 -87.5z" />
<glyph unicode="&#xfb;" horiz-adv-x="1173" d="M102 270q0 63 21 228q36 284 90 642h196q-19 -138 -41 -291q-33 -238 -48 -352q-19 -146 -19 -215q0 -76 32 -103.5t103 -27.5q83 0 182.5 76t173.5 186l96 727h195l-151 -1140h-182l22 218q-82 -107 -187.5 -172.5t-220.5 -65.5q-134 0 -198 68t-64 222zM353 1316 l327 374h178l190 -374l-94 -68l-211 264l-313 -273z" />
<glyph unicode="&#xfc;" horiz-adv-x="1173" d="M102 270q0 63 21 228q36 284 90 642h196q-19 -138 -41 -291q-33 -238 -48 -352q-19 -146 -19 -215q0 -76 32 -103.5t103 -27.5q83 0 182.5 76t173.5 186l96 727h195l-151 -1140h-182l22 218q-82 -107 -187.5 -172.5t-220.5 -65.5q-134 0 -198 68t-64 222zM358 1503 q0 38 20.5 72.5t54 55t70.5 20.5q54 0 88 -32t34 -78q0 -39 -21 -74.5t-56 -57t-75 -21.5q-47 0 -81 34t-34 81zM778 1503q0 38 20.5 72.5t54 55t70.5 20.5q54 0 88 -32t34 -78q0 -39 -21 -74.5t-56 -57t-75 -21.5q-47 0 -81 34t-34 81z" />
<glyph unicode="&#xfd;" horiz-adv-x="1050" d="M-195 -474l56 162l20 -10t41.5 -14t57.5 -6q68 0 132 28t137.5 99.5t161.5 198.5h-122l-65 375l-109 781h216l84 -781l40 -302l103 182q200 321 244 767q5 60 7 134h192q2 -38 2 -59q0 -36 -3 -74q-26 -356 -250 -778q-113 -214 -249 -383q-12 -15 -13 -16 q-78 -98 -145.5 -165t-167.5 -116.5t-228 -49.5q-27 0 -69.5 8.5t-72.5 18.5zM480 1336l307 401l152 -137q-19 -35 -88.5 -108t-151 -139.5t-136.5 -87.5z" />
<glyph unicode="&#xfe;" horiz-adv-x="1163" d="M12 -516l71 500l219 1654h185l-55 -491l-36 -193q66 85 160.5 143.5t203.5 58.5q154 0 232 -115t78 -317q0 -169 -71.5 -340.5t-218 -285.5t-358.5 -114q-64 0 -144 15l-20 -135l-56 -380h-190zM300 151q70 -24 153 -24q134 0 228 89.5t140.5 222.5t46.5 261 q0 156 -37 230t-106 74q-97 0 -189.5 -74.5t-155.5 -169.5z" />
<glyph unicode="&#xff;" horiz-adv-x="1050" d="M-195 -474l56 162l20 -10t41.5 -14t57.5 -6q68 0 132 28t137.5 99.5t161.5 198.5h-122l-65 375l-109 781h216l84 -781l40 -302l103 182q200 321 244 767q5 60 7 134h192q2 -38 2 -59q0 -36 -3 -74q-26 -356 -250 -778q-113 -214 -249 -383q-12 -15 -13 -16 q-78 -98 -145.5 -165t-167.5 -116.5t-228 -49.5q-27 0 -69.5 8.5t-72.5 18.5zM250 1507q0 38 20.5 72.5t54 55t70.5 20.5q54 0 88 -32t34 -78q0 -39 -21 -74.5t-56 -57t-75 -21.5q-47 0 -81 34t-34 81zM670 1507q0 38 20.5 72.5t54 55t70.5 20.5q54 0 88 -32t34 -78 q0 -39 -21 -74.5t-56 -57t-75 -21.5q-47 0 -81 34t-34 81z" />
<glyph unicode="&#x152;" horiz-adv-x="2106" d="M108 635q0 256 92 464t253.5 327.5t360.5 119.5q155 0 259.5 -81.5t157.5 -225.5l37 291h767l-7 -157l-581 8l-67 -527l438 7l-12 -166l-443 15l-72 -561l700 16l-14 -165h-902l33 262q-92 -132 -222 -205t-287 -73q-160 0 -270.5 86.5t-165.5 234t-55 330.5zM314 648 q5 -265 82 -388.5t235 -123.5q138 0 246 102.5t166.5 274t55.5 370.5q-4 263 -81 384.5t-236 121.5q-137 0 -245.5 -104.5t-167.5 -275t-55 -361.5z" />
<glyph unicode="&#x153;" horiz-adv-x="1764" d="M89 457q0 178 72 339t200.5 260.5t288.5 99.5q125 0 211.5 -51.5t131.5 -150.5q80 96 187 149t233 53q93 0 156 -32.5t94 -89t31 -128.5q0 -154 -112.5 -259t-268.5 -159t-292 -63l-1 -27q0 -108 47.5 -184t163.5 -76q77 0 162.5 40t169.5 119l55 -111q-32 -44 -93 -91 t-144 -79t-173 -32q-124 0 -209.5 53t-131.5 145q-76 -93 -175 -145.5t-213 -52.5q-191 0 -290.5 123t-99.5 350zM292 462q0 -161 53.5 -246t163.5 -85q83 0 147 54t105 143t60 195q3 30 9 60q6 72 6 107q0 319 -217 319q-105 0 -179 -82.5t-111 -209t-37 -255.5zM1026 564 q88 4 200 46t192 115t80 164q0 64 -34 91.5t-94 27.5q-95 0 -169.5 -70.5t-119 -174t-55.5 -199.5z" />
<glyph unicode="&#x178;" horiz-adv-x="1083" d="M83 1530h212l248 -692l32 -76l38 76l412 692h212l-593 -940l-76 -590h-188l76 590zM368 1810q0 38 21.5 72.5t55 55.5t66.5 21q55 0 88.5 -32.5t33.5 -79.5q0 -39 -21.5 -74t-56.5 -56t-74 -21q-46 0 -79.5 34t-33.5 80zM785 1815q0 37 22.5 70t57 53.5t66.5 20.5 q54 0 87.5 -32t33.5 -78q0 -39 -21 -74.5t-56 -57t-75 -21.5q-47 0 -81 35t-34 84z" />
<glyph unicode="&#x2c6;" horiz-adv-x="795" d="M89 1316l327 374h178l190 -374l-94 -68l-211 264l-313 -273z" />
<glyph unicode="&#x2dc;" horiz-adv-x="815" d="M9 1481q21 42 67 81.5t102.5 63.5t107.5 24q57 0 95 -21.5t81 -61.5q31 -29 52.5 -43t48.5 -14q41 0 68 22t58 65l18 23l85 -89q-17 -50 -58.5 -92t-97.5 -66.5t-112 -24.5q-42 0 -73.5 11t-53 27t-49.5 42q-33 30 -58 45t-59 15q-36 0 -60 -17.5t-57 -53.5l-18 -20z" />
<glyph unicode="&#x2000;" horiz-adv-x="1003" />
<glyph unicode="&#x2001;" horiz-adv-x="2006" />
<glyph unicode="&#x2002;" horiz-adv-x="1003" />
<glyph unicode="&#x2003;" horiz-adv-x="2006" />
<glyph unicode="&#x2004;" horiz-adv-x="668" />
<glyph unicode="&#x2005;" horiz-adv-x="501" />
<glyph unicode="&#x2006;" horiz-adv-x="334" />
<glyph unicode="&#x2007;" horiz-adv-x="334" />
<glyph unicode="&#x2008;" horiz-adv-x="250" />
<glyph unicode="&#x2009;" horiz-adv-x="401" />
<glyph unicode="&#x200a;" horiz-adv-x="111" />
<glyph unicode="&#x2010;" horiz-adv-x="1266" d="M218 693l18 158h837l-18 -158h-837z" />
<glyph unicode="&#x2011;" horiz-adv-x="1266" d="M218 693l18 158h837l-18 -158h-837z" />
<glyph unicode="&#x2012;" horiz-adv-x="1266" d="M218 693l18 158h837l-18 -158h-837z" />
<glyph unicode="&#x2013;" horiz-adv-x="1538" d="M218 694l30 157h1097l-30 -157h-1097z" />
<glyph unicode="&#x2014;" horiz-adv-x="2031" d="M218 694l29 157h1591l-30 -157h-1590z" />
<glyph unicode="&#x2018;" horiz-adv-x="682" d="M189 1250q0 131 49 230.5t119.5 162t145.5 98.5l75 -111l-2 -22q-37 -19 -76.5 -65t-66.5 -111.5t-27 -140.5q0 -61 23 -114.5t69 -92.5l-5 -41l-122 -116q-43 18 -85 65t-69.5 114.5t-27.5 143.5z" />
<glyph unicode="&#x2019;" horiz-adv-x="682" d="M214 1027l2 22q37 19 76.5 65t66.5 111.5t27 140.5q0 61 -23 114.5t-69 92.5l5 41l122 116q43 -18 85 -65t69.5 -114.5t27.5 -143.5q0 -131 -49 -230.5t-119.5 -162t-145.5 -98.5z" />
<glyph unicode="&#x201a;" horiz-adv-x="682" d="M100 -412l2 22q37 19 76.5 65t66.5 111.5t27 140.5q0 61 -23 114.5t-69 92.5l5 41l122 116q43 -18 85 -65t69.5 -114.5t27.5 -143.5q0 -131 -49 -230.5t-119.5 -162t-145.5 -98.5z" />
<glyph unicode="&#x201c;" horiz-adv-x="1161" d="M189 1250q0 131 49 230.5t119.5 162t145.5 98.5l75 -111l-2 -22q-37 -19 -76.5 -65t-66.5 -111.5t-27 -140.5q0 -61 23 -114.5t69 -92.5l-5 -41l-122 -116q-43 18 -85 65t-69.5 114.5t-27.5 143.5zM668 1250q0 131 49 230.5t119.5 162t145.5 98.5l75 -111l-2 -22 q-37 -19 -76.5 -65t-66.5 -111.5t-27 -140.5q0 -61 23 -114.5t69 -92.5l-5 -41l-122 -116q-43 18 -85 65t-69.5 114.5t-27.5 143.5z" />
<glyph unicode="&#x201d;" horiz-adv-x="1161" d="M284 1027l2 22q37 19 76.5 65t66.5 111.5t27 140.5q0 61 -23 114.5t-69 92.5l5 41l122 116q43 -18 85 -65t69.5 -114.5t27.5 -143.5q0 -131 -49 -230.5t-119.5 -162t-145.5 -98.5zM763 1027l2 22q37 19 76.5 65t66.5 111.5t27 140.5q0 61 -23 114.5t-69 92.5l5 41 l122 116q43 -18 85 -65t69.5 -114.5t27.5 -143.5q0 -131 -49 -230.5t-119.5 -162t-145.5 -98.5z" />
<glyph unicode="&#x201e;" horiz-adv-x="1161" d="M100 -412l2 22q37 19 76.5 65t66.5 111.5t27 140.5q0 61 -23 114.5t-69 92.5l5 41l122 116q43 -18 85 -65t69.5 -114.5t27.5 -143.5q0 -131 -49 -230.5t-119.5 -162t-145.5 -98.5zM579 -412l2 22q37 19 76.5 65t66.5 111.5t27 140.5q0 61 -23 114.5t-69 92.5l5 41 l122 116q43 -18 85 -65t69.5 -114.5t27.5 -143.5q0 -131 -49 -230.5t-119.5 -162t-145.5 -98.5z" />
<glyph unicode="&#x2022;" horiz-adv-x="858" d="M233 683q0 60 33.5 120t91.5 98t126 38q50 0 90 -22.5t63 -61.5t23 -88q0 -61 -31.5 -121.5t-89 -99.5t-130.5 -39q-49 0 -89.5 23.5t-63.5 64t-23 88.5z" />
<glyph unicode="&#x2026;" horiz-adv-x="1579" d="M87 83q0 45 22.5 83.5t59.5 61t77 22.5q61 0 91 -29t30 -75q0 -14 -1 -21q-6 -43 -30.5 -76.5t-61 -52t-76.5 -18.5q-50 0 -80.5 28t-30.5 77zM613 83q0 45 22.5 83.5t59.5 61t77 22.5q61 0 91 -29t30 -75q0 -14 -1 -21q-6 -43 -30.5 -76.5t-61 -52t-76.5 -18.5 q-50 0 -80.5 28t-30.5 77zM1139 83q0 45 22.5 83.5t59.5 61t77 22.5q61 0 91 -29t30 -75q0 -14 -1 -21q-6 -43 -30.5 -76.5t-61 -52t-76.5 -18.5q-50 0 -80.5 28t-30.5 77z" />
<glyph unicode="&#x202f;" horiz-adv-x="401" />
<glyph unicode="&#x2039;" horiz-adv-x="1190" d="M234 530l22 160l692 396l38 -115l-510 -356l414 -351l-70 -112z" />
<glyph unicode="&#x203a;" horiz-adv-x="1190" d="M175 267l510 356l-414 351l70 112l586 -378l-22 -160l-692 -396z" />
<glyph unicode="&#x205f;" horiz-adv-x="501" />
<glyph unicode="&#x20ac;" horiz-adv-x="1389" d="M25 554l20 141h180q3 104 21 199h-176l20 140h193q53 158 148 273.5t223 177t276 61.5q72 0 128.5 -8t92 -17.5t93.5 -28.5l-64 -159q-23 24 -105.5 44.5t-198.5 20.5q-144 0 -242.5 -94t-148.5 -270h542l-19 -140h-553q-14 -89 -19 -199h546l-19 -141h-527 q20 -423 286 -423q122 0 202.5 30t161.5 86l56 -136q-53 -60 -173 -93.5t-276 -33.5q-146 0 -246.5 79.5t-153.5 208.5t-65 282h-203z" />
<glyph unicode="&#x2122;" horiz-adv-x="2120" d="M173 1385l22 145h666l-16 -145h-250l-88 -631l-171 -1l88 632h-251zM903 754l148 776h273l97 -436l30 -132l236 568h287l-25 -776h-174l23 463l14 223l-29 -70l-295 -624h-127l-138 547l-35 150l-26 -157l-98 -532h-161z" />
<glyph unicode="&#x25fc;" horiz-adv-x="1140" d="M0 0v1140h1140v-1140h-1140z" />
<glyph unicode="&#xfb03;" horiz-adv-x="1974" d="M142 984l28 156h132l14 94q28 208 135.5 327.5t286.5 119.5q43 0 79 -5.5t69 -20.5l-50 -159q-21 16 -49 24.5t-75 7.5q-79 -1 -130 -69t-64 -168l-21 -151h211l-12 -156h-220l-133 -984h-195l133 984h-139zM837 984l28 156h132l14 94q28 208 135.5 327.5t286.5 119.5 q43 0 79 -5.5t69 -20.5l-50 -159q-21 16 -49 24.5t-75 7.5q-79 -1 -130 -69t-64 -168l-21 -151h211l-12 -156h-220l-133 -984h-195l133 984h-139zM1514 0l155 1140h195l-155 -1140h-195zM1697 1507q0 38 20.5 72.5t54 55t70.5 20.5q54 0 88 -32t34 -78q0 -39 -21 -74.5 t-56 -57t-75 -21.5q-47 0 -81 34t-34 81z" />
<glyph unicode="&#xfb04;" horiz-adv-x="1974" d="M142 984l28 156h132l14 94q28 208 135.5 327.5t286.5 119.5q43 0 79 -5.5t69 -20.5l-50 -159q-21 16 -49 24.5t-75 7.5q-79 -1 -130 -69t-64 -168l-21 -151h211l-12 -156h-220l-133 -984h-195l133 984h-139zM837 984l28 156h132l14 94q28 208 135.5 327.5t286.5 119.5 q43 0 79 -5.5t69 -20.5l-50 -159q-21 16 -49 24.5t-75 7.5q-79 -1 -130 -69t-64 -168l-21 -151h211l-12 -156h-220l-133 -984h-195l133 984h-139zM1515 4l223 1634h195l-223 -1634h-195z" />
</font>
</defs>
</svg>
