<?xml version="1.0" standalone="no"?>
<!DOCTYPE svg PUBLIC "-//W3C//DTD SVG 1.1//EN" "http://www.w3.org/Graphics/SVG/1.1/DTD/svg11.dtd" >
<svg xmlns="http://www.w3.org/2000/svg">
<metadata></metadata>
<defs>
<font id="merriweather_sansregular" horiz-adv-x="1569" >
<font-face units-per-em="2048" ascent="1638" descent="-410" />
<missing-glyph horiz-adv-x="655" />
<glyph unicode="&#xfb01;" horiz-adv-x="1417" d="M75 974v122l173 44v99q0 160 61.5 259t155.5 141.5t196 42.5q42 0 82 -7t60 -15v-174q-32 11 -69.5 15.5t-102.5 4.5q-74 0 -118.5 -56t-44.5 -161v-149h282v-166h-282v-974h-220v974h-173zM962 1482q0 42 23.5 78t61.5 57t77 21q68 0 104.5 -38t36.5 -97q0 -44 -23 -80 t-60 -56t-79 -20q-38 0 -70 16.5t-51.5 47.5t-19.5 71zM1004 0v1138h220v-1138h-220z" />
<glyph unicode="&#xfb02;" horiz-adv-x="1424" d="M75 974v122l173 44v99q0 160 61.5 259t155.5 141.5t196 42.5q42 0 82 -7t60 -15v-174q-32 11 -69.5 15.5t-102.5 4.5q-74 0 -118.5 -56t-44.5 -161v-149h282v-166h-282v-974h-220v974h-173zM1008 0v1664h220v-1664h-220z" />
<glyph horiz-adv-x="0" />
<glyph unicode="&#xd;" horiz-adv-x="0" />
<glyph horiz-adv-x="0" />
<glyph horiz-adv-x="0" />
<glyph unicode=" "  horiz-adv-x="655" />
<glyph unicode="&#x09;" horiz-adv-x="655" />
<glyph unicode="&#xa0;" horiz-adv-x="655" />
<glyph unicode="!" horiz-adv-x="602" d="M147 135q0 45 23 84t60 62t77 23q70 0 109 -44.5t39 -110.5q0 -47 -22.5 -86.5t-60 -62t-79.5 -22.5q-39 0 -72.5 20.5t-53.5 56.5t-20 80zM182 1780h248l-24 -1274h-196z" />
<glyph unicode="&#x22;" horiz-adv-x="1284" d="M265 1685h242l-32 -719h-177zM776 1685h242l-32 -719h-177z" />
<glyph unicode="#" horiz-adv-x="1563" d="M207 355v156h216l33 369h-215v153h229l31 340h191l-32 -340h307l30 340h190l-31 -340h222v-153h-236l-34 -369h226v-156h-240l-33 -355h-185l31 355h-310l-33 -355h-187l32 355h-202zM612 511h309l33 369h-308z" />
<glyph unicode="$" horiz-adv-x="1372" d="M232 1147q0 175 112.5 269t288.5 116l2 230h163l-2 -226q103 -5 178 -27.5t118 -49.5l-45 -176q-65 39 -133 59.5t-179 20.5q-76 0 -142 -20t-107 -62t-41 -104q0 -73 29 -121.5t89.5 -89t184.5 -104.5q128 -66 214.5 -124.5t146.5 -143.5t60 -196q0 -182 -110 -285.5 t-302 -123.5l-2 -226h-163l2 223q-118 7 -218 33t-141 52l53 183q61 -38 161 -65.5t198 -27.5q148 0 225.5 51t77.5 160q0 72 -37.5 123t-103.5 91t-196 103q-167 81 -274 194t-107 264z" />
<glyph unicode="%" horiz-adv-x="1962" d="M75 1075q0 131 54.5 226.5t144.5 145t195 49.5q115 0 192 -54.5t114 -147.5t37 -211q0 -130 -54 -224.5t-143.5 -144t-192.5 -49.5q-107 0 -185.5 55.5t-120 149t-41.5 205.5zM270 1083q0 -78 20.5 -139.5t59.5 -96.5t92 -35q83 0 129 70t46 194q0 125 -45.5 199.5 t-125.5 74.5q-84 0 -130 -71.5t-46 -195.5zM557 0l650 1530h190l-650 -1530h-190zM1150 460q0 131 54.5 226.5t145 145t195.5 49.5q115 0 191.5 -54.5t113.5 -147.5t37 -211q0 -130 -54 -224.5t-144 -143.5t-194 -49q-105 0 -183.5 55.5t-120 149t-41.5 204.5zM1346 468 q0 -78 20 -139.5t59 -96.5t92 -35q84 0 129.5 70t45.5 194q0 126 -45 200.5t-126 74.5q-84 0 -129.5 -71.5t-45.5 -196.5z" />
<glyph unicode="&#x26;" horiz-adv-x="1532" d="M147 394q0 132 84.5 229.5t226.5 163.5q-79 105 -124 199t-45 202q0 110 51 190.5t144.5 124t218.5 43.5q113 0 198 -48t130.5 -127t45.5 -169q0 -121 -39.5 -208.5t-113 -150t-186.5 -114.5q66 -92 169.5 -224t173.5 -210q82 85 82 228q0 90 -33 205h192 q29 -101 29 -206q0 -219 -138 -342q48 -31 98 -46t118 -22v-113q-51 -15 -117 -15q-74 0 -131.5 19t-117.5 60q-67 -35 -150.5 -57t-160.5 -22q-181 0 -317 46t-212 138.5t-76 225.5zM354 400q0 -69 38.5 -127t124.5 -94t222 -36q53 0 96.5 10t90.5 30q-80 90 -183 224.5 t-186 250.5q-95 -50 -149 -115t-54 -143zM493 1193q0 -61 12 -104t34 -79.5t69 -100.5q31 -43 37 -51q121 52 183 132.5t62 208.5q0 44 -22 88t-65.5 73.5t-103.5 29.5q-90 0 -148 -48t-58 -149z" />
<glyph unicode="'" horiz-adv-x="772" d="M265 1685h242l-32 -719h-177z" />
<glyph unicode="(" horiz-adv-x="846" d="M120 723q0 260 85 478t192 356t170 173l151 -74q-59 -46 -144.5 -161t-159 -313.5t-80.5 -458.5l-1 -48q0 -255 70 -450.5t158 -312t157 -167.5l-151 -75q-70 46 -173 171.5t-188.5 351t-85.5 530.5z" />
<glyph unicode=")" horiz-adv-x="846" d="M128 -229q59 46 144.5 161t159 313.5t80.5 458.5l1 48q0 255 -70 450.5t-158 312t-157 167.5l151 75q70 -46 173 -171.5t188.5 -351t85.5 -530.5q0 -260 -85 -478t-192 -356t-170 -173z" />
<glyph unicode="*" horiz-adv-x="1208" d="M117 1321l93 165l220 -145l129 -113q-5 27 -18.5 82.5t-20.5 84.5l-19 265h192l-13 -262l-34 -168q20 19 61.5 58.5t63.5 59.5l220 146l95 -163l-232 -121l-164 -55l165 -49l236 -115l-97 -170l-217 144l-131 113l39 -168l21 -262l-192 -1l12 263l35 170l-126 -121 l-218 -146l-96 164l231 124l165 53q-27 9 -82 25t-84 24z" />
<glyph unicode="+" horiz-adv-x="1393" d="M229 685v177h220l165 -11l-7 172v228h178v-228l-8 -172l141 11h246v-177h-246l-141 7l8 -171v-236h-178v236l7 171l-165 -7h-220z" />
<glyph unicode="," horiz-adv-x="602" d="M151 -382q56 28 93.5 100.5t37.5 157.5q0 42 -17.5 88t-46 78t-58.5 35v63l139 131q66 -24 109 -77.5t62.5 -119t19.5 -128.5q0 -106 -36 -198t-96.5 -156.5t-132.5 -91.5l-74 92v26z" />
<glyph unicode="-" horiz-adv-x="1350" d="M250 683v177h850v-177h-850z" />
<glyph unicode="." horiz-adv-x="602" d="M147 133q0 46 23 85t60 62.5t78 23.5q70 0 108.5 -45t38.5 -111q0 -47 -22.5 -86t-60 -61.5t-79.5 -22.5q-38 0 -72 20.5t-54 56t-20 78.5z" />
<glyph unicode="/" horiz-adv-x="854" d="M42 -363l570 1962h198l-570 -1962h-198z" />
<glyph unicode="0" horiz-adv-x="1386" d="M148 630q0 193 73 339.5t201 225.5t289 79q280 0 403.5 -170t123.5 -454q0 -194 -68.5 -345t-194 -236t-289.5 -85q-186 0 -306.5 88t-176 234t-55.5 324zM375 652q0 -137 36 -254.5t109.5 -189.5t181.5 -72q153 0 231 129.5t78 363.5q0 141 -33.5 251.5t-103.5 175 t-176 64.5q-157 1 -240 -123.5t-83 -344.5z" />
<glyph unicode="1" horiz-adv-x="918" d="M130 1077q61 18 138.5 55.5t143.5 78.5t95 67l100 -25v-1253h-229v999q-132 -36 -223 -53z" />
<glyph unicode="2" horiz-adv-x="1269" d="M147 113q183 106 337.5 234.5t251 270t96.5 274.5q0 104 -61 164.5t-176 60.5q-95 0 -186.5 -41t-149.5 -101l-93 124q71 78 186.5 135.5t266.5 57.5q232 0 334.5 -108.5t102.5 -279.5q0 -127 -67.5 -257.5t-190.5 -252t-288 -223.5l615 6v-177h-945z" />
<glyph unicode="3" horiz-adv-x="1147" d="M104 1132q72 59 186.5 108t232.5 49q119 0 218 -41t157.5 -121.5t58.5 -195.5q0 -123 -76 -221t-199 -156q110 -13 191 -66.5t123 -132t42 -166.5q0 -142 -82 -262.5t-235 -193t-357 -72.5q-96 0 -211 20l-1 152q85 -17 164 -17q145 0 258.5 47.5t176.5 129t63 180.5 q0 127 -75.5 201t-230.5 74q-15 0 -51 -2l-91 -22l-46 151q102 20 182 55q113 44 175.5 117t62.5 161q0 106 -65 156.5t-171 50.5q-96 0 -171 -30t-143 -78z" />
<glyph unicode="4" horiz-adv-x="1339" d="M116 104l584 1195h79l136 -84l-466 -894l-89 -151h460l18 433h202v-433h231v-170h-231v-376h-220v376h-650z" />
<glyph unicode="5" horiz-adv-x="1227" d="M204 -336l1 148q44 -2 66 -2q167 0 300.5 53.5t209 147.5t75.5 212q0 153 -78.5 228.5t-247.5 75.5q-118 0 -270 -48l-50 30l56 743h771l-22 -190h-578l-39 -400q131 29 229 29q146 0 247.5 -55.5t153.5 -157.5t52 -241q0 -147 -88 -280.5t-258.5 -218t-405.5 -87.5 q-83 0 -124 13z" />
<glyph unicode="6" horiz-adv-x="1373" d="M160 571q0 257 124 472.5t316 353.5t389 176l60 -142q-184 -49 -330.5 -167.5t-230.5 -276t-89 -318.5l-1 -46q0 -219 70 -352.5t235 -133.5q90 0 154 50.5t96 133t32 176.5q0 172 -63.5 246t-161.5 74q-55 0 -101.5 -14t-74.5 -32l-60 130q34 32 110 59.5t171 27.5 q124 0 215.5 -60t139.5 -162t48 -223q0 -148 -60 -275.5t-180.5 -205.5t-293.5 -78q-157 0 -273.5 79t-178.5 213.5t-62 294.5z" />
<glyph unicode="7" horiz-adv-x="1241" d="M150 1093l1 178h949l46 -58l-571 -1548l-235 68q266 566 564 1358z" />
<glyph unicode="8" horiz-adv-x="1307" d="M152 385q0 121 75.5 231.5t234.5 187.5q-118 75 -184.5 167t-66.5 223q0 119 62 202.5t167.5 126t234.5 42.5q130 0 230 -43.5t155.5 -123t55.5 -182.5q0 -76 -29.5 -153.5t-92.5 -146t-157 -114.5q106 -61 177.5 -116t117 -127.5t45.5 -163.5q0 -133 -68 -225.5 t-182 -139t-252 -46.5q-136 0 -254.5 41.5t-193.5 131.5t-75 228zM363 402q0 -127 79.5 -195.5t240.5 -68.5q71 0 134.5 28.5t102.5 81.5t39 125q0 76 -43 134t-107.5 100t-176.5 101q-8 5 -24 13q-110 -45 -177.5 -130.5t-67.5 -188.5zM414 1207q0 -68 36 -124.5 t95.5 -102.5t146.5 -96q74 25 124 75t74 112.5t24 127.5q0 64 -30 112t-85.5 74.5t-130.5 26.5q-72 0 -129.5 -24.5t-91 -71t-33.5 -109.5z" />
<glyph unicode="9" horiz-adv-x="1399" d="M176 725q0 163 63.5 286.5t183.5 192t286 68.5q162 0 276.5 -79t172.5 -213t58 -296q0 -273 -129.5 -504t-328 -380t-397.5 -190l-74 136q197 49 354 188t245.5 315.5t93.5 333.5l1 49q0 483 -305 483q-81 0 -145 -45.5t-99 -118.5t-35 -152q0 -120 31.5 -204t87 -126 t127.5 -42q45 0 76 5.5t47 12t49 21.5l52 -124q-30 -34 -102.5 -60t-179.5 -26q-126 0 -218.5 65t-141.5 172.5t-49 231.5z" />
<glyph unicode=":" horiz-adv-x="602" d="M147 133q0 46 23 85t60 62.5t78 23.5q70 0 108.5 -45t38.5 -111q0 -47 -22.5 -86t-60 -61.5t-79.5 -22.5q-38 0 -72 20.5t-54 56t-20 78.5zM147 929q0 46 23 85t60 62.5t78 23.5q70 0 108.5 -45t38.5 -111q0 -47 -22.5 -86t-60 -61.5t-79.5 -22.5q-38 0 -72 20.5t-54 56 t-20 78.5z" />
<glyph unicode=";" horiz-adv-x="602" d="M147 929q0 46 23 85t60 62.5t78 23.5q70 0 108.5 -45t38.5 -111q0 -47 -22.5 -86t-60 -61.5t-79.5 -22.5q-38 0 -72 20.5t-54 56t-20 78.5zM151 -382q56 28 93.5 100.5t37.5 157.5q0 42 -17.5 88t-46 78t-58.5 35v63l139 131q66 -24 109 -77.5t62.5 -119t19.5 -128.5 q0 -106 -36 -198t-96.5 -156.5t-132.5 -91.5l-74 92v26z" />
<glyph unicode="&#x3c;" horiz-adv-x="1368" d="M168 696v154l966 446v-205l-731 -318l731 -313v-208z" />
<glyph unicode="=" horiz-adv-x="1399" d="M242 433v166h915v-166h-915zM242 949v167h915v-167h-915z" />
<glyph unicode="&#x3e;" horiz-adv-x="1368" d="M234 252v208l731 313l-731 318v205l966 -446v-154z" />
<glyph unicode="?" horiz-adv-x="1047" d="M121 1637v160q19 14 83.5 28t132.5 14q201 0 335 -63.5t198 -170.5t64 -238q0 -56 -12 -113q-13 -77 -53 -135t-88.5 -96.5t-123.5 -88.5q-57 -37 -89 -62t-55 -55.5t-26 -67.5q-2 -28 -2 -39q0 -45 9.5 -86t30.5 -111l6 -19h-167q-35 43 -60.5 117.5t-28.5 158.5 q-2 55 29 102t76.5 83t120.5 85q63 41 100.5 69t66 62t35.5 72q14 59 14 107q0 97 -50 165t-143.5 103.5t-221.5 35.5q-113 0 -181 -17zM333 129q0 44 23 82.5t59.5 61t75.5 22.5q68 0 106 -43.5t38 -107.5q0 -46 -22.5 -84t-59 -60t-77.5 -22q-37 0 -70 20t-53 54.5 t-20 76.5z" />
<glyph unicode="@" horiz-adv-x="2218" d="M213 424q0 331 136 585.5t373 394t530 139.5q224 0 395 -83t266 -243.5t95 -384.5q0 -254 -81 -444t-212 -291.5t-277 -101.5q-71 0 -107 47t-43 140q-2 26 -2 43q0 37 6 88q-75 -143 -170 -230.5t-203 -87.5q-70 0 -134.5 47.5t-106 143.5t-41.5 232q0 150 60.5 299 t186.5 247.5t311 98.5q69 0 130.5 -13.5t101.5 -41.5l172 31q-31 -117 -68 -291.5t-58 -310.5q-20 -135 -20 -193q0 -90 37 -90q75 0 155 88t133 236t53 318q0 231 -79.5 364t-215 185t-323.5 52q-225 0 -414 -121.5t-299.5 -338.5t-110.5 -492q0 -273 96.5 -446.5t255 -251 t352.5 -77.5q134 0 238.5 25.5t171.5 58.5l39 -129q-67 -42 -198.5 -72.5t-270.5 -30.5q-247 0 -441.5 100.5t-306.5 303t-112 498.5zM825 475q-4 -140 29.5 -221.5t110.5 -81.5q65 0 150 116t153 276t84 275q-23 38 -74 56.5t-103 18.5q-105 0 -183.5 -65t-121 -166 t-45.5 -208z" />
<glyph unicode="A" horiz-adv-x="1407" d="M21 0l582 1538h215l568 -1538h-241l-129 385h-623l-136 -385h-236zM452 551h508l-205 609l-43 142l-44 -142z" />
<glyph unicode="B" horiz-adv-x="1339" d="M194 0v1523l104 -1q41 0 139 6q137 9 211 9q249 0 372.5 -95.5t123.5 -264.5q0 -74 -24.5 -147.5t-76 -129.5t-130.5 -77q91 -4 167.5 -56t121.5 -135.5t45 -175.5q0 -224 -140 -347t-475 -123q-128 0 -327 14h-111zM416 171q23 -14 90 -18.5t152 -4.5q179 0 271 64.5 t92 217.5q0 142 -85.5 207.5t-267.5 65.5l-114 1q-96 0 -138 -6v-527zM416 867q43 -7 127 -7l82 1q24 1 68 1q66 0 119.5 32t84.5 96t31 155q0 118 -82 176.5t-239 58.5q-46 0 -109.5 -3t-81.5 -10v-500z" />
<glyph unicode="C" horiz-adv-x="1313" d="M95 753q0 243 96 421t257 271t351 93q128 0 213 -14t156 -35l30 -8l-32 -198q-37 19 -70 32.5t-106 27.5t-176 14q-153 0 -265.5 -72t-172.5 -205t-60 -312q0 -178 60 -316t172.5 -215t264.5 -77q75 0 152 13t136 34.5t86 45.5l1 -189q-65 -26 -111.5 -41.5t-116 -27 t-156.5 -11.5q-213 0 -373.5 96t-248 270t-87.5 403z" />
<glyph unicode="D" horiz-adv-x="1472" d="M194 0v1522h112q57 0 157 7q14 1 79.5 5t123.5 4q361 0 541.5 -190t180.5 -544q0 -254 -88 -438.5t-252 -283t-387 -98.5q-46 0 -176 8q-144 8 -206 8h-85zM418 168q48 -12 118 -16q58 -4 115 -3h26q222 5 350.5 156.5t128.5 465.5q0 222 -60 355t-179 192t-303 59 q-118 0 -196 -16v-1193z" />
<glyph unicode="E" horiz-adv-x="1217" d="M194 0v1522h876v-172h-653v-480h479v-172h-479v-523h726v-175h-949z" />
<glyph unicode="F" horiz-adv-x="1083" d="M194 0v1522h874v-172h-650v-499h487v-172h-487v-679h-224z" />
<glyph unicode="G" horiz-adv-x="1433" d="M99 753q0 253 92.5 430t252 266t360.5 89q115 0 184 -10t151 -30q58 -14 91 -20l-10 -200q-83 43 -179 64.5t-251 21.5q-133 0 -237.5 -70t-163.5 -202t-59 -312q0 -181 52 -322t158 -222.5t261 -81.5q89 0 174.5 14.5t126.5 42.5v377l-277 13v160h492v-667 q-20 -1 -42.5 -8t-59.5 -22q-93 -36 -184 -58t-227 -22q-220 0 -379 99t-242.5 273.5t-83.5 396.5z" />
<glyph unicode="H" horiz-adv-x="1552" d="M194 0v1522h223v-667h718v667h223v-1522h-223v683h-718v-683h-223z" />
<glyph unicode="I" horiz-adv-x="640" d="M207 0v1522h226v-1522h-226z" />
<glyph unicode="J" horiz-adv-x="713" d="M-42 -215q93 34 171 103.5t107 177.5q21 76 26.5 194.5t5.5 311.5v36v914h226v-909l1 -214q0 -99 -4 -174t-16 -139q-22 -122 -94.5 -212t-167.5 -141t-187 -65z" />
<glyph unicode="K" horiz-adv-x="1371" d="M194 0v1522h223v-764l603 764h263l-539 -656q33 -55 98.5 -152t83.5 -123q121 -179 192.5 -287.5t118.5 -193.5l65 -110h-257q-10 15 -26 46q-17 37 -35 67q-41 74 -95 158.5t-144 218.5q-26 39 -69 104t-69 107l-190 -220v-481h-223z" />
<glyph unicode="L" horiz-adv-x="1080" d="M194 0v1522h228v-1347h604v-175h-832z" />
<glyph unicode="M" horiz-adv-x="1923" d="M134 -1l154 1523h315l282 -869l79 -323l75 323l270 869h299l182 -1522h-224l-93 946l-29 410l-102 -410l-318 -961h-120l-332 961l-112 409l-27 -409l-83 -946z" />
<glyph unicode="N" horiz-adv-x="1556" d="M193 0v1522h204l651 -1005l124 -225l-14 253v977h205v-1522h-207l-630 967l-140 249l12 -264v-952h-205z" />
<glyph unicode="O" d="M100 749q0 254 93.5 432t254 267.5t360.5 89.5q197 0 346.5 -93t232 -263.5t82.5 -397.5q0 -257 -91 -437t-250.5 -271.5t-365.5 -91.5q-199 0 -349 98t-231.5 272t-81.5 395zM325 758q0 -162 53 -299.5t157 -220.5t250 -83q139 0 242.5 71t159.5 209.5t56 336.5 q0 163 -51 299t-150.5 216.5t-240.5 80.5q-133 0 -241 -67.5t-171.5 -204.5t-63.5 -338z" />
<glyph unicode="P" horiz-adv-x="1270" d="M194 0v1522h105q53 0 169 8q124 8 197 8q255 0 393 -120.5t138 -372.5q0 -166 -66.5 -283t-197 -178.5t-318.5 -61.5q-83 0 -159 4l-38 1v-527h-223zM417 696q74 -10 184 -10t191.5 29t131.5 108t50 220q0 173 -87.5 254t-261.5 81q-132 0 -208 -19v-663z" />
<glyph unicode="Q" d="M100 749q0 254 93.5 432t254 267.5t360.5 89.5q197 0 346.5 -93t232 -263.5t82.5 -397.5q0 -209 -61 -368t-171 -260t-258 -143q61 -64 153 -95t195 -31q129 0 184 19v-160q-24 -16 -76 -28t-107 -12q-114 0 -208.5 24t-183 85t-169.5 169h-4q-198 0 -347 96 q-152 98 -234 272.5t-82 396.5zM325 758q0 -162 53 -299.5t157 -220.5t250 -83q139 0 242.5 71t159.5 209.5t56 336.5q0 163 -51 299t-150.5 216.5t-240.5 80.5q-133 0 -241 -67.5t-171.5 -204.5t-63.5 -338z" />
<glyph unicode="R" horiz-adv-x="1367" d="M194 0v1522h97q54 0 157 7q160 9 231 9q244 0 381 -104.5t137 -323.5q0 -164 -71.5 -270t-203.5 -152q45 -31 84 -88t70.5 -121.5t75.5 -167.5q62 -141 93 -199q33 -62 61 -112h-253q-15 22 -33 63l-22 49q-19 40 -59 145q-42 112 -75.5 185.5t-79 131.5t-102.5 76 q-59 -2 -265 -2v-648h-223zM417 806q53 -6 235 -6q153 0 235 72.5t82 226.5q0 96 -32.5 156.5t-103 89.5t-187.5 29q-140 0 -229 -18v-550z" />
<glyph unicode="S" horiz-adv-x="1132" d="M125 1147q0 138 72 225.5t186 126.5t248 39q125 0 215 -23.5t139 -55.5l-45 -176q-65 39 -133 59.5t-179 20.5q-76 0 -142 -20t-107 -62t-41 -104q0 -73 29 -121.5t89.5 -89t184.5 -104.5q128 -66 214.5 -124.5t146.5 -143.5t60 -196q0 -137 -63.5 -230t-177.5 -138.5 t-266 -45.5q-94 0 -181.5 14t-152 34t-93.5 39l53 183q61 -38 161 -65.5t198 -27.5q148 0 225.5 51t77.5 160q0 72 -37.5 123t-103.5 91t-196 103q-167 81 -274 194t-107 264z" />
<glyph unicode="T" horiz-adv-x="1303" d="M63 1350v172h1177v-172h-477v-1350h-225v1350h-475z" />
<glyph unicode="U" horiz-adv-x="1463" d="M159 633v889h223l-1 -836q0 -205 42 -320.5t121.5 -161.5t203.5 -46q110 0 183 46.5t112.5 162.5t39.5 319v836h222v-892q0 -315 -141 -480.5t-423 -165.5q-305 0 -444 165t-138 484z" />
<glyph unicode="V" horiz-adv-x="1355" d="M22 1522h237l360 -1024l67 -235l69 235l344 1024h234l-555 -1535h-187z" />
<glyph unicode="W" horiz-adv-x="1918" d="M22 1522h229l242 -988l51 -276l50 276l287 988h161l291 -988l66 -278l47 277l226 989h224l-393 -1538h-218l-290 998l-34 182l-35 -183l-294 -997h-191z" />
<glyph unicode="X" horiz-adv-x="1314" d="M43 0l480 786l-478 736l251 1l248 -403l123 -202l356 604h239l-477 -768l487 -754h-254l-269 448l-104 171l-101 -171l-262 -448h-239z" />
<glyph unicode="Y" horiz-adv-x="1264" d="M22 1522h238l338 -660l43 -105l36 105l331 660h234l-493 -928v-594h-226v594z" />
<glyph unicode="Z" horiz-adv-x="1294" d="M89 84l777 1189l58 71h-750v178h996l46 -81l-760 -1181l-74 -85h775v-175h-1023z" />
<glyph unicode="[" horiz-adv-x="837" d="M185 60v1426q0 102 15.5 154.5t55.5 74.5t119 22q64 0 113 -4t115 -13l62 -7v-120h-268v-1642l268 -2v-116q-91 -13 -149 -18.5t-141 -5.5q-79 0 -119 22t-55.5 74.5t-15.5 154.5z" />
<glyph unicode="\" horiz-adv-x="854" d="M42 1599h198l570 -1962h-198z" />
<glyph unicode="]" horiz-adv-x="837" d="M172 -51l268 2v1642h-268v120l62 7q66 9 115 13t113 4q79 0 119 -22t55.5 -74.5t15.5 -154.5v-1426q0 -102 -15.5 -154.5t-55.5 -74.5t-119 -22q-83 0 -141 5.5t-149 18.5v116z" />
<glyph unicode="^" horiz-adv-x="1363" d="M185 490h211l286 798l285 -798h211l-394 1041h-205z" />
<glyph unicode="_" horiz-adv-x="1692" d="M-40 -279h1772v-137h-1772v137z" />
<glyph unicode="`" horiz-adv-x="595" d="M50 1648l157 135q97 -125 306 -362l32 -37l-111 -90q-39 18 -119 84.5t-156.5 143.5t-108.5 126z" />
<glyph unicode="a" horiz-adv-x="1131" d="M94 305q0 108 58.5 187t163.5 122q93 37 210.5 55.5t223.5 18.5v115q0 80 -25.5 120t-76.5 54t-141 14q-48 0 -110.5 -13t-117 -32.5t-80.5 -37.5l-54 144q26 16 94.5 41t156 44.5t168.5 19.5q132 0 220 -30t137 -109.5t49 -223.5v-810h-90q-45 0 -68 6t-36 28t-13 70v8 q-50 -46 -137.5 -79t-182.5 -33q-101 0 -180.5 39t-124 111.5t-44.5 170.5zM311 324q0 -176 197 -176q47 0 99 14t91.5 33.5t51.5 33.5v319q-73 0 -164.5 -14t-147.5 -41q-61 -29 -94 -68t-33 -101z" />
<glyph unicode="b" horiz-adv-x="1238" d="M166 64v1597h220v-472l-8 -159q53 54 126.5 90t186.5 36q124 0 226 -60.5t163 -183t61 -300.5q0 -183 -71.5 -326.5t-202.5 -223.5t-301 -80q-74 0 -158.5 14t-151.5 33.5t-90 34.5zM386 184q57 -40 205 -40q94 0 168 52t116 153t42 244q0 197 -73.5 293.5t-213.5 96.5 q-73 0 -134.5 -27.5t-109.5 -65.5v-706z" />
<glyph unicode="c" horiz-adv-x="1002" d="M97 558q0 171 62.5 306.5t186.5 213.5t302 78q97 0 172 -19t108 -40l-35 -174q-46 32 -108 47.5t-148 15.5t-160.5 -44t-120.5 -137.5t-46 -235.5q0 -132 42 -226.5t115 -143.5t164 -49q79 0 154 20.5t118 46.5l45 -125q-53 -49 -148 -78.5t-202 -29.5 q-156 0 -269.5 74.5t-172.5 204.5t-59 295z" />
<glyph unicode="d" horiz-adv-x="1237" d="M97 528q0 183 71 326t200.5 222.5t299.5 79.5q96 0 186 -28l-3 61v475h220v-1680h-95q-39 0 -62.5 6t-37 25t-13.5 57v41q-54 -55 -128 -92t-189 -37q-124 0 -225.5 60.5t-162.5 183t-61 300.5zM321 547q0 -197 73.5 -293.5t212.5 -96.5q73 0 135.5 27.5t108.5 64.5v697 q-30 26 -80 38t-125 12q-93 0 -167 -52t-116 -153.5t-42 -243.5z" />
<glyph unicode="e" horiz-adv-x="1123" d="M97 572q0 168 58.5 299t173 206.5t277.5 78.5h9q110 0 200 -47q94 -49 150.5 -147t60.5 -236q0 -81 -2 -125.5t-9 -78.5h-703q1 -7 1 -20q17 -352 348 -352q60 0 152 19t132 43l42 -126q-55 -45 -167 -73.5t-218 -28.5q-161 0 -274 69.5t-172 201.5t-59 317zM318 668h502 q2 32 2 47q0 127 -51.5 206t-176.5 79q-111 0 -184.5 -78.5t-91.5 -253.5z" />
<glyph unicode="f" horiz-adv-x="811" d="M75 974v122l173 44v99q0 160 61.5 259t155.5 141.5t196 42.5q42 0 82 -7t60 -15v-174q-32 11 -69.5 15.5t-102.5 4.5q-74 0 -118.5 -56t-44.5 -161v-149h282v-166h-282v-974h-220v974h-173z" />
<glyph unicode="g" horiz-adv-x="1217" d="M110 -181q0 78 47 138t112 96q-88 51 -88 165q0 58 37.5 119.5t102.5 105.5q-92 49 -144.5 132t-52.5 187q0 131 60 219.5t164.5 131.5t238.5 43q163 0 276 -69q38 26 96 43.5t117 17.5h111v-175h-209q51 -86 51 -198q0 -123 -60 -211.5t-164 -134t-235 -45.5 q-68 0 -124 13q-28 -19 -46 -50t-18 -64q0 -63 28.5 -86.5t101.5 -23.5h207q237 0 328.5 -88.5t91.5 -229.5q0 -111 -74 -195.5t-199.5 -130.5t-277.5 -46q-225 0 -351.5 84t-126.5 252zM324 -155q0 -107 63.5 -159t205.5 -52q91 0 167.5 20t122.5 59t46 94 q0 66 -23.5 107.5t-85 63.5t-173.5 22h-102q-91 0 -148 7q-34 -30 -53.5 -67t-19.5 -95zM343 772q0 -105 57.5 -173t174.5 -68q116 0 175.5 53t59.5 183q0 118 -56 179t-169 61q-110 0 -176 -51.5t-66 -183.5z" />
<glyph unicode="h" horiz-adv-x="1289" d="M176 0v1664h220v-475l-10 -161q74 53 184.5 91t213.5 38q119 0 192.5 -47.5t108 -149t34.5 -265.5v-695h-220v711q0 97 -19.5 155t-67.5 84q-42 23 -113 24q-11 0 -22 -1q-60 -2 -138 -29.5t-143 -74.5v-869h-220z" />
<glyph unicode="i" horiz-adv-x="606" d="M151 1482q0 42 23.5 78t61.5 57t77 21q68 0 104.5 -38t36.5 -97q0 -44 -23 -80t-60 -56t-79 -20q-38 0 -70 16.5t-51.5 47.5t-19.5 71zM193 0v1138h220v-1138h-220z" />
<glyph unicode="j" horiz-adv-x="574" d="M-79 -331q16 -8 54 -15t63 -7q87 0 121 74t34 231v1186h220v-1101q0 -287 -88.5 -415.5t-264.5 -128.5q-33 0 -81 3.5t-58 9.5v163zM155 1482q0 42 23.5 78t61.5 57t77 21q68 0 104.5 -38t36.5 -97q0 -44 -23 -80t-60 -56t-79 -20q-38 0 -70 16.5t-51.5 47.5t-19.5 71z " />
<glyph unicode="k" horiz-adv-x="1163" d="M168 0v1661h220v-910l-4 -112l455 501h259l-430 -449l483 -691h-250l-377 542l-141 -148l5 -171v-223h-220z" />
<glyph unicode="l" horiz-adv-x="613" d="M197 0v1664h220v-1664h-220z" />
<glyph unicode="m" horiz-adv-x="1972" d="M176 0v1138h196l1 -120q77 52 183.5 94t208.5 45h18q101 -1 165 -31q70 -34 108 -111q76 57 192.5 99.5t225.5 42.5q119 0 190 -43t104.5 -139.5t33.5 -260.5v-714h-220v711q0 100 -16 156.5t-61 82.5q-39 23 -109 24q-11 0 -22 -1q-61 -2 -138 -29.5t-141 -72.5 q9 -69 9 -157v-714h-220v711q0 100 -16.5 156.5t-61.5 82.5q-39 23 -108 24q-10 0 -22 -1q-59 -2 -137.5 -29.5t-142.5 -74.5v-869h-220z" />
<glyph unicode="n" horiz-adv-x="1279" d="M176 0v1138h196l1 -120q78 53 193.5 96t220.5 43q118 0 188 -44t102 -141t32 -262v-710h-220v711q0 96 -15 152.5t-55 84.5t-116 28q-18 0 -27 -1q-60 -2 -137.5 -30.5t-142.5 -75.5v-869h-220z" />
<glyph unicode="o" horiz-adv-x="1213" d="M96 580q0 183 67 312.5t185 196.5t268 67q173 0 285 -80t164 -214t52 -302q0 -183 -67 -313t-185 -196.5t-269 -66.5q-172 0 -284 80t-164 214t-52 302zM319 591q0 -127 32 -229.5t97 -162t161 -59.5q139 0 212 109t73 307q0 128 -31.5 227.5t-96.5 157t-163 57.5 q-139 0 -211.5 -105.5t-72.5 -301.5z" />
<glyph unicode="p" horiz-adv-x="1238" d="M166 -506v1646h199v-123q56 59 130 99t196 40q124 0 226 -60.5t163 -183t61 -300.5q0 -183 -71 -326t-200.5 -222.5t-299.5 -79.5q-102 0 -187 29l3 -152v-367h-220zM386 195q31 -27 80.5 -39t124.5 -12q94 0 168 52t116 153t42 244q0 197 -73.5 293.5t-213.5 96.5 q-73 0 -134.5 -27.5t-109.5 -65.5v-695z" />
<glyph unicode="q" horiz-adv-x="1237" d="M97 528q0 183 71 326t200.5 222.5t299.5 79.5q71 0 137 -14t110 -33l158 31v-1646h-220v367l6 247q-54 -53 -127.5 -88.5t-185.5 -35.5q-124 0 -225.5 60.5t-162.5 183t-61 300.5zM321 547q0 -197 73.5 -293.5t212.5 -96.5q74 0 137 28t109 65v695q-30 27 -80.5 39 t-126.5 12q-93 0 -167 -52t-116 -153.5t-42 -243.5z" />
<glyph unicode="r" horiz-adv-x="819" d="M168 0v1138h185l15 -126q22 30 71.5 64t113 57.5t123.5 23.5q80 0 111 -14v-206q-21 12 -54.5 19.5t-95.5 7.5q-76 0 -140.5 -27.5t-108.5 -66.5v-870h-220z" />
<glyph unicode="s" horiz-adv-x="977" d="M112 65l33 164q19 -13 70 -32.5t119 -34.5t135 -15q98 0 150.5 37t52.5 103q0 63 -59.5 108t-175.5 94q-151 64 -234.5 150t-83.5 217q0 97 54.5 164.5t147.5 101.5t210 34q92 0 173 -20t116 -39l-36 -166q-28 24 -99 43.5t-147 19.5q-105 0 -160.5 -34t-55.5 -93 q0 -50 25.5 -86t72.5 -63t123 -58q146 -59 240 -142.5t94 -214.5q0 -102 -48.5 -173.5t-139 -108.5t-214.5 -37q-111 0 -215.5 25t-147.5 56z" />
<glyph unicode="t" horiz-adv-x="850" d="M80 974v119l36 10q46 13 68 21.5t38.5 24t26.5 42.5q15 38 44 137l22 72h132v-260h322v-166h-322v-577q0 -114 9 -161.5t33.5 -61.5t83.5 -14q43 0 104.5 14t90.5 29l38 -126q-49 -36 -140.5 -64.5t-174.5 -28.5q-125 0 -194 62.5t-69 226.5v701h-148z" />
<glyph unicode="u" horiz-adv-x="1249" d="M170 474v666h220v-665q0 -139 20.5 -204.5t63 -85.5t125.5 -20q60 0 135.5 26t118.5 54v895h220v-1156h-85q-39 0 -62 6t-35.5 25t-12.5 57v28q-78 -47 -179.5 -81.5t-189.5 -34.5q-139 0 -213 59t-100 163.5t-26 267.5z" />
<glyph unicode="v" horiz-adv-x="1113" d="M19 1140h237l226 -649l84 -272l77 272l217 649h234l-438 -1156h-185z" />
<glyph unicode="w" horiz-adv-x="1632" d="M21 1140h220l184 -684l50 -214l46 213l190 685h219l189 -684l49 -218l50 211l178 691h215l-348 -1156h-203l-204 745l-37 182l-40 -182l-201 -745h-209z" />
<glyph unicode="x" horiz-adv-x="1134" d="M47 1140h250l250 -378l25 -42l21 44l251 376h247l-405 -557l414 -583h-255l-250 379l-34 55l-28 -58l-232 -376h-251l401 579z" />
<glyph unicode="y" horiz-adv-x="1116" d="M44 1140h235l252 -768l58 -186l51 186l216 768h237l-384 -1176q-128 -391 -358 -456q-23 -6 -54 -10.5t-54 -4.5q-26 0 -65 4.5t-47 9.5v179q15 -5 45.5 -8t50.5 -3q50 0 105.5 27t107.5 99.5t82 198.5h-65z" />
<glyph unicode="z" horiz-adv-x="1061" d="M82 82l610 890h-550v168h812l35 -95l-550 -801l-59 -84h589v-160h-845z" />
<glyph unicode="{" horiz-adv-x="972" d="M75 706v142q52 5 111.5 24.5t100 47t40.5 55.5v511q0 101 17.5 155.5t60 77.5t120.5 23q63 0 116 -5t127 -15l34 -4v-122h-266v-620q0 -53 -44 -94q-30 -29 -77.5 -52.5t-119.5 -52.5q142 -55 201 -117q40 -43 40 -88v-621h266v-112q-65 -18 -130.5 -26.5t-146.5 -8.5 q-78 0 -120.5 23t-60 77.5t-17.5 155.5v511q0 28 -41 57.5t-100.5 51t-110.5 26.5z" />
<glyph unicode="|" horiz-adv-x="855" d="M326 -188v1968h203v-1968h-203z" />
<glyph unicode="}" horiz-adv-x="972" d="M170 -49h266v621q0 45 40 88q59 62 201 117q-72 29 -119.5 52.5t-77.5 52.5q-44 41 -44 94v620h-266v122l34 4q74 10 127 15t116 5q78 0 120.5 -23t60 -77.5t17.5 -155.5v-511q0 -28 40.5 -55.5t100 -47t111.5 -24.5v-142q-51 -5 -110.5 -26.5t-100.5 -51t-41 -57.5v-511 q0 -101 -17.5 -155.5t-60 -77.5t-120.5 -23q-81 0 -146.5 8.5t-130.5 26.5v112z" />
<glyph unicode="~" horiz-adv-x="1438" d="M216 758q18 46 62.5 95.5t110.5 83t143 33.5q48 0 88 -13t69.5 -32t68.5 -49q47 -38 81 -56t77 -18q66 0 114 30t88 84l103 -99q-21 -55 -63.5 -101t-107.5 -74t-146 -28q-48 0 -87 13t-66.5 31.5t-67.5 49.5q-47 38 -81 56.5t-78 18.5q-65 0 -108.5 -29.5t-84.5 -84.5z " />
<glyph unicode="&#xa1;" horiz-adv-x="602" d="M147 1195q0 47 22.5 86.5t60 62t79.5 22.5q39 0 72.5 -20.5t53.5 -56.5t20 -80q0 -45 -23 -84t-60 -62t-77 -23q-70 0 -109 44.5t-39 110.5zM172 -436l24 1274h196l28 -1274h-248z" />
<glyph unicode="&#xa2;" horiz-adv-x="1183" d="M157 558q0 156 52 283t155.5 208.5t252.5 100.5l6 227h149l-5 -223q77 -6 135.5 -22.5t85.5 -34.5l-35 -174q-46 32 -108 47.5t-148 15.5t-160.5 -44t-120.5 -137.5t-46 -235.5q0 -132 42 -226.5t115 -143.5t164 -49q79 0 154 20.5t118 46.5l45 -125 q-43 -40 -115.5 -67.5t-158.5 -36.5l-3 -204h-150l4 205q-134 17 -231 94.5t-147 200.5t-50 274z" />
<glyph unicode="&#xa3;" horiz-adv-x="1532" d="M146 80q0 73 66.5 122.5t195.5 55.5q17 38 22.5 90t5.5 120v288h-181v152h181v137q0 148 56.5 259.5t163 172.5t253.5 61q115 0 196 -27.5t132 -71.5l-104 -158q-50 43 -106.5 67t-140.5 24q-102 0 -167 -76.5t-64 -280.5l1 -107h352v-152h-351v-35v-77 q0 -185 -15 -282.5t-62 -148.5q42 -7 78.5 -19t42.5 -14q64 -22 113 -32.5t123 -10.5q248 0 248 196q0 36 -12 68.5t-29.5 54.5t-34.5 27l156 80q27 -15 56.5 -50.5t50.5 -86.5t21 -109q0 -172 -109 -254.5t-321 -82.5q-111 0 -193.5 21t-178.5 57q-54 20 -83 28.5t-54 5.5 q-34 -37 -89.5 -65.5t-110.5 -28.5q-23 0 -48.5 10.5t-42.5 29t-17 42.5z" />
<glyph unicode="&#xa4;" horiz-adv-x="1527" d="M199 308l206 207q-40 55 -61.5 121t-21.5 137t21 136.5t61 120.5l-205 205l126 128l210 -212q105 64 229 64t230 -63l214 213l127 -127l-209 -209q39 -55 60 -120t21 -136q0 -141 -81 -255l205 -206l-127 -127l-209 210q-105 -64 -231 -64q-120 0 -227 62l-211 -212z M499 773q0 -75 36 -139t97 -101.5t133 -37.5t132.5 37.5t96 101.5t35.5 139t-35.5 138.5t-96 101t-132.5 37.5t-133 -37.5t-97 -101t-36 -138.5z" />
<glyph unicode="&#xa5;" horiz-adv-x="1532" d="M164 1522h238l304 -525l65 -134l61 141l312 518h233l-457 -712h319v-143h-360v-231h360v-143h-360v-293h-220v293h-385v143h385v231h-385v143h337z" />
<glyph unicode="&#xa6;" horiz-adv-x="855" d="M326 -186v827h203v-827h-203zM326 950v830h203v-830h-203z" />
<glyph unicode="&#xa7;" horiz-adv-x="1358" d="M215 767q0 86 37.5 165.5t101.5 143.5q-61 51 -94.5 113.5t-33.5 142.5q0 125 69.5 201t174.5 108t221 32q128 0 221.5 -21.5t144.5 -51.5l-42 -166q-43 30 -123.5 52.5t-198.5 22.5q-115 0 -191 -37.5t-76 -115.5q0 -60 40.5 -107.5t101.5 -83t165 -85.5 q132 -63 214 -113.5t139.5 -128.5t57.5 -185q0 -78 -30 -151t-83 -136q101 -88 101 -216q0 -124 -73 -201t-184 -109.5t-234 -32.5q-89 0 -172.5 14t-147.5 35t-96 44l42 166q49 -36 150 -65.5t223 -29.5q127 0 210 38t83 121q0 53 -39 94t-97.5 70.5t-160.5 72.5 q-133 55 -217.5 101t-144 120t-59.5 179zM416 803q0 -71 44 -121.5t108.5 -84t177.5 -79.5q11 -5 63 -26.5t95 -42.5q18 44 29.5 88.5t11.5 79.5q0 74 -44 129t-109 93t-177 89q-91 42 -143 70q-24 -49 -40 -101.5t-16 -93.5z" />
<glyph unicode="&#xa8;" horiz-adv-x="863" d="M60 1493q0 40 22.5 74.5t58.5 54.5t74 20q65 0 97.5 -36t32.5 -94q0 -43 -21.5 -77t-57 -53t-75.5 -19q-56 0 -93.5 35.5t-37.5 94.5zM518 1493q0 40 22.5 74.5t58.5 54.5t74 20q64 0 97 -36.5t33 -93.5q0 -43 -21.5 -77t-57 -53t-75.5 -19q-56 0 -93.5 35.5t-37.5 94.5z " />
<glyph unicode="&#xa9;" horiz-adv-x="2129" d="M194 963q0 239 116 440.5t315.5 319t438.5 117.5t439 -117.5t316 -319t116 -440.5q0 -240 -116.5 -442t-316 -320.5t-438.5 -118.5t-438.5 118.5t-315.5 320.5t-116 442zM336 963q0 -205 95 -377.5t261.5 -273.5t371.5 -101t371.5 101t261.5 273.5t95 377.5t-95 377 t-261.5 273t-371.5 101t-371.5 -101t-261.5 -273t-95 -377zM621 956q0 142 57.5 254t169.5 176t269 64q140 0 238 -56l-32 -164q-96 63 -225 63q-89 0 -153 -42t-97 -115.5t-33 -164.5q0 -106 34.5 -181.5t96 -114.5t142.5 -39q72 0 137.5 18t109.5 43l45 -124 q-50 -42 -136 -68t-183 -26q-134 0 -234 66t-153 175.5t-53 235.5z" />
<glyph unicode="&#xaa;" horiz-adv-x="1034" d="M126 925q0 97 47 157t133 94q81 30 178.5 43t193.5 13v64q0 66 -21.5 97.5t-61 41t-110.5 9.5q-42 0 -98.5 -13.5t-106.5 -32.5t-72 -34l-56 121q20 19 82.5 46.5t142.5 47.5t152 20q170 0 258.5 -67.5t88.5 -229.5v-615h-71h-46.5t-54.5 17.5t-15 54.5v14 q-38 -39 -107.5 -67.5t-150.5 -28.5q-91 0 -159.5 29t-107 85t-38.5 134zM320 939q0 -57 41 -86t106 -29q46 0 90 11.5t76 26.5t44 26l1 -1v223q-103 0 -162.5 -5t-107.5 -29q-46 -23 -67 -54t-21 -83z" />
<glyph unicode="&#xab;" horiz-adv-x="1936" d="M245 519v184l643 430l57 -163l-484 -355l484 -352l-57 -159zM976 519v184l643 430l57 -163l-484 -355l484 -352l-57 -159z" />
<glyph unicode="&#xac;" horiz-adv-x="1470" d="M240 688v164h990v-529h-200v365h-790z" />
<glyph unicode="&#xad;" horiz-adv-x="1350" d="M250 683v177h850v-177h-850z" />
<glyph unicode="&#xae;" horiz-adv-x="2129" d="M194 963q0 239 116 440.5t315.5 319t438.5 117.5t439 -117.5t316 -319t116 -440.5q0 -240 -116.5 -442t-316 -320.5t-438.5 -118.5t-438.5 118.5t-315.5 320.5t-116 442zM336 963q0 -205 95 -377.5t261.5 -273.5t371.5 -101t371.5 101t261.5 273.5t95 377.5t-95 377 t-261.5 273t-371.5 101t-371.5 -101t-261.5 -273t-95 -377zM738 479v962h77q33 0 61.5 1t51.5 2q92 4 145 4q122 0 202.5 -36.5t118.5 -98t38 -139.5q0 -116 -45.5 -192.5t-147.5 -107.5q37 -27 63.5 -68.5t62.5 -112.5l27 -54q17 -30 63 -99l40 -61l-204 1q-22 29 -39 59.5 t-40 78.5l-14 31q-26 59 -45.5 95t-48 65.5t-65.5 39.5q-26 -1 -124 -1v-369h-177zM915 980q40 -4 130 -4q104 0 153.5 40.5t49.5 134.5q0 81 -44.5 123t-161.5 42q-44 0 -71 -2t-56 -9v-325z" />
<glyph unicode="&#xaf;" horiz-adv-x="647" d="M50 1425v163h547v-163h-547z" />
<glyph unicode="&#xb0;" horiz-adv-x="912" d="M116 1278q0 97 45 174t123 121t172 44t171.5 -44t123 -121.5t45.5 -173.5q0 -97 -45 -174t-123 -121t-172 -44q-93 0 -171 44t-123.5 121.5t-45.5 173.5zM272 1278q0 -55 24.5 -99.5t67 -70t92.5 -25.5q51 0 93 25.5t67 70t25 99.5t-25 99.5t-67 69.5t-93 25t-93 -25 t-66.5 -69.5t-24.5 -99.5z" />
<glyph unicode="&#xb1;" horiz-adv-x="1393" d="M229 685v177h220l165 -11l-7 172v228h178v-228l-8 -172l141 11h246v-177h-246l-141 7l8 -171v-236h-178v236l7 171l-165 -7h-220zM250 0v165h892v-165h-892z" />
<glyph unicode="&#xb2;" horiz-adv-x="1194" d="M175 1494q33 49 93 92.5t140.5 71.5t170.5 28q121 0 202.5 -43.5t120.5 -112.5t39 -148q0 -154 -108.5 -295.5t-294.5 -261.5l458 5v-165h-748l-43 110q95 50 216.5 141.5t213.5 206t92 221.5q0 92 -50 137.5t-136 45.5q-81 0 -148 -35.5t-127 -106.5z" />
<glyph unicode="&#xb3;" horiz-adv-x="1194" d="M262 1586q42 34 102 58t118 35.5t93 11.5q112 0 187.5 -32t112.5 -85.5t37 -120.5q0 -87 -52 -156t-156 -114q89 -4 151.5 -41t94 -94.5t31.5 -120.5q0 -100 -47.5 -178.5t-147 -124.5t-248.5 -46q-49 0 -97 7.5t-112 20.5l-14 142q61 -12 95.5 -16.5t91.5 -4.5 q139 0 203.5 47t64.5 147q0 79 -59 127t-156 53l-88 -28l-37 128q30 6 75 21.5t80 31.5q126 57 126 166q0 61 -43 93.5t-112 32.5q-50 0 -115.5 -21.5t-116.5 -57.5z" />
<glyph unicode="&#xb4;" horiz-adv-x="594" d="M50 1384l21 23q119 131 187.5 210.5t129.5 165.5l156 -135q-24 -40 -103 -120.5t-162 -150.5t-118 -83z" />
<glyph unicode="&#xb5;" horiz-adv-x="1360" d="M210 -371v1511h219v-741q0 -90 26.5 -143t80 -76t139.5 -23q55 0 112 26t106 62v895h220v-906q0 -44 8 -60t26 -16q33 0 78 27l31 -98q-10 -14 -41.5 -39.5t-77 -45.5t-94.5 -20q-58 0 -91 32.5t-29 105.5q-35 -39 -67 -66.5t-83 -48.5t-118 -21q-99 0 -163.5 23.5 t-108.5 80.5l32 -459h-205z" />
<glyph unicode="&#xb6;" horiz-adv-x="1320" d="M83 1248q0 141 65.5 245t194.5 161t314 57q72 0 261 -11q159 -8 208 -9v-1691h-184v1548h-241v-1548h-184v777q-216 0 -325 113t-109 358z" />
<glyph unicode="&#xb7;" horiz-adv-x="602" d="M147 718q0 46 23 85t60 62.5t78 23.5q70 0 108.5 -45t38.5 -111q0 -47 -22.5 -86t-60 -61.5t-79.5 -22.5q-38 0 -72 20.5t-54 56t-20 78.5z" />
<glyph unicode="&#xb8;" horiz-adv-x="485" d="M47 -436l15 142q22 -14 82 -14q53 0 87.5 36.5t39.5 113.5q5 32 5 69q0 69 -25 119l83 4l43 -4q29 -31 44 -85.5t15 -123.5q0 -16 -2 -50q-10 -119 -77.5 -177t-162.5 -58q-42 0 -86 8t-61 20z" />
<glyph unicode="&#xb9;" horiz-adv-x="1026" d="M222 1496q56 16 127.5 53t134.5 77.5t90 62.5l105 -25v-1001h-211v763q-38 -8 -94 -24q-68 -19 -112 -27z" />
<glyph unicode="&#xba;" horiz-adv-x="1033" d="M111 1142q0 157 62 260t158.5 150t201.5 47q123 0 210.5 -57t133 -160t45.5 -239q0 -160 -57.5 -264.5t-151 -153t-202.5 -48.5q-124 0 -214.5 57t-138 162t-47.5 246zM319 1151q0 -99 24 -172.5t69 -113.5t107 -40q98 0 146.5 72t48.5 232q0 151 -49 237t-140 86 q-95 0 -150.5 -72t-55.5 -229z" />
<glyph unicode="&#xbb;" horiz-adv-x="1936" d="M259 263l484 352l-484 355l57 163l643 -430v-184l-643 -415zM990 263l484 352l-484 355l57 163l643 -430v-184l-643 -415z" />
<glyph unicode="&#xbc;" horiz-adv-x="2479" d="M245 1496q56 16 127.5 53t134.5 77.5t90 62.5l105 -25v-1001h-211v763q-38 -8 -94 -24q-68 -19 -112 -27zM748 0l539 1530h200l-542 -1530h-197zM1321 328l482 811h68l131 -77l-396 -608l-42 -69h308v3l8 249l195 20v-272h194l1 -151h-195v-282h-204l1 282h-499z" />
<glyph unicode="&#xbd;" horiz-adv-x="2479" d="M245 1496q56 16 127.5 53t134.5 77.5t90 62.5l105 -25v-1001h-211v763q-38 -8 -94 -24q-68 -19 -112 -27zM749 0l539 1530h200l-542 -1530h-197zM1462 826q33 49 93 92.5t140.5 71.5t170.5 28q121 0 202.5 -43.5t120.5 -112.5t39 -148q0 -154 -108.5 -295.5 t-294.5 -261.5l458 5v-165h-748l-43 110q95 50 216.5 141.5t213.5 206t92 221.5q0 92 -50 137.5t-136 45.5q-81 0 -148 -35.5t-127 -106.5z" />
<glyph unicode="&#xbe;" horiz-adv-x="2479" d="M115 1586q42 34 102 58t118 35.5t93 11.5q112 0 187.5 -32t112.5 -85.5t37 -120.5q0 -87 -52 -156t-156 -114q89 -4 151.5 -41t94 -94.5t31.5 -120.5q0 -100 -47.5 -178.5t-147 -124.5t-248.5 -46q-49 0 -97 7.5t-112 20.5l-14 142q61 -12 95.5 -16.5t91.5 -4.5 q139 0 203.5 47t64.5 147q0 79 -59 127t-156 53l-88 -28l-37 128q30 6 75 21.5t80 31.5q126 57 126 166q0 61 -43 93.5t-112 32.5q-50 0 -115.5 -21.5t-116.5 -57.5zM748 0l539 1530h200l-542 -1530h-197zM1321 328l482 811h68l131 -77l-396 -608l-42 -69h308v3l8 249 l195 20v-272h194l1 -151h-195v-282h-204l1 282h-499z" />
<glyph unicode="&#xbf;" horiz-adv-x="1047" d="M112 157q0 56 12 113q13 77 53 135t88.5 96.5t123.5 88.5q57 37 89 62t55 55.5t26 67.5q2 28 2 39q0 45 -9.5 86t-30.5 111l-6 19h167q35 -43 60.5 -117.5t28.5 -158.5q2 -55 -29 -102t-76.5 -83t-120.5 -85q-63 -41 -100.5 -69t-66 -62t-35.5 -72q-14 -59 -14 -107 q0 -97 50 -165t143.5 -103.5t221.5 -35.5q113 0 181 17v-160q-19 -14 -83.5 -28t-132.5 -14q-201 0 -335 63.5t-198 170.5t-64 238zM411 1380q0 46 22.5 84t59 60t77.5 22q37 0 70 -20t53 -54.5t20 -76.5q0 -44 -23 -82.5t-59.5 -61t-75.5 -22.5q-68 0 -106 43.5t-38 107.5z " />
<glyph unicode="&#xc0;" horiz-adv-x="1407" d="M21 0l582 1538h215l568 -1538h-241l-129 385h-623l-136 -385h-236zM342 1847l146 133q3 -8 145 -136.5t198 -178.5l-92 -92q-47 17 -127 66t-156.5 107.5t-113.5 100.5zM452 551h508l-205 609l-43 142l-44 -142z" />
<glyph unicode="&#xc1;" horiz-adv-x="1407" d="M21 0l582 1538h215l568 -1538h-241l-129 385h-623l-136 -385h-236zM452 551h508l-205 609l-43 142l-44 -142zM574 1665q56 50 198 178.5t145 136.5l146 -133q-74 -76 -194 -160.5t-202 -113.5z" />
<glyph unicode="&#xc2;" horiz-adv-x="1407" d="M21 0l582 1538h215l568 -1538h-241l-129 385h-623l-136 -385h-236zM344 1689l259 301h197l262 -298l-144 -60l-216 202l-221 -202zM452 551h508l-205 609l-43 142l-44 -142z" />
<glyph unicode="&#xc3;" horiz-adv-x="1407" d="M21 0l582 1538h215l568 -1538h-241l-129 385h-623l-136 -385h-236zM286 1771q23 55 69 100t103 70t110 25q58 0 96 -21t83 -60q35 -30 58.5 -44t53.5 -14q49 0 92 28t83 71l86 -71q-23 -55 -69 -99.5t-102.5 -69.5t-109.5 -25q-58 0 -96.5 21.5t-82.5 61.5 q-34 31 -58.5 46t-55.5 15q-82 0 -175 -102zM452 551h508l-205 609l-43 142l-44 -142z" />
<glyph unicode="&#xc4;" horiz-adv-x="1407" d="M21 0l582 1538h215l568 -1538h-241l-129 385h-623l-136 -385h-236zM306 1800q0 43 22.5 78.5t59.5 56t77 20.5q68 0 103 -37.5t35 -96.5q0 -45 -22 -80t-59 -54.5t-79 -19.5q-57 0 -97 36.5t-40 96.5zM452 551h508l-205 609l-43 142l-44 -142zM802 1800q0 43 23 78.5 t60 56t76 20.5q68 0 103 -37.5t35 -96.5q0 -45 -22 -80t-59 -54.5t-79 -19.5q-57 0 -97 36.5t-40 96.5z" />
<glyph unicode="&#xc5;" horiz-adv-x="1407" d="M21 0l550 1453q-89 27 -139.5 92.5t-50.5 157.5t45.5 152t118 87.5t156.5 27.5q148 0 234.5 -68t86.5 -193q0 -96 -47 -159t-128 -91l539 -1459h-241l-129 385h-623l-136 -385h-236zM452 551h508l-205 609l-43 142l-44 -142zM537 1708q0 -68 45 -107.5t121 -39.5 q77 0 121 34.5t44 110.5q0 68 -48.5 104t-124.5 36q-68 0 -113 -32t-45 -106z" />
<glyph unicode="&#xc6;" horiz-adv-x="1860" d="M-73 0l725 1522h1061v-172h-653v-480h479v-172h-479v-523h726v-175h-949v385h-481l-183 -385h-246zM435 551h402v825h-10z" />
<glyph unicode="&#xc7;" horiz-adv-x="1313" d="M95 753q0 243 96 421t257 271t351 93q128 0 213 -14t156 -35l30 -8l-32 -198q-37 19 -70 32.5t-106 27.5t-176 14q-153 0 -265.5 -72t-172.5 -205t-60 -312q0 -178 60 -316t172.5 -215t264.5 -77q75 0 152 13t136 34.5t86 45.5l1 -189q-62 -24 -101 -37.5t-97.5 -25.5 t-129.5 -16q30 -63 30 -165q0 -15 -2 -49q-10 -119 -77.5 -177t-162.5 -58q-42 0 -86 8t-61 20l15 142q22 -14 82 -14q53 0 87.5 36.5t39.5 113.5q5 32 5 69q0 39 -9 77q-190 18 -331.5 118t-218 266.5t-76.5 380.5z" />
<glyph unicode="&#xc8;" horiz-adv-x="1217" d="M194 0v1522h876v-172h-653v-480h479v-172h-479v-523h726v-175h-949zM320 1847l146 133q3 -8 145 -136.5t198 -178.5l-92 -92q-47 17 -127 66t-156.5 107.5t-113.5 100.5z" />
<glyph unicode="&#xc9;" horiz-adv-x="1217" d="M194 0v1522h876v-172h-653v-480h479v-172h-479v-523h726v-175h-949zM552 1665q56 50 198 178.5t145 136.5l146 -133q-74 -76 -194 -160.5t-202 -113.5z" />
<glyph unicode="&#xca;" horiz-adv-x="1217" d="M194 0v1522h876v-172h-653v-480h479v-172h-479v-523h726v-175h-949zM322 1689l259 301h197l262 -298l-144 -60l-216 202l-221 -202z" />
<glyph unicode="&#xcb;" horiz-adv-x="1217" d="M194 0v1522h876v-172h-653v-480h479v-172h-479v-523h726v-175h-949zM284 1800q0 43 22.5 78.5t59.5 56t77 20.5q68 0 103 -37.5t35 -96.5q0 -45 -22 -80t-59 -54.5t-79 -19.5q-57 0 -97 36.5t-40 96.5zM780 1800q0 43 23 78.5t60 56t76 20.5q68 0 103 -37.5t35 -96.5 q0 -45 -22 -80t-59 -54.5t-79 -19.5q-57 0 -97 36.5t-40 96.5z" />
<glyph unicode="&#xcc;" horiz-adv-x="640" d="M-39 1847l146 133q3 -8 145 -136.5t198 -178.5l-92 -92q-47 17 -127 66t-156.5 107.5t-113.5 100.5zM207 0v1522h226v-1522h-226z" />
<glyph unicode="&#xcd;" horiz-adv-x="640" d="M193 1665q56 50 198 178.5t145 136.5l146 -133q-74 -76 -194 -160.5t-202 -113.5zM207 0v1522h226v-1522h-226z" />
<glyph unicode="&#xce;" horiz-adv-x="640" d="M-37 1689l259 301h197l262 -298l-144 -60l-216 202l-221 -202zM207 0v1522h226v-1522h-226z" />
<glyph unicode="&#xcf;" horiz-adv-x="640" d="M-75 1800q0 43 22.5 78.5t59.5 56t77 20.5q68 0 103 -37.5t35 -96.5q0 -45 -22 -80t-59 -54.5t-79 -19.5q-57 0 -97 36.5t-40 96.5zM207 0v1522h226v-1522h-226zM421 1800q0 43 23 78.5t60 56t76 20.5q68 0 103 -37.5t35 -96.5q0 -45 -22 -80t-59 -54.5t-79 -19.5 q-57 0 -97 36.5t-40 96.5z" />
<glyph unicode="&#xd0;" horiz-adv-x="1472" d="M66 720v149h128v653h112q57 0 157 7q14 1 79.5 5t123.5 4q361 0 541.5 -190t180.5 -544q0 -254 -88 -438.5t-252 -283t-387 -98.5q-46 0 -176 8q-144 8 -206 8h-85v720h-128zM418 168q47 -11 117.5 -15.5t141.5 -3.5q222 5 350.5 156.5t128.5 465.5q0 222 -60 355 t-179 192t-303 59q-118 0 -196 -16v-492h394v-149h-394v-552z" />
<glyph unicode="&#xd1;" horiz-adv-x="1556" d="M193 0v1522h204l651 -1005l124 -225l-14 253v977h205v-1522h-207l-630 967l-140 249l12 -264v-952h-205zM376 1771q23 55 69 100t103 70t110 25q58 0 96 -21t83 -60q35 -30 58.5 -44t53.5 -14q49 0 92 28t83 71l86 -71q-23 -55 -69 -99.5t-102.5 -69.5t-109.5 -25 q-58 0 -96.5 21.5t-82.5 61.5q-34 31 -58.5 46t-55.5 15q-82 0 -175 -102z" />
<glyph unicode="&#xd2;" d="M100 749q0 254 93.5 432t254 267.5t360.5 89.5q197 0 346.5 -93t232 -263.5t82.5 -397.5q0 -257 -91 -437t-250.5 -271.5t-365.5 -91.5q-199 0 -349 98t-231.5 272t-81.5 395zM325 758q0 -162 53 -299.5t157 -220.5t250 -83q139 0 242.5 71t159.5 209.5t56 336.5 q0 163 -51 299t-150.5 216.5t-240.5 80.5q-133 0 -241 -67.5t-171.5 -204.5t-63.5 -338zM448 1847l146 133q3 -8 145 -136.5t198 -178.5l-92 -92q-47 17 -127 66t-156.5 107.5t-113.5 100.5z" />
<glyph unicode="&#xd3;" d="M100 749q0 254 93.5 432t254 267.5t360.5 89.5q197 0 346.5 -93t232 -263.5t82.5 -397.5q0 -257 -91 -437t-250.5 -271.5t-365.5 -91.5q-199 0 -349 98t-231.5 272t-81.5 395zM325 758q0 -162 53 -299.5t157 -220.5t250 -83q139 0 242.5 71t159.5 209.5t56 336.5 q0 163 -51 299t-150.5 216.5t-240.5 80.5q-133 0 -241 -67.5t-171.5 -204.5t-63.5 -338zM680 1665q56 50 198 178.5t145 136.5l146 -133q-74 -76 -194 -160.5t-202 -113.5z" />
<glyph unicode="&#xd4;" d="M100 749q0 254 93.5 432t254 267.5t360.5 89.5q197 0 346.5 -93t232 -263.5t82.5 -397.5q0 -257 -91 -437t-250.5 -271.5t-365.5 -91.5q-199 0 -349 98t-231.5 272t-81.5 395zM325 758q0 -162 53 -299.5t157 -220.5t250 -83q139 0 242.5 71t159.5 209.5t56 336.5 q0 163 -51 299t-150.5 216.5t-240.5 80.5q-133 0 -241 -67.5t-171.5 -204.5t-63.5 -338zM450 1689l259 301h197l262 -298l-144 -60l-216 202l-221 -202z" />
<glyph unicode="&#xd5;" d="M100 749q0 254 93.5 432t254 267.5t360.5 89.5q197 0 346.5 -93t232 -263.5t82.5 -397.5q0 -257 -91 -437t-250.5 -271.5t-365.5 -91.5q-199 0 -349 98t-231.5 272t-81.5 395zM325 758q0 -162 53 -299.5t157 -220.5t250 -83q139 0 242.5 71t159.5 209.5t56 336.5 q0 163 -51 299t-150.5 216.5t-240.5 80.5q-133 0 -241 -67.5t-171.5 -204.5t-63.5 -338zM392 1771q23 55 69 100t103 70t110 25q58 0 96 -21t83 -60q35 -30 58.5 -44t53.5 -14q49 0 92 28t83 71l86 -71q-23 -55 -69 -99.5t-102.5 -69.5t-109.5 -25q-58 0 -96.5 21.5 t-82.5 61.5q-34 31 -58.5 46t-55.5 15q-82 0 -175 -102z" />
<glyph unicode="&#xd6;" d="M100 749q0 254 93.5 432t254 267.5t360.5 89.5q197 0 346.5 -93t232 -263.5t82.5 -397.5q0 -257 -91 -437t-250.5 -271.5t-365.5 -91.5q-199 0 -349 98t-231.5 272t-81.5 395zM325 758q0 -162 53 -299.5t157 -220.5t250 -83q139 0 242.5 71t159.5 209.5t56 336.5 q0 163 -51 299t-150.5 216.5t-240.5 80.5q-133 0 -241 -67.5t-171.5 -204.5t-63.5 -338zM412 1800q0 43 22.5 78.5t59.5 56t77 20.5q68 0 103 -37.5t35 -96.5q0 -45 -22 -80t-59 -54.5t-79 -19.5q-57 0 -97 36.5t-40 96.5zM908 1800q0 43 23 78.5t60 56t76 20.5 q68 0 103 -37.5t35 -96.5q0 -45 -22 -80t-59 -54.5t-79 -19.5q-57 0 -97 36.5t-40 96.5z" />
<glyph unicode="&#xd7;" horiz-adv-x="1370" d="M234 439l338 335l-338 345l130 128l322 -354l322 354l130 -128l-338 -342l338 -338l-130 -128l-322 343l-322 -343z" />
<glyph unicode="&#xd8;" d="M100 751q0 253 93.5 430.5t254 267t360.5 89.5q95 0 177 -21l80 221l125 -36l-83 -230q112 -56 193.5 -154.5t125 -234t43.5 -297.5q0 -259 -91.5 -439.5t-252 -271.5t-366.5 -91q-91 0 -179 24l-75 -208l-125 36l79 219q-112 59 -193 161.5t-123.5 239t-42.5 295.5z M325 758q0 -161 52 -297.5t150 -216.5l398 1105q-56 19 -124 19q-133 0 -241 -67.5t-171.5 -204.5t-63.5 -338zM642 179q65 -24 143 -24q139 0 242.5 71t159.5 209.5t56 336.5q0 165 -52 302t-150 214z" />
<glyph unicode="&#xd9;" horiz-adv-x="1463" d="M159 633v889h223l-1 -836q0 -205 42 -320.5t121.5 -161.5t203.5 -46q110 0 183 46.5t112.5 162.5t39.5 319v836h222v-892q0 -315 -141 -480.5t-423 -165.5q-305 0 -444 165t-138 484zM385 1847l146 133q3 -8 145 -136.5t198 -178.5l-92 -92q-47 17 -127 66t-156.5 107.5 t-113.5 100.5z" />
<glyph unicode="&#xda;" horiz-adv-x="1463" d="M159 633v889h223l-1 -836q0 -205 42 -320.5t121.5 -161.5t203.5 -46q110 0 183 46.5t112.5 162.5t39.5 319v836h222v-892q0 -315 -141 -480.5t-423 -165.5q-305 0 -444 165t-138 484zM617 1665q56 50 198 178.5t145 136.5l146 -133q-74 -76 -194 -160.5t-202 -113.5z" />
<glyph unicode="&#xdb;" horiz-adv-x="1463" d="M159 633v889h223l-1 -836q0 -205 42 -320.5t121.5 -161.5t203.5 -46q110 0 183 46.5t112.5 162.5t39.5 319v836h222v-892q0 -315 -141 -480.5t-423 -165.5q-305 0 -444 165t-138 484zM387 1689l259 301h197l262 -298l-144 -60l-216 202l-221 -202z" />
<glyph unicode="&#xdc;" horiz-adv-x="1463" d="M159 633v889h223l-1 -836q0 -205 42 -320.5t121.5 -161.5t203.5 -46q110 0 183 46.5t112.5 162.5t39.5 319v836h222v-892q0 -315 -141 -480.5t-423 -165.5q-305 0 -444 165t-138 484zM349 1800q0 43 22.5 78.5t59.5 56t77 20.5q68 0 103 -37.5t35 -96.5q0 -45 -22 -80 t-59 -54.5t-79 -19.5q-57 0 -97 36.5t-40 96.5zM845 1800q0 43 23 78.5t60 56t76 20.5q68 0 103 -37.5t35 -96.5q0 -45 -22 -80t-59 -54.5t-79 -19.5q-57 0 -97 36.5t-40 96.5z" />
<glyph unicode="&#xdd;" horiz-adv-x="1264" d="M22 1522h238l338 -660l43 -105l36 105l331 660h234l-493 -928v-594h-226v594zM522 1665q56 50 198 178.5t145 136.5l146 -133q-74 -76 -194 -160.5t-202 -113.5z" />
<glyph unicode="&#xde;" horiz-adv-x="1262" d="M194 0v1522h223v-275l36 3q10 1 72.5 5t124.5 4q532 0 532 -466q0 -161 -66.5 -274.5t-196.5 -173.5t-318 -60q-60 0 -155 5q-20 2 -29 2v-292h-223zM417 456q68 -9 162 -9q114 0 197 27t133.5 102.5t50.5 213.5q0 159 -87.5 234t-267.5 75q-116 0 -188 -17v-626z" />
<glyph unicode="&#xdf;" horiz-adv-x="1268" d="M36 974v129l154 40q28 147 103 245t184 144.5t242 46.5q106 0 192 -32t136 -94.5t50 -149.5q0 -58 -18.5 -105t-45 -82t-68.5 -80q-47 -50 -69.5 -84.5t-22.5 -74.5q0 -43 19.5 -78t49 -63t80.5 -68q68 -54 110.5 -97t73 -107.5t30.5 -150.5q0 -115 -56 -189t-146 -107 t-195 -33q-72 0 -136 9.5t-95 23.5v173q36 -21 96.5 -36.5t142.5 -15.5q70 0 118 36t48 115q0 47 -20 85t-49 67.5t-80 73.5q-62 52 -101 93.5t-66 102t-27 140.5q0 45 14.5 82.5t35.5 66.5t57 71q34 40 54.5 67.5t34 62t13.5 74.5q0 74 -50.5 111t-146.5 37 q-136 0 -212 -108t-76 -367v-948h-220v966v8h-138z" />
<glyph unicode="&#xe0;" horiz-adv-x="1131" d="M94 305q0 108 58.5 187t163.5 122q93 37 210.5 55.5t223.5 18.5v115q0 80 -25.5 120t-76.5 54t-141 14q-48 0 -110.5 -13t-117 -32.5t-80.5 -37.5l-54 144q26 16 94.5 41t156 44.5t168.5 19.5q132 0 220 -30t137 -109.5t49 -223.5v-810h-90q-45 0 -68 6t-36 28t-13 70v8 q-50 -46 -137.5 -79t-182.5 -33q-101 0 -180.5 39t-124 111.5t-44.5 170.5zM181 1648l157 135q97 -125 306 -362l32 -37l-111 -90q-39 18 -119 84.5t-156.5 143.5t-108.5 126zM311 324q0 -176 197 -176q47 0 99 14t91.5 33.5t51.5 33.5v319q-73 0 -164.5 -14t-147.5 -41 q-61 -29 -94 -68t-33 -101z" />
<glyph unicode="&#xe1;" horiz-adv-x="1131" d="M94 305q0 108 58.5 187t163.5 122q93 37 210.5 55.5t223.5 18.5v115q0 80 -25.5 120t-76.5 54t-141 14q-48 0 -110.5 -13t-117 -32.5t-80.5 -37.5l-54 144q26 16 94.5 41t156 44.5t168.5 19.5q132 0 220 -30t137 -109.5t49 -223.5v-810h-90q-45 0 -68 6t-36 28t-13 70v8 q-50 -46 -137.5 -79t-182.5 -33q-101 0 -180.5 39t-124 111.5t-44.5 170.5zM311 324q0 -176 197 -176q47 0 99 14t91.5 33.5t51.5 33.5v319q-73 0 -164.5 -14t-147.5 -41q-61 -29 -94 -68t-33 -101zM436 1384l21 23q119 131 187.5 210.5t129.5 165.5l156 -135 q-24 -40 -103 -120.5t-162 -150.5t-118 -83z" />
<glyph unicode="&#xe2;" horiz-adv-x="1131" d="M94 305q0 108 58.5 187t163.5 122q93 37 210.5 55.5t223.5 18.5v115q0 80 -25.5 120t-76.5 54t-141 14q-48 0 -110.5 -13t-117 -32.5t-80.5 -37.5l-54 144q26 16 94.5 41t156 44.5t168.5 19.5q132 0 220 -30t137 -109.5t49 -223.5v-810h-90q-45 0 -68 6t-36 28t-13 70v8 q-50 -46 -137.5 -79t-182.5 -33q-101 0 -180.5 39t-124 111.5t-44.5 170.5zM192 1349l276 333h198l268 -332l-135 -56l-232 222l-249 -223zM311 324q0 -176 197 -176q47 0 99 14t91.5 33.5t51.5 33.5v319q-73 0 -164.5 -14t-147.5 -41q-61 -29 -94 -68t-33 -101z" />
<glyph unicode="&#xe3;" horiz-adv-x="1131" d="M94 305q0 108 58.5 187t163.5 122q93 37 210.5 55.5t223.5 18.5v115q0 80 -25.5 120t-76.5 54t-141 14q-48 0 -110.5 -13t-117 -32.5t-80.5 -37.5l-54 144q26 16 94.5 41t156 44.5t168.5 19.5q132 0 220 -30t137 -109.5t49 -223.5v-810h-90q-45 0 -68 6t-36 28t-13 70v8 q-50 -46 -137.5 -79t-182.5 -33q-101 0 -180.5 39t-124 111.5t-44.5 170.5zM147 1453q23 52 64 96.5t94.5 71.5t111.5 27q59 0 98.5 -20.5t84.5 -59.5q34 -29 57.5 -43t54.5 -14q60 0 100.5 26t82.5 72l86 -72q-41 -85 -112 -139t-158 -54q-64 0 -103.5 21.5t-83.5 60.5 q-33 29 -55.5 42.5t-53.5 13.5q-54 0 -98.5 -27.5t-84.5 -69.5zM311 324q0 -176 197 -176q47 0 99 14t91.5 33.5t51.5 33.5v319q-73 0 -164.5 -14t-147.5 -41q-61 -29 -94 -68t-33 -101z" />
<glyph unicode="&#xe4;" horiz-adv-x="1131" d="M94 305q0 108 58.5 187t163.5 122q93 37 210.5 55.5t223.5 18.5v115q0 80 -25.5 120t-76.5 54t-141 14q-48 0 -110.5 -13t-117 -32.5t-80.5 -37.5l-54 144q26 16 94.5 41t156 44.5t168.5 19.5q132 0 220 -30t137 -109.5t49 -223.5v-810h-90q-45 0 -68 6t-36 28t-13 70v8 q-50 -46 -137.5 -79t-182.5 -33q-101 0 -180.5 39t-124 111.5t-44.5 170.5zM195 1493q0 40 22.5 74.5t58.5 54.5t74 20q65 0 97.5 -36t32.5 -94q0 -43 -21.5 -77t-57 -53t-75.5 -19q-56 0 -93.5 35.5t-37.5 94.5zM311 324q0 -176 197 -176q47 0 99 14t91.5 33.5t51.5 33.5 v319q-73 0 -164.5 -14t-147.5 -41q-61 -29 -94 -68t-33 -101zM653 1493q0 40 22.5 74.5t58.5 54.5t74 20q64 0 97 -36.5t33 -93.5q0 -43 -21.5 -77t-57 -53t-75.5 -19q-56 0 -93.5 35.5t-37.5 94.5z" />
<glyph unicode="&#xe5;" horiz-adv-x="1131" d="M94 305q0 108 58.5 187t163.5 122q93 37 210.5 55.5t223.5 18.5v115q0 80 -25.5 120t-76.5 54t-141 14q-48 0 -110.5 -13t-117 -32.5t-80.5 -37.5l-54 144q26 16 94.5 41t156 44.5t168.5 19.5q132 0 220 -30t137 -109.5t49 -223.5v-810h-90q-45 0 -68 6t-36 28t-13 70v8 q-50 -46 -137.5 -79t-182.5 -33q-101 0 -180.5 39t-124 111.5t-44.5 170.5zM246 1601q0 93 45.5 154t118 89.5t156.5 28.5q148 0 234.5 -69.5t86.5 -195.5q0 -92 -43.5 -155t-117 -94t-163.5 -31q-94 0 -166 33.5t-111.5 95.5t-39.5 144zM311 324q0 -176 197 -176 q47 0 99 14t91.5 33.5t51.5 33.5v319q-73 0 -164.5 -14t-147.5 -41q-61 -29 -94 -68t-33 -101zM402 1607q0 -68 45 -110.5t120 -42.5q77 0 121.5 37t44.5 114q0 68 -48.5 106t-123.5 38q-67 0 -113 -34t-46 -108z" />
<glyph unicode="&#xe6;" horiz-adv-x="1780" d="M94 305q0 107 60 186t162 123q176 74 435 74v115q0 80 -24 120t-70.5 54t-129.5 14q-72 0 -174 -28.5t-149 -57.5l-54 147q27 16 99 41t162 44.5t170 19.5q127 0 207 -31.5t120 -111.5q66 68 158 105t207 37q113 0 204.5 -49.5t146.5 -146.5t59 -234q0 -81 -2 -125.5 t-9 -78.5h-702q1 -7 1 -20q9 -194 100 -272.5t245 -78.5q61 0 155 19t134 42l42 -126q-55 -44 -168 -73t-220 -29q-267 0 -397 178q-77 -90 -182.5 -134t-230.5 -44q-101 0 -182 39t-127 111.5t-46 170.5zM315 324q0 -88 45.5 -132t143.5 -44q82 0 169 37.5t127 93.5 q-43 117 -46 271l-1 -2q-89 0 -173 -13.5t-142 -41.5q-60 -29 -91.5 -68t-31.5 -101zM976 668h501q2 32 2 47q0 127 -51.5 206t-176.5 79q-111 0 -184 -78.5t-91 -253.5z" />
<glyph unicode="&#xe7;" horiz-adv-x="1002" d="M97 558q0 171 62.5 306.5t186.5 213.5t302 78q97 0 172 -18.5t108 -40.5l-35 -174q-46 32 -108 47.5t-148 15.5t-160.5 -44t-120.5 -137.5t-46 -235.5q0 -132 42 -226.5t115 -143.5t164 -49q79 0 154 20.5t118 46.5l45 -125q-46 -43 -126.5 -71.5t-174.5 -34.5 q30 -65 30 -166q0 -15 -2 -49q-10 -119 -77.5 -177t-162.5 -58q-42 0 -86 8t-61 20l15 142q22 -14 82 -14q53 0 87.5 36.5t39.5 113.5q5 43 5 70q0 44 -10 79q-129 21 -221.5 99t-140.5 199t-48 269z" />
<glyph unicode="&#xe8;" horiz-adv-x="1123" d="M97 572q0 168 58.5 299t173 206.5t277.5 78.5q115 2 209 -47t150.5 -147t60.5 -236q0 -81 -2 -125.5t-9 -78.5h-703q1 -7 1 -20q17 -352 348 -352q60 0 152 19t132 43l42 -126q-55 -45 -167 -73.5t-218 -28.5q-161 0 -274 69.5t-172 201.5t-59 317zM212 1648l157 135 q97 -125 306 -362l32 -37l-111 -90q-39 18 -119 84.5t-156.5 143.5t-108.5 126zM318 668h502q2 32 2 47q0 127 -51.5 206t-176.5 79q-111 0 -184.5 -78.5t-91.5 -253.5z" />
<glyph unicode="&#xe9;" horiz-adv-x="1123" d="M97 572q0 168 58.5 299t173 206.5t277.5 78.5q115 2 209 -47t150.5 -147t60.5 -236q0 -81 -2 -125.5t-9 -78.5h-703q1 -7 1 -20q17 -352 348 -352q60 0 152 19t132 43l42 -126q-55 -45 -167 -73.5t-218 -28.5q-161 0 -274 69.5t-172 201.5t-59 317zM318 668h502 q2 32 2 47q0 127 -51.5 206t-176.5 79q-111 0 -184.5 -78.5t-91.5 -253.5zM467 1384l21 23q119 131 187.5 210.5t129.5 165.5l156 -135q-24 -40 -103 -120.5t-162 -150.5t-118 -83z" />
<glyph unicode="&#xea;" horiz-adv-x="1123" d="M97 572q0 168 58.5 299t173 206.5t277.5 78.5q115 2 209 -47t150.5 -147t60.5 -236q0 -81 -2 -125.5t-9 -78.5h-703q1 -7 1 -20q17 -352 348 -352q60 0 152 19t132 43l42 -126q-55 -45 -167 -73.5t-218 -28.5q-161 0 -274 69.5t-172 201.5t-59 317zM223 1349l276 333h198 l268 -332l-135 -56l-232 222l-249 -223zM318 668h502q2 32 2 47q0 127 -51.5 206t-176.5 79q-111 0 -184.5 -78.5t-91.5 -253.5z" />
<glyph unicode="&#xeb;" horiz-adv-x="1123" d="M97 572q0 168 58.5 299t173 206.5t277.5 78.5q115 2 209 -47t150.5 -147t60.5 -236q0 -81 -2 -125.5t-9 -78.5h-703q1 -7 1 -20q17 -352 348 -352q60 0 152 19t132 43l42 -126q-55 -45 -167 -73.5t-218 -28.5q-161 0 -274 69.5t-172 201.5t-59 317zM226 1493 q0 40 22.5 74.5t58.5 54.5t74 20q65 0 97.5 -36t32.5 -94q0 -43 -21.5 -77t-57 -53t-75.5 -19q-56 0 -93.5 35.5t-37.5 94.5zM318 668h502q2 32 2 47q0 127 -51.5 206t-176.5 79q-111 0 -184.5 -78.5t-91.5 -253.5zM684 1493q0 40 22.5 74.5t58.5 54.5t74 20q64 0 97 -36.5 t33 -93.5q0 -43 -21.5 -77t-57 -53t-75.5 -19q-56 0 -93.5 35.5t-37.5 94.5z" />
<glyph unicode="&#xec;" horiz-adv-x="606" d="M-82 1648l157 135q97 -125 306 -362l32 -37l-111 -90q-39 18 -119 84.5t-156.5 143.5t-108.5 126zM193 0v1138h220v-1138h-220z" />
<glyph unicode="&#xed;" horiz-adv-x="606" d="M173 1384l21 23q119 131 187.5 210.5t129.5 165.5l156 -135q-24 -40 -103 -120.5t-162 -150.5t-118 -83zM193 0v1138h220v-1138h-220z" />
<glyph unicode="&#xee;" horiz-adv-x="606" d="M-71 1349l276 333h198l268 -332l-135 -56l-232 222l-249 -223zM193 0v1138h220v-1138h-220z" />
<glyph unicode="&#xef;" horiz-adv-x="606" d="M-56 1493q0 40 22.5 74.5t58.5 54.5t74 20q65 0 97.5 -36t32.5 -94q0 -43 -21.5 -77t-57 -53t-75.5 -19q-56 0 -93.5 35.5t-37.5 94.5zM193 0v1138h220v-1138h-220zM378 1493q0 40 22.5 74.5t58.5 54.5t74 20q64 0 97 -36.5t33 -93.5q0 -43 -21.5 -77t-57 -53t-75.5 -19 q-56 0 -93.5 35.5t-37.5 94.5z" />
<glyph unicode="&#xf0;" horiz-adv-x="1190" d="M95 553q0 184 63.5 320t178.5 208.5t267 72.5q65 0 119.5 -19.5t96.5 -54.5q-39 109 -108 203.5t-159 171.5l-134 -149l-115 90l133 143q-108 70 -215 107l52 125q144 -45 268 -118q36 39 78.5 90.5t55.5 67.5l117 -90q-12 -14 -53 -61t-79 -86l13 -10 q213 -165 326.5 -410.5t113.5 -545.5q0 -209 -63.5 -351.5t-179 -213t-272.5 -70.5q-153 0 -267 71t-175.5 202t-61.5 307zM313 561q0 -128 34 -226.5t102.5 -154.5t166.5 -56q84 0 147 53t97.5 150.5t34.5 226.5l1 138q0 90 -6 157q-7 34 -39 66t-92 53.5t-144 21.5 q-149 0 -225.5 -116.5t-76.5 -312.5z" />
<glyph unicode="&#xf1;" horiz-adv-x="1279" d="M176 0v1138h196l1 -120q78 53 193.5 96t220.5 43q118 0 188 -44t102 -141t32 -262v-710h-220v711q0 96 -15 152.5t-55 84.5t-116 28q-18 0 -27 -1q-60 -2 -137.5 -30.5t-142.5 -75.5v-869h-220zM291 1453q23 52 64 96.5t94.5 71.5t111.5 27q59 0 98.5 -20.5t84.5 -59.5 q34 -29 57.5 -43t54.5 -14q60 0 100.5 26t82.5 72l86 -72q-41 -85 -112 -139t-158 -54q-64 0 -103.5 21.5t-83.5 60.5q-33 29 -55.5 42.5t-53.5 13.5q-54 0 -98.5 -27.5t-84.5 -69.5z" />
<glyph unicode="&#xf2;" horiz-adv-x="1213" d="M96 580q0 183 67 312.5t185 196.5t268 67q173 0 285 -80t164 -214t52 -302q0 -183 -67 -313t-185 -196.5t-269 -66.5q-172 0 -284 80t-164 214t-52 302zM231 1648l157 135q97 -125 306 -362l32 -37l-111 -90q-39 18 -119 84.5t-156.5 143.5t-108.5 126zM319 591 q0 -127 32 -229.5t97 -162t161 -59.5q139 0 212 109t73 307q0 128 -31.5 227.5t-96.5 157t-163 57.5q-139 0 -211.5 -105.5t-72.5 -301.5z" />
<glyph unicode="&#xf3;" horiz-adv-x="1213" d="M96 580q0 183 67 312.5t185 196.5t268 67q173 0 285 -80t164 -214t52 -302q0 -183 -67 -313t-185 -196.5t-269 -66.5q-172 0 -284 80t-164 214t-52 302zM319 591q0 -127 32 -229.5t97 -162t161 -59.5q139 0 212 109t73 307q0 128 -31.5 227.5t-96.5 157t-163 57.5 q-139 0 -211.5 -105.5t-72.5 -301.5zM486 1384l21 23q119 131 187.5 210.5t129.5 165.5l156 -135q-24 -40 -103 -120.5t-162 -150.5t-118 -83z" />
<glyph unicode="&#xf4;" horiz-adv-x="1213" d="M96 580q0 183 67 312.5t185 196.5t268 67q173 0 285 -80t164 -214t52 -302q0 -183 -67 -313t-185 -196.5t-269 -66.5q-172 0 -284 80t-164 214t-52 302zM242 1349l276 333h198l268 -332l-135 -56l-232 222l-249 -223zM319 591q0 -127 32 -229.5t97 -162t161 -59.5 q139 0 212 109t73 307q0 128 -31.5 227.5t-96.5 157t-163 57.5q-139 0 -211.5 -105.5t-72.5 -301.5z" />
<glyph unicode="&#xf5;" horiz-adv-x="1213" d="M96 580q0 183 67 312.5t185 196.5t268 67q173 0 285 -80t164 -214t52 -302q0 -183 -67 -313t-185 -196.5t-269 -66.5q-172 0 -284 80t-164 214t-52 302zM197 1453q23 52 64 96.5t94.5 71.5t111.5 27q59 0 98.5 -20.5t84.5 -59.5q34 -29 57.5 -43t54.5 -14q60 0 100.5 26 t82.5 72l86 -72q-41 -85 -112 -139t-158 -54q-64 0 -103.5 21.5t-83.5 60.5q-33 29 -55.5 42.5t-53.5 13.5q-54 0 -98.5 -27.5t-84.5 -69.5zM319 591q0 -127 32 -229.5t97 -162t161 -59.5q139 0 212 109t73 307q0 128 -31.5 227.5t-96.5 157t-163 57.5q-139 0 -211.5 -105.5 t-72.5 -301.5z" />
<glyph unicode="&#xf6;" horiz-adv-x="1213" d="M96 580q0 183 67 312.5t185 196.5t268 67q173 0 285 -80t164 -214t52 -302q0 -183 -67 -313t-185 -196.5t-269 -66.5q-172 0 -284 80t-164 214t-52 302zM245 1493q0 40 22.5 74.5t58.5 54.5t74 20q65 0 97.5 -36t32.5 -94q0 -43 -21.5 -77t-57 -53t-75.5 -19 q-56 0 -93.5 35.5t-37.5 94.5zM319 591q0 -127 32 -229.5t97 -162t161 -59.5q139 0 212 109t73 307q0 128 -31.5 227.5t-96.5 157t-163 57.5q-139 0 -211.5 -105.5t-72.5 -301.5zM703 1493q0 40 22.5 74.5t58.5 54.5t74 20q64 0 97 -36.5t33 -93.5q0 -43 -21.5 -77t-57 -53 t-75.5 -19q-56 0 -93.5 35.5t-37.5 94.5z" />
<glyph unicode="&#xf7;" horiz-adv-x="1393" d="M229 688v170h935v-170h-935zM550 363q0 44 23.5 81t61.5 58.5t79 21.5q68 0 105 -39t37 -100q0 -46 -23 -82.5t-61 -57t-81 -20.5q-38 0 -70.5 17t-51.5 48.5t-19 72.5zM551 1168q0 44 23.5 81t61.5 58.5t79 21.5q68 0 105 -39.5t37 -100.5q0 -46 -23 -82.5t-61 -57 t-81 -20.5q-38 0 -70.5 17t-51.5 49t-19 73z" />
<glyph unicode="&#xf8;" horiz-adv-x="1213" d="M96 580q0 183 67 312.5t185 196.5t268 67q60 0 117 -11l67 197l125 -36l-69 -203q132 -68 196.5 -212.5t64.5 -330.5q0 -183 -67 -313t-185 -196.5t-269 -66.5q-59 0 -116 11l-66 -195l-125 36l68 201q-132 68 -196.5 212.5t-64.5 330.5zM319 591q0 -115 26 -209.5 t77 -154.5l258 761q-33 10 -77 10q-139 0 -211.5 -105.5t-72.5 -301.5zM533 151q32 -11 76 -11q139 0 212 109t73 307q0 115 -25.5 208t-76.5 151z" />
<glyph unicode="&#xf9;" horiz-adv-x="1249" d="M170 474v666h220v-665q0 -139 20.5 -204.5t63 -85.5t125.5 -20q60 0 135.5 26t118.5 54v895h220v-1156h-85q-39 0 -62 6t-35.5 25t-12.5 57v28q-78 -47 -179.5 -81.5t-189.5 -34.5q-139 0 -213 59t-100 163.5t-26 267.5zM249 1648l157 135q97 -125 306 -362l32 -37 l-111 -90q-39 18 -119 84.5t-156.5 143.5t-108.5 126z" />
<glyph unicode="&#xfa;" horiz-adv-x="1249" d="M170 474v666h220v-665q0 -139 20.5 -204.5t63 -85.5t125.5 -20q60 0 135.5 26t118.5 54v895h220v-1156h-85q-39 0 -62 6t-35.5 25t-12.5 57v28q-78 -47 -179.5 -81.5t-189.5 -34.5q-139 0 -213 59t-100 163.5t-26 267.5zM504 1384l21 23q119 131 187.5 210.5t129.5 165.5 l156 -135q-24 -40 -103 -120.5t-162 -150.5t-118 -83z" />
<glyph unicode="&#xfb;" horiz-adv-x="1249" d="M170 474v666h220v-665q0 -139 20.5 -204.5t63 -85.5t125.5 -20q60 0 135.5 26t118.5 54v895h220v-1156h-85q-39 0 -62 6t-35.5 25t-12.5 57v28q-78 -47 -179.5 -81.5t-189.5 -34.5q-139 0 -213 59t-100 163.5t-26 267.5zM260 1349l276 333h198l268 -332l-135 -56 l-232 222l-249 -223z" />
<glyph unicode="&#xfc;" horiz-adv-x="1249" d="M170 474v666h220v-665q0 -139 20.5 -204.5t63 -85.5t125.5 -20q60 0 135.5 26t118.5 54v895h220v-1156h-85q-39 0 -62 6t-35.5 25t-12.5 57v28q-78 -47 -179.5 -81.5t-189.5 -34.5q-139 0 -213 59t-100 163.5t-26 267.5zM263 1493q0 40 22.5 74.5t58.5 54.5t74 20 q65 0 97.5 -36t32.5 -94q0 -43 -21.5 -77t-57 -53t-75.5 -19q-56 0 -93.5 35.5t-37.5 94.5zM721 1493q0 40 22.5 74.5t58.5 54.5t74 20q64 0 97 -36.5t33 -93.5q0 -43 -21.5 -77t-57 -53t-75.5 -19q-56 0 -93.5 35.5t-37.5 94.5z" />
<glyph unicode="&#xfd;" horiz-adv-x="1116" d="M44 1140h235l252 -768l58 -186l51 186l216 768h237l-384 -1176q-128 -391 -358 -456q-23 -6 -54 -10.5t-54 -4.5q-26 0 -65 4.5t-47 9.5v179q15 -5 45.5 -8t50.5 -3q50 0 105.5 27t107.5 99.5t82 198.5h-65zM460 1384l21 23q119 131 187.5 210.5t129.5 165.5l156 -135 q-24 -40 -103 -120.5t-162 -150.5t-118 -83z" />
<glyph unicode="&#xfe;" horiz-adv-x="1238" d="M166 -507v2168h220v-472l-8 -159q53 54 126.5 90t186.5 36q124 0 226 -60.5t163 -183t61 -300.5q0 -183 -71.5 -326.5t-202.5 -223.5t-301 -80q-88 0 -193 20l13 -171v-338h-220zM386 184q57 -40 205 -40q94 0 168 52t116 153t42 244q0 197 -73.5 293.5t-213.5 96.5 q-73 0 -134.5 -27.5t-109.5 -65.5v-706z" />
<glyph unicode="&#xff;" horiz-adv-x="1116" d="M44 1140h235l252 -768l58 -186l51 186l216 768h237l-384 -1176q-128 -391 -358 -456q-23 -6 -54 -10.5t-54 -4.5q-26 0 -65 4.5t-47 9.5v179q15 -5 45.5 -8t50.5 -3q50 0 105.5 27t107.5 99.5t82 198.5h-65zM219 1493q0 40 22.5 74.5t58.5 54.5t74 20q65 0 97.5 -36 t32.5 -94q0 -43 -21.5 -77t-57 -53t-75.5 -19q-56 0 -93.5 35.5t-37.5 94.5zM677 1493q0 40 22.5 74.5t58.5 54.5t74 20q64 0 97 -36.5t33 -93.5q0 -43 -21.5 -77t-57 -53t-75.5 -19q-56 0 -93.5 35.5t-37.5 94.5z" />
<glyph unicode="&#x152;" horiz-adv-x="2063" d="M100 769q5 245 94.5 415t246 258.5t364.5 95.5q58 2 119.5 -7t115.5 -33v24h876v-172h-653v-480h479v-172h-479v-523h726v-175h-949v51q-59 -33 -126 -50t-154 -17q-202 0 -353 101.5t-231 280.5t-76 403zM324 758q0 -164 53 -302.5t157.5 -221t249.5 -82.5q154 0 256 80 v1077q-92 60 -240 60q-130 0 -238 -66.5t-173 -203.5t-65 -341z" />
<glyph unicode="&#x153;" horiz-adv-x="1920" d="M96 580q0 183 67 312.5t185 196.5t268 67q135 0 232 -50.5t158 -141.5q66 92 169 142t237 50q114 0 205.5 -49.5t146.5 -146.5t59 -234q0 -76 -2 -122.5t-9 -81.5h-703q1 -7 1 -20q17 -351 345 -351q62 0 155.5 18.5t133.5 42.5l42 -126q-55 -44 -168 -73t-219 -29 q-134 0 -235.5 48.5t-165.5 142.5q-68 -94 -173 -142.5t-232 -48.5q-171 0 -282.5 80t-163 214t-51.5 302zM319 591q0 -127 31.5 -229t96 -162t159.5 -60q140 0 214.5 109t74.5 307q0 127 -32 227t-97.5 157.5t-162.5 57.5q-138 0 -211 -105.5t-73 -301.5zM1115 668h501 q2 32 2 47q0 127 -51.5 206t-176.5 79q-111 0 -184 -78.5t-91 -253.5z" />
<glyph unicode="&#x178;" horiz-adv-x="1264" d="M22 1522h238l338 -660l43 -105l36 105l331 660h234l-493 -928v-594h-226v594zM254 1800q0 43 22.5 78.5t59.5 56t77 20.5q68 0 103 -37.5t35 -96.5q0 -45 -22 -80t-59 -54.5t-79 -19.5q-57 0 -97 36.5t-40 96.5zM750 1800q0 43 23 78.5t60 56t76 20.5q68 0 103 -37.5 t35 -96.5q0 -45 -22 -80t-59 -54.5t-79 -19.5q-57 0 -97 36.5t-40 96.5z" />
<glyph unicode="&#x2c6;" horiz-adv-x="836" d="M47 1349l276 333h198l268 -332l-135 -56l-232 222l-249 -223z" />
<glyph unicode="&#x2dc;" horiz-adv-x="927" d="M47 1453q23 52 64 96.5t94.5 71.5t111.5 27q59 0 98.5 -20.5t84.5 -59.5q34 -29 57.5 -43t54.5 -14q60 0 100.5 26t82.5 72l86 -72q-41 -85 -112 -139t-158 -54q-64 0 -103.5 21.5t-83.5 60.5q-33 29 -55.5 42.5t-53.5 13.5q-54 0 -98.5 -27.5t-84.5 -69.5z" />
<glyph unicode="&#x2000;" horiz-adv-x="995" />
<glyph unicode="&#x2001;" horiz-adv-x="1990" />
<glyph unicode="&#x2002;" horiz-adv-x="995" />
<glyph unicode="&#x2003;" horiz-adv-x="1990" />
<glyph unicode="&#x2004;" horiz-adv-x="663" />
<glyph unicode="&#x2005;" horiz-adv-x="497" />
<glyph unicode="&#x2006;" horiz-adv-x="331" />
<glyph unicode="&#x2007;" horiz-adv-x="331" />
<glyph unicode="&#x2008;" horiz-adv-x="248" />
<glyph unicode="&#x2009;" horiz-adv-x="398" />
<glyph unicode="&#x200a;" horiz-adv-x="110" />
<glyph unicode="&#x2010;" horiz-adv-x="1350" d="M250 683v177h850v-177h-850z" />
<glyph unicode="&#x2011;" horiz-adv-x="1350" d="M250 683v177h850v-177h-850z" />
<glyph unicode="&#x2012;" horiz-adv-x="1350" d="M250 683v177h850v-177h-850z" />
<glyph unicode="&#x2013;" horiz-adv-x="1692" d="M240 683v177h1212v-177h-1212z" />
<glyph unicode="&#x2014;" horiz-adv-x="2343" d="M240 683v177h1863v-177h-1863z" />
<glyph unicode="&#x2018;" horiz-adv-x="520" d="M98 1326q0 95 33.5 178.5t81.5 141.5t92 87l96 -61v-32q-43 -36 -70 -116.5t-27 -155.5q0 -49 17 -95t43 -79t53 -45v-62l-113 -127q-60 22 -107 73.5t-73 127t-26 165.5z" />
<glyph unicode="&#x2019;" horiz-adv-x="520" d="M111 1555v61l143 117q72 -35 114 -115t42 -210q0 -116 -30.5 -207.5t-73 -151t-83.5 -89.5l-96 61v32q34 36 55.5 116t21.5 156q0 52 -14 100t-35.5 82.5t-43.5 47.5z" />
<glyph unicode="&#x201a;" horiz-adv-x="520" d="M111 52v61l143 117q72 -35 114 -115t42 -210q0 -116 -30.5 -207.5t-73 -151t-83.5 -89.5l-96 61v32q34 36 55.5 116t21.5 156q0 52 -14 100t-35.5 82.5t-43.5 47.5z" />
<glyph unicode="&#x201c;" horiz-adv-x="1029" d="M98 1326q0 95 33.5 178.5t81.5 141.5t92 87l96 -61v-32q-43 -36 -70 -116.5t-27 -155.5q0 -49 17 -95t43 -79t53 -45v-62l-113 -127q-60 22 -107 73.5t-73 127t-26 165.5zM614 1326q0 95 33.5 178.5t81.5 141.5t92 87l96 -61v-32q-43 -36 -70 -116.5t-27 -155.5 q0 -49 17 -95t43 -79t53 -45v-62l-113 -127q-60 22 -107 73.5t-73 127t-26 165.5z" />
<glyph unicode="&#x201d;" horiz-adv-x="1029" d="M111 1555v61l143 117q72 -35 114 -115t42 -210q0 -116 -30.5 -207.5t-73 -151t-83.5 -89.5l-96 61v32q34 36 55.5 116t21.5 156q0 52 -14 100t-35.5 82.5t-43.5 47.5zM627 1555v61l143 117q72 -35 114 -115t42 -210q0 -116 -30.5 -207.5t-73 -151t-83.5 -89.5l-96 61v32 q34 36 55.5 116t21.5 156q0 52 -14 100t-35.5 82.5t-43.5 47.5z" />
<glyph unicode="&#x201e;" horiz-adv-x="1029" d="M111 78v61l143 117q72 -35 114 -115t42 -210q0 -116 -30.5 -207.5t-73 -151t-83.5 -89.5l-96 61v32q34 36 55.5 116t21.5 156q0 52 -14 100t-35.5 82.5t-43.5 47.5zM624 78v61l143 117q72 -35 114 -115t42 -210q0 -116 -30.5 -207.5t-73 -151t-83.5 -89.5l-96 61v32 q34 36 55.5 116t21.5 156q0 52 -14 100t-35.5 82.5t-43.5 47.5z" />
<glyph unicode="&#x2022;" horiz-adv-x="855" d="M207 712q0 65 31.5 120t85 87.5t114.5 32.5q57 0 105.5 -28t76.5 -76t28 -107q0 -65 -31.5 -120.5t-84.5 -88.5t-114 -33q-57 0 -105.5 29t-77 78t-28.5 106z" />
<glyph unicode="&#x2026;" horiz-adv-x="2047" d="M187 133q0 46 23 85t60 62.5t78 23.5q70 0 108.5 -45t38.5 -111q0 -47 -22.5 -86t-60 -61.5t-79.5 -22.5q-38 0 -72 20.5t-54 56t-20 78.5zM870 135q0 45 23 84t60 62t77 23q70 0 108.5 -45t38.5 -111q0 -47 -22.5 -86t-60 -61.5t-79.5 -22.5q-38 0 -71.5 20.5 t-53.5 56.5t-20 80zM1552 135q0 45 23 84t60 62t78 23q70 0 108.5 -44.5t38.5 -110.5q0 -47 -22.5 -86.5t-60 -62t-79.5 -22.5q-38 0 -72 20.5t-54 56.5t-20 80z" />
<glyph unicode="&#x202f;" horiz-adv-x="398" />
<glyph unicode="&#x2039;" horiz-adv-x="1204" d="M245 519v184l643 430l57 -163l-484 -355l484 -352l-57 -159z" />
<glyph unicode="&#x203a;" horiz-adv-x="1204" d="M259 263l484 352l-484 355l57 163l643 -430v-184l-643 -415z" />
<glyph unicode="&#x205f;" horiz-adv-x="497" />
<glyph unicode="&#x20ac;" horiz-adv-x="1505" d="M114 511v143h194q-2 44 -2 66q0 89 10 163h-170v143h197q63 238 225 370.5t399 141.5q16 1 45 1q89 0 146.5 -11.5t120.5 -32.5q36 -12 60 -18l-53 -174q-66 36 -133.5 52t-193.5 16q-143 0 -244 -88.5t-143 -256.5h529v-143h-552q-4 -43 -4 -99q0 -74 4 -130h518v-143 h-502q32 -180 124 -279.5t266 -99.5q105 0 202 26.5t154 66.5l60 -165q-23 -4 -48.5 -13.5t-30.5 -11.5q-49 -19 -90.5 -31.5t-111 -22t-164.5 -9.5q-167 0 -292 65.5t-203 186.5t-108 287h-209z" />
<glyph unicode="&#x2122;" horiz-adv-x="2218" d="M177 1543h689v-153l-256 1v-624h-184v624l-248 -1zM1008 767l41 776h293l144 -405l38 -141l30 141l129 405h276l74 -776h-177l-39 536l-6 126l-44 -134l-183 -535h-118l-209 535l-51 135l-3 -127l-25 -536h-170z" />
<glyph unicode="&#x25fc;" horiz-adv-x="1140" d="M0 0v1140h1140v-1140h-1140z" />
<glyph unicode="&#xfb03;" horiz-adv-x="2228" d="M75 974v122l173 44v99q0 160 61.5 259t155.5 141.5t196 42.5q42 0 82 -7t60 -15v-174q-32 11 -69.5 15.5t-102.5 4.5q-74 0 -118.5 -56t-44.5 -161v-149h282v-166h-282v-974h-220v974h-173zM886 974v122l173 44v99q0 160 61.5 259t155.5 141.5t196 42.5q42 0 82 -7 t60 -15v-174q-32 11 -69.5 15.5t-102.5 4.5q-74 0 -118.5 -56t-44.5 -161v-149h282v-166h-282v-974h-220v974h-173zM1773 1482q0 42 23.5 78t61.5 57t77 21q68 0 104.5 -38t36.5 -97q0 -44 -23 -80t-60 -56t-79 -20q-38 0 -70 16.5t-51.5 47.5t-19.5 71zM1815 0v1138h220 v-1138h-220z" />
<glyph unicode="&#xfb04;" horiz-adv-x="2235" d="M75 974v122l173 44v99q0 160 61.5 259t155.5 141.5t196 42.5q42 0 82 -7t60 -15v-174q-32 11 -69.5 15.5t-102.5 4.5q-74 0 -118.5 -56t-44.5 -161v-149h282v-166h-282v-974h-220v974h-173zM886 974v122l173 44v99q0 160 61.5 259t155.5 141.5t196 42.5q42 0 82 -7 t60 -15v-174q-32 11 -69.5 15.5t-102.5 4.5q-74 0 -118.5 -56t-44.5 -161v-149h282v-166h-282v-974h-220v974h-173zM1819 0v1664h220v-1664h-220z" />
</font>
</defs>
</svg>
